<svg width="336" height="579" fill="none" xmlns="http://www.w3.org/2000/svg"><circle cx="150" cy="96" r="5" fill="#fff"/><circle cx="219.5" cy="94.5" r="4.5" fill="#fff"/><path d="M181.572.004c-1.112-.09-1.448 1.25-1.3.895l-.506-.122c-2.264-.55-3.191-.73-4.863-.707-.557.008-1.195.036-2.008.075-2.736.133-4.45.396-7.738 1.184-6.028 1.445-10.236 3.096-15.809 6.2-1.439.803-4.359 2.265-6.402 3.204-5.512 2.534-12.034 5.836-15.059 7.634-16.824 9.674-11.5 17.567-33.33.955C90.28 16.11 84.6 13.21 79.49 11.631l-3.933-1.216-1.142-.353a.966.966 0 00-.868.153l-1.395 1.057c-1.987 1.504-5.048 4.724-6.346 6.697-2.204 3.35-4.514 8.713-5.444 12.634-.778 3.278-.825 11.198-.113 14.642.855 4.14 2.24 7.23 4.983 11.157 2.827 4.047 5.583 6.457 9.91 8.665l1.402.714-.191.475c-.935 2.325-1.742 5.643-2.154 8.771-.207 1.57-.59 3.707-.811 4.59-.218.867-.319 2.24-.402 4.054-.084 1.814-.125 4.001-.124 6.21.003 4.42.136 8.802.522 10.74 1.3 6.51 3.772 14.35 7.252 23.035 2.578 6.433 3.988 9.142 7.304 14.029 6.611 9.745 10.424 13.782 18.177 19.235a359.147 359.147 0 016.728 4.888c5.746 4.29 11.498 7.601 18.49 10.645 1.79.779 5.391 2.435 7.961 3.661 5.755 2.746 9.631 4.318 16.004 6.49 37.043 8.442 17.536 10.784 48.305 3.77 2.47-.563 5.162-1.274 6.265-1.69.832-.313 3.322-1.073 5.365-1.624 10.098-2.725 9.959-2.684 15.148-5.396 6.08-3.178 9.922-5.964 13.685-9.947 4-4.233 5.943-7.04 9.147-13.206 3.372-6.488 5.903-13.736 7.428-21.254.935-4.612 1.648-10.094 2.031-14.991.383-4.896.46-9.138.019-11.548-.129-.705-.536-3.297-.889-5.667-1.119-7.526-2.69-13.004-5.188-17.997-1.166-2.33-3.746-6.317-5.455-8.436l-.361-.447 1.783-2.115c6.205-7.36 10.744-16.374 12.843-25.519.569-2.479 1.424-9.025 1.78-13.442l.192-2.38a.967.967 0 00-.092-.496l-.951-1.986c-.341-.713-.638-1.26-.942-1.69-.303-.43-.601-.804-1.173-.976.278.084.058.02-.105-.105a12.286 12.286 0 01-.653-.547 37.447 37.447 0 01-1.841-1.766c-2.681-2.742-5.379-4.719-7.773-5.541-6.003-2.064-11.628-2.562-15.657-1.17-3.243 1.12-7.28 3.283-9.676 5.206-1.197.961-3.511 3.117-5.275 4.9l-2.402 2.428-.078-.098c-.493-.614-1.752-1.977-2.925-3.19-6.719-10.615-18.529-19.766-31.343-23.275-1.081-.26-2.377-.575-3.715-.899.094-.233.154-.516.07-.74-.116-.312-.28-.415-.381-.484a1.1 1.1 0 00-.236-.125c-.257-.104-.468-.156-.679-.156h.001zM82.243 20.628c2.447.01 2.678.04 4.206.664 3.347 1.365 5.566 3.196 8.265 6.88.808 1.101 1.928 2.518 2.572 3.244.865.974 3.301 5.607 3.712 7.156.254.96.276.683-.155 1.64-.213.47-1.344 2.114-2.66 3.76-1.318 1.645-2.866 3.413-4.035 4.562-1.923 1.889-5.53 4.407-8.416 5.854-2.941 1.473-4.964 1.29-7.916-.758-2.028-1.407-4.636-4.716-5.978-7.711-2.38-5.314-3.422-11.57-2.7-15.079.657-3.195 3.593-7.1 6.452-8.591 2.676-1.395 3.656-1.634 6.654-1.621h-.001zm160.887 3.83c2.776-.136 5.584.643 8.239 2.393 2.06 1.358 3.329 2.8 4.328 4.897 2.249 4.718 1.159 10.99-3.313 17.315-.961 1.359-2.327 3.002-3.546 4.32-.609.66-1.184 1.24-1.643 1.66-.459.418-.935.68-.775.625-.481.168-.586.191-.707.183-.122-.007-.441-.093-1.131-.337-1.046-.37-3.218-2.475-6.672-7.27-3.805-5.281-5.962-8.45-7.017-10.542-1.054-2.092-1.059-2.92-.691-4.197-.017.058.225-.447.586-.967a30.29 30.29 0 011.369-1.795c1.045-1.281 2.294-2.618 2.886-3.085 2.55-2.011 5.311-3.064 8.087-3.2zM219.517 89.18c2.599.374 4.911 4.206 4.131 3.319 3.156 3.983-1.546 7.5 1.817 9.581-2.823 2.509-5.213 2.17-6.946 1.505-1.739-2.732-2.848-13.157-3.179-9.899 2.585-4.223-1.903-4.515 4.177-4.506zm-67.895 1.245c3.494 1.037 4.441 11.91 4.722 8.537-.225 2.945-1.613 5.392-2.681 5.899-1.011.481-2.602.514-3.028.32-1.11-.504-2.488-2.547-3.198-4.973-.71-2.425-.792-5.173-.118-6.79.644-1.541 1.528-2.393 2.683-2.758a5.21 5.21 0 011.02-.228 2.88 2.88 0 01.599-.007h.001zm55.926 21.836c2.296-.04 4.536.139 6.843.532 5.814.992 9.468 2.503 10.467 3.686 1.217 1.44 1.726 2.884 1.73 5.003.004 2.24-.148 2.934-1.385 6.448a185.494 185.494 0 00-1.546 4.601c-.801 2.52-2.714 6.214-4.13 8.019-2.358 3.005-6.617 5.997-9.409 6.744-2.017.54-5.178.293-8.317-.785-3.142-1.078-9.209-4.76-12.139-7.405-1.357-1.225-4.87-6.066-6.187-8.66-1.15-2.266-1.562-4.331-1.344-6.078.217-1.746 1.034-3.204 2.535-4.384 2.247-1.768 8.376-5.048 10.383-5.627 4.683-1.35 8.672-2.027 12.499-2.094zM76.94 134.768c-5.84 3.674-3.822 3.209-7.099 6.081-11.976 12.082-19.888 21.336-29.383 34.37-12.294 16.877-16.648 25.216-21.546 41.285-4.053 13.293-6.326 23.968-7.254 34.111-.6 6.563-.205 23.647.753 33.842.843 8.959 2.486 14.292 9.803 31.847 5.593 13.419 10.143 21.06 18.053 30.3 6.58 7.686 11.499 12.04 19.507 17.263 3.908 2.55 5.871 3.512 14.799 7.241 10.884 4.546 15.887 6.131 22.328 7.055 3.974.57 11.307 1.222 17.319 1.544 2.263.121 7.413.18 11.547.135 7.534-.081 10.933-.348 18.074-1.418 1.786-.267 5.623-.67 8.428-.881 11.464-.862 18.664-2.11 30.178-5.232 5.335-1.447 11.682-3.446 17.848-5.551-1.874.875-3.553 1.645-5.432 2.541a479.513 479.513 0 00-4.375 2.108 98.31 98.31 0 00-1.378.685c-.17.087-.307.158-.415.217a3.73 3.73 0 00-.148.084c-.021.013-.08.067-.102.078-.328.018-.445.091-.628.165-.206.085-.423.19-.637.313a2.569 2.569 0 00-.56.396c-.094.089-.291.093-.351.681-.03.294.206.786.471.947.264.161.428.148.54.148.447 0 .525-.094.731-.178.206-.085.423-.19.637-.312.172-.099.306-.199.451-.319.019-.005.071.002.088 0 .328-.063.522-.155.989-.342.936-.375 2.679-1.122 5.88-2.498 3.615-1.555 7.773-3.341 9.236-3.968 2.297-.984 4.099-2.117 5.729-3.618.042-.038.094-.076.183-.219a.877.877 0 00.139-.373c.02-.132-.016-.32-.084-.501.221-.086.471-.174.688-.259l.084.065c.001 0 .211.08.299.092a.91.91 0 00.366-.019c.319-.078.309-.134.353-.166.044-.031.068-.052.091-.072.046-.041.083-.076.125-.117.169-.165.412-.423.733-.773 1.772-1.939 5.439-7.106 6.666-9.397 1.886-3.52 2.282-4.982 2.093-7.64-.246-3.459-.669-4.714-2.692-7.94-3.748-4.551-5.874-10.892-6.792-15.152-.035-.122-.064-.17-.086-.21-.044-.082-.07-.114-.096-.15-.205-.282-.487-.578-1.022-1.149-2.204-2.354-2.696-3.066-3.071-4.315-.081-.267-.062-.371-.082-.551.137.126.239.18.411.413.63.85 1.939 1.939 3.242 2.877 2.883 2.077 4.287 3.198 8.332 6.656 4.486 3.836 6.146 5.096 10.649 8.084 4.162 2.763 7.145 4.314 11.155 5.796 4.22 1.559 5.587 1.821 9.52 1.83l3.552.009a.98.98 0 00.335-.059l2.918-1.071c1.813-.666 2.941-.973 3.605-.999.663-.025.892.091 1.446.582.718.636 2.221 1.574 3.66 2.374 2.59 1.438 5.672 3.447 8.301 5.352 2.63 1.904 4.857 3.787 5.554 4.651-.96 3.896 3.139 5.539 2.739.569l-.177-1.859c-.531-5.575-3.415-11.755-7.902-17.151-.602-.723-1.07-1.242-1.497-1.62a3.011 3.011 0 00-.844-.538c10.837-9.943 1.837-14.231 21.702 5.915.107.107.25.239.539.308.29.069.752-.05.977-.276.226-.226.307-.527.314-.736a1.202 1.202 0 00-.085-.485 1.643 1.643 0 00-.403-.606v-1.061c-1.861-9.169-18.293-24.052-6.006-20.014 15.565 9.133 18.017 5.074 3.482-9.76-4.312-4.345-8.204-6.967-12.342-8.219-.875-.265-1.373-.423-1.907-.458-.524-.035-1.035.168-1.388.373-.044-.088-.075-.142-.126-.249-.23-.49-.52-1.163-.803-1.879-1.193-3.019-2.902-6.176-5.241-9.705-2.071-3.125-8.039-9.088-11.476-11.523-1.929-1.366-5.823-3.754-9.48-5.892a192.898 192.898 0 00-5.007-2.842c-1.416-.77-2.339-1.277-3.038-1.488-.101-.03-.654-.272-1.252-.589a32.762 32.762 0 01-1.94-1.124c-5.227-3.283-13.663-6.456-23.744-8.996a38.743 38.743 0 00-6.447-1.06c-1.978-.146-3.597-.127-4.778.308-.589.217-3.012 1.142-5.442 2.076a72.621 72.621 0 01-3.173 1.145l-.076.023c.142-.205.274-.402.481-.658 1.824-2.257 5.149-4.609 8.221-5.775 4.933-1.872 9.133-2.503 15.365-2.288 5.137.176 8.857.851 13.096 2.366 6.893 2.463 9.441 4.045 23.039 14.254 7.684 5.769 9.793 7.202 14.689 9.985 8.969 5.096 16.547 7.883 22.088 7.91 4.003.02 6.149-.834 9.833-3.91 3.307-2.763 5.165-5.452 6.554-9.488 1.377-3.999 1.756-10.774.917-15.449-1.3-7.246-3.747-13.079-9.089-21.747-3.506-5.688-5.682-8.391-11.381-14.135-4.092-4.125-6.313-6.113-10.116-9.058-8.056-6.238-10.862-7.903-17.999-10.686-5.084-1.983-6.481-2.186-16.455-2.256-9.872-.069-13.53.149-17.606 1.071-1.465.332-4.09.793-5.727 1.007-1.71.223-4.565.672-6.402 1.007-7.409 1.348-12.212 1.936-19.805 2.425-5.377.346-14.399.157-18.59-.377-25.4-3.236-27.057-3.544-35.937-6.861-3.185-1.19-18.616-8.982-21.372-10.788-17.526-14.783-16.506-16.686-27.306-27.785a117.4 117.4 0 00-4.722-4.572c-1.127-1.026-2.778-2.798-3.533-3.78a532.23 532.23 0 00-4.262-5.419c-.757-.95-1.48-1.864-2.033-2.568-.553-.705-.986-1.272-.995-1.285-.132-.188-.446-.441-.787-.49l-.001-.006zm131.78 79.441c5.483-.009 6.39.045 8.874.549 4.009.814 8.946 2.47 14.717 4.957 8.667 3.734 11.85 5.576 19.861 11.49 6.416 4.736 10.334 7.342 19.719 13.113 2.992 1.84 6.121 3.834 6.749 4.282.604.432.822.651.831.646-.005.046-.009.097-.037.252a4.177 4.177 0 01-.153.624c.036-.03-.361.055-1.322-.019-3.963-.306-6.253-.702-13.062-2.259-10.305-2.356-10.294-2.348-17.067-5.612-5.008-2.413-6.867-3.511-8.253-4.791l-1.129-1.043a.968.968 0 00-.371-.212 1.916 1.916 0 00-.137-.153 4.34 4.34 0 00-.4-.352c-.104-.081-.183-.143-.266-.203-.042-.029-.078-.057-.165-.104-.044-.023-.093-.055-.232-.091l-.008-.013a1.954 1.954 0 00-.106-.128 9.695 9.695 0 00-.24-.249c-.186-.186-.431-.42-.701-.669l-.951-.875c-.911-.834-2.2.457-1.367 1.368l.874.953c.324.352.511.537.709.724a67.52 67.52 0 00-5.969-2.338 179.684 179.684 0 01-5.593-2.003c-10.151-3.876-24.132-4.445-35.741-1.498-36.906.54-21.105 10.262-45.213 31.286-2.289 1.985-4.983 4.06-7.3 5.558-6.768 4.376-12.25 6.702-20.006 8.493-3.586.827-3.61.829-7.244.258-1.521-.239-2.295-.411-2.661-.532.198-.152.63-.412 1.427-.817 17.917-9.114 18.241-9.304 24.767-14.063 2.669-1.946 4.084-2.98 6.9-5.988 2.816-3.009 7.068-8.005 15.624-18.051 3.459-4.061 7.324-7.77 10.189-9.813 6.686-4.769 21.604-10.102 33.869-11.986 3.95-.606 5.129-.683 10.584-.691zm-29.554 13.51c-2.232 1.389-2.195 4.003 1.07 1.647-.385-.929 1.712-2.34-1.07-1.647zm99.314 68.3c.005 0 .03.015.036.016-.008.002-.026.012-.033.014-.03.007-.044-.026-.003-.03zm13.573 20.108c-2.85.194 2.471-.589 1.273 1.679-.142-1.56-.619-1.599-1.273-1.679zm6.747 2.485c-2.296.937-1.13 2.754.491 2.039 1.186-1.046.065-2.64-.491-2.039zM276.638 351.1c-2.329.508 2.762-.022 1.718 2.063 2.482-.76-7.312-4.392-1.718-2.063zM34.011 361.22c-2.536.862 1.735 6.212 1.148 4.852 2.57 3.822 5.978 10.049 10.489 19.196 5.176 10.496 6.2 12.818 8.069 18.302 4.24 12.45 9.125 33.514 13.11 56.632.93 5.387 2.93 16.589 4.448 24.906a4579.85 4579.85 0 014.052 22.477c.356 2.027.693 3.914.948 5.32a248.528 248.528 0 00.415 2.224c.026.129.021.15.07.314-.035-.12-.009-.034 0 .018l.044.231a744.844 744.844 0 01.676 3.862c.432 2.508 1.012 5.917 1.636 9.618 1.249 7.406 3.183 18.838 4.297 25.405a2468.11 2468.11 0 012.817 16.885c.218 1.365.431 2.656.6 3.64.084.491.157.906.214 1.217.058.312.067.424.14.667.058.196.222.435.39.564.17.13.32.184.456.225.272.082.535.111.945.144.818.066 2.194.107 4.68.137 4.972.059 14.351.064 32.108.064h37.52a.966.966 0 00.934-.717l.267-.994c.573-2.13 1.511-8.384 1.798-11.75.642-7.518 2.583-16.31 4.146-19.461 1.726-3.479 6.814-7.264 11.761-8.531 2.063-.529 7.936-.681 10.369-.236 3.323.607 6.78 3.057 8.043 5.551.354.7.648 1.548.785 2.159.054.244.065.395.072.509-.033.044-.069.043-.097.1a1.01 1.01 0 00-.077.547c-.307-.023-.644.124-.793.273-.314.315-.275.463-.298.584a2.081 2.081 0 00-.036.325c-.009.214-.026.386.1.699.062.156.171.443.608.604.437.161.913-.082 1.076-.245.325-.326.342-.615.352-.851.006-.153-.042-.297-.077-.443.086.029.163.068.265.098.248.073.076-.081.251.22.174.301.478 1.047.978 2.403 1.091 2.959 2.704 10.137 4.802 21.63.294 1.609.575 3.122.791 4.264.108.571.2 1.05.27 1.404.07.354.091.495.15.707.054.195.244.508.471.668.226.161.431.217.64.262.417.091.923.125 1.802.155 1.758.06 4.952.067 10.938.067 3.52 0 6.721-.012 9.044-.031 1.161-.01 2.103-.021 2.759-.034.328-.006.584-.013.769-.02.092-.004.164-.007.233-.013.035-.003.065-.004.126-.014.03-.005.062-.007.155-.037.046-.015.106-.029.23-.109.062-.04.241-.22.241-.221l.204-.595c0 .149-.005.112-.006.114l.013-.078.057-.322a1077.663 1077.663 0 01.921-4.932c1.448-7.655 1.493-7.954 2.042-13.249.709-6.844 2.181-26.551 2.803-37.518.147-2.579.378-6.239.512-8.115.582-8.123 1.054-20.623 1.103-29.152.075-13.294-.2-19.02-1.635-34.012-1.178-12.305-2.259-19.528-3.842-25.559-.839-3.199-3.037-8.869-5.397-14.336-2.359-5.467-4.815-10.62-6.353-12.881l-.944-1.386a.965.965 0 00-.744-.422l-1.634-.094c-7.173-.414-11.132.114-22.98 3.061-3.897.969-9.381 2.265-12.151 2.872-2.823.619-9.911 2.32-15.804 3.793-11.758 2.937-12.747 3.137-20.133 4.05-7.854.972-13.963 1.245-24.094 1.076-8.931-.149-13.585-.494-17.848-1.31-11.251-2.151-26.045-6.573-34.805-10.39-8.312-3.621-17.532-9.41-22.736-14.234-.927-.859-2.76-2.792-3.968-4.195a629.67 629.67 0 00-5.191-5.922c-3.515-3.956-5.352-6.217-7.78-9.577-.506-.702-.982-1.353-1.343-1.841a65.572 65.572 0 00-.591-.785c-.04-.051.004-.03-.168-.188-.056-.05-.079-.113-.336-.218a1.003 1.003 0 00-.295-.077h.002zm164.956 188.797c-1.903-.006 2.323 1.356.171 2.668 1.075-1.686 1.338-2.319-.171-2.668zm-3.625 6.099c-1.02-.048-1.883 1.634-1.72 1.326-.052 0-.056-.025-.118-.019-.323.03-.671.312-.783.525-.112.214-.113.348-.116.445-.013.39.064.466.132.643.06.157.116.288.195.427.039.07.063.133.2.272.068.07.148.198.488.277.17.04.434.034.654-.075a.991.991 0 00.427-.411c-.049.09-.025.042-.006.015l.083-.119c.071-.1.167-.233.266-.368.087-.118.153-.21.212-.299.03-.045.058-.086.096-.158.019-.036.042-.078.069-.157.004-.01 0-.049.006-.059.124-.12.264-.23.383-.382.082-.104.143-.183.202-.267.03-.042.058-.078.105-.165.023-.044.055-.093.091-.232.017-.069.041-.163.028-.323a1.011 1.011 0 00-.282-.614 1.01 1.01 0 00-.612-.282z" fill="#8E623A"/><path d="M182.815.817c-1.887.05.276-.964.518.127a4.886 4.886 0 00-.518-.127zm-11.212.045c-1.112 1.061 1.132-.144 1.703.029-1.396-.114-.421-.148-1.703-.029zm13.514.214c-1.53.096.083-.94.331.124-.097-.097-.214-.119-.331-.124zm-16.81.009c-2.648.294.914-.2-2.759.346-7.777 1.17-14.665 3.306-22.358 6.937-2.63 1.241-7.307 3.81-11.68 6.34-4.372 2.53-8.421 5.01-9.834 6.114a175.652 175.652 0 00-3.699 2.974c-.508.421-.929.779-1.215 1.033a8.215 8.215 0 00-.326.3c-.036.038-.063.065-.088.1-.013.018-.031.027-.044.094-.002.006.009.023.008.032a.388.388 0 01-.022.045 4.95 4.95 0 01-.21.327c-.194.283-.484.678-.821 1.112a75.552 75.552 0 00-2.596 3.626l-1.355 2.027c-.122.181.111.389.276.247l1.627-1.392c.896-.767 2.677-2.308 3.96-3.427 5.339-4.653 7.502-6.289 11.312-8.554 2.929-1.742 9.471-5.058 14.951-7.577 2.077-.954 4.986-2.411 6.483-3.246 5.345-2.98 9.177-4.506 15.09-6.003 1.721-.436 2.815-.734 3.318-.915.126-.045.212-.078.284-.123.036-.023.085-.03.117-.143a.234.234 0 00-.041-.187.204.204 0 00-.095-.064c-.101-.036-.166-.027-.283-.023zm18.586.245c-1.53.096.083-.94.331.124-.097-.097-.214-.119-.331-.124zm1.522.254c-1.53.096.083-.94.331.124-.097-.097-.214-.119-.331-.124zM69.488 11.066c-3.83 1.9-5.884 3.387-8.557 6.196-4.323 4.543-7.296 10.35-9.146 17.84-1.544 6.253-1.421 13.083.367 20.86 1.25 5.431 2.568 8.11 5.943 12.078.916 1.077 2.683 2.706 4.395 4.14a47.962 47.962 0 002.413 1.906c.676.494 1.213.84 1.592 1 .003.019.007.037.01.075.007.102.006.259-.005.451-.023.385-.082.913-.174 1.483-.895 5.582-1.195 10.31-1.047 16.487.248 10.383 1.682 19.465 4.337 27.447l.796 2.392-1.322 1.49c-.752.847-5.112 5.452-9.663 10.202-14.697 15.341-14.368 14.969-22.704 25.674-7.004 8.995-9.756 13.305-15.265 23.909a703.104 703.104 0 01-3.842 7.273c-2.548 4.741-7.913 16.015-9.31 19.575-3.23 8.221-6.01 19.126-6.41 25.178-.078 1.178-.424 4.955-.768 8.377C.19 254.433.001 257.796 0 265.188c-.002 9.862.726 17 2.415 23.672 1.167 4.612 3.939 13.535 5.362 17.257.786 2.056 2.482 6.073 3.775 8.941a728.481 728.481 0 014.3 9.752c1.977 4.599 8.503 17.904 10.31 21.015.539.926 1.723 2.718 2.645 4.004a27.27 27.27 0 011.172 1.765c.15.25.27.467.352.632.081.165.114.309.114.28 0 .086.005.157.016.221.012.064.014.137.115.206.05.035.13.045.183.031a.253.253 0 00.109-.061.671.671 0 00.126-.158c.016-.026.02-.022.01-.018-.011.004-.016-.003.017.009.066.026.233.145.48.389.492.49 1.33 1.47 2.765 3.192 2.453 2.944 6.447 6.739 9.724 9.24 6.947 5.302 8.134 6.174 10.384 7.631 9.626 6.231 17.257 9.669 28.227 12.718 8.984 2.497 14.176 3.399 21.212 3.683 4.769.193 5.373.183 13.844-.237 2.86-.142 7.598-.374 10.528-.517 10.66-.521 19.551-1.418 26.537-2.679.618-.112 1.907-.468 3.519-.956a165.652 165.652 0 005.388-1.742c11.643-3.984 17.866-6.456 25.517-10.136 3.59-1.727 6.105-2.923 10.528-5.01a931.707 931.707 0 015.663-2.63c2.168-.999 3.868-1.831 5.094-2.495 1.225-.663 1.965-1.132 2.271-1.509a3.32 3.32 0 00.186-.242.514.514 0 00.056-.104.209.209 0 00-.016-.207.215.215 0 00-.197-.095.46.46 0 00-.117.021 3.03 3.03 0 00-.278.103c-7.768 3.14-21.153 7.594-30.18 10.042-11.473 3.111-18.544 4.338-29.963 5.196-2.835.213-6.657.612-8.512.89-11.852 1.776-22.866 1.954-38.571.621-12.078-1.024-16.442-2.164-30.081-7.862-8.919-3.725-10.74-4.615-14.613-7.141-7.944-5.182-12.724-9.412-19.26-17.047-7.849-9.167-12.297-16.635-17.865-29.993-7.309-17.534-8.885-22.645-9.719-31.509-.95-10.101-1.332-27.298-.753-33.628.919-10.045 3.171-20.634 7.208-33.877 4.876-15.995 9.11-24.106 21.375-40.943 9.468-12.996 17.322-22.182 29.27-34.235 2.694-2.718 4.23-4.244 5.115-5.034.442-.394.728-.605.883-.68.078-.037.117-.037.118-.037.003 0-.009-.01.006.011.1.141.477.626 1.032 1.334.556.707 1.28 1.622 2.038 2.574a539.912 539.912 0 014.249 5.404c.835 1.087 2.474 2.841 3.668 3.93 1.176 1.072 3.702 3.542 5.601 5.478 7.252 7.39 19.982 15.936 30.285 20.335 4.081 1.743 16.261 6.378 19.424 7.391 13.338 4.271 22.57 6.14 34.041 6.89 5.535.362 8.16.263 12.601-.478a69.75 69.75 0 013.92-.53c1-.097 2.365-.414 3.1-.728l1.268-.543c.186-.078.132-.355-.07-.359l-7.484-.141c-7.51-.141-10.386-.341-18.375-1.282-6.09-.718-10.807-1.778-16.409-3.687-6.348-2.163-10.152-3.706-15.88-6.439-2.583-1.232-6.179-2.886-7.997-3.678-6.924-3.014-12.582-6.271-18.26-10.511a351.507 351.507 0 00-6.754-4.907c-7.681-5.403-11.306-9.241-17.886-18.939-3.291-4.851-4.621-7.407-7.187-13.81-3.462-8.637-5.913-16.422-7.192-22.831-.323-1.621-.498-6.123-.5-10.513 0-2.196.04-4.37.123-6.157.083-1.788.212-3.203.369-3.825.25-.997.623-3.108.835-4.722.4-3.037 1.204-6.31 2.08-8.49l.523-1.297a.187.187 0 00-.089-.237l-2.19-1.117c-4.208-2.146-6.737-4.358-9.49-8.298-4.144-5.932-5.22-9.593-5.206-17.742.01-5.61.303-7.402 1.877-11.485 1.953-5.063 3.874-8.284 6.723-11.28 13.822-5.79 14.66-10.793-.09-4.17l-.004-.002zm170.198-.026c-11.266.042-16.906 4.4-23.23 11.426l-1.501 1.671a.188.188 0 00.007.258l1.773 1.759c.97.961 2.248 2.354 2.821 3.07l1.061 1.33c.07.086.199.093.278.015l3.431-3.424c1.884-1.879 4.235-4.057 5.192-4.816 2.011-1.593 6.158-3.786 9.078-4.795 3.621-1.25 9.064-.838 14.906 1.17 2.078.715 4.783 2.635 7.225 5.156a35.426 35.426 0 001.873 1.798c.572.508 1.025.876 1.312 1.018l.85.421c.164.081.335-.098.246-.258l-.724-1.302c-1.134-2.04-4.051-5.273-6.6-7.337-5.675-4.594-11.34-6.85-17.998-7.16zM116.318 25.376c0 .016.008.032.014.05-.003-.009-.014-.022-.015-.029-.003-.018 0-.013.003-.021h-.002zm.048.119c.274.13.027.002 0 0zm102.747 65.513c-1.531.095.082-.94.33.124a.463.463 0 00-.33-.124zm-67.863 1.62c-.712.152 1.131 1.505.486 1.009.762.67.562 1.03 1.104.551-.3-.628-2.176-1.94-1.59-1.56zm-2.895.38c-1.033-.216-.344 2.7-.805 1.12.412.063.322-1.433.805-1.12zm73.682.853a.235.235 0 00-.181.06c-.072.072-.073.124-.085.183a1.273 1.273 0 00-.021.206c-.006.149 0 .267.044.376a.252.252 0 00.154.162c.098.036.205-.016.254-.064.097-.097.119-.215.124-.331a.888.888 0 00-.062-.358c-.025-.061-.044-.109-.094-.162a.223.223 0 00-.133-.072zm-74.466 3.212c-.634.367.841-.296.927.738-.653-.673-.564-.646-.927-.739zm55.383 127.678c-3.008-.025-6.15.074-8.33.307-5.309.568-11.984 2.103-14.831 3.431-.702.327-2.332 1.226-3.653 2.013a537.069 537.069 0 01-5.584 3.261c-4.932 2.84-9.677 7.027-14.61 12.883a60.819 60.819 0 00-2.924 3.752 21.99 21.99 0 00-.939 1.409c-.113.19-.203.353-.267.491-.063.138-.108.237-.108.362 0-.081.007-.039-.009-.009a1.763 1.763 0 01-.081.134c-.074.114-.184.27-.32.456-.274.371-.653.858-1.07 1.369-.733.898-1.167 1.473-1.384 1.901-.109.213-.166.396-.16.571.007.175.089.33.204.445.143.143.34.229.55.21.21-.019.422-.122.666-.296.49-.35 1.126-1.007 2.059-2.069 5.612-6.389 14-13.559 20.26-17.324 4.342-2.612 10.13-4.968 15.651-6.37 11.357-2.884 25.192-2.305 35.044 1.458 1.469.561 4.002 1.467 5.636 2.018 3.537 1.191 6.505 2.439 8.993 3.78.511.275.975.493 1.32.627.173.066.313.112.429.133a.422.422 0 00.178.005.233.233 0 00.12-.06.236.236 0 00.068-.159c0-.195-.105-.337-.252-.534a7.326 7.326 0 00-.608-.694 29.733 29.733 0 00-2.017-1.854c-1.602-1.363-3.581-2.864-5.119-3.803-6.458-3.942-12.132-5.905-21.391-7.405-1.647-.266-4.514-.413-7.522-.438l.001-.001zm79.994 85.467c.156 2.198 4.369 3.11 3.169 3.491 2.436 2.034 8.08 4.956 11.103 5.747 2.107.552 3.918.64 5.026.355.555-.143.964-.385 1.089-.777a.87.87 0 00-.057-.629c-.096-.213-.263-.428-.501-.652-1.474-1.388-3.66-2.307-11.478-4.878a794.053 794.053 0 00-5.76-1.871c-.751-.24-1.369-.434-1.808-.569a26.778 26.778 0 00-.671-.198.725.725 0 00-.051-.012c-.015-.003-.021-.007-.061-.007zm-74.281 3.299c-2.064.57 1.36 5.845.469 4.743.704.904 1.822 2.096 3.75 4.088 7.424 7.667 9.896 9.808 16.156 13.991 4.51 3.015 7.316 4.518 11.163 5.982 5.404 2.055 6.798 2.368 11.154 2.503 4.466.138 6.272-.185 10.528-1.885l2.099-.838.575.685c.399.474 1.611 1.536 2.751 2.429 1.129.885 2.355 1.941 2.673 2.288.202.221.655.584 1.256 1.034.601.449 1.34.972 2.076 1.462 1.463.974 3.211 2.174 3.87 2.657.686.502 1.766 1.112 2.453 1.381.879.343 1.63.502 2.242.497.611-.006 1.095-.18 1.386-.528.291-.347.36-.843.215-1.404-.144-.562-.494-1.206-1.065-1.918-.829-1.033-3.072-2.845-5.761-4.78-2.688-1.936-5.809-3.975-8.347-5.384-1.386-.771-2.969-1.798-3.455-2.229-.673-.596-1.329-.907-2.255-.871-.926.036-2.116.391-3.958 1.068l-2.886 1.06-3.519-.009c-3.892-.009-4.932-.21-9.123-1.759-3.941-1.456-6.8-2.941-10.918-5.674-4.487-2.978-6.062-4.174-10.536-8-4.052-3.465-5.508-4.628-8.408-6.716-1.231-.887-2.605-2.109-2.989-2.627-.564-.762-1.103-1.177-1.596-1.246zm70.131 6.463c-1.657.645-2.661 3.923-.401 3.402.921 1.231 2.534 2.978 5.165 5.681 7.14 7.336 8.403 8.553 9.567 9.133.721.36 1.34.553 1.883.565.543.012 1.012-.17 1.374-.533.162-.162.289-.298.382-.445a.876.876 0 00.143-.488c-.005-.353-.19-.727-.524-1.383-.53-1.04-.993-1.763-1.993-2.756-1.001-.992-2.537-2.26-5.248-4.437-.831-.667-2.32-1.992-3.291-2.929a108.65 108.65 0 00-3.877-3.55 55.353 55.353 0 00-1.602-1.35c-.445-.358-.771-.603-.978-.714-.196-.105-.4-.17-.6-.197v.001zm27.869 15.641c-1.033-.216-.343 2.701-.805 1.121.412.062.322-1.433.805-1.121zm-1.416 1.653c-.656.45-2.354 2.234-1.799 1.657.234 1.264 3.194-2.976 1.947-1.345.114-.113-.307-.295-.148-.312zm-4.469 4.699c-.478.272-.644 2.149-1.194 1.643-.035.012-.077.013-.096.032-.072.072-.074.124-.085.183a1.384 1.384 0 00-.022.205c-.006.15 0 .267.045.377a.25.25 0 00.153.161c.098.037.206-.015.254-.064.097-.097.119-.214.124-.331a.853.853 0 00-.062-.357.436.436 0 00-.094-.163.225.225 0 00-.123-.066c.008-.004.026-.006.033-.01a.623.623 0 00.08-.05c.054-.039.115-.088.184-.149a7.037 7.037 0 00.868-.926.968.968 0 00.107-.168c.013-.028.031-.053.028-.123a.202.202 0 00-.059-.137.21.21 0 00-.141-.057zm-6.468 9.751c-.763-.06.673.078.039.82.267-.701.408-.51-.039-.82zm.334 1.127c-.585-.016.742.49.17 1.134-.476-1.303 1.768 1.004-.17-1.134zm-263.9 2.976c-.555 1.508.16 2.301-.103 2.759.077 1.343.19 2.888.297 3.793.129 1.106.354 3.968.497 6.341.276 4.578 1.147 11.804 2.16 17.929.884 5.332 1.534 10.947 2.425 20.945.815 9.156 1.198 12.057 4.971 37.609 1.503 10.179 4.55 28.765 6.038 36.844 1.935 10.495 4.212 24.223 5.855 35.305.476 3.215 1.379 9.102 2.004 13.085.625 3.981 1.436 9.469 1.801 12.19.595 4.43 1.86 12.72 4.17 27.315.21 1.33.447 2.674.661 3.77.214 1.096.398 1.931.523 2.295l.413 1.207a.187.187 0 00.177.126h12.806c6.038 0 9.236-.006 10.918-.065.841-.029 1.297-.068 1.571-.139.137-.035.242-.076.317-.174.076-.099.067-.231.044-.307-.008-.026-.053-.24-.11-.544-.055-.303-.128-.714-.211-1.203-.168-.978-.38-2.266-.598-3.628a2466.152 2466.152 0 00-2.818-16.895c-1.115-6.567-3.048-17.999-4.297-25.405a2880.84 2880.84 0 00-1.637-9.621 743.008 743.008 0 00-.524-3.015c-.064-.365-.117-.655-.155-.861l-.046-.245c-.012-.06-.016-.087-.027-.126 0 0-.021-.087-.046-.21a269.474 269.474 0 01-.41-2.203 940.14 940.14 0 01-.947-5.314 4543.18 4543.18 0 00-4.053-22.484c-1.517-8.313-3.518-19.517-4.446-24.895-3.993-23.157-8.874-44.24-13.156-56.807-1.878-5.513-2.946-7.938-8.126-18.441-4.502-9.13-7.916-15.379-10.56-19.329-1.021-1.526-2.279-3.633-3.294-5.463a56.588 56.588 0 01-1.284-2.431 15.93 15.93 0 01-.393-.854 2.722 2.722 0 01-.163-.478 1.87 1.87 0 00-.037-.199c-.006-.025-.004-.041-.038-.09a.179.179 0 00-.169-.086v-.001zm263.596 1.374c-.427.293.942 1.555.207 2.08.022-1.419.393-1.617-.207-2.08zm-.711 5.479c-.651-.069.662.257.157.954.058-.63.296-.519-.157-.954zm-.268 4.398c-.585-.017.742.489.17 1.133-.476-1.303 1.768 1.004-.17-1.133zm-.254 3.302c-.585-.016.742.49.17 1.134-.476-1.303 1.769 1.004-.17-1.134zm-.239 2.97c-.651-.069.662.257.157.954.057-.63.296-.519-.157-.954zm-.254 2.795c-.65-.069.662.257.158.953.057-.63.295-.519-.158-.953zm-.254 2.54c-.65-.069.662.257.158.954.057-.63.295-.52-.158-.954zm-.268 2.873c-.585-.016.742.49.17 1.134-.476-1.303 1.769 1.004-.17-1.134zm-.321 3.915c-.491.242.827.63.26 1.498-.058-.898.468-1.007-.26-1.498zm-.222 15.678c-.426.293.943 1.555.207 2.08.022-1.419.394-1.618-.207-2.08zm-.16 15.774c-.834-.224.503 3.294-.272 1.462-.013 2.016-.021 6.322-.021 12.435 0 6.114.008 10.42.021 12.436.003.504.006.864.01 1.075.003.106.003.17.006.21 0 .01 0 .011.006.042a.463.463 0 00.015.042l.235.093s.103-.096.109-.112c.006-.016.007-.024.008-.029.009-.047.005-.046.006-.073.009-.215.017-1.04.027-2.568.038-6.114.038-16.117 0-22.231a146.3 146.3 0 00-.027-2.568c0-.027.003-.026-.006-.073 0-.006-.003-.013-.008-.029-.006-.016-.109-.112-.109-.112zm.221 44.811c-.861.923.459 2.349-.279 2.505 0 1.04.009 1.785.025 2.15.004.091.008.158.014.208.003.025.003.039.017.082.004.01.008.023.023.046a.17.17 0 00.038.042c.01.008.038.023.038.023l.053.017.113-.019s.026-.015.035-.023a.113.113 0 00.022-.022c.024-.027.029-.042.034-.055.02-.048.017-.06.02-.085.004-.025.007-.054.01-.09a8.7 8.7 0 00.018-.297c.047-1.016.048-2.73 0-3.827a11.115 11.115 0 00-.018-.326c-.006-.08-.008-.123-.021-.178-.003-.011-.005-.021-.014-.042a.215.215 0 00-.061-.077c-.008-.006-.029-.017-.029-.017l-.039-.015h.001zm-.061 15.374c-.426.293.943 1.555.207 2.08.022-1.419.394-1.617-.207-2.08zm-.285 5.662c-.49.242.827.63.26 1.498-.059-.897.468-1.007-.26-1.498zm-.219 13.725c-.574 1.229.003 1.022-.226 2.047 0 .825.01 1.422.027 1.719.004.075.008.129.015.174.003.023.002.037.021.081.005.011.011.025.026.044.008.01.018.022.034.035a.198.198 0 00.068.032h.091a.342.342 0 00.039-.013.245.245 0 00.029-.018.161.161 0 00.053-.059c.034-.058.027-.068.031-.091a.983.983 0 00.011-.076c.007-.059.012-.137.019-.238.05-.811.05-2.181 0-3.071-.007-.111-.012-.198-.019-.265-.006-.067-.007-.101-.024-.158a.196.196 0 00-.018-.042.154.154 0 00-.027-.04.213.213 0 00-.03-.027c-.013-.009-.05-.025-.05-.025l-.07-.01v.001zm-.041 32.454c-.334.423.986 1.615.249 2.198-.006-1.503.425-1.792-.249-2.198zm-88.684 16.288c-.715.08-1.46 2.015-1.262 1.418-.245.713-.965 2.13-1.906 3.781a90.629 90.629 0 01-3.254 5.264 50.53 50.53 0 00-1.497 2.368 14.55 14.55 0 00-.452.816 3.483 3.483 0 00-.124.273c-.03.076-.058.12-.048.227.017.186.03.737.024 1.186-.003.243.025.464.078.64a.763.763 0 00.109.234c.05.068.135.141.251.141-.016 0-.003-.007.024.04.026.046.051.13.051.225 0 .339.193.785.435 1.132.286.409.614 1.288.88 2.359a23.32 23.32 0 01.581 3.571c.106 1.276.476 3.271.83 4.479.349 1.188.742 2.532.873 2.985l.238.825c.023.08.096.135.179.135h6.221c2.902 0 4.452-.007 5.281-.067.415-.03.646-.063.817-.155a.391.391 0 00.188-.22.423.423 0 00-.01-.24c-.009-.032-.06-.27-.128-.619-.069-.349-.161-.826-.269-1.395-.216-1.139-.496-2.65-.789-4.257-1.527-8.361-2.806-14.507-3.887-18.617-.541-2.054-1.031-3.599-1.481-4.664-.225-.532-.44-.945-.653-1.245-.213-.3-.424-.5-.677-.564a1.702 1.702 0 00-.623-.056zm-17.593 11.746a.238.238 0 00-.182.061c-.071.071-.073.123-.084.182a1.384 1.384 0 00-.022.206.888.888 0 00.044.376.254.254 0 00.154.161c.098.037.206-.015.254-.064.097-.097.119-.214.124-.331a.87.87 0 00-.062-.357.444.444 0 00-.094-.163.22.22 0 00-.132-.071zm106.592 1.735c-.626.1.764.609.196 1.397-.08-.953.597-.549-.196-1.397zm-107.353 2.838a.241.241 0 00-.182.06c-.071.072-.073.124-.084.183a1.384 1.384 0 00-.022.205.89.89 0 00.044.377c.022.054.055.125.154.161.098.037.206-.015.254-.064.097-.097.119-.214.124-.331a.87.87 0 00-.062-.357.45.45 0 00-.094-.163.22.22 0 00-.132-.071zm107.67 1.165c-.71-.095.671.336.133 1.202.056-.765.207-.746-.133-1.202zm.179 4.221c-.536.202.821.835.214 1.672-.072-1.433.474-.917-.214-1.672zm.197 7.073c-.284.47 1.012 1.947.258 2.494.002-1.605.372-2.213-.258-2.494zm-110.33 1.005a.235.235 0 00-.181.061c-.071.071-.073.123-.085.182a1.411 1.411 0 00-.021.206.886.886 0 00.044.376.253.253 0 00.154.162c.098.036.205-.016.254-.064.097-.097.119-.214.124-.331a.87.87 0 00-.062-.358.446.446 0 00-.094-.162.223.223 0 00-.133-.072z" fill="#B48153"/><path d="M176.879.182c-.892.01-1.071 1.27-.216 1.527l1.74.518c1.013.301 3.146.817 4.832 1.174 6.202 1.311 10.113 2.825 15.452 5.983 3.506 2.073 5.369 3.367 8.54 5.925 1.104.89 3.142 2.816 4.866 4.548a72.157 72.157 0 012.218 2.31c.282.312.51.576.652.757.055.07.082.11.107.146.017.174.068.37.321.576.183.149.451.208.635.19a.96.96 0 00.4-.13c.385-.215.567-.471.866-.857.264-.34.953-1.146 1.474-1.716l.973-1.066a.78.78 0 00-.004-1.056l-1.599-1.729c-5.84-6.315-12.989-11.104-20.326-13.588-6.044-2.047-11.618-3.128-17.374-3.366l-3.519-.145h-.038zm-94.795 7.47c-1.323-.087-2 .107-3.809.707-1.367.454-2.83 1.03-3.546 1.464l-.976.59a.78.78 0 00.205 1.422l1.133.295c7.04 1.838 13.39 4.803 18.424 8.585 4.289 3.222 12.169 10.625 14.61 13.69l.653.819a.778.778 0 001.141.083l.601-.563c.336-.315.655-.769 1.178-1.482a115.69 115.69 0 001.8-2.533c1.276-1.843 2.514-3.688 2.937-4.506.199-.386.362-.602.383-1.059a1.166 1.166 0 00-.238-.715c-.15-.18-.292-.256-.409-.322.078.044-.002-.003-.074-.057a22.682 22.682 0 01-.301-.233 89.886 89.886 0 01-1.003-.809 293.634 293.634 0 01-3.031-2.513C102.038 12.35 94.568 8.96 83.708 7.807c-.672-.071-1.182-.125-1.623-.155h-.001zm.174 11.222c-3.12-.013-4.683.368-7.466 1.82-3.478 1.812-6.561 5.92-7.357 9.788-.668 3.248-.184 7.43 1.303 12.079 1.467 4.588 2.994 7.404 5.535 10.152 1.733 1.874 3.109 2.872 5.184 3.75 2.262.955 4.49.771 7.063-.517 3.083-1.545 6.72-4.07 8.859-6.17 1.257-1.234 2.822-3.028 4.173-4.716 1.352-1.688 2.455-3.172 2.89-4.134.469-1.042.532-1.75.251-2.808-.575-2.166-2.698-6.296-4.094-7.869-.556-.626-1.696-2.064-2.469-3.117-2.812-3.837-5.397-5.99-9.015-7.465-1.604-.654-2.371-.783-4.856-.793zm161.758 3.824c-3.489-.1-6.959 1.148-10.045 3.581-.871.688-2.068 2.016-3.158 3.352a31.878 31.878 0 00-1.45 1.904c-.399.573-.685.977-.83 1.48-.455 1.576-.354 3.163.809 5.47 1.163 2.306 3.346 5.482 7.16 10.777 3.499 4.857 5.529 7.196 7.507 7.895.7.248 1.118.404 1.603.434.484.03.889-.102 1.391-.278.538-.187.861-.514 1.375-.983a30.247 30.247 0 001.749-1.763c1.268-1.371 2.663-3.047 3.69-4.5 3.378-4.777 4.979-9.618 4.745-13.962-.235-4.344-2.356-8.168-6.226-10.72-2.188-1.442-4.195-2.195-6.825-2.562-.498-.069-.997-.11-1.495-.125zm22.433 7.086a.78.78 0 00-.772.716l-.197 2.414c-.36 4.401-1.248 11.05-1.747 13.226-2.032 8.853-6.454 17.641-12.476 24.783l-2.298 2.726a.78.78 0 00-.011.993l.863 1.07c1.568 1.944 4.199 6.012 5.253 8.12 2.401 4.798 3.92 10.057 5.022 17.471.354 2.38.752 4.923.899 5.725.363 1.987.336 6.268-.042 11.097s-1.086 10.262-2.002 14.779c-1.493 7.363-3.975 14.462-7.266 20.795-3.173 6.105-4.935 8.651-8.866 12.811-3.638 3.85-7.246 6.475-13.224 9.6-5.198 2.717-4.695 2.532-14.796 5.257-2.084.562-4.509 1.293-5.526 1.676-.799.301-3.617 1.071-6.037 1.623-2.474.565-5.136 1.308-6.234 1.798-1.068.478-2.366.801-4.479 1.083-1.675.223-4.415.592-6.09.819-2.641.357-3.583.367-8.351.099-11.104-.626-19.287-2.184-32.162-6.13-4.433-1.358-9.455-3.181-18.846-6.844-3.704-1.445-11.16-5.119-13.561-6.664-6.726-4.325-10.077-6.596-11.787-7.968-1.104-.887-2.479-1.935-3.139-2.386-.497-.34-1.472-1.234-1.971-1.827a13.372 13.372 0 00-.834-.911 4.48 4.48 0 00-.349-.314 1.566 1.566 0 00-.189-.133c-.078-.045-.143-.132-.458-.132a.998.998 0 00-.589.163c-.23.15-.402.485-.413.727-.023.483.163.673.336.924.347.502.921 1.102 1.788 1.931.958.915 2.573 2.841 3.46 4.136 4.123 6.019 12.879 14.243 20.275 19.088 3.263 2.139 17.992 9.571 21.718 10.963 8.915 3.33 10.92 3.721 36.328 6.957 4.443.566 13.384.744 18.922.388 7.635-.492 12.552-1.094 20.005-2.451 1.794-.327 4.657-.777 6.316-.993 1.716-.224 4.326-.682 5.886-1.035 3.917-.886 7.365-1.096 17.209-1.027 9.957.07 10.802.174 15.833 2.136 7.067 2.755 9.543 4.228 17.565 10.441 3.763 2.913 5.877 4.807 9.945 8.907 5.664 5.709 7.667 8.194 11.135 13.821 4.25 6.895 6.347 11.354 7.809 16.56 2.702 9.624 1.584 19.102-2.743 24.858-.394.524-1.864 1.987-3.082 3.004-3.576 2.987-4.907 3.524-8.705 3.505-4.946-.024-12.401-2.663-21.236-7.683-4.86-2.762-6.829-4.101-14.502-9.862-13.614-10.221-16.507-12.003-23.5-14.502-4.392-1.57-8.36-2.286-13.623-2.467-6.38-.22-10.92.456-16.044 2.401-3.395 1.289-6.868 3.722-8.959 6.31-.646.799-1.068 1.402-1.277 2.007-.105.303-.169.642-.048 1.01.121.368.455.653.762.771.225.087.302.06.377.056.076-.004.134-.013.194-.024.12-.021.243-.05.389-.089a20.01 20.01 0 001.1-.336c.88-.289 2.031-.702 3.255-1.173a830.002 830.002 0 015.418-2.068c.608-.223 2.184-.342 4.047-.205 1.863.137 4.059.486 6.149 1.012 9.969 2.512 18.308 5.682 23.243 8.782.68.427 1.409.847 2.049 1.187.639.34 1.143.591 1.567.719.168.051 1.317.593 2.708 1.35 1.392.757 3.143 1.752 4.96 2.814 3.633 2.125 7.549 4.533 9.352 5.811 3.087 2.186 9.279 8.42 11.03 11.062 2.291 3.456 3.936 6.505 5.072 9.381.295.747.595 1.445.847 1.98.126.268.239.494.341.677.051.092.098.172.153.252.056.08.058.153.31.309.455.282.719.165.985.103.265-.062.524-.168.779-.319.28-.166.224-.158.411-.146.187.012.653.127 1.516.388 4.979 1.506 10.955 6.196 15.681 12.47.812 1.077 1.788 2.612 2.545 3.948.379.668.705 1.288.928 1.768.112.24.198.446.25.593.051.146.055.263.055.156 0 .308.084.415.15.539.065.125.14.237.225.353.171.232.385.474.626.706.283.272.383.453.429.55-.147.064-.874.312-2.174.305-1.725-.011-4.373-.772-7.072-2.017-2.698-1.245-5.475-2.961-7.599-4.794a23.47 23.47 0 00-1.041-.853 6.937 6.937 0 00-.388-.281 2.07 2.07 0 00-.177-.107c-.067-.035-.059-.121-.443-.111-.455.01-.804.236-1.064.501-.26.266-.45.596-.567.971-.074.237-.082.575.015.852.096.278.253.497.454.732.403.47 1.026 1.029 2.08 1.943 6.455 5.596 10.711 12.994 10.711 18.016 0 .852.112 1.734.467 2.416.351.673.308 1.039.233 1.172-.075.133-.316.32-1.031.32-.596 0-1.2-.191-2.082-.804-.881-.613-1.998-1.645-3.473-3.205a1179.302 1179.302 0 00-6.677-6.986 660.842 660.842 0 00-2.703-2.791c-.346-.354-.628-.64-.83-.843-.102-.101-.182-.181-.246-.242a2.862 2.862 0 00-.085-.08l-.049-.043c-.022-.017-.012-.03-.157-.102a.79.79 0 00-.773.037c-.113.07-.154.119-.191.159-.074.081-.109.137-.151.2a5.926 5.926 0 00-.261.452 23.65 23.65 0 00-.667 1.38c-.775 1.726-1.92 3.155-3.809 4.703-.56.459-.991.938-.957 1.666.017.364.249.756.552.951.304.196.63.249.968.249-.183 0-.148-.033-.071.013.077.047.209.145.365.28.311.272.725.695 1.178 1.213a35.479 35.479 0 012.913 3.904c1.684 2.612 3.568 6.728 4.096 8.86.266 1.072.548 2.786.725 4.249.089.731.153 1.404.179 1.898.013.24.015.433.011.562-.031.031-.06.073-.234.117-.221.056-.568.075-.976.026-.815-.099-1.864-.461-2.786-1.045-3.664-2.32-7.452-5.023-8.554-6.048a53.966 53.966 0 00-2.622-2.279 24.746 24.746 0 01-2.04-1.859l-.939-.993a.78.78 0 00-.88-.177l-1.305.578c-.65.288-2.398.94-3.774 1.402-2.453.822-2.408.809-6.218.789-4.605-.025-6.341-.378-11.427-2.32-4.186-1.599-6.921-3.046-11.359-6.012-5.506-3.68-7.37-5.234-12.923-10.77a260.077 260.077 0 00-3.7-3.623c-.482-.46-.877-.83-1.164-1.089a9.474 9.474 0 00-.354-.307 1.87 1.87 0 00-.154-.115c-.033-.021-.065-.045-.156-.083-.046-.019-.105-.046-.233-.057a.794.794 0 00-.625.226c-.244.244-.233.439-.239.546-.005.107.005.171.014.232.02.121.048.219.083.333.069.227.171.502.303.834.265.665.651 1.55 1.107 2.547a118.62 118.62 0 003.133 6.346c1.133 2.109 2.878 5.134 3.911 6.778 1.978 3.151 2.184 3.74 2.45 7.083.155 1.941.143 2.095-.372 3.476-.764 2.045-2.639 5.256-4.601 8.065-.981 1.404-1.987 2.717-2.882 3.752-.896 1.034-1.721 1.798-2.149 2.049-.685.402-1.788 1.194-2.585 1.844-.673.549-2.368 1.519-3.846 2.154a6633.457 6633.457 0 00-21.935 9.457c-4.348 1.898-10.338 4.191-15.796 6.11-5.458 1.919-10.44 3.472-12.577 3.873-6.433 1.21-17.144 2.287-26.525 2.66-2.177.087-6.569.319-9.785.519-13.62.844-20.673.28-31.745-2.534-7.29-1.852-13.69-4.022-18.265-6.178-12.764-6.016-26.96-16.534-34.072-25.189a71.962 71.962 0 00-1.481-1.75 20.927 20.927 0 00-.515-.568 4.659 4.659 0 00-.19-.189c-.06-.056.01-.088-.33-.222a.926.926 0 00-.72.068c-.169.107-.23.21-.275.283-.088.147-.104.229-.127.316a3.627 3.627 0 00-.089.551c-.043.416-.068.962-.068 1.575 0 2.11.132 2.587 1.289 4.546 3.147 5.333 6.697 10.084 11.828 15.84a572.64 572.64 0 015.182 5.9c1.258 1.46 3.066 3.375 4.103 4.335 5.444 5.047 14.726 10.852 23.226 14.555 8.966 3.906 23.77 8.324 35.175 10.505 4.405.842 9.181 1.191 18.146 1.341 10.175.169 16.414-.109 24.337-1.089 7.399-.915 8.579-1.151 20.342-4.09 5.881-1.469 12.99-3.175 15.755-3.781 2.807-.615 8.284-1.91 12.199-2.884 11.81-2.937 15.403-3.419 22.459-3.012l1.251.072.728 1.07c1.315 1.932 3.853 7.165 6.193 12.589 2.341 5.425 4.535 11.13 5.311 14.087 1.546 5.887 2.618 13.012 3.792 25.281 1.434 14.972 1.703 20.569 1.627 33.837-.048 8.473-.52 20.974-1.097 29.037a674.466 674.466 0 00-.514 8.141c-.621 10.928-2.098 30.689-2.797 37.436-.548 5.294-.573 5.45-2.02 13.105a1063.417 1063.417 0 00-.924 4.946l-.06.335-.017.102-.006.043c-.002.016-.009-.011-.009.117 0 0 .286.614.384.672.098.058.142.067.177.077.069.021.092.022.114.025a.62.62 0 00.083.009l.137.007c.105.004.249.007.438.011.377.007.927.013 1.634.02 1.416.012 3.46.023 5.982.033 5.043.019 11.999.031 19.651.031h27.82a.78.78 0 00.779-.805l-.168-5.271c-.092-2.909-.276-7.05-.409-9.232-.599-9.837-.76-60.349-.234-76.394.15-4.565.232-13.306.184-19.467-.182-23.227-.064-61.929.221-73.013.217-8.443.467-13.304.928-18.109.349-3.641.714-8.03.814-9.812a30.95 30.95 0 01.199-2.245c.038-.287.079-.521.111-.66.005-.022.005-.019.01-.036-.026.044-.077.105-.227.201.221-.143.267-.265.311-.351.043-.087.066-.154.087-.221.041-.135.069-.269.096-.424a15.3 15.3 0 00.146-1.156c.087-.915.159-2.093.207-3.279.048-1.186.072-2.376.059-3.314a17.621 17.621 0 00-.05-1.198 4.071 4.071 0 00-.057-.44c-.019-.093-.039-.192-.103-.321.074-.155.296-.506.711-1.053a78.212 78.212 0 003.115-4.444c.437-.675.807-1.276 1.076-1.756.135-.239.244-.447.328-.633.064-.141.12-.259.149-.455.014-.028.051-.092.107-.176.115-.173.303-.425.539-.721a39.551 39.551 0 011.898-2.166c6.327-6.762 9.773-11.869 16.801-24.887 11.108-20.577 14.432-29.97 15.672-44.365 1.339-15.54-.187-26.202-5.796-40.492-2.426-6.181-4.831-10.57-13.559-24.766-3.104-5.048-4.459-6.786-9.369-12.006-7.72-8.207-11.899-12.011-20.397-18.563-9.091-7.01-18.674-12.565-25.994-15.016l-2.12-.71 1.117-2.519c2.054-4.632 4.857-11.755 5.668-14.444 1.137-3.771 3.66-14.234 4.125-17.156.308-1.942.496-6.444.574-11.309.079-4.866.036-10.016-.176-13.064-.517-7.453-1.387-14.185-2.493-19.617-1.107-5.432-2.412-9.542-3.975-11.892l-.456-.684.669-.986c1.338-1.973 3.208-5.742 4.329-8.677 2.288-5.991 2.759-9.121 2.415-16.061-.23-4.662-.784-7.834-2.001-11.414l-.691-2.032a.78.78 0 00-.742-.528l-.004-.003zm-57.725 182.67c-5.472.008-6.863.101-10.845.712-12.535 1.925-27.448 7.176-34.618 12.289-3.069 2.189-6.97 5.953-10.505 10.103-8.556 10.045-12.812 15.045-15.568 17.989-2.756 2.945-3.984 3.824-6.654 5.771-6.523 4.757-6.615 4.804-24.53 13.918-.86.437-1.396.724-1.805 1.057-.408.332-.675.837-.725 1.262a2.1 2.1 0 00-.008.564c.03.215.14.487.318.673.357.372.711.422 1.16.537 1.157.295 4.005.762 5.52.915 1.892.192 4.823-.426 10.185-1.948 6.649-1.888 14.533-6.199 21.227-11.571 4.17-3.347 6.218-5.62 9.519-10.561 4.104-6.143 8.031-10.673 12.935-14.928 2.911-2.526 4.398-3.548 8.496-5.841a205.112 205.112 0 005.273-3.054c2.728-1.661 8.452-3.385 13.595-4.008 1.117-.136 3.603-.44 5.525-.677 5.817-.715 12.579-.075 21.017 2.03 3.7.923 4.956 1.361 7.714 2.695 4.03 1.949 7.744 4.205 9.17 5.49 4.718 4.254 5.741 4.933 11.959 7.93 6.777 3.265 7.128 3.385 17.435 5.742 6.83 1.561 9.288 1.986 13.317 2.297 1.03.079 1.681.175 2.348-.196.334-.186.578-.513.711-.826.132-.314.196-.63.266-1.005.042-.224.082-.429.079-.68a1.6 1.6 0 00-.232-.79c-.299-.471-.69-.706-1.342-1.172-.835-.596-3.844-2.5-6.85-4.349-9.37-5.762-13.208-8.314-19.596-13.03-8.052-5.945-11.49-7.934-20.208-11.69-5.844-2.518-10.873-4.213-15.059-5.063-2.549-.518-3.727-.594-9.224-.585zm-21.508 321.953c-2.094.048-4.124.224-5.449.563-4.092 1.048-8.448 3.674-11.001 6.666-1.308 1.533-2.275 3.296-2.985 5.415-1.252 3.741-2.748 11.868-3.217 17.33-.342 3.99-1.358 10.321-1.896 12.098a.964.964 0 00.039.697c.14.298.397.439.579.506.362.135.693.15 1.304.181 1.223.061 3.463.067 7.692.067h9.003c.371 0 .69-.262.763-.625l.142-.699c.305-1.512 1.929-11.016 2.687-15.701.214-1.321.415-2.524.566-3.397.071-.413.129-.738.174-.977l.126-.044c.319-.111.751-.26 1.219-.42 1.478-.508 2.38-.609 3.058-.397.677.212 1.32.789 2.183 2.025.279.4.555.748.802 1.012.124.133.235.243.375.347.07.052.143.105.279.157a.81.81 0 00.749-.063c.389-.241.488-.447.747-.789.26-.341.566-.78.909-1.294a96.723 96.723 0 002.328-3.709 104.71 104.71 0 002.247-3.916c.63-1.164 1.074-2.004 1.246-2.644.122-.454.393-.717.416-.728.152-.069.307-.14.479-.28.172-.141.342-.384.408-.623.13-.477.029-.806-.068-1.325-.823-4.413-5.199-8.21-10.238-9.132-1.457-.266-3.572-.35-5.666-.301z" fill="#654122"/><path d="M219.12 88.158c-.722.064-1.453.33-2.186.791-.738.465-1.227.853-1.59 1.383s-.59 1.181-.846 2.165c-.606 2.333-.502 4.02.416 6.792.971 2.932 2.033 4.635 3.478 5.45 2.526 1.427 5.795.184 7.273-2.714.281-.552.452-.974.545-1.546.092-.571.11-1.284.11-2.457 0-3.07-.202-3.723-2.005-6.425-1.402-2.1-2.886-3.27-4.476-3.433a3.786 3.786 0 00-.719-.006zm-67.796 1.231c-1.415-.046-2.856.576-3.85 1.783-1.131 1.375-1.622 3.005-1.622 5.318 0 3.489 1.325 7.052 3.348 8.883.464.419.78.673 1.15.819.37.146.764.17 1.36.169 1.847-.006 3.376-.979 4.37-2.595.995-1.616 1.474-3.87 1.295-6.494-.211-3.073-1.436-5.463-3.639-7.061a4.332 4.332 0 00-2.412-.822zm67.755 1.987c.471 0 1.032.226 1.519.595.487.368.899.876 1.097 1.397.47 1.237.012 2.617-1.136 3.39-.679.456-1.37.615-2.03.506-.66-.109-1.299-.488-1.858-1.153-1.501-1.787-.013-4.735 2.408-4.735zm-68.821 1.506c.227.022.46.072.693.152 1.082.373 1.664 1.047 1.874 2.167.081.433-.009 1.001-.224 1.516-.214.514-.552.972-.909 1.206-.981.644-2.076.63-2.932.174-.856-.456-1.47-1.352-1.47-2.519 0-1.694 1.377-2.855 2.968-2.696zm57.955 18.392c-5 0-11.797 1.183-15.411 2.695-1.362.57-5.88 3.158-7.741 4.423-1.714 1.165-2.88 2.428-3.512 3.882-.633 1.453-.724 3.087-.331 4.965.49 2.335 1.434 4.246 3.891 7.91 2.888 4.307 6.464 7.398 11.898 10.293 3.097 1.65 4.73 2.282 7.363 2.846 2.681.574 3.591.592 5.62.113 2.702-.638 5.303-2.206 8.348-5.009 3.048-2.806 4.757-5.838 6.97-12.336 1.122-3.295 1.734-5.151 2.054-6.485.32-1.335.344-2.154.287-3.314-.161-3.314-1.584-5.758-4.136-7.053-3.352-1.7-9.831-2.93-15.3-2.93z" fill="#030303"/></svg>