<svg width="493" height="437" fill="none" xmlns="http://www.w3.org/2000/svg"><circle cx="141.5" cy="101.5" r="4.5" fill="#fff"/><circle cx="205.5" cy="83.5" r="4.5" fill="#fff"/><path d="M207.541 0a.326.326 0 00-.106.018l-2.577.89c-3.108 1.075-5.59 2.37-7.633 3.996-.92.733-1.828 1.601-2.495 2.349a8.611 8.611 0 00-.795 1.006 2.193 2.193 0 00-.219.408c-.051.13-.101.268-.029.456-.037-.099 0-.057-.06.029-.06.085-.174.198-.311.287-.182.12-.335.238-.451.351a.852.852 0 00-.152.184c-.022.038-.048.082-.059.16-.002.011.014.03.014.045-.009.02-.037.069-.08.132-.09.132-.238.318-.413.509-.197.215-.36.431-.475.625a1.466 1.466 0 00-.135.284.625.625 0 00-.032.198.829.829 0 00-.112.105c-.071.08-.141.175-.216.289-.152.228-.322.53-.485.862a4.88 4.88 0 01-.444.748 1.304 1.304 0 01-.149.169c-.137.008-.271.051-.351.138a.698.698 0 00-.174.44c-.003.033-.049.26-.122.51-.074.252-.173.55-.277.83-.343.917-.367 1.814-.064 2.613.304.799.925 1.486 1.811 2.027.878.535 1.916.602 2.893.275.976-.328 1.899-1.042 2.613-2.07 3.087-4.442 7.881-9.007 11.095-10.625 2.714-1.366 8.7-2.872 16.971-4.225.922-.151 1.76-.306 2.372-.434a13.8 13.8 0 00.736-.17c.09-.025.163-.047.227-.071.032-.013.062-.024.103-.05a.332.332 0 00.079-.064.32.32 0 00.093-.23c0-.141-.06-.205-.097-.25a.678.678 0 00-.11-.101 2.132 2.132 0 00-.264-.166 9.893 9.893 0 00-.817-.387 26.268 26.268 0 00-2.335-.864C221.271.203 219.434 0 213.399 0h-5.858zm-14.872 10.184c.009.183.182.481 0 0zm-82.033 17.113c-.724.55-.842 3.516-2.143 2.948.587-.802 1.257-3.92 2.143-2.948zm-53.973 5.925c-1.604.816 1.4-1.135 1.944.108-1.433-.282-.99-.178-1.944-.108zM40.86 39.364c-.452.097-1.322 1.186-.971.927-2.414 2.69-4.468 6.322-5.433 9.614-1.06 3.617-1.319 5.896-1.319 11.572 0 9.673 1.074 14.986 4.347 21.468 4.012 7.945 9.305 12.926 18.726 17.641a78.71 78.71 0 002.206 1.063c.63.29 1.056.483 1.308.551.212.056.25.084.291.154.041.069.09.263.111.631.407 6.753 2.071 16.636 3.558 21.039 3.827 11.34 9.1 20.236 15.552 26.193l1.11 1.025-.588.3c-2.688 1.37-10.062 6.151-14.05 9.098-5.767 4.262-18.804 15.924-26.018 23.266-4.465 4.545-13.193 14.971-17.245 20.598-2.627 3.648-7.176 11.234-8.988 14.99-.94 1.951-2.769 6.196-4.076 9.464-5.429 13.564-7.156 20.679-8.336 34.347-1.013 11.721-1.15 14.71-.988 21.475.32 13.376 1.164 21.403 3.674 34.963.533 2.879 1.403 6.486 2.208 9.381.403 1.448.79 2.716 1.112 3.632.16.457.305.825.433 1.094.065.134.124.242.191.335.034.047.07.09.122.134.015.012.052.014.07.026-.049.129-.098.228-.048.416.025.095.138.243.283.272.026.005.032-.012.055-.012.017.015.025.021.051.048.093.098.233.265.396.477.328.424.759 1.036 1.208 1.724 2.254 3.454 4.081 5.874 6.433 8.52a175.109 175.109 0 013.702 4.325c2.283 2.781 10.52 10.938 13.298 13.169 9.042 7.258 19.088 12.721 34.914 18.996 7.915 3.139 10.76 4.113 15.497 5.305a366.03 366.03 0 017.695 2.046c2.144.6 6.358 1.588 9.395 2.203 3.062.621 4.956.972 5.782 1.064.206.023.316.043.478.012.041-.007.092-.01.176-.079a.355.355 0 00.112-.175.354.354 0 00-.013-.213c-.043-.104-.089-.131-.122-.157a.58.58 0 00-.091-.059c-.237-.13-.649-.265-1.358-.484-13.35-4.136-23.74-8.074-33.143-12.559-6.246-2.98-19.51-10.73-24.624-14.385-.977-.698-3.419-2.837-5.353-4.7-1.947-1.877-4.261-3.987-5.194-4.729-1.27-1.011-2.345-1.936-3.148-2.702-.802-.767-1.336-1.398-1.495-1.71-.15-.29-.489-.704-.972-1.27a46.465 46.465 0 00-1.724-1.894c-2.765-2.878-10.18-13.008-11.595-15.815-3.055-6.055-5.196-13.952-7.066-26.134-1.226-7.982-1.432-13.001-1.072-26.102.238-8.637.704-13.339 2.26-22.792 1.879-11.407 3.617-17.355 7.232-24.757 2.559-5.238 4.885-8.919 9.107-14.406a625.329 625.329 0 007.01-9.326c6.874-9.37 10.424-13.33 19.053-21.257 7.002-6.431 7.973-7.208 14.254-11.397 7.586-5.059 14.46-8.733 20.48-10.955a73.458 73.458 0 002.076-.801c.292-.118.544-.224.742-.311a3.53 3.53 0 00.433-.211c.06-.038.055-.038.115-.029.06.008.195.056.411.188.433.264 1.174.837 2.453 1.864 6.41 5.144 11.264 8.338 17.087 11.239 8.596 4.283 14.608 6.89 19.889 8.621 4.082 1.339 11.1 2.994 14.744 3.475 1.975.261 4.853.638 6.397.839 4.623.6 14.118 1.043 17.526.808 5.956-.411 10.043-.942 13.292-1.732 1.8-.438 4.549-1.069 6.097-1.401 2.911-.624 4.84-1.332 12.229-4.483 2.043-.871 5.352-2.393 8.156-3.724a202.098 202.098 0 003.604-1.746c.463-.232.839-.425 1.104-.57.133-.072.237-.131.316-.181.04-.025.073-.047.108-.075.017-.014.035-.028.06-.057.026-.029.087-.064.087-.225l-.012-.089s-.021-.058-.036-.082a.329.329 0 00-.094-.098c-.058-.04-.094-.046-.12-.051-.051-.011-.071-.008-.09-.007-.039 0-.065.004-.098.009-.065.01-.146.025-.248.046-.206.042-.496.108-.853.194-.715.171-1.698.419-2.779.704-6.049 1.594-10.239 2.366-15.588 2.874-6.744.64-10.882 1.11-13.262 1.509-1.034.174-4.661.399-8.038.486-4.912.126-6.601.086-8.853-.212a304.796 304.796 0 00-6.217-.738c-12.636-1.358-19.515-2.83-28.187-6.029-5.761-2.125-17.081-7.681-21.39-10.493-6.545-4.271-14.206-10.609-16.826-13.88-3.132-3.908-7.32-10.368-13.068-20.167-1.095-1.866-2.167-3.749-2.332-4.081-.098-.196-.281-.711-.495-1.414a76.484 76.484 0 01-.74-2.642 184.655 184.655 0 01-1.735-7.233c-2.198-10.03-3.235-14.815-3.902-17.291-.334-1.238-.575-1.905-.84-2.371-.265-.467-.546-.706-.883-1.043-.665-.667-1.298-1.088-1.985-1.233-.686-.145-1.393.002-2.16.374l-.887.43-1.739-1.14c-6.55-4.296-11.852-9.5-17.528-17.212-1.571-2.135-2.793-4.793-3.322-7.22-1.864-8.558-2.01-9.487-1.988-12.854.011-1.791.141-5.009.288-7.126.148-2.127.331-4.92.408-6.212l.14-2.343a.323.323 0 00-.329-.343h.002zm417.137 3.202c-1.132-.197-6.086 6.281-3.09 2.737-1.483 1.754-3.665 4.498-6.878 8.612-1.34 1.715-4.267 5.152-6.485 7.612-1.982 2.197-3.002 3.32-3.632 3.888-.63.567-.795.577-1.333.656-3.589.526-8.316 1.95-11.707 3.523-4.131 1.918-7.652 4.381-14.986 10.471-2.369 1.967-4.035 3.142-5.566 3.933-2.596 1.343-3.508 1.665-9.315 3.3-5.332 1.5-8.149 2.575-12.381 4.721-4.705 2.386-7.582 4.383-10.503 7.296-4.074 4.063-6.427 8.053-8.73 14.784-.861 2.516-3.332 11.593-5.572 20.159a854.986 854.986 0 00-2.946 11.549 187.912 187.912 0 00-.898 3.793 30.53 30.53 0 00-.23 1.116 4.833 4.833 0 00-.052.338.577.577 0 00.011.258c-.118.058-.224.144-.261.253a.657.657 0 00.023.465c-.017-.045-.002-.003 0 .061 0 .063-.004.157-.014.271-.021.228-.065.541-.127.91-.125.74-.322 1.712-.556 2.754-.468 2.084-1.088 4.459-1.566 5.842-1.495 4.326-4.124 10.358-5.739 13.185-3.839 6.716-9.507 12.854-13.76 14.995-5.791 2.917-19.377 4.958-27.519 4.097-8.166-.863-15.507-2.107-20.066-3.392-1.12-.316-2.693-.62-3.578-.687l-1.523-.116c-.352-.026-.485.451-.17.61l2.246 1.134c1.258.634 3.365 1.511 4.734 1.969 4.543 1.52 16.653 3.736 23.843 4.379 3.206.286 10.476.113 13.421-.323 5.177-.767 7.397-1.382 13.075-3.619 6.757-2.662 7.426-3.073 12.11-7.425 3.839-3.568 7.951-9.111 11.972-16.114 2.853-4.97 3.376-6.048 5.466-11.273 1.844-4.61 3.367-9.897 4.368-15.157 1.577-8.29 6.195-22.311 9.015-27.435.545-.991 2.583-4.173 4.491-7.004l3.428-5.088 2.028-1.065c2.287-1.202 3.977-1.958 10.861-4.855 12.976-5.46 16.784-7.906 21.856-14.038.943-1.14 3.436-3.878 5.513-6.052a335.106 335.106 0 002.763-2.923c.37-.397.68-.734.909-.986.23-.253.358-.391.438-.505.049-.07.264-.268.539-.463.274-.195.613-.406.948-.594.335-.188.668-.352.92-.453a2.13 2.13 0 01.298-.1c.065-.013.086.037-.037-.04.17.105.273.075.385.061.113-.012.231-.04.362-.079.263-.077.572-.2.884-.356 1.752-.876 3.904-3.262 11.676-12.693 4.72-5.728 5.74-7.047 6.916-8.944 1-1.613 2.051-3.432 2.836-4.872.392-.72.717-1.345.938-1.806.11-.23.195-.419.25-.567.028-.075.049-.137.063-.206a.503.503 0 00.013-.122c-.002-.053-.002-.145-.103-.246a.51.51 0 00-.274-.134h-.002zm20.039 5.532c-.925.027-1.936.703-3.338 2.112-1.402 1.408-3.195 3.585-5.591 6.737-3.052 4.016-4.001 5.134-7.799 9.19-1.139 1.216-1.809 1.903-2.228 2.25-.209.172-.353.256-.446.29a.357.357 0 01-.234.013 1.141 1.141 0 00-.952.213c-.293.234-.573.605-1.034 1.243-.582.805-1.27 1.82-1.553 2.296-.283.478-.588 1.25-.838 2.013-.249.763-.442 1.467-.442 1.93 0 .108.007.222.069.347.061.124.195.23.321.27.253.08.484.039.86-.017 1.309-.194 2.875-1.147 4.422-2.604 1.653-1.556 5.966-6.735 9.435-11.302a277.848 277.848 0 015.221-6.624c1.413-1.723 3.189-4.038 3.97-5.178a17.54 17.54 0 011.046-1.388c.146-.172.273-.306.359-.385.025-.022.033-.027.048-.038a.324.324 0 00.244-.094.382.382 0 00.118-.252.39.39 0 00-.027-.162c-.059-.163-.146-.253-.271-.38-.334-.34-.86-.493-1.359-.479h-.001zm12.372 14c-3.22 1.458 1.405-2.45-2.894 1.234-.301.253-.675.588-1.102.982a93.703 93.703 0 00-2.982 2.894c-2.123 2.146-5.244 5.185-6.924 6.741l-2.852 2.642-.286-.257-.505-.453c-.304-.274-.73.153-.456.457l.461.512.258.288-2.885 2.963a65.127 65.127 0 00-2.359 2.551c-.664.762-1.139 1.339-1.333 1.694a6.668 6.668 0 00-.354.74c-.039.1-.067.182-.083.274-.008.046-.02.092 0 .183.01.046.031.111.093.174.063.062.167.1.242.1.137 0 .218-.034.332-.075.113-.041.243-.098.39-.167.295-.138.657-.329 1.054-.552a30.105 30.105 0 002.453-1.537c.928-.655 3.187-2.724 5.129-4.673a506.698 506.698 0 009.902-10.267c1.5-1.6 2.806-3.018 3.738-4.062.467-.522.839-.95 1.099-1.266a7.76 7.76 0 00.306-.389c.037-.051.067-.096.094-.142.026-.046.068-.059.068-.223a.408.408 0 00-.152-.294.397.397 0 00-.183-.073.892.892 0 00-.269 0zm1.986 2.367c-.56.371 1.215 1.855.292 2.135.265-.615-.265-2.66 0-2.044a.358.358 0 00-.292-.091zm-9.419 35.602c-.876.286-.45 1.978-.486 1.746 0 .622.009 1.078.025 1.318.004.061.008.107.017.158.005.025 0 .044.037.115.018.035.04.116.192.166a.359.359 0 00.241-.016.288.288 0 00.116-.093c.083-.104.063-.122.069-.149a2.546 2.546 0 00.034-.27c.049-.636.05-1.686 0-2.39a4.122 4.122 0 00-.019-.215c-.006-.056-.002-.08-.033-.168-.006-.016-.013-.035-.033-.068-.02-.032-.052-.091-.161-.133l.001-.001zm-221.287 8.198c-.539-.385-.587 2.634-.404.973-.002.013-.002.025-.002.038 0 .329.006.561.031.722.006.04.01.075.03.129.011.027.02.061.068.116.047.055.2.14.335.105.135-.036.175-.11.2-.148.024-.038.033-.064.041-.087a.893.893 0 00.033-.128c.069-.359.067-.877.006-1.281a2.193 2.193 0 00-.025-.134c-.011-.041-.008-.071-.064-.155-.028-.042-.089-.136-.249-.15zm-.115 9.197c-.418.574 1.482 2.557.379 2.929-.062-1.884.915-2.341-.379-2.929zm80.081 58.387c-.723.55-.841 3.516-2.142 2.948.587-.802 1.256-3.918 2.142-2.948zm-23.153 11.312c-1.613.805 2.372-.793 2.306.265-1.387-.622-1.468-.238-2.306-.265zm-88.458 53.964c-2.345.025-4.014.61-6.479 2.26-2.362 1.581-7.249 5.695-9.056 7.628-.394.422-.787.806-1.095 1.079a5.034 5.034 0 01-.383.314 1.182 1.182 0 01-.106.069c-.018.01-.031-.006.063-.006-.147 0-.213.032-.337.072-.123.04-.272.095-.441.162-.339.134-.758.316-1.182.517-1.224.578-1.776.704-3.391.771-2.399.101-4.271.647-8.318 2.411-5.829 2.541-10.043 5.075-13.162 7.933-1.148 1.052-2.743 2.666-4.057 4.065a58.559 58.559 0 00-1.668 1.839 12.02 12.02 0 00-.509.624 2.67 2.67 0 00-.153.221c-.04.067-.092.09-.092.275 0 .118.123.288.225.327.102.039.161.028.211.021.101-.014.177-.044.27-.083a4.76 4.76 0 00.667-.36c3.207-2.014 9.199-4.726 12.303-5.576 1.2-.329 3.591-1.289 5.399-2.159l3.142-1.511 1.54.465c.894.27 1.982.704 2.291.889.428.255 1.161.572 1.708.745.461.146 1.312.566 1.792.89 2.1 1.419 5.701 3.395 11.087 6.093 6.633 3.321 8.326 4.491 12.44 8.605 1.77 1.768 2.711 2.804 3.173 3.753.463.949.492 1.858.39 3.499-.22 3.535-1.604 6.861-5.45 12.993-2.255 3.595-3.296 5.008-6.13 8.325a149.28 149.28 0 00-3.679 4.536c-2.1 2.709-3.016 3.63-6.468 6.501-2.434 2.024-4.432 4.005-6.039 5.991-.584.722-.933 1.438-1.012 2.104-.078.666.152 1.298.683 1.683.45.325 1.085.393 1.82.321.736-.073 1.58-.301 2.447-.674.353-.152.906-.488 1.645-.971a84.333 84.333 0 002.65-1.819 156.556 156.556 0 006.375-4.787c1.207-.959 4.243-3.966 6.948-6.861 9.561-10.237 13.663-16.551 15.484-23.909.541-2.186.61-2.9.503-5.161-.13-2.763-.502-4.162-1.78-6.693-.398-.789-.909-1.664-1.218-2.046l-.232-.286 3.101-1.752c1.875-1.059 6.1-3.268 9.365-4.896 3.746-1.868 5.941-3.038 7.19-3.978.624-.469 1.021-.886 1.236-1.33.216-.444.221-.905.109-1.351-.104-.414-.439-.712-.854-.899-.415-.186-.93-.283-1.516-.311-1.171-.055-2.626.175-4.039.703-3.911 1.464-11.966 7.016-14.553 10.042-.446.522-1.153 1.197-1.484 1.432l-.481.343-1.974-1.887c-6.152-5.882-9.851-7.887-19.055-10.331a35.853 35.853 0 01-4.053-1.351c-1.236-.497-2.266-1.014-2.717-1.362-.038-.03-.023-.014-.041-.032.116-.125.519-.428 1.315-.965 2.124-1.433 8.497-5.929 12.145-8.567 3.054-2.209 5.255-4.25 5.992-5.696.252-.493.419-.908.477-1.287.058-.378-.013-.751-.255-1.016s-.597-.402-1.043-.485c-.445-.083-.998-.11-1.684-.103zm18.222 7.476a9.284 9.284 0 00-1.24.129c-1.986.316-3.846.841-5.434 1.54-1.823.803-5.798 3.445-8.343 5.519-1.206.983-2.5 2.011-2.828 2.251-.412.301-1.54 1.308-2.609 2.309-.534.5-1.008.954-1.346 1.285-.168.166-.302.3-.394.398a2.057 2.057 0 00-.112.122c-.015.018-.027.031-.05.07-.012.02-.035.033-.046.137-.002.012-.002.027-.002.044.001.018.007.059.007.059l.071.143.137.094s.043.013.061.016a.473.473 0 00.049.003h.004c.089 0 .08-.009.097-.014a4.22 4.22 0 00.187-.06c.109-.037.258-.09.437-.155.358-.131.837-.31 1.354-.507a429.32 429.32 0 013.497-1.313c1.706-.63 4.75-1.941 7.567-3.22 2.817-1.278 5.361-2.494 6.181-3.023 1.192-.768 2.269-1.627 3.06-2.408.395-.391.718-.761.951-1.1.233-.339.391-.638.391-.967 0-.42-.111-.808-.413-1.051-.303-.243-.712-.311-1.234-.3v-.001zM89.229 267.988c-.729-.19-.254 1.667-.337 1.127.904 7.37 4.42 17.274 8.188 23.039 4.958 7.589 10.33 12.319 18.838 16.59 5.309 2.665 5.925 2.86 10.187 3.273 2.11.204 4.184.421 4.527.47.326.047.905.056 1.674.051.77-.005 1.711-.03 2.68-.068 1.938-.076 3.975-.203 4.992-.345.938-.131 2.269-.177 2.848-.112.238.027.425.046.569.056.145.011.224.022.351-.002.032-.006.07-.012.131-.048a.37.37 0 00.165-.282.315.315 0 00-.091-.239c-.033-.037-.058-.054-.081-.07-.093-.062-.174-.094-.299-.146-.244-.101-.708-.243-1.379-.435-.672-.193-1.537-.429-2.524-.69a308.712 308.712 0 00-6.806-1.705c-5.271-1.255-8.99-2.456-12.241-3.948-5.615-2.576-10.317-5.579-13.278-8.46-3.641-3.541-7.81-8.864-10.242-13.072-4.194-7.256-5.71-10.144-6.93-13.189a69.74 69.74 0 00-.456-1.12c-.111-.264-.15-.39-.267-.537-.029-.036-.051-.107-.22-.138zM30.387 368.101a.323.323 0 00-.225.545l1.399 1.465c.386.404.744.771 1.012 1.039a15.462 15.462 0 00.435.418.876.876 0 00.049.039c.01.007.02.015.042.027.022.012.036.041.16.041.057 0 .165.012.283-.117a.377.377 0 00.092-.23.37.37 0 00-.03-.152c-.057-.145-.122-.201-.23-.32-.218-.237-.61-.618-1.29-1.268l-1.465-1.399a.322.322 0 00-.232-.088zm24.02 20.506c-1.137 2.601-1.014 1.589-.57 6.939.283 3.399.662 7.492.845 9.114.181 1.604.654 6.246 1.05 10.305.782 8.016 1.47 14.331 2.004 18.378a222.619 222.619 0 01.312 2.48c.017.152.025.293.025.241 0 .127.073.214.115.25.042.036.07.047.091.057a.42.42 0 00.094.028c.051.012.102.018.166.025.127.013.3.025.524.037.446.023 1.085.043 1.872.061 1.575.034 3.744.056 6.13.056 2.385 0 4.553-.012 6.127-.032.786-.01 1.424-.022 1.868-.035.222-.006.394-.013.517-.02.061-.004.11-.008.152-.013.021-.003.04-.005.071-.013.016-.004.034-.007.074-.026.02-.01.047-.023.086-.061.02-.019.062-.085.062-.085l.035-.147c0-.075-.008-.083-.014-.111a9.24 9.24 0 00-.097-.354 27.799 27.799 0 00-.237-.75 87.121 87.121 0 01-.829-2.748c-1.022-3.591-3.635-11.285-5.46-16.076-1.028-2.702-2.185-5.927-2.558-7.128-1.116-3.593-1.412-4.194-4.316-8.747a295.046 295.046 0 00-4.926-7.422 159.209 159.209 0 00-2.03-2.906 29.926 29.926 0 00-.643-.865 4.795 4.795 0 00-.204-.247.884.884 0 00-.086-.086c-.016-.014-.033-.029-.063-.047-.03-.019-.07-.055-.188-.052zm254.996 1.314c-.559.371 1.215 1.855.292 2.135.265-.615-.265-2.659 0-2.044a.359.359 0 00-.292-.091zm-.488 15.415c-.478.517 1.426 2.277.355 2.662-.059-1.698.987-2.087-.355-2.662z" fill="#B48153"/><path d="M224.263 3.843c-.142-.143-4.646.653-8.672 1.532-3.536.772-6.489 1.706-8.305 2.627-2.656 1.347-6.312 4.61-9.006 8.036-2.182 2.775-3.32 4.014-4.212 4.585l-.586.375.526 1.024c.289.564.658 1.21.819 1.435.405.566-.004 1.157-.975 1.408-.664.173-1.174.004-3.964-1.31-7.259-3.42-15.07-5.676-22.883-6.61-4.187-.501-14.223-.374-17.69.225-5.539.956-9.701 2.39-15.546 5.357-5.805 2.947-11.161 6.604-18.077 12.344a496.502 496.502 0 01-5.155 4.225c-4.366 3.498-9.314 8.02-14.761 13.495-2.441 2.453-4.54 4.366-4.983 4.54-1.069.422-2.181-.048-4.975-2.1-6.377-4.686-9.663-6.588-15.123-8.752-3.83-1.519-7.432-2.175-13.228-2.408-5.81-.235-9.855.466-13.707 2.372-3.404 1.685-3.346 1.596-3.65 5.551-.401 5.217-.24 6.611 1.917 16.511.54 2.48 1.777 5.17 3.377 7.344 5.692 7.734 11.029 12.974 17.611 17.291l1.892 1.24 1.053-.51c1.455-.707 2.492-.488 3.775.797 1.383 1.385 1.14.486 5.538 20.546 1.129 5.151 2.509 10.385 2.996 11.364.192.386 1.246 2.232 2.342 4.1 5.752 9.805 9.943 16.272 13.096 20.206 2.683 3.35 10.331 9.661 16.901 13.948 4.362 2.847 15.652 8.386 21.454 10.526 8.896 3.281 14.973 4.562 29.319 6.181 2.449.276 5.032.591 5.741.699 1.964.299 14.051.028 16.397-.368 2.354-.397 6.462-.866 13.243-1.51 5.361-.508 9.58-1.286 15.628-2.879 2.153-.568 3.845-.918 3.761-.779-.084.138.249-.052.74-.424.49-.371 3.385-1.96 6.431-3.531 5.852-3.016 7.765-4.134 10.514-6.147 1.906-1.396 2.962-2.649 5.783-6.867 2.16-3.23 3.448-5.651 4.24-7.967.286-.838 1.314-3.315 2.284-5.506 2.004-4.526 2.585-6.259 4.04-12.053 2.554-10.179 2.991-17.311 1.762-28.785-1.244-11.623-3.376-19.924-6.87-26.76-3.824-7.478-6.896-11.953-11.621-16.924-1.559-1.64-2.835-3.1-2.835-3.242 0-.142.571-.803 1.269-1.469.978-.932 1.378-1.533 1.744-2.616 1.822-5.397 2.72-13.082 2.546-21.79-.264-13.209-2.116-18.19-9.562-25.716-1.499-1.514-2.617-2.753-2.485-2.753.132 0 .191-.049.131-.108h.001zm-7.049 8.372c1.587.083 3.52.554 4.971 1.26 2.167 1.053 5.12 3.916 6.256 6.066 1.686 3.19 2.227 7.128 1.382 10.067-.656 2.285-3.862 9.187-4.546 9.79-.219.192-1.018.677-1.778 1.078-2.253 1.192-2.715 1.071-6.454-1.686-4.449-3.282-10.108-9.56-11.76-13.049-.275-.58-.599-1.25-.721-1.489-.166-.326-.105-.543.247-.87.267-.25.583-1.019.736-1.792.419-2.123.676-2.781 1.662-4.257 1.718-2.573 5.002-4.515 8.565-5.064a7.181 7.181 0 011.44-.054zm-27.833 6.672c0 .132.422.62.938 1.086.515.466 1.069.847 1.23.847.16 0-.033-.2-.431-.442a5.564 5.564 0 01-1.231-1.085c-.278-.354-.506-.537-.506-.406zm-76.668 6.632c-.105.027-.405.325-1.133 1.101l-1.045 1.113 1.113-1.045c.612-.574 1.113-1.075 1.113-1.113 0-.044-.013-.065-.048-.056zm345.861 17.38c-.381.067-.576.408-1.225 1.641-2.016 3.835-4.511 7.713-6.597 10.256a1850.623 1850.623 0 00-4.969 6.092c-3.12 3.841-7.069 8.364-8.422 9.645-1.052.996-2.77 1.943-3.127 1.722-.298-.184-2.696 1.153-3.108 1.734-.162.229-1.998 2.199-4.08 4.377-2.081 2.178-4.57 4.91-5.529 6.07-5.048 6.104-8.767 8.49-21.732 13.946-6.885 2.897-8.591 3.659-10.886 4.866l-2.1 1.104-3.474 5.155c-1.911 2.835-3.938 5.998-4.505 7.029-2.868 5.211-7.464 19.194-9.05 27.531-.997 5.24-2.515 10.509-4.35 15.097-2.089 5.223-2.594 6.265-5.446 11.233-4.01 6.984-8.111 12.506-11.912 16.037-4.681 4.35-5.254 4.701-12.008 7.362-4.655 1.834-5.558 2.13-8.435 2.762-9.578 2.108-19.187 1.733-34.087-1.329-5.874-1.207-9.071-2.204-12.287-3.831l-2.246-1.136 1.406.101 1.406.103-2.109-.597c-7.918-2.241-14.516-4.901-24.787-9.994-9.744-4.831-13.248-6.158-15.865-6.009-1.393.079-1.943.299-6.443 2.575-5.993 3.031-15.53 7.423-19.941 9.183-6.68 2.666-21.119 6.463-30.788 8.095-4.315.729-10.917 1.642-13.707 1.895-7.229.658-16.396-.111-22.829-1.914-8.532-2.391-24.6-10.548-30.757-15.612-.866-.712-1.509-1.399-1.43-1.527.078-.127.03-.162-.108-.077-.137.085-.285.07-.329-.034-.043-.104-.869-.595-1.836-1.091-3.742-1.92-9.417-5.796-14.732-10.061-2.561-2.056-2.952-2.295-3.352-2.045-.25.156-1.686.738-3.193 1.294-6.053 2.234-12.946 5.92-20.547 10.989-6.283 4.191-7.29 4.995-14.292 11.428-8.637 7.934-12.216 11.927-19.095 21.304a618.08 618.08 0 01-7.007 9.32c-4.229 5.497-6.574 9.207-9.14 14.462-3.628 7.427-5.38 13.424-7.26 24.846-1.558 9.459-2.027 14.19-2.265 22.835-.36 13.107-.152 18.164 1.075 26.161 1.873 12.196 4.018 20.127 7.097 26.23 1.476 2.927 8.826 12.953 11.651 15.893 1.248 1.298 2.436 2.688 2.64 3.088.408.796 2.179 2.487 4.731 4.517.902.718 3.23 2.837 5.171 4.708 1.943 1.872 4.367 4.001 5.39 4.731 5.257 3.759 18.375 11.408 24.887 14.514 9.232 4.402 22.817 9.536 32.797 12.395 1.299.372 1.837.623 1.64.763-.184.131-.04.153.386.06.375-.083.746-.044.826.085.08.13.881.299 1.78.376.898.077 2.688.32 3.977.54 3.386.577 14.842.558 18.51-.031 7.514-1.206 15.585-2.946 19.852-4.281 3.611-1.129 19.02-7.378 22.862-9.271l3.819-1.882 2.837-3.08c6.067-6.59 12.767-15.138 14.005-17.867.794-1.752 3.033-5.516 5.838-9.816 2.112-3.237 4.641-8.409 6.733-13.768 1.338-3.427 1.556-4.625.842-4.625-.852 0-1.458-.679-1.458-1.633 0-.701.205-1.156.918-2.037 1.591-1.966 3.573-3.932 5.994-5.946 3.457-2.875 4.411-3.834 6.517-6.551 1.049-1.354 2.7-3.389 3.67-4.524 2.837-3.322 3.899-4.763 6.157-8.363 3.855-6.148 5.274-9.539 5.499-13.145.206-3.305-.111-3.956-3.657-7.501-4.124-4.123-5.883-5.34-12.523-8.665-5.382-2.695-8.978-4.671-11.052-6.072-.516-.348-1.359-.766-1.874-.93-.516-.163-1.254-.485-1.641-.715-.386-.231-1.45-.645-2.363-.92l-1.66-.501-3.255 1.565c-1.791.861-4.196 1.823-5.345 2.138-3.169.868-9.141 3.574-12.389 5.614-.483.304-.879.463-.879.354 0-.109.817-1.086 1.814-2.171l1.814-1.972-2.411 2.204c-2.767 2.529-4.112 4.015-8.502 9.395-8.782 10.762-11.698 15.481-14.839 24.016-2.569 6.98-2.896 7.535-4.889 8.278-2.215.827-5.058 1.041-14.225 1.07-7.1.023-8.723-.032-12.508-.427-4.378-.457-4.898-.625-10.191-3.282-8.471-4.253-13.779-8.927-18.712-16.477-3.724-5.7-7.222-15.541-8.14-22.902-.139-1.105-.094-1.043.766 1.082.968 2.391 2.86 6.076 5.1 9.93.75 1.289 1.58 2.738 1.846 3.22.266.483.574.879.683.879.11 0 1.48.616 3.046 1.367 1.804.865 4.86 2.715 8.341 5.05 6.105 4.095 7.873 5.115 12.731 7.341 6.343 2.907 12.073 4.917 16.336 5.73 1.61.308 9.135.393 10.545.121.8-.155.851-.235 1.975-3.03 3.084-7.671 6.637-12.908 15.219-22.435a309.28 309.28 0 003.053-3.515 3019.22 3019.22 0 014.095-4.759c4.064-4.711 10.669-9.672 16.768-12.593 3.878-1.857 7.478-3.227 9.237-3.515 1.092-.178 1.453-.388 2.695-1.57 1.93-1.838 5.012-4.208 7.391-5.683 3.786-2.348 10.598-5.513 13.424-6.237 2.703-.693 8.852-.083 8.852.877 0 .115.198.209.44.209.619 0 1.041.596.909 1.286-.064.334.025.699.207.85 1.555 1.29-2.262 6.465-7.418 10.057-1.853 1.29-5.307 4.113-6.895 5.634-.447.428-.437.431.469.171 2.266-.651 6.345-.144 7.825.973.514.387.539.478.238.865-.185.237.352-.229 1.194-1.036s1.855-1.703 2.252-1.992c.397-.288 1.71-1.329 2.918-2.313 2.55-2.078 6.532-4.707 8.336-5.505 1.349-.597 4.214-1.369 5.931-1.598 1.662-.222 1.878.064 2.027 2.691.249 4.359-1.401 8.78-4.56 12.221-1.378 1.502-3.703 3.759-4.735 4.598l-.586.476 1.757 1.636 1.757 1.636-.935 1.018c-.515.56-.08.165.966-.876 3.629-3.615 10.437-8.253 14.156-9.645 2.821-1.055 5.688-.89 5.998.346.101.402.019.863-.232 1.299-.275.48-.388 1.239-.388 2.612 0 3.314-1.083 6.522-3.961 11.733-1.183 2.142-4.537 7.318-5.561 8.581-.457.564-.83 1.453-1.114 2.661-.573 2.43-2.757 6.674-5.609 10.901-5.603 8.302-7.097 10.336-10.036 13.66-1.718 1.944-3.786 4.37-4.594 5.39-1.471 1.859-4.76 6.748-6.021 8.949-.369.645-1.409 1.963-2.311 2.929-4.716 5.051-7.41 10.587-11.287 23.197-.614 1.997-1.442 4.159-1.839 4.803-1.169 1.892-10.064 14.016-12.815 17.464-2.654 3.328-4.965 5.671-8.637 8.755a8156.568 8156.568 0 01-4.568 3.836c-9.973 8.366-24.542 14.478-43.694 18.329-5.066 1.019-6.935 1.169-14.672 1.169-7.281 0-11.662-.222-16.284-.83-13.495-1.775-26.13-4.716-34.326-7.992-5.892-2.354-11.02-5.089-17.451-9.306-1.866-1.224-3.425-2.192-3.465-2.153-.04.04.956 1.536 2.212 3.325 3.207 4.563 8.049 12.187 8.538 13.444.226.58.722 2.056 1.103 3.28.38 1.225 1.534 4.44 2.565 7.147 1.59 4.177 4.36 12.269 5.175 15.113.13.451.516 1.742.859 2.87l.623 2.05h210.256l.512-1.113c.801-1.739 1.271-7.116 1.407-16.109.24-15.824-.6-24.136-3.682-36.434-2.956-11.794-6.769-28.792-8.068-35.967-1.761-9.723-2.307-17.209-1.795-24.602.243-3.501 1.1-11.698 1.638-15.661.144-1.063.115-1.396-.13-1.49-.173-.066-.316-.352-.316-.634 0-.604 1.461-1.275 1.945-.893.573.452 1.889.541 10.942.739 11.86.26 15.802.06 29.992-1.52 12.781-1.423 19.706-3.009 27.296-6.249 7.438-3.176 14.296-7.066 19.917-11.297 3.093-2.329 10.878-9.246 13.11-11.649 5.644-6.076 12.489-17.156 15.899-25.739 1.706-4.293 3.32-10.033 6.589-23.431 1.984-8.129 2.762-12.38 3.646-19.916 2.77-23.592 4.709-34.134 8.275-44.987 1.881-5.722 4.608-11.365 6.977-14.435 3.158-4.095 6.337-5.937 15.485-8.975 10.916-3.626 20.567-10.262 26.097-17.945 2.82-3.918 6.008-11.298 6.992-16.186.205-1.021.465-3.29.576-5.043.316-4.97.846-5.814 7.064-11.233 4.884-4.258 13.824-13.574 13.824-14.406 0-.172.188-.373.418-.446 1.306-.415 2.248-5.405 1.348-7.145-.577-1.116-1.066-1.11-2.081.027-6.285 7.04-17.282 18.203-19.415 19.709-1.627 1.148-3.898 2.387-4.067 2.218-.277-.277 1.687-2.74 4.271-5.359l2.915-2.953-.84-.737c-.463-.406-1.101-.908-1.419-1.117-.74-.485-.729-.605.176-1.922.705-1.026.716-1.073.175-.726-3.316 2.13-9.951 5.406-10.77 5.316-1.132-.123-.852-.914.796-2.252 2.697-2.188 7.75-7.343 10.027-10.23 3.168-4.016 4.349-5.69 6.448-9.142l1.854-3.049-.15-1.637c-.154-1.673-.599-2.9-.923-2.54-.099.11-.712.998-1.361 1.973-.65.974-2.382 3.241-3.85 5.037a296.1 296.1 0 00-5.341 6.78c-3.471 4.566-7.81 9.764-9.402 11.262-1.518 1.43-3.059 2.344-4.248 2.52-1.057.157-1.096-.037-.44-2.144.365-1.174 1.398-2.945 3.021-5.18.269-.37.103-.466-1.816-1.042-1.162-.349-2.113-.74-2.113-.869s-.448.07-.995.442c-1.749 1.189-7.327 4.245-11.252 6.164-2.091 1.024-4.02 2.017-4.286 2.207-.41.294-.549.298-.92.027-.386-.283-.402-.403-.139-1.039.179-.432.562-.81.961-.95 1.912-.666 12.301-10.755 15.597-15.146 2.825-3.764 6.398-8.954 7.536-10.947.642-1.124 1.234-1.976 1.316-1.894.083.083-.005-.365-.194-.995-.494-1.64-1.068-2.319-2.024-2.395a1.87 1.87 0 00-.467 0l.001-.001zM63.11 48.984c.592.021 1.255.081 2.018.175 3.485.43 5.036.895 7.283 2.182 2.737 1.57 4.44 2.899 6.97 5.437 3.965 3.979 4.437 6.278 2.2 10.723-2.436 4.841-8.797 12.588-12.113 14.753-2.063 1.346-3.056 1.395-5.67.279-3.717-1.588-5.191-3.005-7.448-7.162-.8-1.475-1.456-2.767-1.456-2.872 0-.104-.63-1.468-1.4-3.03-.771-1.563-1.562-3.47-1.758-4.237-.73-2.86-.217-6.888 1.219-9.575.9-1.686 4.07-4.783 5.875-5.741 1.358-.72 2.504-.998 4.28-.932zM207.14 78.43c1.118-.016 1.624.106 2.449.589 4.546 2.664 7.091 9.813 4.979 13.982-.445.878-.814 1.232-1.787 1.718-.675.336-1.549.611-1.943.609-1.818-.006-4.62-2.212-6.042-4.756-1.147-2.053-1.925-4.818-1.924-6.84.002-1.634.091-2.039.697-3.154.88-1.616 1.721-2.122 3.571-2.148zm-63.735 17.633c.567.03 1.13.201 1.816.521 2.366 1.105 4.214 4.116 5.073 8.267.782 3.776.378 6.22-1.214 7.354-1.024.729-3.096.858-4.328.27-1.249-.596-2.517-1.895-3.899-3.995-2.032-3.086-2.798-6.955-1.864-9.421.586-1.549 1.196-2.18 2.577-2.667.701-.247 1.271-.36 1.838-.33h.001zm64.27 8.031c2.359-.061 4.46.064 7.066.397 4.78.611 6.356 1.932 7.472 6.263 1.44 5.593-.596 16.213-4.341 22.649-1.168 2.008-4.476 5.381-6.16 6.281-.673.36-1.938.806-2.812.991-1.448.307-4.807.398-6.86.185-4.032-.417-8.801-2.239-12.653-4.834-1.482-.998-5.631-5.269-6.758-6.957-1.717-2.57-2.501-5.417-2.329-8.452.09-1.582.224-2 1.224-3.836 2.891-5.303 5.449-7.705 9.62-9.032.516-.164 1.781-.642 2.812-1.063 4.122-1.681 6.074-2.11 11.247-2.47a57.201 57.201 0 012.472-.123v.001zm54.022 7.509c-.029-.119-.049.67-.049 2.12 0 1.933.035 2.755.08 1.826.044-.928.044-2.509 0-3.514a4.14 4.14 0 00-.031-.432zm-143.401 67.399c-.123 0 .001.148.448.444.386.256.861.461 1.054.457.194-.005-.017-.21-.468-.457-.541-.296-.911-.444-1.034-.444zm187.367 15.506c-.355.054-.065.098.644.098.709 0 .999-.044.644-.098a5.14 5.14 0 00-1.288 0zm-89.314 54.877c-.029-.006-.113.038-.25.133-.716.493-4.231 3.25-4.761 3.734-.106.096.316 0 .937-.215.861-.297 1.547-.828 2.887-2.236.881-.927 1.276-1.398 1.187-1.416zm32.426 2.111l-.933.82c-1.817 1.596-4.111 2.865-9.3 5.141-2.888 1.267-5.982 2.573-6.876 2.903-2.434.898-3.993 1.54-3.77 1.552.109.006-.313.478-.937 1.05l-1.136 1.039.82.288c2.273.796 7.515 3.905 8.418 4.993.17.205.367.373.438.373.071 0-.108-.253-.398-.562-.494-.525-.505-.606-.176-1.23.194-.368 1.058-1.354 1.921-2.192 1.495-1.451 5.577-6.24 8.708-10.218a167.231 167.231 0 012.338-2.903l.883-1.054zm-61.777 12.313c-.105.027-.405.325-1.134 1.101l-1.044 1.113 1.113-1.045c.612-.574 1.113-1.075 1.113-1.113 0-.044-.014-.065-.048-.056zm75.367 1.511l-.638.501c-.35.275-3.3 1.829-6.555 3.452s-7.464 3.823-9.352 4.89l-3.434 1.939.473.584c.629.777 1.887 3.318 2.436 4.918.345 1.007.442 1.967.442 4.382 0 1.701.064 3.019.14 2.929.612-.729 2.745-3.686 5.325-7.386 2.034-2.918 3.126-4.701 3.227-5.272.089-.505.744-1.687 1.581-2.854 2.581-3.599 5.14-6.912 5.339-6.912.108 0 .381-.263.606-.585l.41-.586zm-24.827 5.858l1.633 1.699c.899.934 1.71 1.698 1.803 1.698.092 0 .243-.121.335-.27.108-.175.064-.207-.127-.089-.192.119-.878-.379-1.969-1.428l-1.675-1.61zm-211.58 84.819l1.163 1.23c.64.677 1.193 1.23 1.23 1.23.175 0-.02-.216-1.163-1.297l-1.23-1.163zm283.067 45.988c-.032-.054-.055.404-.055 1.225 0 1.096.04 1.544.09.996.049-.548.049-1.444 0-1.991a.973.973 0 00-.035-.23z" fill="#8E623A"/><path d="M228.246 2.46c-1.505.205-.932.158-1.913.287-2.424 1.095-1.288-1.933-2.85 1.107.252 1.441 3.477 4.475 2.612 3.384 7.37 7.449 9.084 12.065 9.346 25.207.172 8.648-.731 16.274-2.508 21.54-.34 1.006-.618 1.424-1.553 2.317-.365.347-.694.691-.946.982a5.296 5.296 0 00-.32.403 1.774 1.774 0 00-.125.204c-.04.08-.108.15-.108.415 0 .285.066.32.097.38s.058.1.086.143c.057.085.121.17.2.27.158.2.371.453.633.752a74.675 74.675 0 002.023 2.206c4.682 4.926 7.693 9.31 11.498 16.751 3.44 6.728 5.555 14.932 6.794 26.503 1.223 11.423.795 18.406-1.745 28.527-1.451 5.782-2.001 7.423-3.998 11.933-.976 2.203-1.991 4.639-2.308 5.567-.763 2.233-2.014 4.594-4.155 7.794-2.811 4.204-3.764 5.335-5.605 6.683-2.723 1.993-4.572 3.074-10.416 6.087-1.528.787-3.005 1.57-4.158 2.198-.577.314-1.072.59-1.455.81-.383.22-.625.36-.819.506-.622.468-2.814 1.642-5.83 3.069-3.015 1.427-6.915 3.164-11.202 4.976-5.093 2.152-6.469 2.607-10.168 3.359-1.691.343-4.058.879-5.311 1.204-2.331.604-9.31 1.457-13.669 1.636-5.505.227-20.837-1.135-26.762-2.385-9.171-1.935-17.182-4.836-27.058-9.807-.955-.48-1.822-.906-2.456-1.207a25.47 25.47 0 00-.764-.352 4.378 4.378 0 00-.244-.101c-.037-.013-.068-.026-.143-.043-.038-.009-.075-.026-.215-.019-.069.003-.177.003-.348.107-.172.104-.357.411-.357.634 0 .248.069.327.106.393a.966.966 0 00.096.14 2.4 2.4 0 00.172.188c.124.123.28.262.469.425.379.327.89.741 1.463 1.19 1.145.897 2.525 1.921 3.529 2.591 4.745 3.163 15 8.427 21.132 10.857 6.053 2.399 11.393 3.657 17.301 4.071 7.91.554 13.888.115 25.715-1.882 9.734-1.644 24.141-5.425 30.938-8.137 4.463-1.781 13.983-6.167 20.001-9.211 2.247-1.137 3.507-1.757 4.327-2.085.821-.328 1.161-.374 1.825-.412 2.33-.132 5.765 1.11 15.494 5.934 11.224 5.565 17.511 8.03 26.917 10.547 7.701 2.061 8.529 2.216 20.244 3.773 7.627 1.014 17.507.168 25.666-2.181 6.211-1.788 10.181-4.888 15.533-12.063 3.519-4.718 6.708-11.195 9.406-19.043.277-.806.758-2.711 1.194-4.551.218-.92.419-1.812.566-2.512.073-.35.132-.652.174-.891.042-.24.083-.322.065-.616-.003-.049-.003-.116-.059-.247a.751.751 0 00-.058-.111 1.81 1.81 0 00-.107-.131l-.391-.198-.209-.006s-.116.021-.161.036a.72.72 0 00-.188.098c-.084.06-.115.1-.14.131-.101.121-.094.139-.112.175a2.86 2.86 0 00-.098.218c-.071.171-.164.412-.28.717-.23.609-.544 1.469-.887 2.44-3.945 11.149-7.672 17.316-13.563 22.546-7.711 6.845-12.104 8.568-20.755 8.157-6.466-.307-12.018-1.841-23.303-6.474l-10.427-4.279c-14.404-5.907-21.155-9.025-27.086-12.502-1.452-.851-3.467-1.906-5.204-2.756a56.797 56.797 0 00-2.292-1.069 15.183 15.183 0 00-.809-.328h-.002c.104-.166.107-.203.336-.487 4.006-4.977 9.237-16.978 11.666-26.512 1.797-7.053 1.944-8.464 1.93-18.811-.011-8.106-.081-9.866-.544-13.678-1.505-12.382-3.22-20.111-6.651-29.943-3.814-10.927-6.375-15.453-10.605-18.42-.442-.31-.747-.565-.894-.72-.027-.029-.02-.023-.036-.043.572-2.088 2.01-10.036 2.227-12.253.398-4.058-.212-9.523-1.811-16.706-2.11-9.473-4.986-13.41-13.282-18.176l-1.949-1.119a.738.738 0 00-.367-.098l-.002-.003zm-68.741 2.308c-4.587.012-6.339.253-13.73 1.895-6.489 1.443-11.241 3.27-18.248 7.015-4.433 2.369-7.443 4.32-10.248 6.657-5.126 4.27-18.623 18.877-22.347 24.193-.587.836-.874 1.19-1.032 1.366l-.017-.01a14.85 14.85 0 00-.348-.197 81.548 81.548 0 00-1.155-.62c-.955-.506-2.25-1.18-3.676-1.914a550.913 550.913 0 00-8.45-4.271c-3.246-1.593-8.508-3.648-11.178-4.35-3.712-.976-7.334-1.415-11.61-1.413-3.58.003-4.249.08-6.766.75-3.46.923-5.873 2.035-8.26 3.828-.735.552-1.217.94-1.57 1.324-.352.384-.573.823-.634 1.247-.102.693-.235 2.57-.347 4.379-.056.905-.104 1.775-.132 2.431-.014.328-.024.602-.027.806-.001.103-.001.186.002.264.001.038.002.073.01.127.003.027.006.058.02.113.015.056-.012.136.197.345a.754.754 0 00.494.22.72.72 0 00.236-.022c.106-.026.16-.052.214-.078.108-.051.198-.107.302-.174a9.09 9.09 0 00.716-.525c1.012-.81 4.006-2.196 6.052-2.72 2.876-.735 5.577-.97 9.464-.814 5.756.232 9.24.871 12.985 2.358 5.456 2.167 8.55 3.928 13.9 7.914 1.44 1.073 3.053 2.172 3.846 2.57.342.172.693.326 1.001.442.308.117.46.219.872.219.44 0 .78-.165 1.166-.389.387-.224.809-.532 1.287-.927.958-.79 2.136-1.931 3.534-3.415 1.554-1.65 4.093-4.146 5.588-5.496l4.686-4.227a125.217 125.217 0 014.23-3.594 638.737 638.737 0 005.632-4.623c6.877-5.711 12.187-9.335 17.939-12.255 5.805-2.947 9.859-4.343 15.338-5.288 3.248-.561 13.442-.703 17.476-.22 7.731.924 15.468 3.16 22.656 6.546 1.399.659 2.228 1.036 2.862 1.245.633.21 1.169.224 1.602.111.599-.155 1.104-.412 1.428-.883.323-.47.299-1.2-.047-1.675a16.456 16.456 0 01-.747-1.395c-.206-.436-.367-.75-.622-1.022-.255-.273-.796-.47-1.181-.353-.062.018-.515.006-.978-.176-.464-.182-.954-.492-1.252-.799-.8-.826-.968-1.782-.438-3.38.11-.33.224-.564.288-.901.065-.337-.052-.864-.328-1.161-.554-.594-1.316-.858-3.046-1.75-4.841-2.493-10.803-4.658-16.577-6.024-4.638-1.097-6.488-1.316-11.032-1.303v-.001zm57.748 6.72a7.852 7.852 0 00-1.592.06c-3.754.58-7.203 2.593-9.067 5.385-1.009 1.51-1.347 2.374-1.772 4.524a5.399 5.399 0 01-.284.955c-.111.27-.27.475-.231.44-.22.204-.427.43-.525.774-.098.345-.006.717.123.972.11.215.439.894.712 1.47 1.119 2.361 3.583 5.51 6.608 8.54 2.803 2.808 6.396 5.783 8.397 6.867a3.883 3.883 0 001.759.47c.373.006.669-.09 1.038-.215s.777-.292 1.188-.483c.822-.38 1.627-.818 2.158-1.285.241-.212.338-.394.506-.667.168-.273.357-.611.565-1.004.417-.785.906-1.784 1.395-2.836.977-2.105 1.941-4.373 2.303-5.633.916-3.188.334-7.262-1.44-10.617-1.256-2.377-4.183-5.216-6.586-6.385-1.566-.761-3.554-1.244-5.255-1.333zm243.82 34.086c-.909.401-2.32 3.013-1.775 2.253-1.082 1.895-4.677 7.128-7.486 10.87-1.587 2.115-5.01 5.746-8.241 8.884-1.616 1.57-3.189 3.022-4.465 4.115a30.125 30.125 0 01-1.654 1.334c-.45.331-.826.537-.889.56-.654.228-1.137.73-1.4 1.365-.14.338-.282.599-.224 1.032.029.216.141.435.26.575.119.14.234.226.349.31.222.163.508.353.903.341.395-.011.648-.194.884-.363-.031.022.166-.1.409-.232.244-.132.572-.304.957-.503.771-.397 1.773-.9 2.815-1.409 3.944-1.93 9.351-4.89 11.52-6.32.548-.363.996-.737 1.431-1.314.434-.578.869-1.34 1.554-2.6 3.077-5.653 5.352-11.078 5.863-14.234.144-.89.228-1.811.248-2.564.01-.377.005-.709-.023-.993a2.7 2.7 0 00-.066-.406c-.035-.135-.05-.282-.265-.497-.197-.197-.54-.24-.705-.204zM63.125 48.256c-1.865-.07-3.212.253-4.654 1.018-1.035.55-2.284 1.585-3.446 2.721-1.163 1.136-2.203 2.329-2.734 3.324-1.546 2.893-2.074 7.004-1.283 10.106.24.945 1.023 2.785 1.81 4.381.383.776.732 1.504.982 2.045.125.27.226.496.292.65l.07.17.005.016c-.003-.01-.024.002-.024-.177 0 .2.03.215.043.259a4.79 4.79 0 00.141.338c.08.172.19.394.324.659.268.53.634 1.225 1.038 1.968 2.287 4.213 4.008 5.866 7.807 7.489 1.341.573 2.351.892 3.368.842 1.016-.05 1.922-.481 2.996-1.182 1.814-1.185 4.219-3.679 6.553-6.522 2.335-2.844 4.553-6.007 5.816-8.518 1.15-2.286 1.67-4.165 1.29-6.017-.38-1.851-1.604-3.53-3.626-5.56-2.556-2.563-4.349-3.962-7.127-5.555-2.307-1.323-4.037-1.84-7.56-2.275a24.537 24.537 0 00-2.081-.18zm416.716 4.474c-.931.512-2.467 3.33-1.843 2.522-4.2 7.135-11.031 15.248-16.68 19.831-.732.594-1.226 1.05-1.542 1.546-.157.247-.28.526-.281.858 0 .332.163.672.374.882.266.266.422.263.602.306.18.044.367.067.565.067.34 0 .452-.075.69-.16.237-.083.522-.198.852-.338a56.859 56.859 0 002.4-1.109c1.814-.88 3.906-1.97 5.394-2.846 2.097-1.234 2.535-1.647 3.741-3.498 3.68-5.644 6.009-11.005 6.503-15.193.065-.556.116-1.069.146-1.458.015-.195.025-.357.028-.49a1.545 1.545 0 00-.002-.192c-.003-.034-.004-.07-.015-.13-.012-.062.051-.143-.211-.405-.21-.21-.569-.233-.721-.192zm11.833 16.216a.736.736 0 00-.541.228l-.505.527a2.53 2.53 0 01-.321.284c-.59-.03.236-.088.126.015-.208-.988-3.686 4.933-1.212 1.316-.233.316-.591.755-1.039 1.275-.896 1.04-2.155 2.406-3.569 3.88-2.827 2.95-6.28 6.339-8.715 8.461-3.115 2.716-4.848 4.3-5.885 5.95-1.037 1.648-1.271 3.286-1.43 5.794-.11 1.721-.376 4.013-.564 4.944-.951 4.726-4.15 12.126-6.867 15.9-1.811 2.516-6.2 6.98-8.579 8.731-5.514 4.061-10.9 6.868-17.151 8.944-9.184 3.051-12.597 5.026-15.837 9.225-2.469 3.2-5.192 8.87-7.093 14.656-3.586 10.913-5.536 21.526-8.307 45.133-.883 7.518-1.651 11.712-3.631 19.827-3.267 13.39-4.876 19.102-6.557 23.333-3.366 8.47-10.212 19.543-15.754 25.509-2.13 2.293-10.006 9.298-13.014 11.562-5.563 4.188-12.373 8.053-19.761 11.207-7.522 3.211-14.339 4.775-27.089 6.195-14.181 1.579-18.045 1.775-29.893 1.516-4.525-.099-7.118-.172-8.617-.273-1.5-.102-1.794-.238-1.883-.308-.346-.273-.718-.291-1.033-.263-.315.029-.609.12-.887.248a2.665 2.665 0 00-.765.512c-.225.222-.457.527-.457.976 0 .265.06.504.171.727.074.149.194.293.353.421.005.124-.007.399-.072.877-.542 3.994-1.397 12.167-1.642 15.709-.517 7.464.037 15.023 1.804 24.785 1.309 7.224 5.119 24.204 8.079 36.015 1.539 6.142 2.222 9.627 2.789 14.204.698 5.648.983 14.331.888 21.985-.048 3.827-.189 7.401-.417 10.211-.113 1.404-.249 2.619-.402 3.569-.153.95-.345 1.655-.474 1.926-.132.276-.252.542-.342.76a5.956 5.956 0 00-.113.294c-.031.088-.078.048-.078.378 0 0 .025.212.061.294.036.083.08.145.12.192.081.092.145.13.192.158.094.054.138.063.174.073.072.021.105.024.139.029.07.011.131.015.208.021.154.011.359.02.622.029.526.019 1.275.035 2.2.048 1.849.028 4.395.045 7.195.045h10.172a.74.74 0 00.729-.622l.141-.879c.097-.602.314-2.551.583-5.075.268-2.525.578-5.571.827-8.182.398-4.161.764-11.919.983-19.273.22-7.353.299-14.224.09-16.793-.468-5.764-1.812-12.151-3.448-16.263-.406-1.022-2.571-6.978-4.755-13.097-2.186-6.122-4.516-12.599-5.188-14.417a292.581 292.581 0 01-2.568-7.358c-.761-2.291-2.211-6.081-3.248-8.494-2.125-4.945-3.028-7.472-3.878-10.839a37.57 37.57 0 01-.688-3.42c-.031-.21-.035-.324-.056-.501.558.246 1.284.572 2.082.938 7.567 3.466 14.502 4.583 25.148 4.079 14.557-.69 23.501-1.919 32.623-4.495 6.724-1.898 10.745-3.574 18.692-7.788 10.054-5.333 13.106-7.446 18.732-12.963 5.369-5.266 9.297-10.505 16.224-21.616 3.972-6.371 4.326-6.99 7.607-13.288 4.871-9.351 7.688-15.877 10.309-23.895 3.324-10.163 5.154-17.999 7.688-32.908 2.708-15.938 5.038-28.072 6.073-31.756.356-1.266 1.025-3.209 1.447-4.211 1.482-3.512 2.848-5.771 5.065-7.736 2.218-1.965 5.344-3.658 10.335-5.864 9.767-4.317 16.568-8.767 22.575-14.795 5.987-6.01 8.781-11.113 11.193-20.418 1.196-4.616 1.54-7.571 1.534-13.168-.004-4.67-.068-5.381-.65-7.696-.349-1.388-.834-3.05-1.131-3.832a16.263 16.263 0 01-.326-.935 5.25 5.25 0 01-.072-.246l.016-.026c.093-.15.241-.37.426-.632a55.36 55.36 0 011.454-1.955c2.674-3.45 4.091-5.564 5.898-8.802 1.311-2.349 2.747-5.528 3.267-7.298l.172-.586a.739.739 0 00-.702-.947v-.002zM224.49 239.45c-1.944.096-3.448.561-6.079 1.674-7.245 3.063-12.953 6.593-17.294 10.726-.61.581-.979.891-1.266 1.058-.286.167-.525.234-1.038.318-1.97.322-5.526 1.705-9.437 3.578-6.206 2.972-12.854 7.959-17.009 12.776-.98 1.137-2.823 3.278-4.096 4.761a313.646 313.646 0 01-3.041 3.501c-8.605 9.552-12.242 14.909-15.356 22.654-.561 1.397-.874 2.119-1.042 2.377-.084.13-.097.125-.111.133a1.49 1.49 0 01-.277.07c-.224.044-.98.101-1.895.126-.915.026-2.031.031-3.153.018-2.243-.026-4.608-.148-5.218-.265-4.162-.794-9.859-2.785-16.166-5.676-4.842-2.219-6.53-3.192-12.627-7.282-3.498-2.346-6.553-4.201-8.433-5.103-.787-.377-1.52-.72-2.071-.971a34.027 34.027 0 00-.68-.301 6.835 6.835 0 00-.223-.091c-.032-.012-.062-.023-.1-.035-.04-.012-.029-.04-.251-.04a.843.843 0 00-.581.276.716.716 0 00-.167.44c-.009.196.026.249.045.305.037.111.07.17.11.245.079.15.184.325.32.541.27.43.652 1.005 1.081 1.629.859 1.25 1.891 2.683 2.563 3.509 5.683 6.988 9.674 10.269 16.809 13.809 4.986 2.473 7.737 3.486 12.22 4.499 1.688.381 6.041 1.542 9.594 2.496l-.157.021c-.863.115-.852 1.367.013 1.467l1.289.149c1.512.175 3.921.12 6.276-.056 2.355-.177 4.576-.456 5.818-.858 1.168-.377 2.104-.894 2.88-2.144.777-1.249 1.514-3.18 2.811-6.707 3.161-8.596 5.778-12.805 15.133-24.331 3.578-4.408 10.994-12.034 14.498-14.923 2.494-2.055 6.155-4.174 11.004-6.336 4.579-2.042 5.602-2.357 8.129-2.486 2.575-.131 3.838-.569 5.304-1.854.366-.321 1.755-1.425 2.99-2.369a302.55 302.55 0 005.357-4.235c1.666-1.349 3.843-2.88 4.589-3.272.781-.411 1.897-.813 2.909-1.073 1.012-.26 2.008-.337 2.205-.297.064.013.124.024.205.029.082.004.173.049.436-.087a.823.823 0 00.386-.486.755.755 0 00-.056-.523c-.101-.204-.174-.237-.231-.284-.227-.189-.415-.269-.736-.421-.939-.446-1.899-.592-4.044-.673a24.316 24.316 0 00-2.139-.006zm8.37 3.418c-1.782.307-1.276 1.977-1.875 1.716-.337.395-.776.862-1.219 1.288-1.798 1.728-3.961 3.322-14.515 10.663l-3.086 2.147a.74.74 0 00.092 1.268l2.149 1.072c1.258.628 3.267 1.374 4.639 1.724 1.268.323 3.276.892 4.412 1.251l2.108.665a.74.74 0 00.71-.149l1.086-.952c.309-.271.582-.524.785-.728.101-.102.183-.188.257-.277.037-.045.071-.084.12-.166.024-.041.055-.088.087-.204a.735.735 0 00-.167-.701.665.665 0 00-.325-.22.74.74 0 00-.236-.847l-.585-.456c-.95-.74-2.399-1.121-3.966-1.32a14.263 14.263 0 00-2.717-.087c1.718-1.491 3.873-3.253 5.24-4.205 2.647-1.844 4.934-4.072 6.399-6.06.733-.995 1.266-1.922 1.526-2.779.13-.429.194-.846.141-1.264a1.77 1.77 0 00-.601-1.131 1.076 1.076 0 00-.459-.247v-.001zm16.751 7.082c-1.168.314-3.432 3.218-2.569 2.457a130.385 130.385 0 00-3.448 4.275c-2.108 2.747-5.736 6.946-7.304 8.473a22.76 22.76 0 00-1.252 1.322c-.364.418-.632.731-.813 1.074l-.362.689a.738.738 0 00.169.902l1.493 1.298a97.077 97.077 0 013.105 2.855c.459.443.897.845 1.243 1.145.173.15.321.274.449.371.063.048.12.09.187.132.034.021.069.042.124.068.055.026.111.073.323.077h.003c.301.007.345-.066.415-.103.07-.036.122-.07.176-.107.11-.074.222-.162.35-.266.255-.21.561-.485.876-.789l1.099-1.063a.738.738 0 00-.008-1.07l-1.757-1.65-1.144-1.075c1.131-.929 3.359-3.097 4.747-4.61 2.21-2.407 3.685-5.256 4.453-8.579.209-.905.327-2.147.363-3.212.018-.533.015-1.013-.018-1.399a2.701 2.701 0 00-.089-.537.977.977 0 00-.145-.319c-.091-.133-.33-.359-.665-.359h-.001zm13.304 14.176a.743.743 0 00-.55.242l-.745.82c-.191.21-.383.403-.523.531-.052.047-.083.071-.112.095-.081.033-.126.071-.158.093-.057.039-.087.067-.117.095a2.593 2.593 0 00-.164.167c-.112.124-.247.284-.412.485-.328.401-.766.96-1.273 1.622a196.55 196.55 0 00-3.487 4.71 18.638 18.638 0 00-1.115 1.746c-.297.536-.511.947-.592 1.407.012-.069-.032.094-.13.291a12.98 12.98 0 01-.433.784 56.384 56.384 0 01-1.565 2.469 179.777 179.777 0 01-5.02 7.119c-1.271 1.718-1.659 2.506-2.092 4.233-1.526 6.092-5.959 12.869-14.788 22.377-4.997 5.38-6.421 6.648-12.51 11.142-3.825 2.822-5.211 3.591-6.527 3.801-.461.074-.8.082-1.183.405a1.23 1.23 0 00-.371.616c-.049.202-.049.366-.049.537 0 .073-.06.448-.198.924a25.978 25.978 0 01-.606 1.774c-.52 1.384-1.248 3.115-2.065 4.921-1.635 3.611-3.638 7.547-5.003 9.639-2.815 4.315-5.047 8.049-5.892 9.914-.532 1.173-2.525 4.05-5.1 7.336a179.556 179.556 0 01-8.776 10.336l-2.743 2.979-3.695 1.821c-3.718 1.832-19.316 8.153-22.756 9.229-4.189 1.31-12.264 3.055-19.749 4.257-3.429.55-15.156.562-18.269.032-1.307-.222-2.98-.458-3.807-.532-3.101-.277-14.117-2.499-18.52-3.754a285.63 285.63 0 00-7.082-1.877c-5.055-1.269-7.55-2.094-14.461-4.784-15.986-6.222-25.32-11.14-35.114-18.487-1.124-.843-4.222-3.619-6.727-6.052-4.82-4.682-5.623-5.522-8.336-8.733a531.838 531.838 0 00-3.93-4.577c-1.192-1.372-3.275-4.121-4.556-6.021-.653-.968-1.271-1.874-1.741-2.557a86.72 86.72 0 00-.768-1.096c-.05-.068-.06-.092-.141-.18-.029-.031-.063-.072-.154-.131a.699.699 0 00-.612-.092.79.79 0 00-.51.507c-.038.13-.031.191-.03.24.005.194.03.215.05.287.041.144.1.313.181.533.163.442.41 1.066.709 1.781 3.918 9.392 14.533 24.425 23.71 33.652 5.483 5.514 13.364 12.115 18.876 15.801.56.375 1.073.749 1.432 1.035.179.143.32.266.399.341-.024-.042-.048-.12-.054-.281.005.135.031.22.061.289.03.03.054.057.049.05-.003-.003-.025-.011-.047-.037.037.08.08.133.112.177.061.084.118.142.178.202.122.119.263.237.438.374.35.273.826.611 1.41 1.007 1.168.791 2.757 1.804 4.494 2.871 3.472 2.134 7.514 4.476 9.924 5.661 8.35 4.105 19.564 7.264 33.899 9.581 4.96.802 8.792 1.293 11.896 1.523 1.964.146 6.315.216 10.522.219 4.207.002 8.158-.052 9.532-.208 4.764-.541 16.378-3.226 21.88-5.046 11.673-3.86 20.862-8.611 27.739-14.38 1.301-1.091 3.357-2.817 4.569-3.836 3.696-3.104 6.06-5.5 8.74-8.859 1.396-1.751 4.302-5.637 7.018-9.339 2.717-3.703 5.193-7.139 5.847-8.198.272-.442.56-1.131.9-2.019a47.76 47.76 0 001.017-2.955c3.867-12.576 6.492-17.953 11.12-22.91.938-1.004 1.962-2.279 2.413-3.066 1.219-2.13 4.547-7.073 5.959-8.857.782-.987 2.858-3.424 4.569-5.36 2.955-3.343 4.488-5.43 10.094-13.736 2.883-4.272 5.091-8.493 5.716-11.145.27-1.146.627-1.943.969-2.365 1.148-1.417 4.408-6.471 5.633-8.688 2.935-5.314 4.059-8.627 4.047-12.171l-.006-2.013a.74.74 0 00-.736-.736l-.002-.002z" fill="#654122"/><path d="M206.765 78.235c-.832.07-1.482.252-2.026.65-.544.4-.962.994-1.39 1.843-.544 1.08-.692 1.726-.683 2.98.018 2.28.828 4.784 2.046 6.893 1.218 2.11 2.838 3.831 4.56 4.497.72.278 1.315.41 1.918.35.604-.059 1.193-.304 1.92-.722.763-.439 1.243-.994 1.724-1.977.298-.61.472-1.01.547-1.525.074-.516.051-1.12-.004-2.185-.143-2.722-.722-4.467-2.256-6.797-1.769-2.687-4.09-4.195-6.356-4.007zm-1.487 3.36c.451-.052.928.085 1.333.49.398.398.566.812.551 1.205-.014.392-.211.786-.637 1.144-.419.354-.77.507-1.088.513-.318.007-.643-.127-1.029-.46-.457-.392-.549-.597-.549-1.225 0-.964.668-1.579 1.419-1.666zm-62.187 14.348c-2.091-.002-3.91 1.384-4.449 3.628l-.163.675c-.062.26-.254 2.045-.05 1.873l.65-1.849c.288-.822 1.972-.994 2.533-.747.561.248.974.814.974 1.663 0 .847-.455 1.436-1.059 1.695-.604.259-1.354.184-1.979-.396l-.655-.607c.198-2.456-.499-.016-.464.241l.147 1.064c.251 1.836 1.204 3.964 2.412 5.772 1.207 1.807 2.652 3.297 4.015 3.805.18.067.396.086.706.114.31.028.683.047 1.051.053 1.8.025 3.109-.868 3.708-2.429.598-1.562.545-3.756-.163-6.453-1.035-3.94-2.768-6.611-5.075-7.632a5.297 5.297 0 00-2.139-.47zm66.276 8.022c-2.522-.04-5.153.074-7.403.358-2.909.368-4.844.936-10.29 3.019-5.367 2.053-7.431 3.938-10.325 9.429-1.319 2.502-1.556 4.076-1.046 6.951.648 3.649 2.606 6.658 6.884 10.646 3.273 3.053 9.233 5.93 13.523 6.523.959.133 2.842.166 4.658.131a52.086 52.086 0 002.531-.103c.737-.05 1.309-.109 1.651-.201 3.017-.803 6.441-3.769 8.505-7.291 2.528-4.313 4.512-11.35 4.804-16.997.163-3.156-.224-5.771-1.141-7.749-.916-1.979-2.379-3.318-4.305-3.854-1.865-.52-4.864-.811-8.046-.862z" fill="#020202"/></svg>