<svg width="109" height="99" viewBox="0 0 109 99" fill="none" xmlns="http://www.w3.org/2000/svg">
<path d="M45.1975 54.4163L53.9403 45.0313C55.267 43.6072 55.038 41.341 53.453 40.2112L39.8325 30.5015C37.6333 28.9338 37.0242 25.9303 38.4391 23.6296L50.3806 4.21268C45.5705 1.58966 40.0592 0.0909079 34.1992 0.0719607C15.3775 0.0106482 0 15.3362 0 34.1581C0 43.1787 3.50418 51.3809 9.2254 57.4777L9.22562 57.4781L45.2712 95.8881C46.8351 97.5544 48.9193 98.6129 51.1583 98.9115L57.2041 72.9312C57.4937 71.6875 57.0213 70.3902 55.9998 69.6238L45.8728 62.0242C43.432 60.1925 43.1176 56.6491 45.1975 54.4163Z" fill="#E54B4B"/>
<path d="M74.7971 0.0719723C68.4695 0.0932613 62.5486 1.8396 57.4784 4.86393L46.069 23.4154C45.1812 24.859 45.5634 26.7436 46.9433 27.7271L61.3134 37.971C63.8394 39.7716 64.2045 43.3833 62.0901 45.6531L53.2625 55.1289C51.9573 56.5299 52.1547 58.7532 53.6862 59.9025L63.1643 67.015C64.1857 67.7814 64.6579 69.0788 64.3686 70.3225L57.712 98.9284C60.0003 98.654 62.135 97.5867 63.7291 95.8881L99.7745 57.4781C105.496 51.3812 109 43.1787 109 34.1581C109 15.3347 93.6202 0.00874376 74.7971 0.0719723Z" fill="#E54B4B"/>
</svg>
