<svg width="508" height="545" fill="none" xmlns="http://www.w3.org/2000/svg"><path d="M341.736 212.042c-1.706-2.609-1.034-13.459 1.034-16.972 1.266-2.222 1.628-2.377 6.332-2.609 4.756-.233 4.911-.155 6.1 2.015 1.422 2.816 1.499 11.16.078 14.518-1.5 3.565-3.8 4.908-8.4 4.908-3.36 0-4.084-.31-5.144-1.86zM275.493 191.298c-1.189-.904-1.421-2.015-1.421-6.174 0-5.941.517-8.189 2.688-10.85 1.344-1.782 2.093-2.014 5.815-2.014 3.877 0 4.394.155 5.144 1.859 1.111 2.377 1.188 8.784.155 12.194-1.189 4.159-3.412 6.019-7.444 6.019-1.861 0-4.084-.44-4.911-1.034h-.026z" fill="#070604"/><path d="M387.897 541.099c.31-2.17 1.189-7.285 2.016-11.392 2.016-9.817 2.688-23.741 1.421-28.261-1.111-3.953-5.737-9.533-9.614-11.47-3.877-1.937-10.339-3.565-27.604-6.846-8.4-1.55-17.188-3.358-19.565-4.03-7.444-2.092-20.626-4.081-29.775-4.624-8.555-.439-8.788-.516-10.649-2.686-1.628-1.938-1.861-2.764-1.628-7.13.233-4.908.233-4.908 4.316-4.753 2.223.077 18.015.516 34.996.904 16.981.362 32.747 1.033 34.995 1.498 16.309 3.281 55.078 6.536 60.971 5.218 3.645-.826 17.11-6.69 29.465-12.787 7.599-3.797 8.4-4.469 11.605-8.86 1.861-2.532 4.471-6.769 5.815-9.3 2.766-5.063 2.611-3.643 1.189-18.445-.517-5.218-.517-5.218 8.038-17.695 4.678-6.923 6.255-9.972 8.478-16.507 2.688-8.034 2.688-8.034 1.783-20.382-1.551-22.475-5.066-33.919-14.37-46.654-2.766-3.643-7.754-9.377-11.166-12.658-11.01-10.566-20.832-16.146-34.091-19.271-4.316-1.034-8.994-2.299-10.416-2.764-1.861-.672-7.211-.905-18.971-.75-8.994.155-18.454-.077-20.987-.516-3.411-.517-6.41-.439-11.527.31-10.416 1.55-25.536 5.14-32.592 7.75-8.865 3.203-24.709 4.753-43.163 4.314-7.599-.155-15.042-.672-16.516-1.189-2.61-.826-2.817-1.11-2.817-3.642.078-2.17.75-3.487 3.36-6.329 3.205-3.487 3.205-3.487 11.683-3.487 11.088 0 23.158-2.455 41.534-8.344 22.693-7.363 52.623-22.01 67.226-33.04 3.489-2.765 4.833-3.281 7.521-3.281 3.05 0 3.36.155 3.799 2.221.311 1.266.957 2.764 1.551 3.359.672.594 1.861 2.893 2.766 5.14 1.55 3.72 3.411 6.768 5.582 8.99.44.594.905 1.266.905 1.498 0 1.705 8.348 7.208 9.382 6.174.078-.155 1.112-3.28 2.171-6.923 2.766-9.377 3.283-19.788 1.422-27.589-1.422-5.89-1.422-5.89-1.784 2.377-.517 10.798-1.344 12.193-7.081 12.193-4.549 0-4.911-.31-10.804-9.972-4.911-8.111-7.444-20.899-5.066-26.117 1.034-2.376 4.911-3.565 10.494-3.28 4.238.31 4.238.31 4.238-2.816 0-3.203 0-3.203 3.722-3.203 5.221 0 9.667 1.498 9.667 3.28 0 .904-.362 1.189-1.112.904-1.499-.516-1.499-.516 1.422 4.315 4.833 8.111 6.487 15.783 6.099 29.449-.155 5.502-.439 10.849-.672 11.831-1.033 4.03-2.377 7.362-4.316 11.005-3.644 6.691-4.032 7.285-5.066 7.956-1.111.672.31 2.093 6.617 6.536 1.861 1.343 3.722 2.687 4.084 2.971.439.361 3.282 2.454 6.332 4.675 4.756 3.488 11.76 9.3 15.559 13.02.672.594 3.567 3.281 6.41 5.942 8.943 8.266 15.559 17.178 22.331 30.121 7.754 14.647 8.348 16.739 9.227 32.73.75 15.112.233 24.618-1.628 30.121-.672 1.86-1.706 7-2.378 11.469-.594 4.469-1.706 9.972-2.3 12.271-1.189 4.236-7.444 19.943-8.4 21.286-.31.439-1.344 2.687-2.223 4.986-2.016 5.063-11.76 21.802-16.981 29.087-2.533 3.565-5.583 6.613-10.261 10.127-8.865 6.613-14.81 10.643-19.436 12.942-3.799 1.937-3.799 1.937-4.316 9.222-.31 4.03-.957 9.817-1.551 12.865-.517 3.048-1.861 10.643-2.895 16.739-1.034 6.174-2.093 11.599-2.3 12.116-.233.672-5.428.904-22.409.904-22.098 0-22.098 0-21.581-3.875l-.181.052zM182.136 407.13c0-2.221-5.065-4.546-17.575-8.034-7.082-2.014-15.792-4.081-19.281-4.753-4.911-.826-7.676-1.86-12.277-4.469-6.927-3.952-6.772-3.875-16.438-12.58-4.084-3.643-7.366-7.079-7.366-7.595 0-.749.956-1.033 2.894-1.033 2.223 0 4.989 1.11 11.011 4.469 4.394 2.454 10.726 5.347 13.983 6.406 6.487 2.015 20.625 4.03 29.102 4.03 2.895 0 7.883.233 11.088.517 5.738.439 5.738.439 6.85 3.048 1.421 3.41.594 20.976-.957 20.976-.594 0-1.034-.439-1.034-.956v-.026z" fill="#C9954A"/><path d="M439.382 393.13c-1.938-1.55-2.016-1.86-1.706-6.536.233-2.687 1.422-8.706 2.688-13.33 4.756-17.644 4.679-30.715-.31-41.875-2.222-4.908-2.61-6.484-2.61-11.392 0-5.657 0-5.657 3.954-5.657 4.032 0 4.032 0 7.883 4.753 4.627 5.812 6.927 11.909 8.271 22.397 1.344 10.798.672 28.803-1.499 36.45-2.223 8.266-5.428 14.802-7.805 15.835-2.973 1.344-6.617 1.034-8.866-.671v.026zM178.725 361.949c-4.472-1.55-9.667-4.831-10.261-6.484-.233-.594-.672-2.893-.905-5.063-.517-3.952-.439-4.03 2.016-5.502 1.629-.956 3.8-1.55 6.022-1.55 3.36 0 15.715-4.082 21.504-7.13 3.412-1.783 7.883-6.174 12.949-12.942 7.211-9.533 10.804-11.909 18.248-11.909 4.238 0 8.038 1.937 10.209 5.14 1.499 2.17 1.706 3.488 1.706 9.378 0 6.406-.155 7.129-2.895 12.425-3.722 7.44-8.038 12.426-14.138 16.43-6.772 4.546-10.261 5.735-18.971 6.484-4.161.362-8.71 1.033-10.132 1.498-3.877 1.111-11.088.827-15.326-.749l-.026-.026zM142.256 297.238c-2.378-1.55-8.271-9.145-17.498-22.63-3.05-4.469-7.676-10.643-10.338-13.691-2.688-3.048-5.816-6.846-7.082-8.344-1.189-1.55-6.539-7.879-11.915-14.13-16.516-19.427-18.17-21.648-18.17-24.542 0-1.42.44-3.41 1.034-4.469.594-1.033 1.034-3.28 1.111-5.063 0-1.937.362-3.358 1.034-3.565 1.421-.516 6.617 4.392 10.933 10.256 4.316 6.019 12.354 14.208 20.031 20.382 7.676 6.329 26.802 25.083 30.524 30.069 1.706 2.222 5.427 7.285 8.348 11.16 2.895 3.875 5.893 7.672 6.772 8.395 1.344 1.189 1.421 1.421.232 2.61-.672.749-1.189 1.86-1.189 2.454-.077 1.343-1.783 3.642-2.765 3.642-.827 0-2.455 4.908-2.455 7.362 0 1.344-.44 1.55-3.128 1.55-1.861 0-4.161-.594-5.505-1.498l.026.052zM266.11 268.073c-2.894-1.033-2.765-4.392.233-9.222 5.066-7.957 10.648-12.193 16.231-12.193 3.644 0 3.722.077 4.239 2.531.827 4.469-.31 7.001-5.505 12.503-6.772 7.208-9.744 8.396-15.198 6.407v-.026zM244.813 258.386c-2.455-3.126-3.876-7.518-3.876-11.987 0-7.284 2.377-10.927 7.081-10.927 4.756 0 6.333 2.971 6.333 11.909 0 7.801-.595 10.411-2.301 10.411-.827 0-1.421.361-1.421.749 0 1.033-4.911.904-5.816-.155zM344.191 214.883c-.31-.232-.517-1.42-.517-2.609 0-1.86.155-2.015 1.499-1.188 1.939 1.188 4.989.077 7.005-2.609 1.189-1.628 1.55-3.203 1.55-6.923 0-4.392.156-4.753 1.551-4.753 1.861 0 2.533 1.704 2.533 6.845 0 4.082-1.034 6.846-3.644 9.739-1.551 1.705-2.456 2.015-5.66 2.015-2.172 0-4.084-.232-4.317-.517zM276.526 193.752c-.904-.439-1.344-1.627-1.344-3.203 0-3.203.517-3.642 2.3-1.86 2.016 2.015 3.955 1.783 6.178-.826 2.222-2.687 3.282-8.189 2.016-10.85-1.112-2.454-1.112-2.532 1.033-2.532 2.456 0 3.36 2.299 3.36 8.628 0 5.425-1.344 9.455-3.566 10.643-1.939 1.034-8.271 1.034-9.977 0zM224.42 173.655c-1.034-.594-1.344-1.705-1.344-4.986 0-4.03.233-4.547 2.817-7.001 3.36-3.28 12.2-8.395 17.86-10.333 4.394-1.498 12.949-1.86 15.999-.749 3.644 1.421 4.988 3.72 4.988 8.396 0 4.159-.155 4.546-3.205 7.517-3.489 3.487-9.382 5.812-18.376 7.207-6.255.956-17.111.904-18.765-.077l.026.026zM370.477 144.799c0-1.627.439-3.41.956-3.952.517-.517 2.093-2.454 3.412-4.314 6.022-7.879 10.054-11.16 13.853-11.16 2.171 0 2.3.517.75 2.532-.595.826-1.112 1.937-1.112 2.454 0 1.266 8.193 7.207 14.371 10.333 5.815 2.971 6.539 4.753 2.016 4.753-3.877 0-11.915-3.281-16.232-6.536-2.817-2.17-3.489-2.376-4.161-1.498-.439.594-2.61 3.126-4.833 5.657-3.412 3.953-4.394 4.624-6.488 4.624-2.455 0-2.532-.077-2.532-2.893zM351.118 134.828c0-1.938.439-2.687 1.783-3.358 2.223-.956 13.026-8.706 17.937-12.71 2.973-2.454 4.317-3.048 6.617-3.048 2.972 0 2.972 0-1.034 4.081-3.877 3.953-3.954 4.082-2.61 5.141.827.594 1.343 1.188 1.111 1.343-1.344 1.111-13.466 8.783-15.404 9.817-1.344.671-3.722 1.188-5.428 1.188-2.895 0-2.972-.078-2.972-2.454z" fill="#C9954A"/><path d="M218.399 535.519c-.672-12.193-1.55-17.695-3.877-22.681-1.033-2.17-1.861-4.831-1.861-5.941 0-1.111-1.499-4.315-3.36-7.285-1.86-2.816-3.954-6.613-4.548-8.344-1.784-5.064-5.506-21.286-5.506-24.102 0-2.377.155-2.532 2.688-2.532 1.784 0 3.955.904 7.005 2.971 7.004 4.753 33.341 12.658 42.129 12.658 4.083 0 8.477-1.188 8.477-2.299 0-1.343-6.926-5.063-12.587-6.923-8.865-2.816-12.871-3.953-15.714-4.547-5.583-1.033-15.198-4.314-17.782-5.941-3.283-2.093-5.066-3.72-8.4-7.957-6.694-8.189-8.478-15.034-9.899-37.509-1.189-19.865-2.456-35.933-2.973-37.277-.672-1.937-1.861-.826-4.083 3.798-1.784 3.565-2.456 6.174-2.766 9.894-.439 6.845-.827 8.395-2.016 8.395-1.266 0-2.378-3.952-1.266-4.314 1.111-.361 1.034-3.41-.233-6.406-.956-2.377-1.111-2.454-6.772-2.893-3.204-.31-8.193-.517-11.087-.517-8.478 0-22.642-2.015-29.103-4.03-3.283-1.033-9.615-3.952-13.983-6.407-8.348-4.624-9.46-5.063-9.46-3.642 0 1.628-2.222-.956-5.737-6.691-1.939-3.125-3.877-6.174-4.317-6.768-.517-.594-2.688-4.469-4.833-8.55-2.17-4.082-4.161-7.75-4.549-8.112-1.111-1.188-.75-1.937.827-1.937 2.016 0 1.861-1.705-.44-6.691-1.782-3.797-10.57-26.944-11.837-31.258-.31-1.033-1.266-3.203-2.093-4.83-1.784-3.565-3.8-8.99-9.15-24.541-4.626-13.253-12.07-29.45-16.67-35.934-1.861-2.764-2.973-5.14-2.973-6.535 0-2.093.31-2.3 3.567-3.126 4.084-.904 8.71-2.893 13.931-6.019 2.094-1.266 4.317-2.222 4.989-2.299 2.016 0 3.566-2.17 3.566-4.909 0-1.42.31-2.531.595-2.531.827 0 3.127-7.001 3.127-9.377 0-1.266.44-1.783 1.422-1.783 1.266 0 2.61 2.454 1.783 3.281-.233.232-.517 1.705-.594 3.281-.156 1.627-.828 4.03-1.5 5.27-1.189 2.376-1.189 2.376 3.128 7.801 2.378 2.971 8.71 10.566 13.983 16.817 5.35 6.252 10.726 12.581 11.915 14.131 1.266 1.498 4.393 5.269 7.081 8.344 2.688 3.048 7.289 9.222 10.339 13.691 12.354 18.083 17.575 24.102 20.909 24.102.595 0 .827-.827.595-2.222-.233-1.266 0-2.221.362-2.221.361 0 .516-.517.232-1.111-.232-.594-.077-1.111.362-1.111s.517-.362.31-.749c-.232-.439.155-.956.905-1.266 1.706-.672 3.282-2.609 2.817-3.72-.362-1.188 2.3-3.487 3.36-2.816.517.31 1.189.078 1.551-.439.439-.749.672-.516.672.904 0 2.17-2.016 4.392-3.955 4.392-.904 0-1.266.594-1.266 1.86 0 1.033-.44 2.686-1.034 3.565-1.499 2.299-2.171 4.986-1.344 4.986.362 0 2.61-1.55 4.911-3.41 4.161-3.488 4.161-3.488 15.197-4.547 6.022-.594 14.965-.956 19.876-.827 8.193.233 9.382.44 13.026 2.377 4.472 2.377 9.15 2.893 11.993 1.343 2.895-1.55 5.143-5.425 5.143-8.938 0-3.126.957-4.159 1.784-2.015.361.956 1.033.827 4.316-.826 2.171-1.034 4.471-2.222 5.066-2.61.594-.361 1.706-.904 2.455-1.11 1.344-.517 1.783-2.532.517-2.532-.517 0-.517-.439 0-1.498 1.034-1.938 5.35-2.015 7.211-.155 2.378 2.454 5.66 4.314 17.937 10.488 13.259 6.691 12.587 6.613 16.387 2.17.956-1.189 2.377-2.093 3.205-2.093.956 0 1.421-.516 1.421-1.782 0-.956.517-2.222 1.189-2.764.956-.827 9.744-12.271 17.86-23.353 2.61-3.642 4.316-9.3 3.721-12.426-1.033-5.657-14.809-15.783-25.742-18.909-1.034-.233-3.205-1.111-4.833-1.86-3.283-1.421-15.198-4.03-22.486-4.831-4.679-.516-4.679-.516-4.679-3.048 0-2.17.75-3.41 4.239-7.207 5.273-5.735 11.476-15.19 13.543-20.77 1.034-2.816 1.551-6.019 1.551-9.455 0-5.14 0-5.14-4.988-2.815-18.532 8.395-32.54 9.454-46.885 3.41-4.316-1.86-5.427-2.61-5.427-3.875 0-1.034 4.032-5.735 11.759-13.614 11.011-11.392 12.071-12.193 18.015-15.035 7.134-3.281 14.526-5.141 23.158-5.812 5.816-.439 5.816-.439 7.289 2.092.827 1.344 2.171 4.676 2.972 7.363.956 3.125 2.3 5.657 3.722 7 2.016 1.938 2.61 2.093 5.428 1.628 6.694-1.111 17.937-8.473 24.036-15.784 7.367-8.783 9.46-13.614 8.788-20.227-.439-4.159-.439-4.237 1.034-2.971 1.706 1.55 16.826 2.893 26.13 2.454 15.56-.904 29.853-2.816 36.469-4.908 1.344-.439 2.688-.594 2.895-.362.672.595-2.016 3.41-3.283 3.41-.594 0-.827.362-.516.904.31.44.232.595-.311.362-.361-.31-2.222.672-3.954 2.17-4.032 3.358-14.655 10.927-17.498 12.503-2.895 1.55-.904 1.498 2.171 0 1.267-.672 5.066-3.048 8.4-5.218 3.36-2.222 6.539-4.03 7.082-4.03.594 0 1.861.517 2.817 1.188 2.094 1.499 8.4 1.034 12.07-.749 1.267-.672 2.611-.956 2.973-.749.904.517-.595 3.281-1.861 3.281-1.499 0-6.849 4.985-10.649 9.894-1.938 2.531-3.954 5.063-4.471 5.58-.517.516-.957 1.42-.957 1.859 0 .517 1.939-1.265 4.239-3.952 5.221-5.89 9.899-10.411 10.856-10.411.361 0 .232.517-.311 1.189-.904 1.111-.594 1.55 2.171 4.081 3.49 3.049 13.776 7.75 15.56 7.079.672-.31 2.3.361 3.644 1.42 1.422 1.111 2.895 1.705 3.283 1.499 1.55-.956.672 2.17-1.267 4.546-4.394 5.218-5.505 7.001-6.539 10.049-2.3 6.484-.956 14.57 4.239 25.6 1.783 3.72 4.032 7.595 5.066 8.783 1.705 1.783 2.093 1.938 4.471 1.266 1.422-.361 5.738-.749 9.46-.749 6.849 0 6.926 0 6.926 1.783 0 1.627-.232 1.782-3.127 1.42-3.05-.439-3.05-.439-2.533 2.093.233 1.421 2.455 6.69 4.911 11.831 2.455 5.218 4.756 11.392 5.272 13.976 1.422 7.44.44 22.164-1.938 30.198-1.034 3.643-1.783 7.078-1.551 7.672.957 2.455-7.598-.361-11.76-3.952-1.499-1.266-2.688-2.532-2.688-2.816 0-.31-.362-.904-.749-1.421-3.489-4.159-4.472-5.502-4.472-6.251 0-.517-.31-.956-.594-.956-.31 0-.672-.749-.672-1.627-.078-.956-.517-1.783-.956-1.938-.362-.155-.595-.594-.362-.904.232-.362-.362-1.421-1.344-2.377-.957-.955-1.629-2.169-1.422-2.686.155-.517-.155-.904-.594-.904-.517 0-.75-.517-.44-1.111.75-2.015-1.705-1.188-6.022 2.17-14.577 11.005-44.507 25.678-67.225 33.04-18.299 5.89-30.369 8.344-41.69 8.344-8.555.077-8.555.077-11.838 3.797-1.783 2.015-3.049 3.875-2.817 4.159 1.344 1.266 10.209 2.454 19.359 2.454 15.482 0 30.808-1.782 38.485-4.624 7.133-2.531 22.021-6.019 33.134-7.749 6.1-.956 8.711-1.034 14.526-.31 3.877.439 13.931.749 22.331.594 10.648-.155 16.154.077 18.247.671 1.629.517 6.488 1.783 10.804 2.816 13.259 3.126 23.08 8.706 34.091 19.271 12.587 12.064 20.237 25.136 23.158 39.499 1.551 7.594 3.05 23.585 3.05 32.446 0 8.111-3.955 18.444-10.933 28.725-7.676 11.16-8.555 12.788-7.961 15.319.233 1.111.75 4.986 1.034 8.551.595 6.484.595 6.484-2.016 11.599-1.421 2.764-4.161 7.207-6.022 9.894-3.282 4.469-4.032 5.14-11.682 8.938-12.794 6.329-25.898 11.986-29.853 12.865-6.694 1.55-40.5-1.266-68.026-5.58-5.066-.749-13.983-1.111-31.636-1.189-28.224-.155-30.809-.232-32.54-.955-1.861-.905-2.817.077-2.817 2.893 0 1.55.672 3.281 1.86 4.676 1.784 2.092 2.016 2.17 10.571 2.609 9.15.516 22.331 2.531 29.775 4.624 2.378.671 11.166 2.454 19.566 4.03 17.265 3.28 23.752 4.908 27.603 6.845 3.877 1.938 8.478 7.518 9.615 11.47 1.344 4.676.594 23.224-1.344 32.73-.827 4.082-1.706 8.706-1.939 10.256-.516 2.764-.516 2.764-85.964 2.764-85.447 0-85.447 0-85.912-9.455l-.026-.026zm73.171-70.911c0-.361.439-.749 1.033-.749.595 0 1.112-1.188 1.344-3.203.517-4.392 7.082-18.445 11.76-25.135 2.094-3.049 4.549-6.613 5.35-7.957 1.551-2.531 1.551-2.531 8.349-2.015 18.609 1.421 39.518-.077 66.321-4.753 4.549-.749 13.543-1.627 20.108-1.937 13.026-.595 16.076-1.499 18.764-5.348 3.05-4.469 3.205-5.735 1.344-9.61-2.171-4.624-3.567-6.484-12.277-16.429-7.004-7.957-9.666-10.566-13.259-12.942-2.817-1.938-7.082-13.33-9.899-26.35-1.111-5.218-1.551-10.126-1.551-16.378-.077-8.86.311-10.927 3.645-20.304.594-1.783.956-3.358.827-3.488-.44-.439-7.754 8.784-9.227 11.677-3.567 6.923-4.316 19.193-1.784 31.619 2.533 12.581 6.488 21.88 12.949 30.353 1.861 2.455 4.678 6.33 6.333 8.551 1.55 2.222 4.238 5.425 5.944 7.078 2.533 2.377 3.05 3.41 3.05 5.735 0 3.203 0 3.203-11.993 3.953-3.954.232-10.648 1.033-14.887 1.782-4.239.749-10.054 1.627-12.949 1.86-10.933 1.111-28.43 3.487-32.462 4.546-2.378.595-7.211 2.222-10.804 3.72-9.382 3.72-15.921 3.565-15.921-.516 0-.956-.595-1.343-1.861-1.343-1.034 0-2.817-.595-3.955-1.344-21.736-14.802-30.446-19.504-39.234-21.363-8.116-1.705-16.154-1.034-18.764 1.498-.595.594-1.551 1.111-2.094 1.111-2.817 0-7.754 7.284-12.277 18.237-2.171 5.141-2.765 14.519-1.421 21.416 1.551 7.801 4.316 9.532 29.697 18.909 26.725 9.894 29.775 10.798 29.775 9.145l.026-.026zm23.675-56.237c.516-2.532.594-5.348.155-8.551-.362-2.609-.75-13.02-.75-23.069 0-15.706-.155-18.444-1.189-19.271-.956-.827-1.421-.749-2.765.594-1.499 1.498-1.629 2.764-2.223 15.19-.517 12.942-.233 18.522 1.551 28.132 1.111 5.657 3.282 12.064 3.799 11.392.31-.31.956-2.299 1.422-4.392v-.025zm130.781-16.818c2.377-1.033 5.582-7.594 7.805-15.835 3.283-12.064 2.688-33.04-1.189-44.484-2.171-6.329-8.555-14.647-11.243-14.647-2.765 0-2.378 5.425.905 12.658 5.143 11.392 5.272 27.977.362 46.137-3.412 12.71-3.49 13.614-1.112 15.551 2.378 1.86 2.094 1.783 4.472.672v-.052zM191.83 360.451c1.421-.439 5.944-1.111 10.131-1.498 8.71-.75 12.2-1.938 18.971-6.485 6.1-4.029 10.416-8.989 14.138-16.429 2.455-4.753 2.895-6.407 2.895-10.204 0-5.58-1.939-8.938-6.177-11.005-5.816-2.893-11.76.31-19.204 10.256-8.038 10.85-10.571 12.71-24.425 17.85-6.694 2.532-9.899 3.359-11.527 3.049-2.61-.517-7.288 1.859-6.849 3.409.233.517.517 1.86.749 2.894.517 2.299 4.911 5.425 10.416 7.362 4.472 1.627 7.289 1.782 10.856.749l.026.052zM425.556 257.12c0-.31-1.861-3.41-4.084-6.923-4.678-7.208-8.038-15.784-9.382-24.18-.905-5.425-.957-5.657-1.629-3.41-.517 1.628-.439 3.72.155 6.329.517 2.17 1.189 5.27 1.5 6.924.361 1.627 1.033 3.048 1.499 3.203.439.155.827.904.827 1.705 0 .749.362 1.421.749 1.421.44 0 .75.826.75 1.86 0 1.033.362 1.86.749 1.86.44 0 .75 1.033.75 2.221 0 1.705.31 2.222 1.499 2.222.956 0 1.499.516 1.499 1.498 0 .827.517 1.498 1.111 1.498.595 0 1.112.517 1.112 1.111s.362 1.111.749 1.111c.44 0 .75.517.75 1.111s.362 1.111.749 1.111c.44 0 .75-.31.75-.672h-.103zm4.988-19.943c1.111-1.705 1.344-3.72 1.344-12.115 0-9.378-.155-10.334-1.939-13.769-2.093-4.159-5.815-7.078-8.865-7.078-5.066 0-8.193 2.686-8.193 7 0 6.252 4.756 17.334 10.933 25.6 2.223 3.049 4.911 3.204 6.694.362h.026zm-78.521-26.039c4.032-4.469 4.394-8.628 1.267-13.924-1.422-2.454-1.861-2.764-4.239-2.532-3.412.31-5.066 2.971-5.738 9.145-.517 4.159-.362 4.676 1.499 6.923 2.456 2.894 4.679 3.048 7.211.362v.026zm-66.76-20.615c4.549-4.546 2.611-15.99-2.688-16.068-1.034 0-2.533.749-3.36 1.55-1.421 1.628-1.421 1.628.155.827 2.378-1.266 3.36-.078 1.706 2.015-1.422 1.705-1.499 1.705-2.455.439-.957-1.343-1.034-1.343-1.422.077-1.111 3.953-1.266 6.175-.439 8.189.517 1.189.956 2.455.956 2.765.155.955 2.171 2.015 4.032 2.015.956 0 2.533-.827 3.489-1.783l.026-.026zm-44.3-19.038c8.994-1.421 14.887-3.72 18.376-7.208 3.645-3.642 4.162-6.406 1.629-9.067-4.549-4.831-12.51-3.953-24.554 2.893-7.082 3.953-11.088 7.802-11.088 10.566 0 1.111.595 2.299 1.344 2.764 1.628.956 8.116 1.033 14.293.077v-.025z" fill="#E7B162"/><path d="M345.613 199.41c-.904-2.454 3.05-4.753 4.472-2.454.31.439.232.594-.31.31-.362-.233-1.422.439-2.223 1.498-1.267 1.782-1.499 1.86-1.939.672v-.026zM266.266 258.98c0-1.498.31-2.687.672-2.687.362 0 .827-.671 1.034-1.55.233-.826 1.034-1.705 1.861-1.937.827-.233 1.628-1.033 1.861-1.86.232-.827 1.111-1.627 1.938-1.86.905-.232 1.551-.672 1.551-1.033 0-.362.517-.672 1.111-.672.595 0 1.112-.31 1.112-.749 0-.362 1.499-.749 3.36-.749 2.817 0 3.36.232 3.36 1.498 0 1.033-.517 1.498-1.629 1.498-2.3 0-8.477 4.754-11.604 8.938-3.283 4.314-4.627 4.676-4.627 1.189v-.026zM244.891 258.541c-1.266-.517-1.706-1.343-1.706-2.971 0-1.421-.362-2.222-1.034-2.222-1.266 0-1.938-1.627-1.938-4.546 0-1.628.362-2.17 1.499-2.17.827 0 1.499.517 1.499 1.111 0 .671.827 2.815 1.861 4.83 1.783 3.565 3.36 5.27 3.36 3.798 0-.439.672-.827 1.499-.827.827 0 1.499-.516 1.499-1.111 0-.594.362-1.11.827-1.11.44 0 .672 1.188.517 2.815-.233 2.687-.31 2.764-3.205 2.894-1.628.077-3.722-.155-4.626-.517l-.052.026zM240.213 242.55c0-1.42.31-2.609.672-2.609.362 0 .827-.749.957-1.627.155-1.421.749-1.783 3.411-1.938 3.36-.232 4.161.75 1.629 2.093-.827.439-2.094 2.17-2.818 3.72-1.628 3.952-3.876 4.081-3.876.361h.025z" fill="#E7B162"/><path d="M279.654 434.875c0-1.55-.362-2.221-1.189-2.221-.672 0-2.223-.44-3.49-1.034-1.344-.594-6.254-1.937-10.932-3.048-4.679-1.111-9.899-2.609-11.528-3.281-1.628-.749-5.427-2.299-8.4-3.487-3.954-1.55-5.738-2.687-6.177-3.875-.75-1.937-.905-7.672-.233-9.377.827-2.093 5.144-1.344 13.854 2.454 4.678 2.015 12.587 4.753 17.653 6.019 10.338 2.609 12.794 3.642 16.309 6.923 2.171 2.092 2.378 2.764 2.378 6.484 0 5.063-1.344 6.691-5.428 6.691-2.533 0-2.766-.155-2.766-2.222l-.051-.026zM309.067 428.778c-.827-.516-4.084-2.815-7.366-5.218-6.617-4.986-10.856-7.517-25.097-15.189-8.787-4.754-11.475-5.813-20.03-7.802-5.428-1.343-10.571-2.971-11.476-3.72-1.551-1.343-1.551-1.343.077-2.816.957-.904 3.877-2.015 7.005-2.686 4.678-.956 6.099-.956 12.122 0 12.793 2.015 18.299 4.83 43.757 22.087 2.61 1.705 2.688 1.705 2.223-.672-.362-2.092-.362-2.092 1.783-.232a167.487 167.487 0 002.895 2.454c.439.361.362.826-.31 1.265-1.551.905.31 2.971 2.61 2.971 1.422 0 1.783.362 1.783 1.783 0 1.033-.31 2.092-.749 2.299-.362.232-.75 1.266-.75 2.299 0 1.266-.361 1.782-1.499 1.782-.827 0-1.706.517-1.938 1.111-.517 1.343-3.05 1.421-5.143.233l.103.051zM72.782 212.042c-1.267-2.221-2.3-4.236-2.3-4.546 0-.233-2.378-4.831-5.273-10.204-2.895-5.425-6.617-13.692-8.27-18.367-3.878-11.238-9.073-21.803-12.51-25.368-2.533-2.687-3.05-2.893-6.927-2.893-2.3 0-4.316.31-4.627.749-.232.361.078 1.937.75 3.41.594 1.498 1.628 4.753 2.3 7.285.595 2.531 2.456 8.188 4.084 12.58 2.223 6.252 2.895 9.145 2.895 12.865 0 4.753 0 4.753-2.533 4.753-3.05 0-3.36-.31-6.41-8.189-1.344-3.487-2.895-7.285-3.412-8.551a213.948 213.948 0 01-2.895-7.078 244.83 244.83 0 00-3.954-8.938c-2.093-4.469-3.36-14.802-1.706-13.846.517.31 2.533-.439 4.472-1.783 4.833-3.048 7.21-3.642 16.153-4.159 6.617-.361 7.961-.232 10.494 1.034 5.143 2.609 11.01 9.661 15.999 19.116 2.765 5.218 9.899 23.585 11.398 29.397 1.421 5.219 2.17 17.102 1.111 17.102-.31 0-.44.671-.233 1.498.233.904 0 1.498-.439 1.498-.517 0-.672.362-.44.749.233.439.156.749-.31.749-.439 0-.594.517-.361 1.111.31.672 0 1.111-.75 1.111-.672 0-1.189.594-1.189 1.498 0 3.049-2.765 1.628-5.143-2.609l.026.026zM437.237 200.082c-2.016-.517-4.032-1.266-4.471-1.628-1.034-.826-9.382-.671-15.482.155-3.954.594-4.239.517-5.738-1.421-.904-1.188-1.55-2.17-1.421-2.299.155-.155 3.567-.749 7.676-1.421 14.448-2.17 13.259-1.627 10.416-5.14-3.567-4.392-8.994-14.363-10.416-19.039-.672-2.17-1.189-5.425-1.189-7.207 0-3.204 0-3.204 5.816-3.204 5.737 0 5.737 0 7.521 4.676.956 2.532 2.016 4.753 2.3 4.986.31.232 1.628 2.454 2.972 5.063 1.267 2.532 2.688 4.624 2.973 4.624.31 0 .749.672.956 1.498.31 1.189 1.034 1.499 3.567 1.499 2.171 0 3.722.439 4.755 1.498 1.551 1.498 1.551 1.498 4.834-.077 1.783-.905 5.221-3.41 7.521-5.658 4.316-4.081 4.316-4.081-.155-9.661-2.456-3.049-4.988-6.613-5.583-7.802-.672-1.266-2.171-3.642-3.36-5.27-3.954-5.502-2.378-10.927 3.127-10.927 1.939 0 2.895.517 4.032 2.015 3.645 4.908 13.854 14.363 15.56 14.363.232 0 .439-1.111.439-2.377 0-1.343.672-3.874 1.499-5.657 4.084-8.99 13.104-43.089 16.671-63.006 2.533-14.285 3.877-18.832 6.332-22.32 2.973-4.081 4.161-4.753 5.816-3.125 2.455 2.454 1.266 23.818-2.818 48.875-1.861 11.522-5.505 26.789-7.676 31.981-.594 1.421-2.455 6.097-4.161 10.411-5.738 14.285-8.865 19.555-16.981 29.01-4.911 5.657-13.182 11.909-17.782 13.459-1.344.439-2.455 1.033-2.455 1.421 0 .826-7.444 2.97-9.822 2.893-.905-.078-3.36-.517-5.273-1.111v-.077zM274.898 158.258c-.232-.361-.232-1.705 0-2.893.362-1.705 1.267-2.531 4.988-4.314 4.756-2.377 16.438-12.71 18.377-16.378 1.034-1.937.956-2.17-.75-3.281-1.033-.671-2.894-2.299-4.083-3.642-2.301-2.377-2.301-2.377-9.744 1.343-12.277 6.252-18.92 5.942-18.92-.826 0-2.532.311-2.971 2.818-4.082 12.716-5.657 14.293-6.846 14.293-10.643 0-1.498.361-3.126.827-3.565.594-.594.517-2.092-.362-5.58-.595-2.531-1.422-7.672-1.629-11.237-.516-6.174-.672-6.613-2.455-7.362-1.628-.672-14.138-1.938-20.315-2.015-2.016-.078-2.093-.233-2.093-4.082 0-6.406.517-6.69 12.793-6.251 6.927.31 10.571.155 11.321-.44.672-.516 1.189-3.125 1.421-7.594.672-11.237 8.039-30.509 16.516-43.09 1.861-2.763 3.36-5.217 3.36-5.347 0-.155 1.706-2.815 3.799-5.89 3.877-5.812 5.583-7 9.977-7 2.533 0 2.533 0 1.189 3.952a548.195 548.195 0 01-6.41 15.397c-11.605 26.943-15.999 46.86-14.37 65.692.956 11.754 2.171 14.88 7.521 20.227 3.05 2.971 5.66 4.831 7.676 5.425 4.084 1.188 5.66 3.126 6.1 7.44.956 10.565-10.933 26.039-25.82 33.711-3.722 1.86-6.022 2.455-10.21 2.765-3.204.232-5.505 0-5.815-.44z" fill="#E1B978"/><path d="M201.805 538.878c.233-3.41.595-9.816.827-14.363.31-4.469.827-9.661 1.267-11.521.749-3.281.672-3.643-2.895-10.798-7.599-15.113-11.243-27.151-11.915-39.421-.362-6.691-.233-7.672 1.034-9.222 1.499-1.86 1.499-1.86-1.422-8.396-4.238-9.61-5.815-17.411-6.254-31.852-.595-17.566.439-27.899 3.411-33.918 1.629-3.358 2.817-4.908 4.084-5.218 2.378-.595 4.833.904 4.833 2.893.078.904.362 5.141.75 9.455.439 4.314 1.266 15.99 1.861 25.962 1.421 22.836 3.127 29.604 9.899 37.87 6.487 8.034 11.398 10.643 25.82 13.847 7.004 1.55 17.498 4.83 21.581 6.69 12.432 5.658 10.726 11.599-3.36 11.599-11.398 0-36.624-7.13-44.817-12.709-2.455-1.705-4.626-2.894-4.755-2.687-.44.362 3.721 17.644 5.22 21.958.595 1.705 2.688 5.502 4.549 8.344 1.861 2.97 3.36 6.174 3.36 7.284 0 1.111.827 3.798 1.861 5.942 2.378 5.141 3.283 10.721 3.877 23.818.44 10.565.44 10.565-9.459 10.565-9.822 0-9.822 0-9.383-6.096l.026-.026zM293.43 468.354c-.233-.361-1.267-.749-2.3-.749-1.422 0-1.784-.361-1.784-1.86 0-1.627.31-1.86 2.688-1.86 2.456 0 2.688.155 2.223 1.783-.31 1.111-.078 1.937.439 2.092.672.233.672.439.078.827-.517.31-1.034.232-1.344-.233zM285.986 467.088c-4.833-1.111-12.277-4.236-12.277-5.141 0-1.498 3.799-1.265 8.348.44 2.171.826 4.549 1.498 5.273 1.498.827 0 1.266.594 1.266 1.86 0 1.033-.232 1.782-.517 1.782-.361-.077-1.266-.232-2.093-.439zM293.042 460.527c0-1.421.362-2.609.75-2.609.439 0 .749-.827.749-1.783 0-2.454 6.1-15.19 10.132-21.131 5.35-7.75 5.944-8.344 7.805-8.189 1.344.155 1.861-.31 2.378-2.015.439-1.188.905-2.764 1.111-3.358.233-.594.311-1.344.311-1.628-.078-.361.439-.594 1.189-.594.749 0 4.316-1.188 7.883-2.609 3.566-1.498 8.4-3.126 10.803-3.72 3.877-.956 21.142-3.41 32.075-4.469 2.688-.232 8.555-1.111 13.027-1.937 4.549-.749 12.276-1.705 17.265-2.015 5.066-.362 9.382-.904 9.666-1.111.31-.31-1.034-2.17-2.972-4.082-1.939-2.015-4.627-5.14-5.945-7-1.344-1.86-4.032-5.503-5.944-8.112-9.744-12.865-14.655-28.855-14.655-47.454 0-10.204.956-15.319 3.799-20.021 1.422-2.299 10.21-14.285 11.528-15.706.155-.155.827.155 1.421.672 1.344 1.11.957 7.078-.749 12.27-2.973 8.99-3.412 11.315-3.412 18.16.078 13.175 6.849 37.045 11.398 40.093 3.567 2.454 6.255 5.063 13.259 13.019 8.71 9.972 10.132 11.832 12.355 16.508 2.61 5.424 2.3 8.55-1.422 13.975-2.688 3.875-5.738 4.753-18.764 5.348-6.539.309-15.56 1.188-20.108 1.937-18.842 3.281-39.984 5.425-52.106 5.425-6.539-.078-13.931-.362-16.438-.672-4.549-.517-4.549-.517-6.1 1.938-.827 1.42-3.282 4.985-5.35 8.034-3.412 4.908-11.165 20.227-11.165 22.164 0 .827-2.378 3.203-3.205 3.203-.311 0-.517-1.188-.517-2.609l-.052.078zM266.989 460.605c-2.222-.956-4.678-2.015-5.35-2.222-2.455-.749-1.551-2.686 1.267-2.686 1.421 0 2.61.31 2.61.594 0 .31 1.499 1.033 3.36 1.55 2.766.827 3.36 1.266 3.36 2.764 0 2.17-.155 2.17-5.221 0h-.026zM312.401 416.947c-.957-.826-1.861-2.092-1.939-2.764-.155-.672-.672-3.126-1.266-5.347-3.36-12.271-3.877-19.788-2.973-38.62.672-12.787.672-12.942 2.688-14.647 2.533-2.17 4.239-2.222 6.539-.362 1.706 1.343 1.706 1.421 1.5 18.754-.078 10.411.155 20.098.749 24.102 1.034 8.034-.077 16.146-2.533 17.851-.749.517-1.189 1.343-.904 1.782.672 1.189.232.956-1.861-.749zM93.046 342.033c-.905-.672-4.834-7.595-8.788-15.396-4.032-7.75-7.521-14.441-7.806-14.88-.31-.362-.75-1.782-.956-2.971-.594-3.28-9.537-27.15-14.655-39.42-3.877-9.3-7.21-19.504-8.555-26.117-.232-1.189-1.266-3.875-2.222-5.89-1.034-1.938-1.861-4.03-1.861-4.624 0-.517-.517-.956-1.112-.956-1.628 0-1.344-2.17.595-3.72.904-.749 3.722-1.782 6.255-2.299 2.61-.517 4.678-1.188 4.678-1.55 0-.31 1.499-.594 3.36-.594 3.05 0 3.36-.155 3.36-1.86 0-1.189.439-1.86 1.189-1.86.594 0 1.628-.517 2.222-1.111.672-.594 2.171-1.111 3.36-1.111 1.422 0 2.171-.361 2.171-1.111 0-.671.672-1.11 1.861-1.11 1.344 0 1.861.361 1.861 1.42 0 1.783-1.86 3.798-3.567 3.798-.672.077-2.894 1.033-4.988 2.299-5.22 3.048-8.27 4.469-13.181 5.812-4.317 1.266-4.317 1.266-1.629 4.909 4.317 5.941 12.51 23.585 16.981 36.45 5.273 15.473 7.366 20.976 9.15 24.541.827 1.627 2.093 4.83 2.817 7.078 1.499 4.624 8.943 24.102 11.76 30.87 1.421 3.41 1.783 5.141 1.421 7.362-.594 3.41-1.421 3.875-3.644 2.093l-.077-.052zM148.873 298.349c-.904-2.532.44-7.285 3.36-11.392 1.629-2.299 3.567-4.547 4.317-4.986.749-.362 1.783-1.188 2.378-1.627.516-.517 2.894-1.499 5.22-2.17 2.301-.672 6.488-2.377 9.15-3.72 6.927-3.488 13.776-4.986 23.003-5.063 6.539 0 8.71.361 13.621 2.015 6.771 2.376 10.209 4.469 12.354 7.594 3.128 4.624 1.344 12.064-3.567 14.648-.956.516-4.161.955-7.081.955-4.317-.077-5.945-.439-9.227-2.17-5.144-2.764-13.182-3.203-28.586-1.705-10.933 1.034-10.933 1.034-15.637 4.909-4.833 3.952-8.4 4.985-9.305 2.686v.026zM245.562 277.735c-2.093-1.344-3.876-2.687-3.876-2.971 0-.362 1.188-.594 2.61-.594s2.61.31 2.61.672c0 .361.828.904 1.861 1.11 1.344.362 1.861.956 1.861 2.299 0 2.377-.31 2.377-5.066-.516zM236.103 273.73c-.439-.155-.672-1.782-.517-3.642.233-2.687.595-3.359 1.628-3.359 2.094 0 3.722 2.093 3.722 4.624 0 1.628-.31 2.17-1.111 1.86-.595-.31-1.267-.155-1.499.233-.44.749-.956.827-2.223.31v-.026zM433.283 264.56c-1.266-.31-3.411-1.189-4.833-1.938-1.422-.749-3.205-1.627-4.032-2.092-2.171-1.111-7.883-9.223-9.822-13.847-.956-2.221-2.171-4.624-2.765-5.218-1.628-1.937-3.567-9.067-3.954-14.208-.311-5.657 1.266-17.256 2.455-17.644.749-.232 3.05 8.706 4.471 17.257.957 5.657 4.756 14.802 8.865 21.131 4.834 7.595 10.21 14.957 10.856 14.957.31 0 .672.517.956 1.111.233.594.31 1.111.233 1.033-.078-.077-1.189-.31-2.456-.594l.026.052zM278.75 223.046c-.75-.155-1.344-.672-1.344-1.033 0-.362-.517-.672-1.267-.672-2.222 0-9.149-2.609-9.149-3.41 0-1.11 2.817-1.86 3.411-.904.233.362.905.517 1.422.31.517-.155 1.628.155 2.533.749.827.594 1.551.956 1.551.672 0-.232.827.155 1.861.827 1.033.671 1.86.955 1.86.671 0-.31.517-.155 1.112.362.594.517 1.111.672 1.111.439 0-.31.672-.155 1.499.31.827.439 1.499 1.111 1.499 1.498 0 .749-3.721.904-6.099.233v-.052zM260.295 216.589c0-1.421 2.456-1.938 3.955-.827 1.861 1.343 1.551 1.86-1.344 1.86-1.706 0-2.611-.362-2.611-1.033zM242.953 215.607c-1.034-.31-.44-1.343 3.411-6.019 6.022-7.285 12.949-17.489 16.826-24.929 2.378-4.546 3.05-6.613 3.05-9.661.077-3.72.077-3.798 1.111-2.015 1.551 2.764 1.344 9.661-.439 14.647-2.094 5.58-8.271 15.035-13.543 20.77-2.301 2.531-4.239 4.83-4.239 5.14 0 .31.904.362 2.093.155 1.861-.361 4.627.827 4.627 2.015 0 .517-10.804.439-12.872-.077l-.025-.026zM410.513 196.129c-.517-.671-1.499-2.299-2.016-3.565-.517-1.343-1.344-2.454-1.706-2.454-.362 0-.439-.31-.232-.749.232-.362.077-.749-.362-.749-.44 0-.595-.31-.362-.749.232-.362.077-.749-.362-.749s-.672-.31-.362-.672c.233-.362 0-1.111-.517-1.705-1.628-1.705-1.551-3.565.155-3.565.957 0 1.499.517 1.499 1.498 0 .827.31 1.499.595 1.499.956 0 2.378 3.565 2.378 5.941 0 1.705.361 2.222 1.499 2.222.827 0 1.499.517 1.499 1.111s.517 1.11 1.111 1.11c1.628 0 1.344 2.015-.31 2.455-.75.155-1.861-.233-2.455-.905l-.052.026zM208.939 173.887c-1.861-1.498-1.861-1.498-.31-3.281.905-.904 3.282-4.236 5.35-7.285 8.555-12.864 16.981-19.503 29.852-23.585 4.239-1.343 9.15-2.531 10.804-2.531 1.706-.078 2.455-.233 1.706-.44-.672-.155-1.112-.671-.905-1.033.672-1.033 4.084-.827 7.599.517 2.378.956 3.205 1.627 3.205 2.816 0 1.343-.517 1.549-3.877 1.704-6.255.233-14.655 2.377-21.426 5.503-5.945 2.764-7.082 3.72-17.705 14.647-6.332 6.406-11.682 12.271-11.993 13.02-.517 1.343-.594 1.343-2.3-.078v.026zM369.34 146.195c-1.189-1.938.956-5.141 8.477-12.71 7.754-7.802 10.804-9.894 9.977-6.613-.233.826-.905 1.498-1.499 1.498-1.706 0-7.599 6.019-7.134 7.207.233.672-.155 1.189-1.111 1.499-.827.232-1.344.826-1.189 1.343.233.517-.31 1.111-1.189 1.343-.904.233-1.421.749-1.111 1.188.232.44-.078.827-.75.827s-.956.362-.749.749c.31.439-.31 1.628-1.344 2.687-1.189 1.188-2.094 1.55-2.378 1.033v-.051zM350.808 133.717c-1.344-2.17 18.014-16.068 25.381-18.289 1.499-.517 1.628-.362 1.033 1.188-.31.904-1.421 1.86-2.377 2.092-.957.233-2.094 1.189-2.533 2.093-.362.904-1.344 1.627-2.094 1.627-.827 0-1.551.672-1.783 1.499-.233.826-1.034 1.498-1.784 1.498-.827 0-1.421.362-1.421.749 0 .439-.517.749-1.111.749-.595 0-1.112.362-1.112.749 0 .44-.517.75-1.111.75-.595 0-1.112.361-1.112.749 0 .439-.517.749-1.111.749s-1.034.362-.905.826c.078.362-1.033 1.189-2.455 1.705-1.422.517-3.127 1.189-3.799 1.499-.75.31-1.499.232-1.706-.155v-.078z" fill="#F2C37F"/><path d="M266.266 288.377c-11.32-5.579-19.358-9.971-19.358-10.565 0-1.266 4.626-.672 10.054 1.266 5.066 1.782 5.815 1.86 9.227 1.033 3.205-.749 4.316-1.55 8.788-6.536 12.121-13.614 17.497-21.88 18.531-28.416.595-3.875-2.895-10.126-10.261-18.16-3.411-3.72-2.378-7.001 1.499-4.986.672.362 3.128 1.55 5.35 2.687 4.472 2.221 10.261 6.406 13.699 9.816 2.533 2.532 5.272 9.662 4.239 10.927-.672.905-1.939 5.658-1.706 6.614.077.31-.155.516-.595.516-.362 0-.749.362-.749.827 0 .439-.75 1.86-1.706 3.126-8.193 11.314-15.249 20.614-16.826 22.319-1.034 1.111-1.938 2.687-1.938 3.358 0 .672-.827 1.628-1.784 2.093-.956.517-2.894 2.092-4.316 3.565-3.282 3.358-6.255 3.487-12.122.516h-.026zM241.247 274.531c-2.016-1.86-2.016-1.86.75-1.86 2.378 0 2.688.233 2.688 1.86 0 1.034-.31 1.86-.672 1.86-.44 0-1.629-.826-2.766-1.86z" fill="#F2B992"/><path d="M264.25 264.715c-1.344-.517-1.189-5.141.31-8.267 1.784-3.875 8.633-10.333 11.993-11.314 1.499-.517 3.955-.749 5.35-.594 2.533.232 2.611.31 2.766 3.564.077 1.86-.078 2.816-.233 2.093-.439-1.421-4.239-2.609-4.626-1.421-.155.439-.75.827-1.344.827-.595 0-1.034.31-1.034.671 0 .362-.672.827-1.551 1.034-.827.232-1.706 1.033-1.861 1.782-.233.749-1.111 1.705-2.016 2.093-.956.439-1.551 1.265-1.421 2.092.155.749-.233 1.266-.957 1.266-.672 0-1.034.31-.749.671.439.75-2.456 6.097-3.205 5.942-.31 0-.957-.233-1.422-.439zM240.343 257.585c-2.171-2.299-3.128-5.812-3.128-11.16 0-7.956 3.128-11.676 9.667-11.676 2.61 0 2.972.233 2.972 1.705 0 1.498-.362 1.782-2.223 1.86-2.972.077-3.644.594-3.205 2.377.233.955 0 1.498-.594 1.498-.75 0-1.034 1.033-1.034 3.72 0 2.092.31 3.72.595 3.72.361 0 .361.361.155.749-.233.439-.155.749.31.749.749 0 2.016 2.816 1.706 3.875-.078.31.517.904 1.344 1.343 2.688 1.421 1.783 2.971-1.706 2.971-2.456 0-3.645-.439-4.833-1.705l-.026-.026z" fill="#F2B992"/><path d="M252.852 280.654c-6.694-2.532-10.416-4.754-13.259-7.879-.904-1.111-2.171-2.454-2.765-3.126-.595-.672-1.112-1.783-1.112-2.609 0-.749-.594-2.377-1.266-3.643-2.533-4.469-1.189-32.446 1.861-39.291 2.222-5.063 1.861-4.908 20.392-7.363 4.833-.671 7.521-.671 11.088 0 6.177 1.111 14.965 4.625 16.232 6.407.594.827 1.628 2.015 2.222 2.687 4.032 4.029 8.71 11.314 9.822 15.189.749 2.454-.155 7.44-2.094 11.987-2.171 4.985-8.038 12.942-16.826 22.758-4.161 4.676-5.66 5.89-8.348 6.536-5.272 1.343-9.304.904-15.999-1.628l.052-.025zm26.286-21.287c5.815-6.174 6.409-8.266 3.489-11.392-1.189-1.343-1.628-1.421-4.084-.594-5.35 1.782-14.81 13.33-12.277 14.88.517.31.75 1.111.517 1.705-.31.826.233 1.42 1.551 1.86 2.817.955 4.911-.31 10.804-6.484v.025zm-28.431-3.564c.517-.517 1.034-3.41 1.266-6.407.362-6.252-.827-10.049-3.799-11.599-1.706-.904-2.171-.827-4.394.439-4.756 2.764-5.66 11.754-1.706 16.507 1.499 1.628 2.456 2.093 4.834 2.093 1.628 0 3.36-.439 3.799-1.033zM240.937 215.555c0-1.266 3.204-2.454 5.272-2.015 3.722.827 2.688 2.609-1.551 2.609-2.016 0-3.721-.232-3.721-.594z" fill="#FDCAAC"/><path d="M286.736 466.778c-.31-.439-1.034-.594-1.628-.361-.595.232-1.939-.155-3.05-.905-1.034-.671-2.016-1.188-2.171-1.033-.155.078-.362.078-.595.078-.232-.078-.672-.233-1.111-.31-.362-.078-.827-.233-.905-.31-.155-.155-.956-.31-1.783-.439-.905-.233-2.533-.75-3.722-1.189-1.189-.516-2.3-.956-2.533-1.033-.232-.078-1.706-.749-3.36-1.498-1.628-.75-3.282-1.421-3.721-1.421-.362-.078-3.49-1.034-6.927-2.222-4.472-1.627-7.005-3.048-9.305-5.27-1.706-1.627-4.394-3.797-5.893-4.675-1.499-.956-3.799-2.894-5.066-4.392-2.377-2.687-2.377-2.764-2.093-9.455.362-7.672 2.093-12.115 4.833-12.787 2.094-.517 2.3-2.532.233-2.532-1.344 0-1.499-.516-1.499-4.469 0-2.454.31-4.469.672-4.469.362 0 .827-.904 1.034-2.092.232-1.111 1.783-4.03 3.411-6.484 1.706-2.454 3.205-4.753 3.36-5.218.155-.439 1.112-.233 2.378.439 1.189.749 6.487 2.299 11.76 3.565 8.271 2.092 11.088 3.126 19.721 7.801 14.292 7.75 18.454 10.256 25.148 15.242 3.282 2.376 6.694 4.753 7.521 5.218 2.093 1.111 2.093 1.55-.595 4.908-1.188 1.498-2.093 3.048-1.86 3.358.232.31-.155.827-.827 1.034-.672.31-1.034.671-.828.904.155.232-.361 1.188-1.344 2.092-2.222 2.222-5.065 7.75-4.471 8.628.233.439.078.749-.439.749s-.75.233-.44.44c.233.31-.077.955-.672 1.55-.594.594-.904 1.42-.672 1.782.31.362.078.672-.362.672-.439 0-.594.361-.361.749.232.439.077.749-.362.749-.44 0-.595.362-.362.749.233.439.155.749-.233.749-.439 0-.594.594-.362 1.421.156.749-.232 1.86-.904 2.609-.672.672-.956 1.188-.672 1.188.362 0 .232.362-.31.905-.517.516-.905 1.627-.905 2.609 0 1.188-.439 1.705-1.499 1.705-.827 0-1.499.361-1.499.749 0 .956-4.239.956-4.833-.078h.103zm-2.455-33.169c2.093-1.86 1.706-4.831-1.034-7.44-3.489-3.281-5.945-4.314-16.309-6.923-5.066-1.266-13.026-4.03-17.704-6.019-8.866-3.875-9.744-3.875-9.667-.31.078 2.015 1.034 4.469 1.861 4.469.362.078 1.783.672 3.127 1.343 1.267.75 2.378 1.111 2.378.905 0-.233.75.077 1.706.671.905.594 2.016 1.189 2.378 1.266.439.078 1.551.439 2.61.904 1.034.439 2.016.827 2.223.904 2.094.672 2.972 1.499 2.972 2.532 0 .749.233.904.595.362.827-1.189 3.05-1.783 3.567-.956.232.439.904.594 1.499.361.517-.232 1.189-.077 1.499.362.232.439.904.594 1.499.362.517-.233 1.189-.078 1.499.361.232.44.904.595 1.499.362.517-.232 1.189-.077 1.499.362.233.439.905.594 1.422.361.516-.155 1.628.155 2.532.749.828.595 1.551.905 1.551.595 0-.233.517-.078 1.112.439.594.439 1.344.671 1.628.516.362-.232 1.189.078 1.938.595 1.112.826 1.189 1.265.517 2.531-.956 1.86-.232 2.015 1.629.31l-.026.026zM40.5 229.376c-5.066-2.764-9.899-7.595-18.299-18.238-7.133-9.145-9.15-12.865-10.855-20.614-1.784-8.034-1.112-24.412 1.189-30.664 1.55-4.081 1.55-4.081 4.549-3.875 3.05.233 3.05.233 7.443 10.256 2.456 5.502 5.583 12.942 7.005 16.429 1.421 3.488 3.05 7.001 3.644 7.802.956 1.343 1.034 1.188 1.111-1.343 0-2.015.31-2.816 1.112-2.816.594 0 1.111.439 1.111 1.033 0 .517.517 1.421 1.111 1.938 2.016 1.705 1.344-3.798-1.55-11.599-1.5-4.082-3.283-9.533-4.032-12.193-.672-2.687-2.094-7.079-3.05-9.739-2.378-6.768-1.861-7.363 6.616-7.363 6.333 0 6.333 0 9.072 2.894 3.412 3.565 8.633 14.13 12.51 25.367 1.628 4.676 5.066 12.426 7.676 17.102 2.533 4.675 5.066 9.609 5.583 10.927.594 1.266 2.016 4.081 3.282 6.174 2.223 3.797 2.895 6.691 1.5 6.691-.362 0-.517.439-.31 1.033.439 1.033-1.629 2.221-2.766 1.498-1.034-.672-3.645.439-3.645 1.55 0 .594-.517.827-1.499.594-.956-.31-1.499 0-1.499.672 0 1.343-3.411 3.281-5.22 2.971-.75-.155-1.5.31-1.706.904-.31.672-1.034.904-1.939.671-.904-.232-1.55-.077-1.55.362s-.673.594-1.5.362c-.827-.233-1.499 0-1.499.439 0 .362-.517.594-1.111.362-.595-.233-1.939.31-3.05 1.11-2.688 2.093-4.316 1.938-9.46-.826l.026.129zM407.101 189.568c-4.471-8.706-5.273-11.909-3.412-12.271 1.189-.232 1.344-1.188 1.422-8.034.155-11.082.155-11.159 9.304-11.314 14.293-.31 13.027-.44 13.259 1.859.155 1.111.595 2.015.957 2.015s.672 1.189.672 2.61c0 1.42-.31 2.609-.75 2.609-.362 0-.749-.517-.749-1.111s-.311-1.111-.75-1.111-.672-.232-.672-.517c.439-2.764-.155-3.203-3.799-3.203-4.239 0-4.317.078-2.533 5.942 1.938 6.613 8.994 18.289 14.215 23.43 2.223 2.222-.077 3.126-13.853 5.218-4.162.594-7.961 1.111-8.555 1.111-.595 0-2.688-3.281-4.756-7.207v-.026zM445.948 185.719c-1.629-1.86-2.223-2.092-3.8-1.498-1.938.749-5.428-.956-5.428-2.687 0-.517-.439-1.111-1.033-1.343-.517-.233-1.189-1.111-1.422-1.938-.31-1.188 0-1.55 1.034-1.55 1.783 0 1.783.233-.517-4.83-2.223-4.831-4.032-10.928-4.032-13.847 0-1.705.956-2.531 6.539-5.89 3.567-2.17 7.289-4.546 8.271-5.269.956-.827 2.533-1.421 3.489-1.421 1.267 0 1.783-.439 1.783-1.499 0-1.188.517-1.498 2.301-1.498 2.61 0 4.394 1.498 4.394 3.643 0 1.033.439 1.55 1.499 1.55.827 0 1.499.516 1.499 1.11 0 .595.362 1.111.749 1.111.517 0 .517-.439 0-1.421-1.034-1.937-.956-10.41.155-13.536.44-1.421 2.378-4.547 4.317-7.001 1.938-2.454 5.35-7.44 7.598-11.159 5.945-9.61 19.126-36.244 20.16-40.558.75-3.28 1.112-3.72 2.818-3.72 1.938 0 1.938 0 .904 3.875-.594 2.17-1.861 8.628-2.895 14.363-3.566 19.943-12.432 53.5-16.67 63.161-.957 2.093-1.344 4.082-1.034 5.27.362 1.55.232 1.86-1.189 1.86-.905 0-2.223-.749-3.05-1.627-1.344-1.705-1.344-1.705-1.421.361 0 2.093 0 2.093-2.378.439-2.611-1.782-10.261-9.377-13.104-13.019-1.629-2.093-1.629-2.093-3.283-.517-1.628 1.627-1.628 1.628.957 5.58 1.499 2.17 3.489 5.27 4.548 6.923 1.034 1.628 3.722 5.27 6.023 8.112 4.238 5.063 4.238 5.063 2.817 7.078-2.533 3.487-8.788 8.86-12.277 10.565-1.939.904-3.644 1.86-3.877 2.222-.75 1.266-2.533.672-4.471-1.498l.026.103zm24.269-28.649c0-.232-.956-1.033-2.223-1.937-1.861-1.343-2.223-1.421-2.223-.439 0 .672.672 1.188 1.5 1.188.827 0 1.499.362 1.499.749 0 .439.361.749.749.749.44 0 .75-.155.75-.31h-.052z" fill="#F5D7AE"/><path d="M33.264 182.283c0-3.126 1.55-3.487 2.817-.749 1.266 2.764 1.111 3.358-.956 3.358-1.629 0-1.861-.31-1.861-2.609zM29.929 175.076c-.31-1.344-.905-2.687-1.267-2.894-.439-.31-.956-2.015-1.111-3.952-.595-4.753 1.422-4.676 3.205.155.75 1.937 1.783 4.314 2.3 5.347 1.422 2.764 1.19 3.72-.827 3.72-1.421 0-1.938-.516-2.3-2.376zM430.698 171.64c-2.171-2.532-2.3-3.875-.31-3.875 1.628 0 1.861.31 1.861 2.609 0 2.971-.077 3.048-1.551 1.266zM23.597 158.491c0-3.126 1.5-3.41 2.817-.594 1.267 2.816 1.112 3.203-.956 3.203-1.628 0-1.86-.31-1.86-2.609zM274.433 156.76c0-.749-1.344-5.657-2.972-10.927-2.817-9.067-4.911-13.33-7.211-14.725-2.378-1.42-.517-7.207 2.3-7.207.672 0 1.189-.31 1.189-.749 0-.362 1.499-.749 3.36-.749 4.549 0 4.394 1.498-.362 3.565-2.016.904-3.722 1.937-3.722 2.221 0 .362.672 1.266 1.499 2.015 1.344 1.266 1.629 1.266 5.35 0 2.172-.671 7.005-2.893 10.727-4.908 3.721-2.015 7.133-3.642 7.521-3.642.439 0 1.628 1.265 2.688 2.815 1.111 1.499 2.894 3.359 4.032 4.082 5.221 3.203 5.143 3.048 2.455 7.13-3.489 5.58-13.853 14.957-19.203 17.566-3.05 1.498-4.627 2.687-4.627 3.565 0 .749-.594 1.266-1.499 1.266-.905 0-1.499-.517-1.499-1.344l-.026.026zM20.625 149.553c0-2.093.31-2.609 1.421-2.609 1.939 0 2.455.955 1.861 3.358-.31 1.188-.956 1.86-1.861 1.86-1.111 0-1.421-.517-1.421-2.609z" fill="#F5D7AE"/><path d="M254.713 123.152c-.233-.362-.75-5.141-1.112-10.566-1.034-13.923.905-37.948 3.05-39.368.595-.362 4.627-.672 9.072-.672 7.754 0 7.961.077 7.961 1.705 0 1.55-.155 1.627-6.539 1.42-7.289-.31-9.072.517-9.072 4.03 0 1.421.362 1.783 2.093 1.86 6.332.078 18.687 1.344 20.47 2.093 1.706.672 2.016 1.188 2.016 3.952.078 5.064 1.422 13.252 3.05 18.367 1.499 4.831 1.499 4.831-.155 6.097-1.266.904-1.499 1.627-1.111 3.126.517 2.221-1.344 4.624-5.661 7.207-2.817 1.627-2.817 1.627-2.817-1.033 0-2.377.233-2.687 1.861-2.687 1.034 0 1.861-.31 1.861-.672 0-.361.233-1.188.439-1.782.233-.749-3.049.516-8.632 3.281-7.211 3.487-9.744 4.391-12.665 4.391-2.016 0-3.799-.31-4.083-.749h-.026zM281.153 72.778c0-2.687-1.499-3.203-9.227-3.203-9.15 0-11.166-.827-11.476-4.624-.517-5.735 7.444-20.02 19.566-35.184 12.276-15.32 27.758-27.15 35.59-27.15 1.938 0 2.171.232 1.705 1.704-.232.905-.439 1.86-.439 2.17 0 .31-.439.362-.956.155-2.223-.826-4.989 1.344-8.633 6.691-2.093 3.048-3.799 5.735-3.799 5.89 0 .155-1.499 2.609-3.36 5.347-4.627 6.923-10.209 18.522-13.466 28.261-2.223 6.69-2.766 9.3-2.817 14.518-.078 5.348-.31 6.33-1.344 6.536-.905.155-1.344-.233-1.344-1.11zM495.521 70.53c0-1.188 3.644-5.062 3.721-3.951 0 2.531-.956 4.469-2.3 4.469-.827 0-1.421-.233-1.421-.517z" fill="#F5D7AE"/><path d="M266.628 267.039c-1.629-1.627-.905-2.092 1.705-1.188 2.895.956 5.066-.31 11.166-6.846 4.316-4.624 4.988-5.941 4.678-8.55-.155-.517.155-.749.595-.439 2.3 1.343.155 5.218-7.212 12.864-4.161 4.314-5.582 5.348-7.443 5.348-1.267 0-2.817-.517-3.489-1.189zM234.398 263.165c-2.094-4.314-4.032-15.551-4.394-25.445-.362-8.861-.233-10.566 1.189-14.518.827-2.454 2.3-5.141 3.36-6.019 2.455-2.222 9.821-3.565 16.671-3.126 7.081.517 19.513 2.816 19.513 3.72 0 .31-2.093.594-4.626.594-4.161 0-15.198 1.421-22.176 2.893-3.282.672-5.583 3.953-6.539 9.223-1.628 8.55-2.455 20.149-1.938 27.305.31 4.081.361 7.44.232 7.44-.155 0-.749-.905-1.266-2.093l-.026.026z" fill="#FFD7BE"/><path d="M251.378 254.072c1.112-3.797.905-10.049-.361-13.175-1.344-3.203-1.112-3.72.827-1.627 2.016 2.221 2.093 14.053.155 16.068-1.267 1.188-1.267 1.111-.595-1.266h-.026z" fill="#FFD7BE"/><path d="M245.408 452.286c-11.915-4.83-14.215-6.845-15.559-13.459-1.499-7.594-.827-20.692 1.422-25.884 4.755-11.47 8.4-16.74 12.354-18.238 4.756-1.86 4.678.594-.078 7.595-1.499 2.17-2.894 4.831-3.127 5.941-.233 1.111-.594 2.093-.905 2.093-.232 0-.439 1.033-.439 2.222 0 1.265.233 2.221.517 2.221.233 0 .594.517.75 1.188.31 1.628 14.215 7.44 23.287 9.662 10.416 2.609 19.953 5.657 19.203 6.174-.31.232-.594.956-.594 1.55 0 .672-.827 1.188-2.3 1.343-2.973.31-17.86-3.875-24.115-6.69-7.883-3.643-15.714-6.485-16.67-6.097-1.629.594-3.567 5.735-3.955 10.411-.362 4.236-.31 4.675 1.939 7.207 1.344 1.498 3.644 3.41 5.143 4.391 1.499.905 4.626 3.41 6.849 5.58s4.627 4.159 5.35 4.392c.75.232 1.344.904 1.344 1.498s-.077 1.034-.155 1.034c-.155-.078-4.755-1.938-10.261-4.16v.026zM40.5 229.299c-2.3-1.344-4.832-2.894-5.582-3.488-.672-.594-2.765-2.092-4.626-3.281-4.317-2.764-15.56-13.691-19.876-19.271-6.85-8.86-11.32-21.803-10.26-29.604.904-6.691 6.254-15.835 14.525-24.929 3.127-3.409 3.489-3.719 5.893-3.203 2.3.439 3.721 1.628 3.799 3.126 0 .31-.31.517-.75.517-.672 0 2.094 8.938 3.05 9.661.672.517 3.283 7.75 3.05 8.396-.078.31.233.516.672.516.44 0 .672.517.362 1.111-.233.594-.078 1.111.31 1.111.44 0 .75.672.75 1.498 0 .827.361 1.499.827 1.499.44 0 .672.516.361 1.11-.232.595-.155 1.111.233 1.111.595 0 2.817 5.942 2.456 6.923-.078.31.155.517.439.517.362 0 1.111 1.421 1.628 3.203.595 1.705 1.344 3.358 1.706 3.565 1.344.956-1.266 4.753-3.36 4.986-2.455.31-3.49-1.111-6.927-9.662-4.833-11.986-11.32-26.194-12.07-26.401-1.111-.361-3.36 5.503-3.644 9.455-.155 1.86-.44 5.89-.75 8.99-.594 6.691 1.034 15.241 3.955 21.054 3.36 6.69 19.281 25.522 25.898 30.715 4.083 3.203 3.05 3.565-2.094.749l.026.026z" fill="#F8E5C7"/><path d="M346.337 200.082c-1.421-1.421-1.499-1.938-.31-3.126 1.111-1.111 3.36-1.188 3.954-.078.828 1.189-.31 4.392-1.421 4.392-.595 0-1.628-.517-2.223-1.188z" fill="#fff"/><path d="M437.238 181.766c-3.05-3.72-8.115-12.503-9.899-17.101-1.266-3.281-3.282-6.019-3.282-4.547 0 .594-2.171.749-7.366.439-5.661-.361-7.444-.232-7.883.594-1.344 2.093-1.706 7.802-.905 11.987.956 4.908.155 6.535-3.282 6.535-1.939 0-2.094-.31-2.973-4.236-1.861-9.067-.672-17.489 3.205-22.63 5.661-7.362 4.756-6.923 14.06-7.439 10.804-.595 16.749-2.455 24.709-7.802 11.683-7.956 20.703-18.083 33.574-37.87a2676.965 2676.965 0 008.555-13.02c.672-1.034 3.722-5.942 6.695-10.928 4.833-8.266 6.771-10.565 6.771-8.395 0 .439-.31.749-.594.749-.31 0-.44 1.11-.31 2.454.155 1.55-.155 2.893-.905 3.642-.594.672-.905 1.783-.672 2.765.233.826.078 1.55-.362 1.55-.362 0-.956.904-1.266 2.014-.75 3.126-14.888 30.948-19.566 38.543-2.223 3.72-5.66 8.705-7.599 11.16-3.954 4.985-5.22 8.111-5.22 12.58 0 2.816.361 3.41 7.133 9.817 7.599 7.284 8.555 9.377 4.471 9.816-3.411.439-10.571-5.27-18.169-14.57-2.171-2.686-2.688-2.97-3.412-2.015-.439.595-1.861 1.705-3.205 2.454-1.344.672-5.583 3.204-9.46 5.58-7.004 4.314-7.004 4.314-6.022 8.034 1.112 4.159 4.833 12.426 7.005 15.397.749 1.11 1.628 3.125 1.938 4.391.439 2.093.31 2.377-.75 2.015-.672-.31-1.499-.077-1.86.362-.362.671-1.344-.078-3.205-2.299l.051-.026z" fill="#F8E5C7"/><path d="M278.62 179.157c-.594-1.498 1.422-3.281 2.973-2.686.594.232 1.033 1.188 1.033 2.169 0 1.421-.361 1.783-1.783 1.783-.956 0-2.016-.594-2.223-1.266z" fill="#fff"/><path d="M273.4 156.683c-1.111-1.111-2.688-4.16-3.411-6.691-2.378-7.595-3.412-8.938-8.039-11.005-8.632-3.797-8.994-4.03-11.32-8.111-2.972-5.27-3.722-11.005-3.877-29.243-.233-20.46 1.111-26.788 9.227-42.856 3.36-6.691 11.398-20.227 12.51-21.21.31-.232 1.86-2.22 3.489-4.468 4.471-6.097 10.416-12.426 15.042-15.913 11.683-8.86 15.042-11.237 19.436-13.846 5.945-3.488 8.4-4.082 9.977-2.532 2.171 2.092 1.421 3.642-2.171 4.624-13.931 3.72-41.018 33.402-50.012 54.765-2.611 6.174-1.939 6.691 8.555 7.001 9.821.233 11.475.904 11.01 4.47-.155 1.497-.904 3.047-1.628 3.641-1.551 1.111-9.667 1.344-10.339.233-.516-.827-10.648-1.033-12.587-.31-.672.233-.956.75-.749 1.11.233.362.155.672-.233.672-.31 0-.594 1.111-.672 2.455-.077 1.265-.439 4.391-.956 6.845-.956 4.83-1.111 27.228-.233 31.981.362 2.222.957 3.048 2.094 3.203.905.155 6.177-2.015 11.76-4.753 9.382-4.624 10.261-4.908 12.07-4.03.956.594 1.628 1.499 1.499 2.015-.233.517 0 .956.517.956.594 0 .439.31-.233.749-.594.362-.749.749-.361.749.439 0 .155.362-.517.827-.75.362-1.344 1.266-1.344 1.782 0 .672-.75 1.111-1.861 1.111-1.112 0-1.861.439-1.861 1.034 0 1.188-4.084 3.048-6.488 2.815-1.033-.077-1.628.233-1.499.827.078.517-.439.827-1.189.672-1.86-.31-3.876 1.782-2.532 2.609 2.3 1.421 4.393 5.58 7.133 14.647 4.394 13.975 4.316 17.928-.233 13.175h.026z" fill="#F8E5C7"/></svg>