<svg width="508" height="545" fill="none" xmlns="http://www.w3.org/2000/svg"><path d="M341.74 212.04c-1.71-2.6-1.04-13.46 1.03-16.97 1.27-2.22 1.63-2.38 6.33-2.6 4.76-.24 4.91-.16 6.1 2 1.42 2.82 1.5 11.17.08 14.52-1.5 3.57-3.8 4.91-8.4 4.91-3.36 0-4.08-.3-5.14-1.86zM275.5 191.3c-1.2-.9-1.43-2.02-1.43-6.18 0-5.94.52-8.19 2.69-10.85 1.34-1.78 2.1-2.01 5.81-2.01 3.88 0 4.4.16 5.15 1.86 1.11 2.38 1.19 8.78.15 12.2-1.19 4.15-3.4 6.01-7.44 6.01-1.86 0-4.08-.44-4.91-1.03h-.03z" fill="#070604"/><path d="M387.9 541.1c.3-2.17 1.19-7.29 2.01-11.4 2.02-9.81 2.7-23.73 1.42-28.25-1.1-3.96-5.73-9.54-9.61-11.47-3.88-1.94-10.34-3.57-27.6-6.85-8.4-1.55-17.2-3.36-19.57-4.03-7.44-2.1-20.63-4.08-29.77-4.62-8.56-.44-8.8-.52-10.65-2.69-1.63-1.94-1.86-2.76-1.63-7.13.23-4.9.23-4.9 4.31-4.75 2.23.07 18.02.51 35 .9 16.98.36 32.75 1.03 35 1.5 16.3 3.28 55.07 6.54 60.97 5.22 3.64-.83 17.1-6.7 29.46-12.79 7.6-3.8 8.4-4.47 11.6-8.86a91.64 91.64 0 005.82-9.3c2.77-5.06 2.61-3.64 1.2-18.44-.53-5.22-.53-5.22 8.03-17.7 4.68-6.92 6.25-9.97 8.48-16.5 2.69-8.04 2.69-8.04 1.78-20.39-1.55-22.47-5.07-33.92-14.37-46.65a131.32 131.32 0 00-11.17-12.66c-11-10.57-20.83-16.15-34.09-19.27-4.31-1.04-9-2.3-10.41-2.77-1.86-.67-7.21-.9-18.97-.75-9 .16-18.46-.07-21-.51-3.4-.52-6.4-.44-11.52.3-10.41 1.56-25.53 5.15-32.59 7.76-8.86 3.2-24.7 4.75-43.16 4.31-7.6-.15-15.05-.67-16.52-1.19-2.6-.82-2.82-1.1-2.82-3.64.08-2.17.75-3.49 3.36-6.33 3.2-3.48 3.2-3.48 11.69-3.48 11.09 0 23.16-2.46 41.53-8.35 22.7-7.36 52.62-22 67.23-33.04 3.49-2.76 4.83-3.28 7.52-3.28 3.05 0 3.36.16 3.8 2.22.3 1.27.95 2.77 1.55 3.36.67.6 1.86 2.9 2.76 5.14 1.55 3.72 3.41 6.77 5.59 8.99.44.6.9 1.27.9 1.5 0 1.7 8.35 7.2 9.38 6.17.08-.15 1.12-3.28 2.17-6.92 2.77-9.38 3.29-19.79 1.43-27.59-1.43-5.89-1.43-5.89-1.79 2.38-.51 10.8-1.34 12.19-7.08 12.19-4.55 0-4.91-.31-10.8-9.97-4.91-8.11-7.45-20.9-5.07-26.12 1.04-2.38 4.91-3.56 10.5-3.28 4.23.31 4.23.31 4.23-2.81 0-3.2 0-3.2 3.72-3.2 5.23 0 9.67 1.49 9.67 3.27 0 .9-.36 1.2-1.11.9-1.5-.51-1.5-.51 1.42 4.32 4.83 8.11 6.49 15.78 6.1 29.45-.15 5.5-.44 10.85-.67 11.83a47.49 47.49 0 01-4.32 11c-3.64 6.7-4.03 7.3-5.06 7.96-1.11.67.3 2.1 6.61 6.54 1.86 1.34 3.73 2.69 4.09 2.97.44.36 3.28 2.45 6.33 4.67 4.76 3.5 11.76 9.3 15.56 13.02.67.6 3.57 3.28 6.4 5.95 8.95 8.26 15.57 17.17 22.34 30.12 7.75 14.64 8.35 16.74 9.23 32.73.75 15.1.23 24.61-1.63 30.12-.67 1.86-1.7 7-2.38 11.47-.6 4.47-1.7 9.97-2.3 12.27-1.19 4.23-7.44 19.94-8.4 21.28a38.9 38.9 0 00-2.22 4.99c-2.02 5.06-11.76 21.8-16.98 29.09-2.54 3.56-5.59 6.61-10.26 10.12-8.87 6.62-14.81 10.65-19.44 12.95-3.8 1.93-3.8 1.93-4.32 9.22-.3 4.03-.95 9.81-1.55 12.86-.51 3.05-1.86 10.65-2.9 16.74-1.03 6.18-2.09 11.6-2.3 12.12-.23.67-5.42.9-22.4.9-22.1 0-22.1 0-21.58-3.87l-.18.05zM182.14 407.13c0-2.22-5.07-4.55-17.58-8.03a290.66 290.66 0 00-19.28-4.76c-4.91-.82-7.68-1.86-12.28-4.47-6.92-3.95-6.77-3.87-16.44-12.58-4.08-3.64-7.36-7.08-7.36-7.6 0-.74.95-1.02 2.9-1.02 2.22 0 4.98 1.1 11 4.46 4.4 2.46 10.73 5.35 13.99 6.41 6.48 2.02 20.62 4.03 29.1 4.03 2.9 0 7.88.23 11.09.52 5.73.44 5.73.44 6.85 3.05 1.42 3.4.6 20.97-.96 20.97-.6 0-1.03-.44-1.03-.95v-.03z" fill="#C9954A"/><path d="M439.38 393.13c-1.94-1.55-2.01-1.86-1.7-6.54.23-2.68 1.42-8.7 2.68-13.33 4.76-17.64 4.68-30.71-.3-41.87-2.23-4.9-2.62-6.49-2.62-11.4 0-5.65 0-5.65 3.96-5.65 4.03 0 4.03 0 7.88 4.75 4.63 5.81 6.93 11.91 8.27 22.4 1.35 10.8.67 28.8-1.5 36.45-2.22 8.27-5.43 14.8-7.8 15.83-2.98 1.35-6.62 1.04-8.87-.67v.03zM178.72 361.95c-4.47-1.55-9.66-4.83-10.26-6.49-.23-.59-.67-2.89-.9-5.06-.52-3.95-.44-4.03 2.01-5.5 1.63-.96 3.8-1.55 6.03-1.55 3.36 0 15.71-4.08 21.5-7.13 3.41-1.78 7.88-6.17 12.95-12.94 7.21-9.53 10.8-11.91 18.25-11.91 4.24 0 8.04 1.94 10.2 5.14 1.5 2.17 1.71 3.49 1.71 9.38 0 6.4-.15 7.13-2.9 12.42-3.71 7.44-8.03 12.43-14.13 16.43-6.77 4.55-10.26 5.74-18.97 6.49-4.16.36-8.71 1.03-10.13 1.5-3.88 1.1-11.1.82-15.33-.75l-.03-.03zM142.26 297.24c-2.38-1.55-8.27-9.15-17.5-22.63a178.93 178.93 0 00-10.34-13.7c-2.69-3.04-5.82-6.84-7.08-8.34a624.12 624.12 0 00-11.92-14.13c-16.51-19.42-18.17-21.65-18.17-24.54 0-1.42.44-3.4 1.04-4.47.6-1.03 1.03-3.28 1.1-5.06 0-1.94.37-3.36 1.04-3.57 1.42-.51 6.62 4.4 10.93 10.26 4.32 6.02 12.36 14.2 20.04 20.38 7.67 6.33 26.8 25.08 30.52 30.07 1.7 2.22 5.43 7.29 8.35 11.16 2.9 3.88 5.9 7.67 6.77 8.4 1.34 1.19 1.42 1.42.23 2.6a4.65 4.65 0 00-1.19 2.46c-.07 1.34-1.78 3.64-2.76 3.64-.83 0-2.46 4.91-2.46 7.36 0 1.35-.44 1.55-3.13 1.55-1.86 0-4.16-.59-5.5-1.5l.03.06zM266.11 268.07c-2.9-1.03-2.76-4.39.23-9.22 5.07-7.96 10.65-12.2 16.23-12.2 3.65 0 3.73.09 4.24 2.54.83 4.47-.3 7-5.5 12.5-6.77 7.21-9.75 8.4-15.2 6.4v-.02zM244.81 258.39c-2.45-3.13-3.87-7.52-3.87-12 0-7.27 2.37-10.92 7.08-10.92 4.75 0 6.33 2.97 6.33 11.91 0 7.8-.6 10.41-2.3 10.41-.83 0-1.42.36-1.42.75 0 1.03-4.91.9-5.82-.15zM344.2 214.88c-.32-.23-.53-1.42-.53-2.6 0-1.87.16-2.02 1.5-1.2 1.94 1.2 5 .08 7-2.6 1.2-1.63 1.56-3.2 1.56-6.93 0-4.39.15-4.75 1.55-4.75 1.86 0 2.53 1.7 2.53 6.85 0 4.08-1.03 6.84-3.64 9.73-1.55 1.71-2.46 2.02-5.66 2.02-2.17 0-4.09-.23-4.32-.52zM276.53 193.75c-.9-.44-1.35-1.63-1.35-3.2 0-3.2.52-3.64 2.3-1.86 2.02 2.01 3.96 1.78 6.18-.83 2.22-2.68 3.28-8.19 2.02-10.85-1.12-2.45-1.12-2.53 1.03-2.53 2.46 0 3.36 2.3 3.36 8.63 0 5.42-1.34 9.45-3.57 10.64-1.94 1.04-8.27 1.04-9.97 0zM224.42 173.66c-1.03-.6-1.34-1.71-1.34-5 0-4.02.23-4.54 2.81-7 3.36-3.27 12.2-8.39 17.86-10.32 4.4-1.5 12.95-1.87 16-.75 3.65 1.42 4.99 3.72 4.99 8.4 0 4.15-.16 4.54-3.2 7.5-3.5 3.5-9.39 5.82-18.38 7.22-6.26.95-17.11.9-18.77-.08l.03.03zM370.48 144.8c0-1.63.44-3.41.95-3.95.52-.52 2.1-2.46 3.42-4.32 6.02-7.88 10.05-11.16 13.85-11.16 2.17 0 2.3.52.75 2.53a5.8 5.8 0 00-1.11 2.46c0 1.26 8.19 7.2 14.37 10.33 5.81 2.97 6.54 4.75 2.01 4.75-3.87 0-11.91-3.28-16.23-6.53-2.82-2.17-3.49-2.38-4.16-1.5-.44.6-2.61 3.13-4.83 5.66-3.42 3.95-4.4 4.62-6.5 4.62-2.45 0-2.52-.07-2.52-2.9zM351.12 134.83c0-1.94.44-2.69 1.78-3.36 2.22-.96 13.03-8.7 17.94-12.71 2.97-2.45 4.31-3.05 6.62-3.05 2.97 0 2.97 0-1.04 4.08-3.88 3.96-3.95 4.08-2.6 5.14.82.6 1.33 1.2 1.1 1.35-1.34 1.1-13.46 8.78-15.4 9.81a14.17 14.17 0 01-5.43 1.2c-2.9 0-2.97-.09-2.97-2.46z" fill="#C9954A"/><path d="M218.4 535.52c-.67-12.2-1.55-17.7-3.88-22.68-1.03-2.17-1.86-4.83-1.86-5.94 0-1.11-1.5-4.32-3.36-7.29-1.86-2.81-3.95-6.61-4.55-8.34-1.78-5.07-5.5-21.29-5.5-24.1 0-2.38.15-2.54 2.69-2.54 1.78 0 3.95.9 7 2.98 7 4.75 33.34 12.65 42.13 12.65 4.08 0 8.48-1.19 8.48-2.3 0-1.34-6.93-5.06-12.6-6.92-8.86-2.81-12.86-3.95-15.7-4.55-5.59-1.03-15.2-4.31-17.79-5.94-3.28-2.09-5.06-3.72-8.4-7.95-6.7-8.2-8.47-15.04-9.9-37.51-1.19-19.87-2.45-35.94-2.97-37.28-.67-1.94-1.86-.83-4.08 3.8a24.34 24.34 0 00-2.77 9.9c-.44 6.84-.83 8.39-2.01 8.39-1.27 0-2.38-3.95-1.27-4.32 1.11-.36 1.03-3.4-.23-6.4-.96-2.38-1.11-2.46-6.78-2.9-3.2-.3-8.19-.51-11.08-.51-8.48 0-22.64-2.02-29.1-4.03-3.29-1.04-9.62-3.95-13.99-6.41-8.35-4.62-9.46-5.06-9.46-3.64 0 1.63-2.22-.96-5.73-6.7a204.13 204.13 0 00-4.32-6.76c-.52-.6-2.69-4.47-4.83-8.55-2.18-4.08-4.17-7.75-4.55-8.11-1.12-1.2-.75-1.94.82-1.94 2.02 0 1.86-1.7-.44-6.7-1.78-3.79-10.57-26.94-11.83-31.25a38.4 38.4 0 00-2.1-4.83c-1.78-3.56-3.8-8.99-9.15-24.54-4.62-13.25-12.07-29.45-16.67-35.93-1.86-2.77-2.97-5.14-2.97-6.54 0-2.1.31-2.3 3.57-3.13 4.08-.9 8.7-2.89 13.93-6.01 2.1-1.27 4.31-2.23 4.99-2.3 2.01 0 3.56-2.17 3.56-4.91 0-1.42.31-2.53.6-2.53.82 0 3.13-7 3.13-9.38 0-1.27.43-1.78 1.42-1.78 1.26 0 2.6 2.45 1.78 3.28-.23.23-.52 1.7-.6 3.28a16.69 16.69 0 01-1.5 5.27c-1.18 2.38-1.18 2.38 3.13 7.8 2.38 2.97 8.71 10.57 13.99 16.82a708.28 708.28 0 0111.91 14.13c1.27 1.5 4.4 5.27 7.08 8.34a172.4 172.4 0 0110.34 13.7c12.36 18.08 17.58 24.1 20.91 24.1.6 0 .83-.83.6-2.23-.24-1.26 0-2.22.36-2.22s.51-.51.23-1.1c-.23-.6-.08-1.12.36-1.12s.52-.36.31-.75c-.23-.44.16-.96.9-1.27 1.71-.67 4.31-1.72 3.85-2.83-.36-1.19.44-1.56 1.5-.88.52.3 1.64-.6 2-1.12.44-.75 1.5-.42 1.5 1 0 2.17-2.46 2.16-4.4 2.16-.9 0-1.26.59-1.26 1.86a7.6 7.6 0 01-1.04 3.56c-1.5 2.3-2.17 4.99-1.34 4.99.36 0 2.6-1.55 4.9-3.41 4.17-3.5 4.17-3.5 15.2-4.55 6.03-.6 14.97-.96 19.88-.83 8.2.24 9.38.44 13.03 2.38 4.47 2.38 9.15 2.9 12 1.34 2.89-1.55 5.13-5.42 5.13-8.94 0-3.12.96-4.15 1.79-2.01.36.96 1.03.83 4.31-.83a69.75 69.75 0 005.07-2.6c.6-.37 1.7-.91 2.45-1.12 1.35-.51 1.79-2.53.52-2.53-.52 0-.52-.44 0-1.5 1.04-1.93 5.35-2.01 7.21-.15 2.38 2.45 5.66 4.31 17.94 10.49 13.26 6.69 12.59 6.61 16.39 2.17.95-1.2 2.37-2.1 3.2-2.1.96 0 1.42-.51 1.42-1.78a4 4 0 011.2-2.76c.95-.83 9.74-12.27 17.85-23.35 2.61-3.65 4.32-9.3 3.72-12.43-1.03-5.66-14.8-15.78-25.74-18.91a33 33 0 01-4.83-1.86c-3.29-1.42-15.2-4.03-22.49-4.83-4.68-.52-4.68-.52-4.68-3.05 0-2.17.75-3.4 4.24-7.2 5.28-5.74 11.48-15.2 13.54-20.78a27.48 27.48 0 001.56-9.45c0-5.14 0-5.14-5-2.82-18.52 8.4-32.53 9.46-46.88 3.41-4.31-1.86-5.42-2.6-5.42-3.87 0-1.03 4.03-5.74 11.75-13.61 11.02-11.4 12.08-12.2 18.02-15.04 7.13-3.28 14.53-5.14 23.16-5.81 5.81-.44 5.81-.44 7.29 2.09.82 1.34 2.17 4.68 2.97 7.36.95 3.13 2.3 5.66 3.72 7 2.02 1.94 2.61 2.1 5.43 1.63 6.7-1.11 17.94-8.47 24.04-15.78 7.36-8.79 9.45-13.62 8.78-20.23-.44-4.16-.44-4.24 1.04-2.97 1.7 1.55 16.82 2.9 26.13 2.45 15.56-.9 29.85-2.81 36.47-4.9 1.34-.44 2.68-.6 2.9-.37.66.6-2.03 3.41-3.3 3.41-.59 0-.82.36-.5.9.3.45.22.6-.32.37-.36-.31-2.22.67-3.95 2.17-4.04 3.36-14.66 10.93-17.5 12.5-2.9 1.55-.9 1.5 2.17 0 1.27-.67 5.07-3.05 8.4-5.22 3.36-2.22 6.54-4.03 7.08-4.03.6 0 1.86.52 2.82 1.2 2.1 1.5 8.4 1.03 12.07-.76 1.27-.67 2.61-.95 2.97-.75.9.52-.6 3.28-1.86 3.28-1.5 0-6.85 4.99-10.65 9.9a105.8 105.8 0 01-4.47 5.58 3.47 3.47 0 00-.96 1.86c0 .51 1.94-1.27 4.24-3.95 5.22-5.9 9.9-10.41 10.86-10.41.36 0 .23.51-.31 1.18-.9 1.12-.6 1.55 2.17 4.09 3.49 3.04 13.77 7.75 15.56 7.07.67-.3 2.3.37 3.64 1.42 1.43 1.11 2.9 1.7 3.29 1.5 1.55-.95.67 2.17-1.27 4.55-4.4 5.22-5.5 7-6.54 10.05-2.3 6.48-.96 14.57 4.24 25.6 1.78 3.72 4.03 7.6 5.06 8.78 1.71 1.78 2.1 1.94 4.48 1.27 1.42-.36 5.73-.75 9.46-.75 6.84 0 6.92 0 6.92 1.78 0 1.63-.23 1.78-3.13 1.42-3.04-.44-3.04-.44-2.53 2.1.24 1.41 2.46 6.68 4.91 11.83 2.46 5.21 4.76 11.39 5.27 13.97 1.43 7.44.44 22.16-1.93 30.2-1.04 3.64-1.79 7.08-1.55 7.67.95 2.46-7.6-.36-11.76-3.95-1.5-1.27-2.7-2.53-2.7-2.82 0-.3-.35-.9-.74-1.42-3.49-4.16-4.47-5.5-4.47-6.25 0-.52-.31-.96-.6-.96-.3 0-.67-.74-.67-1.62-.08-.96-.52-1.78-.95-1.94-.37-.16-.6-.6-.37-.9.24-.37-.36-1.43-1.34-2.38-.96-.96-1.63-2.17-1.42-2.69.15-.51-.16-.9-.6-.9-.51 0-.75-.52-.44-1.11.75-2.02-1.7-1.19-6.02 2.17-14.58 11-44.5 25.68-67.22 33.04-18.3 5.89-30.37 8.34-41.7 8.34-8.55.08-8.55.08-11.83 3.8-1.79 2.01-3.05 3.87-2.82 4.16 1.34 1.26 10.21 2.45 19.36 2.45 15.48 0 30.8-1.78 38.48-4.62 7.14-2.53 22.03-6.02 33.14-7.75 6.1-.96 8.71-1.03 14.53-.31 3.87.44 13.93.75 22.33.6 10.64-.16 16.15.07 18.24.66 1.63.52 6.5 1.79 10.8 2.82 13.27 3.13 23.09 8.7 34.1 19.27 12.59 12.06 20.24 25.14 23.16 39.5 1.55 7.6 3.05 23.58 3.05 32.45 0 8.1-3.96 18.44-10.94 28.72-7.67 11.16-8.55 12.79-7.96 15.32.24 1.11.75 4.99 1.04 8.55.6 6.49.6 6.49-2.02 11.6a107.6 107.6 0 01-6.02 9.9c-3.28 4.46-4.03 5.13-11.68 8.93-12.8 6.33-25.9 11.99-29.86 12.87-6.7 1.55-40.5-1.27-68.02-5.58-5.07-.75-13.99-1.11-31.64-1.2-28.22-.15-30.8-.22-32.54-.95-1.86-.9-2.82.08-2.82 2.9 0 1.55.68 3.28 1.86 4.67 1.79 2.1 2.02 2.17 10.57 2.61 9.16.52 22.34 2.53 29.78 4.63 2.38.67 11.17 2.45 19.57 4.02 17.26 3.28 23.75 4.91 27.6 6.85 3.88 1.94 8.48 7.52 9.61 11.47 1.35 4.68.6 23.22-1.34 32.73-.83 4.08-1.7 8.7-1.94 10.26-.51 2.76-.51 2.76-85.96 2.76-85.45 0-85.45 0-85.91-9.46l-.03-.02zm73.17-70.91c0-.36.44-.75 1.03-.75.6 0 1.11-1.19 1.35-3.2.51-4.4 7.08-18.45 11.76-25.14 2.1-3.05 4.55-6.61 5.35-7.96 1.55-2.53 1.55-2.53 8.35-2.01 18.6 1.42 39.51-.08 66.32-4.75a214.8 214.8 0 0120.1-1.94c13.03-.6 16.08-1.5 18.77-5.35 3.05-4.47 3.2-5.73 1.34-9.6-2.17-4.63-3.56-6.5-12.27-16.44-7-7.96-9.67-10.56-13.26-12.94-2.82-1.94-7.09-13.33-9.9-26.35a75.05 75.05 0 01-1.55-16.38c-.08-8.86.3-10.93 3.64-20.3.6-1.79.96-3.36.83-3.49-.44-.44-7.75 8.78-9.23 11.68-3.56 6.92-4.31 19.19-1.78 31.62 2.53 12.58 6.49 21.88 12.95 30.35 1.86 2.45 4.68 6.33 6.33 8.55a58.72 58.72 0 005.94 7.08c2.54 2.38 3.05 3.4 3.05 5.73 0 3.2 0 3.2-11.99 3.96-3.95.23-10.65 1.03-14.89 1.78s-10.05 1.63-12.94 1.86c-10.94 1.1-28.44 3.49-32.47 4.54a94.2 94.2 0 00-10.8 3.72c-9.38 3.72-15.92 3.57-15.92-.51 0-.96-.6-1.35-1.86-1.35a8.7 8.7 0 01-3.96-1.34c-21.73-14.8-30.44-19.5-39.23-21.36-8.12-1.7-16.16-1.04-18.77 1.5-.6.59-1.55 1.1-2.09 1.1-2.82 0-7.75 7.3-12.28 18.24-2.17 5.14-2.76 14.52-1.42 21.42 1.55 7.8 4.32 9.53 29.7 18.9 26.72 9.9 29.77 10.8 29.77 9.15l.03-.02zm23.68-56.24c.51-2.53.59-5.35.15-8.55-.36-2.6-.75-13.02-.75-23.07 0-15.7-.15-18.44-1.19-19.27-.95-.83-1.42-.75-2.76.6-1.5 1.5-1.63 2.76-2.23 15.18-.51 12.95-.23 18.53 1.55 28.14 1.12 5.65 3.29 12.06 3.8 11.39.31-.31.96-2.3 1.43-4.4v-.02zm130.78-16.82c2.37-1.03 5.58-7.6 7.8-15.83 3.28-12.07 2.69-33.04-1.19-44.49-2.17-6.33-8.55-14.64-11.24-14.64-2.77 0-2.38 5.42.9 12.66 5.15 11.39 5.28 27.97.37 46.13-3.42 12.71-3.5 13.62-1.12 15.55 2.38 1.86 2.1 1.79 4.48.68v-.06zm-20.47-134.43c0-.31-1.87-3.41-4.09-6.92a64.04 64.04 0 01-9.38-24.18c-.9-5.43-.96-5.66-1.63-3.41-.52 1.63-.44 3.72.16 6.33a181.1 181.1 0 011.5 6.92c.36 1.63 1.03 3.05 1.5 3.2.43.16.82.9.82 1.7 0 .76.36 1.43.75 1.43.44 0 .75.82.75 1.86 0 1.03.36 1.86.75 1.86.44 0 .75 1.03.75 2.22 0 1.7.31 2.22 1.5 2.22.95 0 1.5.52 1.5 1.5 0 .83.51 1.5 1.1 1.5.6 0 1.12.52 1.12 1.1 0 .6.36 1.12.75 1.12.44 0 .75.52.75 1.11 0 .6.36 1.11.75 1.11.44 0 .75-.3.75-.67h-.1zm4.98-19.94c1.11-1.7 1.35-3.72 1.35-12.12 0-9.38-.16-10.33-1.94-13.77-2.1-4.16-5.82-7.07-8.87-7.07-5.06 0-8.19 2.68-8.19 7 0 6.25 4.76 17.33 10.93 25.6 2.23 3.04 4.92 3.2 6.7.36h.02zm-78.52-26.04c4.04-4.47 4.4-8.63 1.27-13.93-1.42-2.45-1.86-2.76-4.24-2.53-3.41.31-5.06 2.97-5.74 9.15-.51 4.16-.36 4.67 1.5 6.92 2.46 2.9 4.68 3.05 7.21.36v.03zm-66.76-20.62c4.55-4.54 2.61-15.99-2.69-16.06-1.03 0-2.53.74-3.36 1.54-1.42 1.63-1.42 1.63.16.83 2.38-1.26 3.36-.08 1.7 2.02-1.42 1.7-1.5 1.7-2.45.44-.96-1.35-1.03-1.35-1.42.07-1.11 3.96-1.27 6.18-.44 8.2.52 1.18.96 2.45.96 2.76.15.95 2.17 2.01 4.03 2.01.95 0 2.53-.83 3.49-1.78l.02-.03zm-44.3-19.03c9-1.43 14.89-3.73 18.38-7.21 3.64-3.65 4.16-6.4 1.63-9.07-4.55-4.83-12.51-3.95-24.56 2.9-7.08 3.95-11.08 7.8-11.08 10.56 0 1.11.6 2.3 1.34 2.76 1.63.96 8.12 1.04 14.3.08v-.02z" fill="#E7B162"/><path d="M345.61 199.41c-.9-2.45 3.05-4.75 4.47-2.45.31.44.24.59-.3.3-.37-.23-1.43.45-2.23 1.5-1.26 1.79-1.5 1.86-1.94.68v-.03zM266.27 258.98c0-1.5.3-2.69.67-2.69.36 0 .82-.67 1.03-1.55a3.02 3.02 0 011.86-1.93 2.9 2.9 0 001.86-1.86 3.02 3.02 0 011.94-1.86c.9-.24 1.55-.68 1.55-1.04s.52-.67 1.11-.67c.6 0 1.12-.3 1.12-.75 0-.36 1.5-.75 3.36-.75 2.81 0 3.36.24 3.36 1.5 0 1.03-.52 1.5-1.63 1.5-2.3 0-8.48 4.75-11.6 8.94-3.29 4.31-4.63 4.67-4.63 1.19v-.03zM244.9 258.54c-1.28-.52-1.72-1.34-1.72-2.97 0-1.42-.36-2.22-1.03-2.22-1.27 0-1.94-1.63-1.94-4.55 0-1.63.36-2.17 1.5-2.17.83 0 1.5.52 1.5 1.11 0 .67.83 2.82 1.86 4.83 1.78 3.57 3.36 5.27 3.36 3.8 0-.44.67-.83 1.5-.83s1.5-.51 1.5-1.1c0-.6.36-1.12.83-1.12.44 0 .67 1.2.51 2.82-.23 2.69-.3 2.76-3.2 2.9-1.63.07-3.72-.16-4.63-.53l-.05.03zM240.21 242.55c0-1.42.31-2.6.67-2.6.37 0 .83-.76.96-1.64.16-1.42.75-1.78 3.41-1.93 3.36-.24 4.16.75 1.63 2.09-.82.44-2.1 2.17-2.82 3.72-1.62 3.95-3.87 4.08-3.87.36h.02z" fill="#E7B162"/><path d="M279.65 434.88c0-1.56-.36-2.23-1.19-2.23-.67 0-2.22-.44-3.48-1.03-1.35-.6-6.26-1.94-10.94-3.05-4.68-1.1-9.9-2.6-11.53-3.28-1.62-.75-5.42-2.3-8.4-3.49-3.95-1.55-5.73-2.68-6.17-3.87-.75-1.94-.9-7.67-.23-9.38.82-2.1 5.14-1.34 13.85 2.46a139.16 139.16 0 0017.65 6.01c10.34 2.61 12.8 3.65 16.31 6.93 2.17 2.09 2.38 2.76 2.38 6.48 0 5.06-1.34 6.7-5.43 6.7-2.53 0-2.77-.16-2.77-2.23l-.05-.02zM309.07 428.78a210.2 210.2 0 01-7.37-5.22c-6.62-4.99-10.85-7.52-25.1-15.19-8.78-4.75-11.47-5.81-20.03-7.8-5.42-1.34-10.57-2.97-11.47-3.72-1.55-1.34-1.55-1.34.08-2.82.95-.9 3.87-2.01 7-2.68 4.68-.96 6.1-.96 12.12 0 12.8 2.01 18.3 4.83 43.76 22.08 2.6 1.7 2.69 1.7 2.22-.67-.36-2.09-.36-2.09 1.79-.23 1.18 1.03 2.45 2.1 2.89 2.45.44.37.36.83-.31 1.27-1.55.9.31 2.97 2.61 2.97 1.42 0 1.78.36 1.78 1.78 0 1.04-.3 2.1-.75 2.3-.36.23-.75 1.27-.75 2.3 0 1.27-.36 1.78-1.5 1.78-.82 0-1.7.52-1.93 1.11-.52 1.35-3.05 1.43-5.15.24l.1.05zM72.78 212.04c-1.26-2.22-2.3-4.23-2.3-4.54 0-.24-2.38-4.84-5.27-10.2-2.9-5.43-6.62-13.7-8.27-18.38-3.88-11.23-9.07-21.8-12.51-25.36-2.53-2.69-3.05-2.9-6.93-2.9-2.3 0-4.31.31-4.62.75-.24.36.07 1.94.74 3.41a81.2 81.2 0 012.3 7.29c.6 2.53 2.46 8.19 4.09 12.58 2.22 6.25 2.9 9.14 2.9 12.86 0 4.76 0 4.76-2.54 4.76-3.05 0-3.36-.31-6.4-8.2-1.35-3.48-2.9-7.28-3.42-8.54-.52-1.2-1.86-4.4-2.9-7.08-1.1-2.69-2.89-6.7-3.95-8.94-2.1-4.47-3.36-14.8-1.7-13.85.51.31 2.53-.44 4.47-1.78 4.83-3.05 7.2-3.64 16.15-4.16 6.62-.36 7.96-.23 10.5 1.04 5.14 2.6 11 9.66 16 19.11 2.76 5.22 9.9 23.59 11.39 29.4 1.42 5.22 2.17 17.1 1.11 17.1-.3 0-.44.67-.23 1.5.23.9 0 1.5-.44 1.5-.52 0-.67.36-.44.75.23.44.15.75-.31.75-.44 0-.6.51-.36 1.1.3.68 0 1.12-.75 1.12-.67 0-1.2.6-1.2 1.5 0 3.04-2.76 1.62-5.13-2.61l.02.02zM437.24 200.08c-2.02-.52-4.04-1.26-4.47-1.63-1.04-.82-9.39-.67-15.49.16-3.95.6-4.23.52-5.73-1.42-.9-1.19-1.55-2.17-1.43-2.3.16-.16 3.57-.75 7.68-1.42 14.45-2.17 13.26-1.63 10.42-5.14-3.57-4.4-9-14.37-10.42-19.04a29.68 29.68 0 01-1.19-7.2c0-3.21 0-3.21 5.82-3.21 5.74 0 5.74 0 7.52 4.67.95 2.54 2.01 4.76 2.3 4.99.3.23 1.63 2.45 2.97 5.06 1.27 2.53 2.69 4.63 2.97 4.63.31 0 .75.67.96 1.5.31 1.18 1.03 1.5 3.57 1.5 2.17 0 3.72.43 4.75 1.5 1.55 1.49 1.55 1.49 4.84-.08a38.5 38.5 0 007.52-5.66c4.31-4.08 4.31-4.08-.16-9.66-2.45-3.05-4.99-6.62-5.58-7.8a53.74 53.74 0 00-3.36-5.28c-3.96-5.5-2.38-10.92 3.13-10.92 1.94 0 2.9.51 4.03 2.01 3.64 4.91 13.85 14.37 15.56 14.37.23 0 .44-1.12.44-2.38 0-1.34.67-3.88 1.5-5.66 4.08-8.99 13.1-43.09 16.67-63 2.53-14.29 3.87-18.84 6.33-22.32 2.97-4.09 4.16-4.76 5.81-3.13 2.46 2.45 1.27 23.82-2.81 48.88-1.86 11.52-5.5 26.78-7.68 31.98-.6 1.42-2.45 6.1-4.16 10.4-5.74 14.3-8.87 19.56-16.98 29.02-4.91 5.65-13.18 11.9-17.78 13.46-1.35.44-2.46 1.03-2.46 1.42 0 .82-7.44 2.97-9.82 2.89-.9-.08-3.36-.52-5.27-1.11v-.08zM274.9 158.26c-.23-.36-.23-1.7 0-2.9.36-1.7 1.27-2.53 4.99-4.3 4.75-2.39 16.43-12.72 18.37-16.39 1.04-1.93.96-2.17-.75-3.28-1.03-.67-2.9-2.3-4.08-3.64-2.3-2.38-2.3-2.38-9.74 1.34-12.28 6.25-18.92 5.94-18.92-.82 0-2.54.3-2.97 2.81-4.09 12.72-5.65 14.3-6.84 14.3-10.64 0-1.5.36-3.12.82-3.56.6-.6.52-2.1-.36-5.58a80.5 80.5 0 01-1.63-11.24c-.51-6.17-.67-6.61-2.45-7.36-1.63-.67-14.14-1.94-20.32-2.02-2.01-.07-2.09-.23-2.09-4.08 0-6.4.52-6.69 12.8-6.25 6.92.31 10.56.15 11.31-.44.68-.52 1.2-3.13 1.43-7.6.67-11.23 8.03-30.5 16.51-43.08a65.32 65.32 0 003.36-5.35c0-.16 1.7-2.82 3.8-5.9 3.88-5.8 5.58-7 9.98-7 2.53 0 2.53 0 1.19 3.96a548.2 548.2 0 01-6.41 15.4c-11.6 26.94-16 46.86-14.37 65.69.95 11.75 2.17 14.88 7.52 20.23 3.05 2.97 5.66 4.83 7.67 5.42 4.09 1.19 5.66 3.13 6.1 7.44.96 10.57-10.93 26.04-25.82 33.71a23.36 23.36 0 01-10.2 2.77c-3.21.23-5.51 0-5.82-.44z" fill="#E1B978"/><path d="M201.8 538.88c.24-3.41.6-9.82.83-14.37.31-4.46.83-9.66 1.27-11.52.75-3.28.67-3.64-2.9-10.8-7.6-15.1-11.24-27.14-11.91-39.42-.36-6.69-.23-7.67 1.03-9.22 1.5-1.86 1.5-1.86-1.42-8.4-4.24-9.6-5.81-17.4-6.25-31.84-.6-17.57.44-27.9 3.4-33.92 1.64-3.36 2.83-4.91 4.1-5.22 2.37-.6 4.83.9 4.83 2.9.07.9.36 5.13.75 9.45.43 4.31 1.26 15.99 1.86 25.96 1.42 22.83 3.12 29.6 9.9 37.87 6.48 8.03 11.4 10.64 25.81 13.85 7 1.55 17.5 4.83 21.59 6.69 12.43 5.65 10.72 11.6-3.36 11.6-11.4 0-36.63-7.13-44.82-12.71-2.46-1.7-4.63-2.9-4.76-2.7-.44.37 3.72 17.65 5.22 21.97.6 1.7 2.7 5.5 4.55 8.34 1.86 2.97 3.36 6.18 3.36 7.29 0 1.1.83 3.8 1.86 5.94 2.38 5.14 3.29 10.72 3.88 23.81.44 10.57.44 10.57-9.46 10.57-9.82 0-9.82 0-9.38-6.1l.03-.02zM293.43 468.35c-.23-.36-1.27-.75-2.3-.75-1.42 0-1.78-.36-1.78-1.86 0-1.62.3-1.86 2.68-1.86 2.46 0 2.7.16 2.23 1.79-.31 1.1-.08 1.94.44 2.09.67.23.67.44.07.83-.51.3-1.03.23-1.34-.24zM285.99 467.09c-4.84-1.11-12.28-4.24-12.28-5.14 0-1.5 3.8-1.27 8.35.44 2.17.82 4.55 1.5 5.27 1.5.83 0 1.27.59 1.27 1.86 0 1.03-.24 1.78-.52 1.78-.36-.08-1.27-.23-2.1-.44zM293.04 460.53c0-1.42.36-2.61.75-2.61.44 0 .75-.83.75-1.79 0-2.45 6.1-15.19 10.13-21.13 5.35-7.75 5.95-8.34 7.8-8.19 1.35.16 1.87-.3 2.39-2.01.44-1.19.9-2.76 1.1-3.36.24-.6.32-1.34.32-1.63-.08-.36.44-.59 1.19-.59s4.31-1.19 7.88-2.6c3.57-1.5 8.4-3.13 10.8-3.73 3.88-.95 21.15-3.4 32.08-4.47a175.9 175.9 0 0013.02-1.94c4.55-.74 12.28-1.7 17.27-2.01 5.07-.36 9.38-.9 9.67-1.11.3-.31-1.04-2.17-2.98-4.08a75.3 75.3 0 01-5.94-7c-1.34-1.86-4.03-5.5-5.94-8.11-9.75-12.87-14.66-28.86-14.66-47.46 0-10.2.96-15.32 3.8-20.02 1.42-2.3 10.2-14.29 11.53-15.7.15-.16.82.15 1.42.67 1.34 1.1.95 7.07-.75 12.27-2.97 8.99-3.41 11.31-3.41 18.16.07 13.17 6.85 37.04 11.4 40.09 3.56 2.45 6.25 5.06 13.25 13.02 8.71 9.97 10.14 11.83 12.36 16.5 2.6 5.43 2.3 8.56-1.42 13.98-2.7 3.88-5.74 4.75-18.77 5.35-6.54.3-15.56 1.19-20.1 1.94-18.85 3.28-39.99 5.42-52.11 5.42-6.54-.08-13.93-.36-16.44-.67-4.55-.52-4.55-.52-6.1 1.94-.83 1.42-3.28 4.98-5.35 8.03-3.41 4.9-11.16 20.23-11.16 22.17 0 .82-2.38 3.2-3.2 3.2-.32 0-.53-1.19-.53-2.61l-.05.08zM266.99 460.6c-2.22-.95-4.68-2.01-5.35-2.22-2.46-.75-1.55-2.68 1.27-2.68 1.42 0 2.6.3 2.6.6s1.5 1.02 3.37 1.54c2.76.83 3.36 1.27 3.36 2.77 0 2.16-.16 2.16-5.23 0H267zM312.4 416.95c-.96-.83-1.86-2.1-1.94-2.77-.15-.67-.67-3.12-1.26-5.34-3.36-12.27-3.88-19.8-2.98-38.62.67-12.8.67-12.95 2.7-14.65 2.52-2.17 4.23-2.22 6.53-.36 1.7 1.34 1.7 1.42 1.5 18.75-.08 10.41.16 20.1.75 24.1 1.03 8.04-.08 16.15-2.53 17.85-.75.52-1.2 1.35-.9 1.79.66 1.19.22.95-1.87-.75zM93.05 342.03c-.9-.67-4.84-7.6-8.8-15.4-4.02-7.74-7.51-14.43-7.8-14.87-.3-.37-.75-1.78-.95-2.97-.6-3.28-9.54-27.15-14.66-39.42-3.88-9.3-7.21-19.5-8.55-26.12a33.84 33.84 0 00-2.23-5.9c-1.03-1.93-1.86-4.02-1.86-4.61 0-.52-.51-.96-1.1-.96-1.64 0-1.35-2.17.59-3.72.9-.75 3.72-1.78 6.25-2.3 2.61-.52 4.68-1.19 4.68-1.55 0-.31 1.5-.6 3.36-.6 3.05 0 3.36-.15 3.36-1.85 0-1.2.44-1.86 1.19-1.86.6 0 1.63-.52 2.22-1.12a5.86 5.86 0 013.36-1.1c1.42 0 2.17-.37 2.17-1.12 0-.67.67-1.1 1.86-1.1 1.35 0 1.86.35 1.86 1.41 0 1.79-1.86 3.8-3.56 3.8-.68.08-2.9 1.03-5 2.3-5.21 3.05-8.26 4.47-13.17 5.81-4.32 1.27-4.32 1.27-1.63 4.91 4.31 5.94 12.5 23.59 16.98 36.45 5.27 15.47 7.37 20.98 9.15 24.54.83 1.63 2.1 4.83 2.82 7.08 1.5 4.62 8.94 24.1 11.76 30.87 1.42 3.41 1.78 5.14 1.42 7.36-.6 3.41-1.42 3.88-3.65 2.1l-.07-.06zM147.3 295.14c-.96-1.85.46-5.32 3.56-8.32 1.73-1.68 3.78-3.32 4.58-3.64.8-.26 1.89-.86 2.52-1.19.55-.37 3.07-1.09 5.54-1.58a91.83 91.83 0 009.7-2.71c7.35-2.55 14.61-3.64 24.4-3.7 6.94 0 9.24.26 14.45 1.47 7.18 1.74 10.83 3.26 13.1 5.54 2.89 2.9 2.36 4.02-1.35 6.94-1.02.38-6.85 4.45-9.94 4.45-4.58-.05-6.3-.32-9.79-1.58-5.46-2.02-13.98-2.34-30.32-1.25-11.6.76-11.76 2.72-16.75 5.55-5.13 2.88-8.75 1.68-9.7 0v.02zM245.56 277.74c-2.1-1.35-3.87-2.7-3.87-2.98 0-.36 1.18-.59 2.6-.59 1.43 0 2.62.31 2.62.67 0 .36.82.9 1.86 1.11 1.34.36 1.86.96 1.86 2.3 0 2.38-.31 2.38-5.07-.51zM236.1 273.73c-.44-.16-.67-1.78-.51-3.64.23-2.69.6-3.36 1.62-3.36 2.1 0 3.73 2.1 3.73 4.62 0 1.63-.31 2.17-1.12 1.86-.59-.3-1.26-.15-1.5.24-.43.75-.95.82-2.22.3v-.02zM433.28 264.56a25.88 25.88 0 01-4.83-1.94c-1.42-.75-3.2-1.63-4.03-2.09-2.17-1.11-7.88-9.22-9.82-13.85-.96-2.22-2.18-4.62-2.77-5.22-1.63-1.93-3.57-9.06-3.95-14.2-.31-5.66 1.26-17.26 2.45-17.65.75-.23 3.05 8.7 4.47 17.26.96 5.66 4.76 14.8 8.87 21.13 4.83 7.6 10.2 14.96 10.85 14.96.31 0 .68.52.96 1.1.23.6.31 1.12.23 1.04-.07-.08-1.19-.3-2.45-.6l.02.06zM278.75 223.05c-.75-.16-1.34-.68-1.34-1.04s-.52-.67-1.27-.67c-2.22 0-9.15-2.6-9.15-3.4 0-1.12 2.82-1.87 3.41-.91.23.36.9.51 1.42.3.52-.15 1.63.16 2.54.76.82.59 1.55.95 1.55.67 0-.23.82.15 1.86.83 1.03.67 1.86.95 1.86.67 0-.31.51-.16 1.11.36.6.51 1.11.67 1.11.44 0-.31.67-.16 1.5.3.83.45 1.5 1.12 1.5 1.5 0 .75-3.72.9-6.1.24v-.05zM260.3 216.59c0-1.42 2.45-1.94 3.95-.83 1.86 1.34 1.55 1.86-1.34 1.86-1.71 0-2.62-.36-2.62-1.03zM242.95 215.6c-1.03-.3-.44-1.34 3.41-6.01 6.03-7.29 12.95-17.5 16.83-24.93 2.38-4.55 3.05-6.61 3.05-9.66.08-3.72.08-3.8 1.11-2.02 1.55 2.77 1.34 9.66-.44 14.65-2.1 5.58-8.27 15.03-13.54 20.77-2.3 2.53-4.24 4.83-4.24 5.14 0 .31.9.36 2.1.16 1.85-.37 4.62.82 4.62 2.01 0 .52-10.8.44-12.87-.08l-.03-.02zM410.51 196.13c-.51-.67-1.5-2.3-2.01-3.57-.52-1.34-1.35-2.45-1.7-2.45-.37 0-.45-.31-.24-.75.23-.36.08-.75-.36-.75s-.6-.3-.37-.75c.24-.36.08-.75-.36-.75s-.67-.3-.36-.67c.23-.36 0-1.1-.52-1.7-1.62-1.7-1.55-3.57.16-3.57.96 0 1.5.52 1.5 1.5 0 .83.3 1.5.6 1.5.95 0 2.37 3.56 2.37 5.94 0 1.7.36 2.22 1.5 2.22.83 0 1.5.52 1.5 1.11 0 .6.52 1.11 1.11 1.11 1.63 0 1.34 2.02-.31 2.46a2.9 2.9 0 01-2.45-.9l-.06.02zM208.94 173.89c-1.86-1.5-1.86-1.5-.31-3.28.9-.9 3.28-4.24 5.35-7.29 8.55-12.86 16.98-19.5 29.85-23.58 4.24-1.35 9.15-2.53 10.8-2.53 1.71-.08 2.46-.24 1.71-.45-.67-.15-1.11-.67-.9-1.03.67-1.03 4.08-.82 7.6.52 2.37.96 3.2 1.63 3.2 2.81 0 1.35-.52 1.55-3.88 1.7-6.25.24-14.65 2.39-21.42 5.51-5.95 2.77-7.09 3.72-17.7 14.65-6.34 6.4-11.69 12.27-12 13.02-.52 1.34-.6 1.34-2.3-.08v.03zM369.34 146.2c-1.19-1.94.96-5.15 8.48-12.71 7.75-7.8 10.8-9.9 9.97-6.62-.23.83-.9 1.5-1.5 1.5-1.7 0-7.6 6.02-7.13 7.2.23.68-.15 1.2-1.11 1.5-.83.24-1.34.83-1.19 1.35.23.52-.3 1.11-1.19 1.34-.9.24-1.42.75-1.1 1.19.22.44-.09.83-.76.83s-.95.36-.75.75c.31.44-.3 1.62-1.34 2.68-1.2 1.2-2.1 1.55-2.38 1.04v-.06zM350.8 133.72c-1.34-2.17 18.02-16.07 25.39-18.3 1.5-.5 1.63-.35 1.03 1.2a3.76 3.76 0 01-2.38 2.09 4.4 4.4 0 00-2.53 2.1c-.36.9-1.34 1.62-2.1 1.62-.82 0-1.54.67-1.77 1.5-.24.82-1.04 1.5-1.79 1.5-.83 0-1.42.36-1.42.74 0 .44-.52.75-1.11.75-.6 0-1.11.36-1.11.75 0 .44-.52.75-1.11.75-.6 0-1.12.36-1.12.75 0 .44-.51.75-1.1.75-.6 0-1.04.36-.91.83.08.36-1.03 1.19-2.46 1.7a65.87 65.87 0 00-3.8 1.5c-.75.31-1.5.23-1.7-.16v-.07z" fill="#F2C37F"/><path d="M266.27 288.38c-11.32-5.58-19.36-9.97-19.36-10.57 0-1.26 4.62-.67 10.05 1.27 5.07 1.78 5.82 1.86 9.23 1.03 3.2-.75 4.31-1.55 8.79-6.54 12.12-13.6 17.5-21.88 18.53-28.41.6-3.88-2.9-10.13-10.26-18.16-3.41-3.72-2.38-7 1.5-4.99.67.37 3.12 1.55 5.35 2.69a60.64 60.64 0 0113.7 9.82c2.53 2.53 5.27 9.66 4.23 10.92-.67.9-1.93 5.66-1.7 6.62.07.3-.16.51-.6.51-.36 0-.75.37-.75.83 0 .44-.75 1.86-1.7 3.13-8.2 11.31-15.25 20.61-16.83 22.32-1.03 1.1-1.94 2.68-1.94 3.35 0 .68-.82 1.63-1.78 2.1-.96.51-2.9 2.09-4.32 3.56-3.28 3.36-6.25 3.49-12.12.52h-.02zM241.25 274.53c-2.02-1.86-2.02-1.86.75-1.86 2.38 0 2.69.23 2.69 1.86 0 1.04-.31 1.86-.68 1.86-.44 0-1.63-.82-2.76-1.86z" fill="#F2B992"/><path d="M264.25 264.71c-1.34-.51-1.19-5.14.31-8.26 1.78-3.88 8.63-10.33 12-11.32 1.5-.51 3.95-.75 5.34-.59 2.54.23 2.61.31 2.77 3.56.08 1.86-.08 2.82-.23 2.1-.44-1.42-4.24-2.61-4.63-1.42-.16.44-.75.82-1.34.82-.6 0-1.04.31-1.04.67 0 .37-.67.83-1.55 1.04-.83.23-1.7 1.03-1.86 1.78a3.96 3.96 0 01-2.02 2.1c-.95.43-1.55 1.26-1.42 2.08.16.75-.23 1.27-.95 1.27-.68 0-1.04.31-.75.67.44.75-2.46 6.1-3.2 5.94-.32 0-.97-.23-1.43-.44zM240.34 257.58c-2.17-2.3-3.13-5.8-3.13-11.15 0-7.96 3.13-11.68 9.67-11.68 2.61 0 2.97.23 2.97 1.7 0 1.5-.36 1.79-2.22 1.86-2.97.08-3.64.6-3.2 2.38.23.96 0 1.5-.6 1.5-.75 0-1.03 1.03-1.03 3.72 0 2.1.3 3.72.6 3.72.35 0 .35.36.15.75-.24.44-.16.75.3.75.76 0 2.02 2.81 1.71 3.87-.07.31.52.9 1.35 1.35 2.69 1.42 1.78 2.97-1.7 2.97-2.46 0-3.65-.44-4.84-1.7l-.03-.04z" fill="#F2B992"/><path d="M252.85 280.65c-6.7-2.53-10.41-4.75-13.26-7.88-.9-1.1-2.17-2.45-2.76-3.12a4.52 4.52 0 01-1.11-2.61c0-.75-.6-2.38-1.27-3.64-2.53-4.47-1.19-32.45 1.86-39.3 2.22-5.06 1.86-4.9 20.4-7.36 4.83-.67 7.51-.67 11.08 0 6.18 1.11 14.97 4.63 16.23 6.41.6.83 1.63 2.01 2.23 2.69 4.03 4.03 8.7 11.31 9.82 15.19.75 2.45-.16 7.44-2.1 11.98-2.17 4.99-8.04 12.94-16.82 22.76-4.16 4.68-5.66 5.9-8.35 6.54-5.27 1.34-9.3.9-16-1.63l.05-.03zm26.29-21.28c5.81-6.18 6.4-8.27 3.49-11.4-1.2-1.34-1.63-1.42-4.09-.59-5.35 1.78-14.8 13.33-12.27 14.88.51.31.75 1.11.51 1.7-.3.83.24 1.43 1.55 1.87 2.82.95 4.92-.31 10.8-6.49v.03zm-28.43-3.57c.51-.51 1.03-3.4 1.26-6.4.37-6.26-.82-10.05-3.8-11.6-1.7-.9-2.17-.83-4.39.44-4.76 2.76-5.66 11.75-1.7 16.5 1.5 1.63 2.45 2.1 4.83 2.1 1.63 0 3.36-.44 3.8-1.04zM240.94 215.56c0-1.27 3.2-2.46 5.27-2.02 3.72.83 2.69 2.6-1.55 2.6-2.02 0-3.72-.22-3.72-.58z" fill="#FDCAAC"/><path d="M286.74 466.78c-.31-.44-1.04-.6-1.63-.36-.6.23-1.94-.16-3.05-.9-1.04-.68-2.02-1.2-2.17-1.04-.16.08-.37.08-.6.08-.23-.08-.67-.24-1.1-.31a3.22 3.22 0 01-.91-.31 5.66 5.66 0 00-1.79-.44c-.9-.24-2.53-.75-3.72-1.2a50.3 50.3 0 00-2.53-1.02c-.23-.08-1.7-.75-3.36-1.5-1.63-.75-3.28-1.42-3.72-1.42-.37-.08-3.5-1.04-6.93-2.23-4.47-1.62-7-3.04-9.3-5.26a41.1 41.1 0 00-5.9-4.68c-1.5-.96-3.8-2.9-5.06-4.4-2.38-2.68-2.38-2.76-2.1-9.45.37-7.67 2.1-12.11 4.84-12.78 2.09-.52 2.3-2.54.23-2.54-1.34 0-1.5-.51-1.5-4.46 0-2.46.31-4.47.67-4.47.36 0 .83-.9 1.04-2.1.23-1.1 1.78-4.03 3.4-6.48 1.71-2.45 3.21-4.75 3.37-5.22.15-.44 1.1-.23 2.38.44 1.18.75 6.48 2.3 11.75 3.57 8.28 2.09 11.1 3.12 19.73 7.8 14.29 7.75 18.45 10.25 25.14 15.24 3.29 2.38 6.7 4.75 7.52 5.22 2.1 1.1 2.1 1.55-.59 4.9-1.19 1.5-2.1 3.05-1.86 3.36.23.31-.16.83-.83 1.04-.67.3-1.03.67-.83.9.16.23-.36 1.19-1.34 2.1-2.22 2.21-5.06 7.74-4.47 8.62.23.44.08.75-.44.75s-.75.23-.44.44c.23.31-.08.95-.67 1.55-.6.6-.9 1.42-.67 1.78.3.36.07.67-.37.67-.43 0-.59.37-.36.75.24.44.08.75-.36.75s-.6.36-.36.75c.23.44.15.75-.23.75-.44 0-.6.6-.37 1.42.16.75-.23 1.86-.9 2.61-.67.67-.96 1.19-.67 1.19.36 0 .23.36-.31.9-.52.52-.9 1.63-.9 2.61 0 1.19-.45 1.7-1.5 1.7-.83 0-1.5.37-1.5.76 0 .95-4.24.95-4.84-.08h.1zm-2.46-33.17c2.1-1.86 1.7-4.83-1.03-7.44-3.5-3.28-5.95-4.31-16.31-6.92a144.15 144.15 0 01-17.7-6.02c-8.87-3.88-9.75-3.88-9.67-.31.08 2.01 1.03 4.47 1.86 4.47.36.07 1.78.67 3.13 1.34 1.26.75 2.37 1.11 2.37.9 0-.23.75.08 1.7.68.91.59 2.03 1.18 2.39 1.26.44.08 1.55.44 2.6.9 1.04.44 2.02.83 2.23.9 2.1.68 2.97 1.5 2.97 2.54 0 .75.24.9.6.36.82-1.19 3.05-1.78 3.56-.95.24.44.9.6 1.5.36.52-.23 1.2-.08 1.5.36.23.44.9.6 1.5.36.52-.23 1.19-.08 1.5.36.23.44.9.6 1.5.37.52-.24 1.19-.08 1.5.36.23.44.9.6 1.42.36.52-.16 1.63.15 2.53.75.83.6 1.55.9 1.55.6 0-.24.52-.09 1.12.43.59.44 1.34.67 1.62.52.36-.23 1.2.08 1.94.6 1.11.82 1.19 1.26.52 2.52-.96 1.86-.23 2.02 1.63.31l-.03.03zM40.5 229.38c-5.07-2.77-9.9-7.6-18.3-18.24-7.13-9.15-9.15-12.87-10.85-20.62-1.79-8.03-1.12-24.4 1.18-30.66 1.56-4.08 1.56-4.08 4.55-3.88 3.05.24 3.05.24 7.45 10.26a655.2 655.2 0 017 16.43c1.42 3.49 3.05 7 3.65 7.8.95 1.34 1.03 1.19 1.1-1.34 0-2.02.32-2.82 1.12-2.82.6 0 1.11.44 1.11 1.04 0 .51.52 1.42 1.11 1.93 2.02 1.7 1.35-3.8-1.55-11.6a205.6 205.6 0 01-4.03-12.19c-.67-2.69-2.1-7.08-3.05-9.74-2.38-6.76-1.86-7.36 6.62-7.36 6.33 0 6.33 0 9.07 2.9 3.4 3.56 8.63 14.12 12.5 25.36a130.85 130.85 0 007.68 17.1 176.7 176.7 0 015.59 10.93 78.5 78.5 0 003.28 6.17c2.22 3.8 2.9 6.7 1.5 6.7-.36 0-.52.43-.31 1.03.44 1.03-1.63 2.22-2.77 1.5-1.03-.68-3.64.43-3.64 1.55 0 .59-.52.82-1.5.59-.96-.31-1.5 0-1.5.67 0 1.35-3.41 3.28-5.22 2.97-.75-.15-1.5.31-1.7.9-.32.68-1.04.91-1.95.68-.9-.23-1.55-.08-1.55.36s-.67.6-1.5.36c-.82-.23-1.5 0-1.5.44 0 .36-.51.6-1.1.36-.6-.23-1.94.31-3.06 1.11-2.68 2.1-4.31 1.94-9.46-.82l.03.13zM407.1 189.57c-4.47-8.7-5.27-11.91-3.41-12.27 1.19-.24 1.34-1.2 1.42-8.04.16-11.08.16-11.16 9.3-11.31 14.3-.31 13.03-.44 13.26 1.86.16 1.1.6 2.01.96 2.01s.67 1.2.67 2.61c0 1.42-.3 2.61-.75 2.61-.36 0-.75-.51-.75-1.1 0-.6-.3-1.12-.75-1.12-.44 0-.67-.23-.67-.52.44-2.76-.15-3.2-3.8-3.2-4.24 0-4.31.08-2.53 5.94 1.94 6.62 9 18.3 14.21 23.43 2.23 2.22-.07 3.13-13.85 5.22-4.16.6-7.96 1.11-8.55 1.11-.6 0-2.7-3.28-4.76-7.2v-.03zM445.95 185.72c-1.63-1.86-2.22-2.1-3.8-1.5-1.94.75-5.43-.96-5.43-2.69 0-.51-.44-1.1-1.03-1.34-.52-.23-1.2-1.11-1.43-1.94-.3-1.19 0-1.55 1.04-1.55 1.78 0 1.78.24-.52-4.83-2.22-4.83-4.03-10.93-4.03-13.84 0-1.7.96-2.53 6.54-5.9 3.57-2.16 7.29-4.54 8.27-5.26a6.3 6.3 0 013.49-1.42c1.27 0 1.78-.44 1.78-1.5 0-1.2.52-1.5 2.3-1.5 2.61 0 4.4 1.5 4.4 3.64 0 1.03.44 1.55 1.5 1.55.82 0 1.5.52 1.5 1.11 0 .6.36 1.11.74 1.11.52 0 .52-.44 0-1.42-1.03-1.94-.95-10.4.16-13.53.44-1.42 2.38-4.55 4.32-7 1.93-2.46 5.35-7.44 7.6-11.16 5.94-9.61 19.12-36.25 20.15-40.56.75-3.28 1.12-3.72 2.82-3.72 1.94 0 1.94 0 .9 3.87-.59 2.17-1.86 8.63-2.89 14.37-3.56 19.94-12.43 53.5-16.67 63.16-.96 2.09-1.34 4.08-1.03 5.27.36 1.55.23 1.86-1.2 1.86-.9 0-2.22-.75-3.04-1.63-1.35-1.7-1.35-1.7-1.42.36 0 2.1 0 2.1-2.38.44-2.61-1.78-10.26-9.38-13.1-13.02-1.63-2.1-1.63-2.1-3.29-.52-1.63 1.63-1.63 1.63.96 5.58 1.5 2.17 3.49 5.27 4.55 6.93 1.03 1.63 3.72 5.27 6.02 8.1 4.24 5.07 4.24 5.07 2.82 7.09-2.54 3.48-8.8 8.86-12.28 10.56-1.94.9-3.64 1.86-3.88 2.22-.75 1.27-2.53.68-4.47-1.5l.03.1zm24.27-28.65c0-.23-.96-1.03-2.23-1.94-1.86-1.34-2.22-1.42-2.22-.44 0 .68.67 1.2 1.5 1.2s1.5.35 1.5.74c0 .44.36.75.75.75.44 0 .75-.16.75-.31h-.05z" fill="#F5D7AE"/><path d="M33.26 182.28c0-3.12 1.55-3.48 2.82-.75 1.27 2.77 1.11 3.36-.96 3.36-1.62 0-1.86-.3-1.86-2.6zM29.93 175.08c-.31-1.35-.9-2.7-1.27-2.9-.44-.3-.95-2.01-1.1-3.95-.6-4.75 1.41-4.68 3.2.16a77.58 77.58 0 002.3 5.34c1.42 2.77 1.19 3.72-.83 3.72-1.42 0-1.94-.51-2.3-2.37zM430.7 171.64c-2.17-2.53-2.3-3.88-.31-3.88 1.63 0 1.86.31 1.86 2.61 0 2.97-.08 3.05-1.55 1.27zM23.6 158.5c0-3.13 1.5-3.42 2.81-.6 1.27 2.81 1.12 3.2-.95 3.2-1.63 0-1.86-.31-1.86-2.6zM274.43 156.76c0-.75-1.34-5.66-2.97-10.93-2.82-9.06-4.91-13.33-7.21-14.72-2.38-1.42-.52-7.2 2.3-7.2.67 0 1.19-.32 1.19-.76 0-.36 1.5-.75 3.36-.75 4.55 0 4.4 1.5-.36 3.57-2.02.9-3.73 1.94-3.73 2.22 0 .36.68 1.27 1.5 2.01 1.35 1.27 1.63 1.27 5.35 0 2.18-.67 7-2.89 10.73-4.9 3.72-2.02 7.13-3.65 7.52-3.65.44 0 1.63 1.27 2.69 2.82 1.11 1.5 2.9 3.36 4.03 4.08 5.22 3.2 5.15 3.05 2.46 7.13-3.5 5.58-13.86 14.96-19.2 17.57-3.06 1.5-4.63 2.68-4.63 3.56 0 .75-.6 1.27-1.5 1.27s-1.5-.52-1.5-1.35l-.03.03zM20.62 149.55c0-2.09.31-2.6 1.43-2.6 1.93 0 2.45.95 1.86 3.35-.31 1.19-.96 1.86-1.86 1.86-1.12 0-1.43-.51-1.43-2.6z" fill="#F5D7AE"/><path d="M254.71 123.15c-.23-.36-.75-5.14-1.1-10.56-1.04-13.93.9-37.95 3.04-39.37.6-.36 4.63-.67 9.07-.67 7.76 0 7.96.07 7.96 1.7 0 1.55-.15 1.63-6.54 1.42-7.28-.3-9.07.52-9.07 4.03 0 1.42.37 1.78 2.1 1.86 6.33.08 18.68 1.34 20.47 2.1 1.7.67 2.01 1.18 2.01 3.95a76.26 76.26 0 003.05 18.36c1.5 4.83 1.5 4.83-.15 6.1-1.27.9-1.5 1.63-1.11 3.13.51 2.22-1.35 4.62-5.67 7.2-2.81 1.63-2.81 1.63-2.81-1.03 0-2.38.23-2.69 1.86-2.69 1.03 0 1.86-.3 1.86-.67 0-.36.23-1.19.44-1.78.23-.75-3.05.52-8.63 3.28-7.21 3.49-9.75 4.4-12.67 4.4-2.01 0-3.8-.32-4.08-.76h-.03zM281.15 72.78c0-2.69-1.5-3.2-9.22-3.2-9.15 0-11.17-.83-11.48-4.63-.52-5.73 7.44-20.02 19.57-35.18 12.27-15.32 27.75-27.15 35.59-27.15 1.93 0 2.17.23 1.7 1.7-.23.9-.44 1.86-.44 2.17 0 .31-.44.36-.95.16-2.23-.83-5 1.34-8.64 6.69a73.45 73.45 0 00-3.8 5.89c0 .15-1.5 2.6-3.36 5.34-4.62 6.93-10.2 18.53-13.46 28.27-2.23 6.69-2.77 9.3-2.82 14.51-.08 5.35-.3 6.33-1.34 6.54-.9.15-1.35-.23-1.35-1.11zM495.52 70.53c0-1.19 3.65-5.06 3.72-3.95 0 2.53-.95 4.47-2.3 4.47-.82 0-1.42-.23-1.42-.52z" fill="#F5D7AE"/><path d="M266.63 267.04c-1.63-1.63-.9-2.1 1.7-1.19 2.9.96 5.07-.3 11.17-6.85 4.31-4.62 4.99-5.94 4.68-8.54-.16-.52.15-.75.6-.44 2.3 1.34.15 5.21-7.22 12.86-4.16 4.31-5.58 5.35-7.44 5.35-1.27 0-2.82-.52-3.5-1.2zM234.4 263.17c-2.1-4.32-4.03-15.56-4.4-25.45-.36-8.86-.23-10.57 1.2-14.52.82-2.45 2.3-5.14 3.35-6.02 2.46-2.22 9.82-3.56 16.67-3.12 7.09.51 19.52 2.81 19.52 3.72 0 .3-2.1.6-4.63.6-4.16 0-15.2 1.41-22.18 2.88-3.28.68-5.58 3.96-6.53 9.23-1.63 8.55-2.46 20.15-1.94 27.3.3 4.08.36 7.44.23 7.44-.16 0-.75-.9-1.27-2.1l-.02.04z" fill="#FFD7BE"/><path d="M251.38 254.07c1.11-3.8.9-10.05-.36-13.17-1.35-3.2-1.12-3.72.82-1.63 2.02 2.22 2.1 14.05.16 16.07-1.27 1.19-1.27 1.1-.6-1.27h-.02z" fill="#FFD7BE"/><path d="M245.4 452.29c-11.9-4.83-14.2-6.85-15.55-13.46-1.5-7.6-.83-20.7 1.42-25.89 4.76-11.47 8.4-16.74 12.35-18.24 4.76-1.85 4.68.6-.07 7.6-1.5 2.17-2.9 4.83-3.13 5.94-.23 1.11-.6 2.1-.9 2.1-.24 0-.44 1.03-.44 2.22 0 1.26.23 2.22.51 2.22.24 0 .6.51.75 1.19.31 1.62 14.22 7.43 23.29 9.66 10.42 2.6 19.95 5.65 19.2 6.17-.3.23-.6.96-.6 1.55 0 .67-.82 1.19-2.3 1.34-2.96.31-17.85-3.87-24.1-6.69-7.89-3.64-15.72-6.48-16.68-6.1-1.63.6-3.56 5.74-3.95 10.42-.36 4.23-.31 4.67 1.94 7.2a30.94 30.94 0 005.14 4.4c1.5.9 4.63 3.4 6.85 5.58 2.22 2.17 4.63 4.15 5.35 4.39.75.23 1.34.9 1.34 1.5 0 .59-.07 1.03-.15 1.03-.16-.08-4.76-1.94-10.26-4.16v.03zM40.5 229.3a74.9 74.9 0 01-5.58-3.49c-.67-.6-2.77-2.1-4.63-3.28-4.31-2.76-15.56-13.7-19.87-19.27C3.57 194.4-.9 181.46.16 173.66c.9-6.7 6.25-15.84 14.52-24.93 3.13-3.41 3.49-3.72 5.9-3.2 2.3.43 3.72 1.62 3.8 3.12 0 .3-.32.52-.76.52-.67 0 2.1 8.93 3.05 9.66.68.51 3.29 7.75 3.05 8.4-.07.3.24.5.68.5.43 0 .67.53.36 1.12-.24.6-.08 1.11.3 1.11.45 0 .76.67.76 1.5s.36 1.5.82 1.5c.44 0 .68.51.37 1.1-.24.6-.16 1.12.23 1.12.6 0 2.82 5.94 2.45 6.92-.07.31.16.52.44.52.36 0 1.11 1.42 1.63 3.2.6 1.7 1.35 3.36 1.7 3.57 1.35.95-1.26 4.75-3.35 4.98-2.46.31-3.5-1.1-6.93-9.66-4.83-11.99-11.32-26.2-12.07-26.4-1.11-.36-3.36 5.5-3.64 9.45-.16 1.87-.44 5.9-.75 9-.6 6.69 1.03 15.24 3.95 21.05 3.36 6.69 19.28 25.52 25.9 30.71 4.08 3.2 3.05 3.57-2.1.75l.03.03z" fill="#F8E5C7"/><path d="M346.34 200.08c-1.42-1.42-1.5-1.94-.31-3.12 1.1-1.12 3.36-1.2 3.95-.08.83 1.19-.3 4.39-1.42 4.39-.6 0-1.63-.52-2.22-1.19z" fill="#fff"/><path d="M437.24 181.77c-3.05-3.72-8.12-12.5-9.9-17.1-1.27-3.29-3.28-6.02-3.28-4.55 0 .6-2.17.75-7.37.44-5.66-.36-7.44-.24-7.88.6-1.35 2.08-1.7 7.8-.9 11.98.95 4.9.15 6.53-3.29 6.53-1.94 0-2.1-.3-2.97-4.23-1.86-9.07-.67-17.5 3.2-22.63 5.66-7.37 4.76-6.93 14.06-7.44 10.8-.6 16.75-2.46 24.71-7.8 11.69-7.96 20.7-18.09 33.58-37.87 4.03-6.1 7.88-12 8.55-13.02.67-1.04 3.72-5.95 6.7-10.93 4.83-8.27 6.77-10.57 6.77-8.4 0 .44-.31.75-.6.75-.3 0-.44 1.11-.3 2.46.15 1.55-.16 2.89-.91 3.64-.6.67-.9 1.78-.67 2.76.23.83.07 1.55-.37 1.55-.36 0-.95.9-1.26 2.02-.75 3.12-14.89 30.94-19.57 38.54-2.22 3.72-5.66 8.7-7.6 11.16-3.95 4.99-5.22 8.11-5.22 12.58 0 2.82.36 3.41 7.14 9.82 7.6 7.28 8.55 9.37 4.47 9.81-3.41.44-10.57-5.27-18.17-14.57-2.17-2.68-2.69-2.97-3.41-2.01-.44.6-1.87 1.7-3.2 2.45-1.35.67-5.6 3.2-9.47 5.58-7 4.32-7 4.32-6.02 8.04 1.11 4.16 4.83 12.42 7 15.4a16.61 16.61 0 011.94 4.38c.44 2.1.31 2.38-.75 2.02-.67-.31-1.5-.08-1.86.36-.36.67-1.34-.08-3.2-2.3l.05-.02z" fill="#F8E5C7"/><path d="M278.62 179.16c-.6-1.5 1.42-3.28 2.97-2.69.6.23 1.04 1.19 1.04 2.17 0 1.42-.37 1.78-1.79 1.78-.95 0-2.01-.6-2.22-1.26z" fill="#fff"/><path d="M273.4 156.68c-1.11-1.1-2.69-4.16-3.41-6.69-2.38-7.6-3.41-8.94-8.04-11-8.63-3.8-9-4.03-11.32-8.11-2.97-5.27-3.72-11-3.88-29.25-.23-20.46 1.11-26.79 9.23-42.85 3.36-6.7 11.4-20.23 12.51-21.21.31-.23 1.86-2.22 3.49-4.47 4.47-6.1 10.41-12.43 15.04-15.91 11.68-8.86 15.04-11.24 19.44-13.85 5.94-3.49 8.4-4.08 9.97-2.53 2.18 2.09 1.43 3.64-2.17 4.62-13.93 3.72-41.01 33.4-50 54.77-2.62 6.17-1.95 6.69 8.55 7 9.82.23 11.47.9 11 4.47-.15 1.5-.9 3.05-1.62 3.64-1.55 1.11-9.67 1.34-10.34.23-.52-.82-10.65-1.03-12.59-.3-.67.22-.95.74-.75 1.1.24.36.16.67-.23.67-.31 0-.6 1.12-.67 2.46-.08 1.26-.44 4.39-.96 6.84-.95 4.83-1.1 27.23-.23 31.98.36 2.23.96 3.05 2.1 3.2.9.16 6.17-2 11.75-4.74 9.38-4.63 10.26-4.91 12.07-4.03.96.59 1.63 1.5 1.5 2.01-.23.52 0 .96.52.96.6 0 .44.3-.23.75-.6.36-.75.74-.37.74.44 0 .16.37-.51.83-.75.36-1.35 1.27-1.35 1.78 0 .67-.75 1.11-1.86 1.11-1.1 0-1.86.44-1.86 1.04 0 1.19-4.08 3.05-6.49 2.81-1.03-.07-1.62.24-1.5.83.08.52-.43.83-1.18.67-1.86-.3-3.88 1.78-2.54 2.61 2.3 1.42 4.4 5.58 7.14 14.65 4.4 13.97 4.31 17.93-.24 13.17h.03z" fill="#F8E5C7"/></svg>