<svg width="492" height="492" viewBox="0 0 492 492" fill="none" xmlns="http://www.w3.org/2000/svg">
<g clip-path="url(#clip0)">
<path d="M464.344 207.418L465.112 207.586H135.888L239.384 103.862C244.452 98.7981 247.232 91.9381 247.232 84.7381C247.232 77.5381 244.452 70.7261 239.384 65.6501L223.28 49.5381C218.216 44.4741 211.468 41.6741 204.272 41.6741C197.072 41.6741 190.32 44.4541 185.256 49.5181L7.844 226.914C2.76 231.998 -0.0199996 238.77 3.53946e-07 245.974C-0.0199996 253.218 2.76 259.994 7.844 265.07L185.256 442.482C190.32 447.542 197.068 450.326 204.272 450.326C211.468 450.326 218.216 447.538 223.28 442.482L239.384 426.37C244.452 421.314 247.232 414.562 247.232 407.362C247.232 400.166 244.452 393.77 239.384 388.71L134.72 284.406H464.712C479.54 284.406 492 271.626 492 256.806V234.018C492 219.198 479.172 207.418 464.344 207.418Z" fill="white"/>
</g>
<defs>
<clipPath id="clip0">
<rect width="492" height="492" fill="white"/>
</clipPath>
</defs>
</svg>
