<svg width="78" height="78" viewBox="0 0 78 78" fill="none" xmlns="http://www.w3.org/2000/svg">
<path d="M62.8388 7.93201C64.5193 10.7861 65.4 14.04 65.3887 17.3517C65.3887 24.8636 60.4328 31.287 54.8127 36.1614V40.8508C54.8127 43.8447 57.2395 46.2715 60.2328 46.2715H61.423V48.5185C61.423 50.9316 64.2985 52.8811 66.711 52.8811H69.355V58.1697C69.355 60.3597 71.1308 62.1354 73.3213 62.1354C75.5119 62.1354 77.287 60.3597 77.287 58.1697V23.7966C77.287 14.5738 72.0335 7.98259 62.8388 7.93201Z" fill="#F2C94C"/>
<path d="M15.0576 7.93201C13.3771 10.7861 12.4964 14.04 12.5077 17.3517C12.5077 24.8636 17.4642 31.287 23.0842 36.1614V40.8508C23.0842 43.8447 20.6575 46.2715 17.6635 46.2715H16.474V48.5185C16.474 50.9316 13.5973 52.8811 11.1854 52.8811H8.54137V58.1697C8.54137 60.3597 6.76561 62.1354 4.57567 62.1354C2.38513 62.1354 0.609375 60.3597 0.609375 58.1697V23.7966C0.609375 14.5738 5.86285 7.98259 15.0576 7.93201Z" fill="#F2C94C"/>
<path d="M38.9481 46.2714C38.9481 46.2714 65.3887 34.7034 65.3887 17.3517C65.3887 7.76834 58.2857 0 49.5247 0C44.8259 0 41.8569 2.23398 38.9481 5.78371C36.0399 2.23398 33.0704 0 28.3721 0C19.6106 0 12.5076 7.76834 12.5076 17.3517C12.5076 34.7034 38.9481 46.2714 38.9481 46.2714Z" fill="#EB5757"/>
<path d="M20.5391 10.576C20.0315 10.576 19.5691 10.2862 19.3483 9.82916C19.1281 9.37213 19.1882 8.82941 19.5042 8.43188C21.6203 5.66411 24.888 4.01868 28.3723 3.96631C29.1024 3.96631 29.694 4.55783 29.694 5.28801C29.694 6.01819 29.1024 6.61031 28.3723 6.61031C25.6955 6.66565 23.1908 7.94212 21.5739 10.0767C21.3234 10.3921 20.9425 10.576 20.5391 10.576Z" fill="#FE9189"/>
<path d="M18.405 22.4748C17.8289 22.4736 17.3195 22.0987 17.1463 21.5488C16.7083 20.1926 16.481 18.7769 16.4739 17.3516C16.4733 16.3162 16.5798 15.2831 16.7923 14.2703C16.8857 13.8037 17.2219 13.4234 17.6736 13.2741C18.1247 13.1247 18.6216 13.2294 18.9745 13.5478C19.3273 13.8668 19.4821 14.3506 19.3797 14.8148C19.2036 15.6491 19.1149 16.4989 19.1149 17.3516C19.1226 18.5067 19.3077 19.6541 19.6636 20.7532C19.7903 21.1549 19.7177 21.5929 19.4684 21.9321C19.2196 22.2713 18.8233 22.4718 18.4026 22.4718L18.405 22.4748Z" fill="#FE9189"/>
<path d="M44.2361 9.10192C43.7029 9.1043 43.2209 8.78592 43.0132 8.29438C42.8061 7.80342 42.9138 7.23571 43.2869 6.85485C44.8151 4.98923 47.1134 3.92461 49.5247 3.96627C50.2549 3.96627 50.8464 4.55779 50.8464 5.28797C50.8464 6.01815 50.2549 6.61026 49.5247 6.61026C47.8287 6.57991 46.2189 7.35532 45.1859 8.70023C44.9365 8.95731 44.5943 9.10192 44.2361 9.10192Z" fill="#FE9189"/>
<path d="M69.3551 54.2035C68.625 54.2035 68.0334 53.6114 68.0334 52.8812V25.1189C68.0334 24.3887 68.625 23.7966 69.3551 23.7966C70.0853 23.7966 70.6774 24.3887 70.6774 25.1189V52.8812C70.6774 53.6114 70.0853 54.2035 69.3551 54.2035Z" fill="#F2994A"/>
<path d="M61.4231 47.5931C60.6929 47.5931 60.1008 47.0016 60.1008 46.2714V37.0171C60.1008 36.2869 60.6929 35.6948 61.4231 35.6948C62.1533 35.6948 62.7448 36.2869 62.7448 37.0171V46.2714C62.7448 47.0016 62.1533 47.5931 61.4231 47.5931Z" fill="#F2994A"/>
<path d="M41.5921 56.8474C41.2416 56.8474 40.9053 56.7082 40.6578 56.46L38.9481 54.7509L37.239 56.46C36.72 56.9611 35.8952 56.954 35.3858 56.444C34.8758 55.934 34.8687 55.1098 35.3692 54.5909L38.0138 51.9469C38.5297 51.4303 39.3664 51.4303 39.883 51.9469L42.527 54.5909C42.9048 54.9687 43.0179 55.5376 42.8132 56.0316C42.6091 56.5255 42.1271 56.8474 41.5921 56.8474Z" fill="#F2C94C"/>
<path d="M38.9482 64.7794C38.218 64.7794 37.6265 64.1879 37.6265 63.4577V52.8811C37.6265 52.151 38.218 51.5594 38.9482 51.5594C39.6783 51.5594 40.2705 52.151 40.2705 52.8811V63.4577C40.2705 64.1879 39.6783 64.7794 38.9482 64.7794Z" fill="#F2C94C"/>
<path d="M21.7618 66.1017C21.4113 66.1017 21.075 65.9625 20.8269 65.7143L19.1178 64.0052L17.4081 65.7143C16.8898 66.2154 16.065 66.2082 15.555 65.6982C15.045 65.1882 15.0378 64.3634 15.5389 63.8451L18.1829 61.2011C18.6994 60.6846 19.5361 60.6846 20.0521 61.2011L22.6967 63.8451C23.0745 64.223 23.1876 64.7913 22.9829 65.2852C22.7782 65.7798 22.2962 66.1017 21.7618 66.1017Z" fill="#F2C94C"/>
<path d="M19.118 78C18.3878 78 17.7957 77.4079 17.7957 76.6777V62.1354C17.7957 61.4052 18.3878 60.8137 19.118 60.8137C19.8481 60.8137 20.4397 61.4052 20.4397 62.1354V76.6777C20.4397 77.4079 19.8481 78 19.118 78Z" fill="#F2C94C"/>
<path d="M61.4229 66.1017C61.0724 66.1017 60.7362 65.9625 60.488 65.7143L58.7789 64.0052L57.0692 65.7143C56.5503 66.2154 55.7261 66.2082 55.2161 65.6982C54.7061 65.1882 54.699 64.3634 55.2 63.8451L57.844 61.2011C58.36 60.6846 59.1973 60.6846 59.7132 61.2011L62.3572 63.8451C62.7357 64.223 62.8487 64.7913 62.644 65.2852C62.4393 65.7798 61.9573 66.1017 61.4229 66.1017Z" fill="#F2C94C"/>
<path d="M58.7791 78C58.0489 78 57.4568 77.4079 57.4568 76.6777V62.1354C57.4568 61.4052 58.0489 60.8137 58.7791 60.8137C59.5093 60.8137 60.1008 61.4052 60.1008 62.1354V76.6777C60.1008 77.4079 59.5093 78 58.7791 78Z" fill="#F2C94C"/>
<path d="M8.54143 54.2035C7.81125 54.2035 7.21973 53.6114 7.21973 52.8812V25.1189C7.21973 24.3887 7.81125 23.7966 8.54143 23.7966C9.27161 23.7966 9.86372 24.3887 9.86372 25.1189V52.8812C9.86372 53.6114 9.27161 54.2035 8.54143 54.2035Z" fill="#F2994A"/>
<path d="M16.4739 47.5931C15.7437 47.5931 15.1516 47.0016 15.1516 46.2714V37.0171C15.1516 36.2869 15.7437 35.6948 16.4739 35.6948C17.2041 35.6948 17.7956 36.2869 17.7956 37.0171V46.2714C17.7956 47.0016 17.2041 47.5931 16.4739 47.5931Z" fill="#F2994A"/>
<path d="M38.9482 72.7121C38.218 72.7121 37.6265 72.1199 37.6265 71.3898V68.7458C37.6265 68.0156 38.218 67.4241 38.9482 67.4241C39.6783 67.4241 40.2705 68.0156 40.2705 68.7458V71.3898C40.2705 72.1199 39.6783 72.7121 38.9482 72.7121Z" fill="#F2C94C"/>
</svg>
