<svg width="23" height="25" viewBox="0 0 23 25" fill="none"
    xmlns="http://www.w3.org/2000/svg">
    <g filter="url(#filter0_d)">
        <path d="M2.45043 7.50693L2.45042 7.50693C1.14866 7.62766 0.62232 9.2469 1.60468 10.1098L5.77154 13.7704L4.55211 19.1811C4.26463 20.4566 5.64214 21.4573 6.76629 20.7897L11.5353 17.958L16.3043 20.7897C17.4283 21.4572 18.806 20.4567 18.5185 19.1811L17.299 13.7704L21.4659 10.1098C21.4659 10.1098 21.4659 10.1098 21.4659 10.1098C22.4482 9.24688 21.9219 7.62766 20.6201 7.50693L15.0975 6.99472L12.9037 1.90068C12.3866 0.699788 10.6839 0.699774 10.1668 1.90063C10.1668 1.90065 10.1668 1.90066 10.1668 1.90068L7.9731 6.99475L2.45043 7.50693Z" fill="#FECC00" stroke="#C36906" stroke-width="2"/>
        <path d="M11.9852 2.29616C11.8152 1.90128 11.2553 1.90128 11.0853 2.29616L8.65669 7.93564L2.54277 8.50265C2.11468 8.54236 1.94166 9.07482 2.26465 9.35855L6.87762 13.411L5.52764 19.4009C5.43311 19.8203 5.88606 20.1494 6.25572 19.9299L7.43409 19.2302C7.59718 12.5168 10.7165 7.7891 13.1861 5.0846L11.9852 2.29616Z" fill="#F6B501"/>
    </g>
    <defs>
        <filter id="filter0_d" x="0.0947266" y="0" width="22.8812" height="24.0058" filterUnits="userSpaceOnUse" color-interpolation-filters="sRGB">
            <feFlood flood-opacity="0" result="BackgroundImageFix"/>
            <feColorMatrix in="SourceAlpha" type="matrix" values="0 0 0 0 0 0 0 0 0 0 0 0 0 0 0 0 0 0 127 0"/>
            <feOffset dy="2"/>
            <feColorMatrix type="matrix" values="0 0 0 0 0 0 0 0 0 0 0 0 0 0 0 0 0 0 0.25 0"/>
            <feBlend mode="normal" in2="BackgroundImageFix" result="effect1_dropShadow"/>
            <feBlend mode="normal" in="SourceGraphic" in2="effect1_dropShadow" result="shape"/>
        </filter>
    </defs>
</svg>
