<svg width="29" height="29" viewBox="0 0 29 29" fill="none" xmlns="http://www.w3.org/2000/svg">
<ellipse cx="16.3068" cy="15.5487" rx="11.0402" ry="10.4109" fill="#D36601"/>
<ellipse cx="16.1566" cy="16.4033" rx="10.89" ry="10.1778" fill="#F8A500"/>
<g filter="url(#filter0_d)">
<path d="M10.3847 19.6633C10.3847 19.469 10.3847 18.8306 10.3847 17.748C10.394 16.6562 10.394 15.9113 10.3847 15.5135C10.3847 15.1156 10.3754 14.5327 10.3568 13.7647C10.3475 12.9875 10.3289 12.2935 10.301 11.6828C10.2917 11.4145 10.3754 11.1832 10.5521 10.9889C10.7381 10.7945 10.9659 10.6881 11.2356 10.6696H11.3053C12.5887 10.6511 14.3184 10.6511 16.4945 10.6696C16.7549 10.6696 16.9827 10.7668 17.178 10.9611C17.364 11.1554 17.457 11.3867 17.457 11.6551C17.457 11.9141 17.3593 12.1408 17.164 12.3351C16.9688 12.5202 16.7363 12.6127 16.4666 12.6127C14.7369 12.5942 13.3419 12.5896 12.2818 12.5988C12.3004 13.191 12.3143 13.811 12.3236 14.4586C13.6349 14.4586 14.8438 14.4448 15.9505 14.417C16.2201 14.417 16.4526 14.5095 16.6479 14.6946C16.8432 14.8796 16.9409 15.1063 16.9409 15.3747C16.9502 15.6337 16.8618 15.8604 16.6758 16.0548C16.4898 16.2491 16.2666 16.3508 16.0063 16.3601C14.8903 16.3786 13.6674 16.3925 12.3376 16.4017V19.6633C12.3376 19.9317 12.2399 20.163 12.0447 20.3573C11.8587 20.5423 11.6308 20.6349 11.3611 20.6349C11.0915 20.6349 10.859 20.5423 10.6637 20.3573C10.4777 20.163 10.3847 19.9317 10.3847 19.6633Z" fill="url(#paint0_linear)"/>
<path d="M21.0631 20.6626C20.8771 20.6626 20.6958 20.6025 20.5191 20.4822C20.4168 20.4452 20.3191 20.3989 20.2261 20.3434L19.8634 20.1352C19.4915 19.9224 19.2125 19.7235 19.0265 19.5384C18.8684 19.3349 18.7708 19.1359 18.7336 18.9416C18.6964 18.7381 18.6731 18.442 18.6638 18.0534V17.7758C18.6545 17.5074 18.6499 16.8829 18.6499 15.9021C18.6499 15.5042 18.6545 15.2035 18.6638 14.9999H18.3988C18.1663 14.9999 17.9617 14.9213 17.785 14.764C17.6176 14.5974 17.5339 14.3893 17.5339 14.1394C17.5339 13.8803 17.6223 13.6675 17.799 13.501C17.9756 13.3252 18.1802 13.2373 18.4127 13.2373H18.6638L18.6778 12.6405V12.2102C18.6871 11.9141 18.7847 11.6874 18.9707 11.5301C19.166 11.3636 19.3892 11.2803 19.6403 11.2803C19.9006 11.2803 20.1285 11.3682 20.3238 11.544C20.5284 11.7198 20.6307 11.9604 20.6307 12.2657L20.6028 13.2095H21.1189C21.4537 13.2095 21.7048 13.2974 21.8721 13.4732C22.0395 13.649 22.1232 13.8711 22.1232 14.1394C22.1232 14.3985 22.0349 14.6206 21.8582 14.8056C21.6815 14.9814 21.4211 15.0693 21.077 15.0693H20.5609C20.5609 15.4487 20.5563 15.7309 20.547 15.916C20.5377 16.1103 20.533 16.3879 20.533 16.7487C20.533 17.3409 20.5516 17.8544 20.5888 18.2893C20.626 18.3263 20.6493 18.3448 20.6586 18.3448L20.7981 18.442L20.9096 18.4975L21.0352 18.5669L21.1468 18.6224C21.3142 18.6964 21.4583 18.7797 21.5792 18.8722C21.8675 19.0665 22.0116 19.3256 22.0116 19.6495C22.0116 19.9085 21.9186 20.1445 21.7327 20.3573C21.5467 20.5609 21.3235 20.6626 21.0631 20.6626Z" fill="url(#paint1_linear)"/>
</g>
<path d="M27.7982 21.298C28.7369 19.3689 29.1138 17.268 28.9708 15.1372C28.8277 13.0063 28.1286 10.9465 26.9399 9.15338C25.7512 7.36023 24.1124 5.89325 22.1791 4.89175C20.2457 3.89026 18.082 3.38749 15.8934 3.43119C13.7049 3.47489 11.5641 4.06361 9.67435 5.14145C7.78463 6.21928 6.20871 7.75045 5.09625 9.58955C3.98378 11.4287 3.3717 13.5146 3.31813 15.6494C3.26456 17.7842 3.79764 19.7188 4.81652 21.6088L6.09327 19.8995C5.64264 18.4233 5.34223 17.5687 5.3296 15.6974C5.37478 13.8971 5.89096 12.138 6.82912 10.587C7.76729 9.03609 9.09629 7.74483 10.6899 6.83587C12.2836 5.92691 14.0889 5.43042 15.9346 5.39357C17.7803 5.35672 19.605 5.78071 21.2354 6.62529C22.8658 7.46988 24.2479 8.70701 25.2503 10.2192C26.2528 11.7314 26.8423 13.4685 26.963 15.2655C27.1323 17.0948 27.0471 17.4133 26.5214 19.4334L27.7982 21.298Z" fill="#F6B501"/>
<path d="M4.81641 21.6101C4.81641 21.6483 6.94697 24.9919 9.13865 26.3958C11.3303 27.7997 13.9069 28.5132 16.5233 28.4407C19.1397 28.3683 21.6711 27.5133 23.7786 25.9904C25.886 24.4674 27.6517 21.8708 27.798 21.298L26.5213 19.4334C26.1919 20.3881 24.3623 23.1163 22.585 24.4006C20.8077 25.6849 18.673 26.4059 16.4665 26.467C14.26 26.5281 12.0872 25.9264 10.2389 24.7425C8.3906 23.5586 6.9237 21.906 6.09316 19.8995C6.09316 19.8995 4.81641 21.5719 4.81641 21.6101Z" fill="#EE900D"/>
<ellipse cx="14.6501" cy="13.8344" rx="11.0402" ry="10.4109" fill="#D36601"/>
<ellipse cx="14.4999" cy="14.689" rx="10.89" ry="10.1778" fill="#F8A500"/>
<g filter="url(#filter1_d)">
<path d="M8.72795 17.949C8.72795 17.7547 8.72795 17.1163 8.72795 16.0337C8.73725 14.9419 8.73725 14.197 8.72795 13.7992C8.72795 13.4013 8.71865 12.8184 8.70005 12.0504C8.69075 11.2732 8.67215 10.5792 8.64425 9.96853C8.63495 9.7002 8.71865 9.46888 8.89534 9.27457C9.08133 9.08026 9.30917 8.97385 9.57885 8.95535H9.6486C10.9319 8.93684 12.6616 8.93684 14.8377 8.95535C15.0981 8.95535 15.326 9.0525 15.5213 9.24681C15.7072 9.44112 15.8002 9.67244 15.8002 9.94077C15.8002 10.1998 15.7026 10.4265 15.5073 10.6208C15.312 10.8059 15.0795 10.8984 14.8098 10.8984C13.0801 10.8799 11.6852 10.8753 10.6251 10.8846C10.6437 11.4767 10.6576 12.0967 10.6669 12.7444C11.9781 12.7444 13.1871 12.7305 14.2937 12.7027C14.5634 12.7027 14.7959 12.7953 14.9912 12.9803C15.1865 13.1654 15.2841 13.3921 15.2841 13.6604C15.2934 13.9195 15.2051 14.1462 15.0191 14.3405C14.8331 14.5348 14.6099 14.6366 14.3495 14.6458C13.2336 14.6643 12.0107 14.6782 10.6808 14.6874V17.949C10.6808 18.2174 10.5832 18.4487 10.3879 18.643C10.2019 18.8281 9.97408 18.9206 9.7044 18.9206C9.43471 18.9206 9.20222 18.8281 9.00693 18.643C8.82094 18.4487 8.72795 18.2174 8.72795 17.949Z" fill="url(#paint2_linear)"/>
<path d="M19.4063 18.9483C19.2204 18.9483 19.039 18.8882 18.8623 18.7679C18.76 18.7309 18.6624 18.6846 18.5694 18.6291L18.2067 18.4209C17.8347 18.2081 17.5557 18.0092 17.3698 17.8241C17.2117 17.6206 17.114 17.4216 17.0768 17.2273C17.0396 17.0238 17.0164 16.7277 17.0071 16.3391V16.0615C16.9978 15.7931 16.9931 15.1686 16.9931 14.1878C16.9931 13.7899 16.9978 13.4892 17.0071 13.2856H16.742C16.5095 13.2856 16.305 13.207 16.1283 13.0497C15.9609 12.8832 15.8772 12.675 15.8772 12.4251C15.8772 12.1661 15.9655 11.9532 16.1422 11.7867C16.3189 11.6109 16.5235 11.523 16.756 11.523H17.0071L17.021 10.9262V10.4959C17.0303 10.1998 17.128 9.97315 17.314 9.81586C17.5092 9.64931 17.7324 9.56603 17.9835 9.56603C18.2439 9.56603 18.4717 9.65393 18.667 9.82974C18.8716 10.0055 18.9739 10.2461 18.9739 10.5515L18.946 11.4952H19.4621C19.7969 11.4952 20.048 11.5831 20.2154 11.7589C20.3828 11.9347 20.4665 12.1568 20.4665 12.4251C20.4665 12.6842 20.3781 12.9063 20.2015 13.0913C20.0248 13.2671 19.7644 13.355 19.4203 13.355H18.9042C18.9042 13.7344 18.8995 14.0166 18.8902 14.2017C18.8809 14.396 18.8763 14.6736 18.8763 15.0344C18.8763 15.6266 18.8949 16.1401 18.9321 16.575C18.9693 16.612 18.9925 16.6305 19.0018 16.6305L19.1413 16.7277L19.2529 16.7832L19.3785 16.8526L19.49 16.9081C19.6574 16.9821 19.8016 17.0654 19.9225 17.1579C20.2108 17.3522 20.3549 17.6113 20.3549 17.9352C20.3549 18.1942 20.2619 18.4302 20.0759 18.643C19.8899 18.8466 19.6667 18.9483 19.4063 18.9483Z" fill="url(#paint3_linear)"/>
</g>
<path d="M26.1409 19.5837C27.0797 17.6546 27.4566 15.5537 27.3135 13.4229C27.1704 11.292 26.4714 9.23225 25.2827 7.4391C24.094 5.64594 22.4552 4.17897 20.5218 3.17747C18.5885 2.17597 16.4248 1.67321 14.2362 1.71691C12.0476 1.76061 9.90685 2.34933 8.01712 3.42717C6.1274 4.505 4.55148 6.03617 3.43902 7.87527C2.32656 9.71437 1.71448 11.8003 1.66091 13.9351C1.60733 16.0699 2.14041 18.0045 3.15929 19.8945L4.43604 18.1852C3.98542 16.7091 3.685 15.8544 3.67238 13.9832C3.71755 12.1829 4.23373 10.4237 5.1719 8.87276C6.11006 7.32181 7.43906 6.03054 9.03271 5.12158C10.6263 4.21262 12.4317 3.71614 14.2774 3.67929C16.1231 3.64243 17.9477 4.06643 19.5782 4.91101C21.2086 5.75559 22.5907 6.99272 23.5931 8.50492C24.5956 10.0171 25.1851 11.7542 25.3058 13.5512C25.4751 15.3806 25.3899 15.699 24.8642 17.7191L26.1409 19.5837Z" fill="#F6B501"/>
<path d="M3.15918 19.8958C3.15918 19.934 5.28975 23.2776 7.48143 24.6815C9.6731 26.0854 12.2496 26.7989 14.866 26.7265C17.4825 26.654 20.0139 25.7991 22.1213 24.2761C24.2288 22.7531 25.9944 20.1565 26.1408 19.5837L24.8641 17.7191C24.5347 18.6738 22.7051 21.402 20.9278 22.6863C19.1505 23.9707 17.0157 24.6917 14.8093 24.7528C12.6028 24.8139 10.4299 24.2122 8.58166 23.0282C6.73338 21.8443 5.26647 20.1917 4.43594 18.1852C4.43594 18.1852 3.15918 19.8576 3.15918 19.8958Z" fill="#EE900D"/>
<ellipse cx="12.9928" cy="12.1201" rx="11.0402" ry="10.4109" fill="#D36601"/>
<ellipse cx="12.8426" cy="12.9747" rx="10.89" ry="10.1778" fill="#F8A500"/>
<g filter="url(#filter2_d)">
<path d="M7.07072 16.2348C7.07072 16.0405 7.07072 15.402 7.07072 14.3194C7.08002 13.2276 7.08002 12.4828 7.07072 12.0849C7.07072 11.687 7.06142 11.1041 7.04282 10.3361C7.03352 9.55888 7.01492 8.86493 6.98703 8.25424C6.97773 7.98591 7.06142 7.75459 7.23811 7.56028C7.4241 7.36598 7.65194 7.25957 7.92163 7.24106H7.99137C9.27471 7.22256 11.0044 7.22256 13.1805 7.24106C13.4409 7.24106 13.6687 7.33822 13.864 7.53253C14.05 7.72683 14.143 7.95815 14.143 8.22648C14.143 8.48556 14.0454 8.71226 13.8501 8.90656C13.6548 9.09162 13.4223 9.18415 13.1526 9.18415C11.4229 9.16564 10.028 9.16101 8.96783 9.17027C8.98642 9.76244 9.00037 10.3824 9.00967 11.0301C10.3209 11.0301 11.5298 11.0162 12.6365 10.9884C12.9062 10.9884 13.1387 11.081 13.334 11.266C13.5292 11.4511 13.6269 11.6778 13.6269 11.9461C13.6362 12.2052 13.5478 12.4319 13.3619 12.6262C13.1759 12.8205 12.9527 12.9223 12.6923 12.9315C11.5763 12.95 10.3535 12.9639 9.02362 12.9732V16.2348C9.02362 16.5031 8.92598 16.7344 8.73069 16.9287C8.5447 17.1138 8.31686 17.2063 8.04717 17.2063C7.77749 17.2063 7.545 17.1138 7.34971 16.9287C7.16372 16.7344 7.07072 16.5031 7.07072 16.2348Z" fill="url(#paint4_linear)"/>
<path d="M17.7491 17.2341C17.5631 17.2341 17.3818 17.1739 17.2051 17.0536C17.1028 17.0166 17.0052 16.9704 16.9122 16.9148L16.5495 16.7067C16.1775 16.4938 15.8985 16.2949 15.7125 16.1098C15.5544 15.9063 15.4568 15.7074 15.4196 15.513C15.3824 15.3095 15.3591 15.0134 15.3498 14.6248V14.3472C15.3405 14.0789 15.3359 13.4543 15.3359 12.4735C15.3359 12.0756 15.3405 11.7749 15.3498 11.5714H15.0848C14.8523 11.5714 14.6477 11.4927 14.471 11.3354C14.3036 11.1689 14.22 10.9607 14.22 10.7109C14.22 10.4518 14.3083 10.239 14.485 10.0724C14.6617 9.89661 14.8663 9.80871 15.0988 9.80871H15.3498L15.3638 9.2119V8.78165C15.3731 8.48556 15.4707 8.25887 15.6567 8.10157C15.852 7.93502 16.0752 7.85175 16.3263 7.85175C16.5867 7.85175 16.8145 7.93965 17.0098 8.11545C17.2144 8.29125 17.3167 8.53183 17.3167 8.83717L17.2888 9.78095H17.8049C18.1397 9.78095 18.3908 9.86885 18.5582 10.0447C18.7256 10.2205 18.8093 10.4425 18.8093 10.7109C18.8093 10.9699 18.7209 11.192 18.5442 11.3771C18.3675 11.5529 18.1072 11.6408 17.7631 11.6408H17.2469C17.2469 12.0201 17.2423 12.3023 17.233 12.4874C17.2237 12.6817 17.219 12.9593 17.219 13.3201C17.219 13.9123 17.2376 14.4258 17.2748 14.8607C17.312 14.8977 17.3353 14.9162 17.3446 14.9162L17.4841 15.0134L17.5957 15.0689L17.7212 15.1383L17.8328 15.1938C18.0002 15.2678 18.1444 15.3511 18.2652 15.4437C18.5535 15.638 18.6977 15.897 18.6977 16.2209C18.6977 16.48 18.6047 16.7159 18.4187 16.9287C18.2327 17.1323 18.0095 17.2341 17.7491 17.2341Z" fill="url(#paint5_linear)"/>
</g>
<path d="M24.4837 17.8694C25.4225 15.9403 25.7994 13.8395 25.6563 11.7086C25.5132 9.57776 24.8141 7.51796 23.6255 5.72481C22.4368 3.93166 20.798 2.46468 18.8646 1.46319C16.9312 0.461692 14.7676 -0.0410772 12.579 0.00262417C10.3904 0.0463256 8.24962 0.635047 6.3599 1.71288C4.47018 2.79072 2.89426 4.32189 1.78179 6.16099C0.669329 8.00009 0.0572497 10.0861 0.00367863 12.2208C-0.0498924 14.3556 0.483183 16.2902 1.50207 18.1802L2.77881 16.4709C2.32819 14.9948 2.02778 14.1402 2.01515 12.2689C2.06033 10.4686 2.57651 8.70943 3.51467 7.15848C4.45284 5.60753 5.78184 4.31626 7.37548 3.4073C8.96912 2.49834 10.7745 2.00186 12.6202 1.965C14.4658 1.92815 16.2905 2.35215 17.921 3.19673C19.5514 4.04131 20.9334 5.27844 21.9359 6.79064C22.9383 8.30284 23.5279 10.0399 23.6485 11.8369C23.8178 13.6663 23.7327 13.9848 23.2069 16.0048L24.4837 17.8694Z" fill="#F6B501"/>
<path d="M1.50195 18.1815C1.50195 18.2197 3.63252 21.5633 5.8242 22.9672C8.01588 24.3711 10.5924 25.0846 13.2088 25.0122C15.8252 24.9397 18.3566 24.0848 20.4641 22.5618C22.5716 21.0388 24.3372 18.4422 24.4836 17.8694L23.2068 16.0048C22.8775 16.9595 21.0478 19.6877 19.2706 20.972C17.4933 22.2564 15.3585 22.9774 13.152 23.0385C10.9456 23.0996 8.77272 22.4979 6.92444 21.3139C5.07615 20.13 3.60925 18.4774 2.77871 16.4709C2.77871 16.4709 1.50195 18.1433 1.50195 18.1815Z" fill="#EE900D"/>
<defs>
<filter id="filter0_d" x="10.3003" y="10.6558" width="11.8229" height="12.0069" filterUnits="userSpaceOnUse" color-interpolation-filters="sRGB">
<feFlood flood-opacity="0" result="BackgroundImageFix"/>
<feColorMatrix in="SourceAlpha" type="matrix" values="0 0 0 0 0 0 0 0 0 0 0 0 0 0 0 0 0 0 127 0"/>
<feOffset dy="2"/>
<feColorMatrix type="matrix" values="0 0 0 0 0.764706 0 0 0 0 0.411765 0 0 0 0 0.0235294 0 0 0 1 0"/>
<feBlend mode="normal" in2="BackgroundImageFix" result="effect1_dropShadow"/>
<feBlend mode="normal" in="SourceGraphic" in2="effect1_dropShadow" result="shape"/>
</filter>
<filter id="filter1_d" x="8.64355" y="8.94147" width="11.8229" height="12.0069" filterUnits="userSpaceOnUse" color-interpolation-filters="sRGB">
<feFlood flood-opacity="0" result="BackgroundImageFix"/>
<feColorMatrix in="SourceAlpha" type="matrix" values="0 0 0 0 0 0 0 0 0 0 0 0 0 0 0 0 0 0 127 0"/>
<feOffset dy="2"/>
<feColorMatrix type="matrix" values="0 0 0 0 0.764706 0 0 0 0 0.411765 0 0 0 0 0.0235294 0 0 0 1 0"/>
<feBlend mode="normal" in2="BackgroundImageFix" result="effect1_dropShadow"/>
<feBlend mode="normal" in="SourceGraphic" in2="effect1_dropShadow" result="shape"/>
</filter>
<filter id="filter2_d" x="6.98633" y="7.22718" width="11.8229" height="12.0069" filterUnits="userSpaceOnUse" color-interpolation-filters="sRGB">
<feFlood flood-opacity="0" result="BackgroundImageFix"/>
<feColorMatrix in="SourceAlpha" type="matrix" values="0 0 0 0 0 0 0 0 0 0 0 0 0 0 0 0 0 0 127 0"/>
<feOffset dy="2"/>
<feColorMatrix type="matrix" values="0 0 0 0 0.764706 0 0 0 0 0.411765 0 0 0 0 0.0235294 0 0 0 1 0"/>
<feBlend mode="normal" in2="BackgroundImageFix" result="effect1_dropShadow"/>
<feBlend mode="normal" in="SourceGraphic" in2="effect1_dropShadow" result="shape"/>
</filter>
<linearGradient id="paint0_linear" x1="10.1658" y1="22.0228" x2="32.8962" y2="18.7707" gradientUnits="userSpaceOnUse">
<stop stop-color="#FECE00"/>
<stop offset="1" stop-color="#FFB901"/>
</linearGradient>
<linearGradient id="paint1_linear" x1="10.1658" y1="22.0228" x2="32.8962" y2="18.7707" gradientUnits="userSpaceOnUse">
<stop stop-color="#FECE00"/>
<stop offset="1" stop-color="#FFB901"/>
</linearGradient>
<linearGradient id="paint2_linear" x1="8.5091" y1="20.3085" x2="31.2395" y2="17.0564" gradientUnits="userSpaceOnUse">
<stop stop-color="#FECE00"/>
<stop offset="1" stop-color="#FFB901"/>
</linearGradient>
<linearGradient id="paint3_linear" x1="8.5091" y1="20.3085" x2="31.2395" y2="17.0564" gradientUnits="userSpaceOnUse">
<stop stop-color="#FECE00"/>
<stop offset="1" stop-color="#FFB901"/>
</linearGradient>
<linearGradient id="paint4_linear" x1="6.85187" y1="18.5942" x2="29.5823" y2="15.3421" gradientUnits="userSpaceOnUse">
<stop stop-color="#FECE00"/>
<stop offset="1" stop-color="#FFB901"/>
</linearGradient>
<linearGradient id="paint5_linear" x1="6.85187" y1="18.5942" x2="29.5823" y2="15.3421" gradientUnits="userSpaceOnUse">
<stop stop-color="#FECE00"/>
<stop offset="1" stop-color="#FFB901"/>
</linearGradient>
</defs>
</svg>
