<svg width="24" height="25" viewBox="0 0 24 25" fill="none" xmlns="http://www.w3.org/2000/svg">
<g filter="url(#filter0_d)">
<ellipse cx="11.92" cy="10.7488" rx="10.1287" ry="9.23298" fill="#D36601"/>
<ellipse cx="11.7822" cy="11.5067" rx="9.99091" ry="9.02627" fill="#F8A500"/>
<path d="M22.4623 15.8477C23.3236 14.1368 23.6694 12.2736 23.5381 10.3839C23.4068 8.49412 22.7655 6.66737 21.6749 5.0771C20.5844 3.48683 19.0809 2.18583 17.3071 1.29764C15.5334 0.409455 13.5483 -0.0364297 11.5405 0.00232727C9.53258 0.0410842 7.56853 0.563197 5.83482 1.51908C4.10112 2.47497 2.65531 3.8329 1.63469 5.46392C0.614069 7.09495 0.0525231 8.94491 0.00337492 10.8382C-0.0457733 12.7314 0.443292 14.4471 1.37806 16.1233L2.54939 14.6074C2.13598 13.2982 1.86036 12.5403 1.84878 10.8808C1.89023 9.28415 2.36379 7.72403 3.2245 6.34856C4.08521 4.97308 5.30449 3.82791 6.76656 3.02179C8.22863 2.21567 9.88495 1.77537 11.5782 1.74268C13.2715 1.71 14.9456 2.08602 16.4414 2.83505C17.9372 3.58407 19.2052 4.68123 20.1249 6.02234C21.0445 7.36345 21.5854 8.90398 21.6961 10.4977C21.8514 12.1201 21.7733 12.4025 21.291 14.194L22.4623 15.8477Z" fill="#F6B501"/>
<path d="M1.37769 16.1243C1.37769 16.1582 3.33235 19.1235 5.34309 20.3686C7.35382 21.6136 9.71763 22.2464 12.118 22.1821C14.5184 22.1179 16.8408 21.3597 18.7743 20.009C20.7078 18.6583 22.3277 16.3555 22.462 15.8475L21.2906 14.1938C20.9884 15.0405 19.3099 17.4601 17.6793 18.5991C16.0488 19.7381 14.0902 20.3775 12.0659 20.4317C10.0416 20.4859 8.04818 19.9523 6.35249 18.9023C4.65679 17.8523 3.311 16.3867 2.54903 14.6073C2.54903 14.6073 1.37769 16.0904 1.37769 16.1243Z" fill="#EE900D"/>
<path d="M6.94003 16.3663C6.94003 16.1865 6.94003 15.5955 6.94003 14.5933C6.9486 13.5826 6.9486 12.8931 6.94003 12.5248C6.94003 12.1565 6.93147 11.6169 6.91434 10.906C6.90577 10.1865 6.88864 9.54412 6.86295 8.97882C6.85438 8.73043 6.93147 8.51629 7.09421 8.33642C7.26551 8.15655 7.47536 8.05805 7.72375 8.04092H7.78799C8.96999 8.02379 10.5631 8.02379 12.5674 8.04092C12.8072 8.04092 13.0171 8.13086 13.1969 8.31073C13.3682 8.4906 13.4539 8.70473 13.4539 8.95312C13.4539 9.19295 13.364 9.4028 13.1841 9.58267C13.0042 9.75397 12.7901 9.83962 12.5417 9.83962C10.9486 9.82249 9.66378 9.81821 8.68734 9.82677C8.70447 10.3749 8.71732 10.9488 8.72588 11.5484C9.93358 11.5484 11.0471 11.5355 12.0663 11.5098C12.3147 11.5098 12.5288 11.5955 12.7087 11.7668C12.8886 11.9381 12.9785 12.148 12.9785 12.3963C12.9871 12.6362 12.9057 12.846 12.7344 13.0259C12.5631 13.2058 12.3575 13.3 12.1177 13.3085C11.0899 13.3257 9.96356 13.3385 8.73873 13.3471V16.3663C8.73873 16.6147 8.6488 16.8289 8.46893 17.0087C8.29762 17.18 8.08778 17.2657 7.83938 17.2657C7.59099 17.2657 7.37686 17.18 7.19699 17.0087C7.02569 16.8289 6.94003 16.6147 6.94003 16.3663Z" fill="#C36906"/>
<path d="M16.7753 17.2914C16.604 17.2914 16.4369 17.2357 16.2742 17.1244C16.18 17.0901 16.09 17.0473 16.0044 16.9959L15.6703 16.8032C15.3277 16.6062 15.0708 16.422 14.8995 16.2507C14.7539 16.0623 14.6639 15.8781 14.6297 15.6982C14.5954 15.5098 14.574 15.2357 14.5654 14.876V14.619C14.5569 14.3706 14.5526 13.7925 14.5526 12.8846C14.5526 12.5163 14.5569 12.2379 14.5654 12.0495H14.3213C14.1072 12.0495 13.9188 11.9766 13.756 11.831C13.6018 11.6769 13.5248 11.4841 13.5248 11.2529C13.5248 11.0131 13.6061 10.8161 13.7689 10.6619C13.9316 10.4991 14.12 10.4178 14.3342 10.4178H14.5654L14.5783 9.86532V9.46703C14.5868 9.19295 14.6768 8.9831 14.8481 8.83749C15.028 8.68332 15.2335 8.60623 15.4648 8.60623C15.7046 8.60623 15.9145 8.6876 16.0943 8.85034C16.2828 9.01308 16.377 9.23577 16.377 9.51843L16.3513 10.3921H16.8267C17.135 10.3921 17.3663 10.4734 17.5204 10.6362C17.6746 10.7989 17.7517 11.0045 17.7517 11.2529C17.7517 11.4927 17.6703 11.6983 17.5076 11.8696C17.3449 12.0323 17.105 12.1137 16.7881 12.1137H16.3127C16.3127 12.4649 16.3085 12.7261 16.2999 12.8974C16.2913 13.0773 16.287 13.3342 16.287 13.6683C16.287 14.2165 16.3042 14.6918 16.3384 15.0944C16.3727 15.1287 16.3941 15.1458 16.4027 15.1458L16.5312 15.2357L16.6339 15.2871L16.7496 15.3513L16.8523 15.4027C17.0065 15.4713 17.1393 15.5483 17.2506 15.634C17.5162 15.8139 17.6489 16.0537 17.6489 16.3535C17.6489 16.5933 17.5633 16.8117 17.392 17.0087C17.2207 17.1972 17.0151 17.2914 16.7753 17.2914Z" fill="#C36906"/>
<path d="M6.94003 14.7601C6.94003 14.5803 6.94003 13.9893 6.94003 12.9871C6.9486 11.9764 6.9486 11.2869 6.94003 10.9186C6.94003 10.5503 6.93147 10.0107 6.91434 9.29979C6.90577 8.58031 6.88864 7.93792 6.86295 7.37262C6.85438 7.12422 6.93147 6.91009 7.09421 6.73022C7.26551 6.55035 7.47536 6.45185 7.72375 6.43472H7.78799C8.96999 6.41759 10.5631 6.41759 12.5674 6.43472C12.8072 6.43472 13.0171 6.52466 13.1969 6.70453C13.3682 6.8844 13.4539 7.09853 13.4539 7.34692C13.4539 7.58675 13.364 7.79659 13.1841 7.97646C13.0042 8.14777 12.7901 8.23342 12.5417 8.23342C10.9486 8.21629 9.66378 8.21201 8.68734 8.22057C8.70447 8.76875 8.71732 9.34262 8.72588 9.94219C9.93358 9.94219 11.0471 9.92934 12.0663 9.90364C12.3147 9.90364 12.5288 9.98929 12.7087 10.1606C12.8886 10.3319 12.9785 10.5418 12.9785 10.7901C12.9871 11.03 12.9057 11.2398 12.7344 11.4197C12.5631 11.5996 12.3575 11.6938 12.1177 11.7023C11.0899 11.7195 9.96356 11.7323 8.73873 11.7409V14.7601C8.73873 15.0085 8.6488 15.2227 8.46893 15.4025C8.29762 15.5738 8.08778 15.6595 7.83938 15.6595C7.59099 15.6595 7.37686 15.5738 7.19699 15.4025C7.02569 15.2227 6.94003 15.0085 6.94003 14.7601Z" fill="url(#paint0_linear)"/>
<path d="M16.7753 15.6852C16.604 15.6852 16.4369 15.6295 16.2742 15.5182C16.18 15.4839 16.09 15.4411 16.0044 15.3897L15.6703 15.197C15.3277 15 15.0708 14.8158 14.8995 14.6445C14.7539 14.4561 14.6639 14.2719 14.6297 14.092C14.5954 13.9036 14.574 13.6295 14.5654 13.2698V13.0128C14.5569 12.7644 14.5526 12.1863 14.5526 11.2784C14.5526 10.9101 14.5569 10.6317 14.5654 10.4433H14.3213C14.1072 10.4433 13.9188 10.3704 13.756 10.2248C13.6018 10.0707 13.5248 9.87795 13.5248 9.64668C13.5248 9.40686 13.6061 9.20986 13.7689 9.05568C13.9316 8.89294 14.12 8.81157 14.3342 8.81157H14.5654L14.5783 8.25912V7.86083C14.5868 7.58675 14.6768 7.3769 14.8481 7.23129C15.028 7.07712 15.2335 7.00003 15.4648 7.00003C15.7046 7.00003 15.9145 7.0814 16.0943 7.24414C16.2828 7.40688 16.377 7.62957 16.377 7.91223L16.3513 8.78588H16.8267C17.135 8.78588 17.3663 8.86725 17.5204 9.02999C17.6746 9.19273 17.7517 9.39829 17.7517 9.64668C17.7517 9.88651 17.6703 10.0921 17.5076 10.2634C17.3449 10.4261 17.105 10.5075 16.7881 10.5075H16.3127C16.3127 10.8587 16.3085 11.1199 16.2999 11.2912C16.2913 11.4711 16.287 11.728 16.287 12.0621C16.287 12.6103 16.3042 13.0856 16.3384 13.4882C16.3727 13.5225 16.3941 13.5396 16.4027 13.5396L16.5312 13.6295L16.6339 13.6809L16.7496 13.7451L16.8523 13.7965C17.0065 13.8651 17.1393 13.9421 17.2506 14.0278C17.5162 14.2077 17.6489 14.4475 17.6489 14.7473C17.6489 14.9871 17.5633 15.2055 17.392 15.4025C17.2207 15.591 17.0151 15.6852 16.7753 15.6852Z" fill="url(#paint1_linear)"/>
</g>
<defs>
<filter id="filter0_d" x="0" y="0" width="23.5651" height="24.1866" filterUnits="userSpaceOnUse" color-interpolation-filters="sRGB">
<feFlood flood-opacity="0" result="BackgroundImageFix"/>
<feColorMatrix in="SourceAlpha" type="matrix" values="0 0 0 0 0 0 0 0 0 0 0 0 0 0 0 0 0 0 127 0"/>
<feOffset dy="2"/>
<feColorMatrix type="matrix" values="0 0 0 0 0 0 0 0 0 0 0 0 0 0 0 0 0 0 0.25 0"/>
<feBlend mode="normal" in2="BackgroundImageFix" result="effect1_dropShadow"/>
<feBlend mode="normal" in="SourceGraphic" in2="effect1_dropShadow" result="shape"/>
</filter>
<linearGradient id="paint0_linear" x1="7.11387" y1="17.8007" x2="36.8714" y2="11.9148" gradientUnits="userSpaceOnUse">
<stop stop-color="#FECE00"/>
<stop offset="1" stop-color="#FFB901"/>
</linearGradient>
<linearGradient id="paint1_linear" x1="7.11387" y1="17.8007" x2="36.8714" y2="11.9148" gradientUnits="userSpaceOnUse">
<stop stop-color="#FECE00"/>
<stop offset="1" stop-color="#FFB901"/>
</linearGradient>
</defs>
</svg>
