<svg width="108" height="108" viewBox="0 0 108 108" fill="none" xmlns="http://www.w3.org/2000/svg">
<g clip-path="url(#clip0)">
<path d="M54.0001 108C83.8235 108 108 83.8235 108 54.0001C108 24.1767 83.8235 0 54.0001 0C24.1767 0 0 24.1767 0 54.0001C0 83.8235 24.1767 108 54.0001 108Z" fill="#6FCF97"/>
<path d="M83.3625 38.4749L48.2625 76.95C45.8999 79.6501 41.8501 79.6501 39.4874 76.95L24.6374 60.4125C22.6125 58.0499 22.6125 54.3375 24.9748 51.9749C27.3374 49.95 31.0498 49.95 33.4124 52.3123L43.875 64.1249L74.5874 30.7124C76.95 28.3498 80.6624 28.0123 83.025 30.3749C85.3874 32.3999 85.3874 36.4499 83.3625 38.4749Z" fill="white"/>
</g>
<defs>
<clipPath id="clip0">
<rect width="108" height="108" fill="white"/>
</clipPath>
</defs>
</svg>
