<svg width="80" height="81" viewBox="0 0 80 81" fill="none" xmlns="http://www.w3.org/2000/svg">
<ellipse cx="40.5" cy="45" rx="39.5" ry="36" fill="#914314"/>
<ellipse cx="40" cy="41" rx="40" ry="36" fill="#BF5A04"/>
<ellipse cx="39.5" cy="36.5" rx="33.5" ry="30.5" fill="#D36601"/>
<ellipse cx="39.5" cy="39" rx="33.5" ry="30" fill="#F8A500"/>
<path d="M75.2816 53.7474C78.1689 47.9609 79.3507 41.5133 78.9107 35.1215C78.4706 28.7298 76.3205 22.5511 72.6645 17.1723C69.0085 11.7935 63.9679 7.39315 58.0216 4.38903C52.0752 1.38491 45.4203 -0.123217 38.689 0.00787155C31.9576 0.13896 25.3732 1.90491 19.5611 5.13802C13.7489 8.37113 8.90186 12.9641 5.48027 18.4807C2.05868 23.9973 0.176123 30.2545 0.0113551 36.658C-0.153412 43.0616 1.4795 49.3307 4.61326 55L8.66428 49.7619C6.97638 45.5487 6.05905 42.2023 6.198 36.8021C6.33696 31.4019 7.92456 26.1251 10.8101 21.4728C13.6955 16.8205 17.7831 12.9472 22.6847 10.2206C27.5862 7.4941 33.139 6.00484 38.8156 5.89429C44.4923 5.78374 50.1045 7.05557 55.1192 9.58901C60.1339 12.1224 64.3847 15.8334 67.4678 20.3694C70.551 24.9055 72.3643 30.116 72.7354 35.5063C73.2561 40.9938 73.0311 42.0186 71.2306 48.5093L75.2816 53.7474Z" fill="#F6B501"/>
<path d="M5 54.5212C5 54.6356 11.5822 64.6527 18.3532 68.8586C25.1243 73.0645 33.0843 75.202 41.1675 74.985C49.2507 74.7679 57.0713 72.2066 63.5821 67.644C70.093 63.0814 75.5478 54.9788 76 53.2627L71.9299 48C70.9124 50.8602 65.3855 59.0335 59.8948 62.8812C54.404 66.7289 47.8088 68.8889 40.992 69.072C34.1753 69.2551 27.4625 67.4525 21.7523 63.9055C16.0422 60.3586 11.6359 55.2697 9.07006 49.2585C9.07006 49.2585 5 54.4068 5 54.5212Z" fill="#EE900D"/>
<g filter="url(#filter0_d)">
<path d="M21.06 48.696C21.036 49.392 20.772 49.98 20.268 50.46C19.764 50.94 19.164 51.168 18.468 51.144C17.772 51.12 17.184 50.856 16.704 50.352C16.224 49.848 15.996 49.248 16.02 48.552C16.092 46.248 16.092 41.544 16.02 34.44L14.22 35.628C13.644 36.012 13.008 36.144 12.312 36.024C11.64 35.88 11.112 35.52 10.728 34.944C10.344 34.368 10.212 33.744 10.332 33.072C10.476 32.376 10.836 31.836 11.412 31.452L12.528 30.732C12.936 30.468 13.2 30.3 13.32 30.228C13.44 30.132 13.608 30 13.824 29.832C14.04 29.64 14.22 29.448 14.364 29.256L14.904 28.5C15.048 28.356 15.12 28.068 15.12 27.636C15.288 27.012 15.516 26.508 15.804 26.124C16.5 25.212 17.412 24.792 18.54 24.864C19.428 24.936 20.1 25.356 20.556 26.124C20.652 26.316 20.736 26.52 20.808 26.736C20.832 26.856 20.856 27 20.88 27.168C20.904 27.336 20.928 27.528 20.952 27.744C20.976 28.104 20.988 28.608 20.988 29.256C21.012 30.192 21.036 31.548 21.06 33.324C21.108 41.964 21.108 47.088 21.06 48.696ZM34.7003 51.108C33.2843 50.916 32.0243 50.472 30.9203 49.776C29.8163 49.056 28.9283 48.168 28.2563 47.112C27.5843 46.056 27.0443 44.94 26.6363 43.764C26.2523 42.588 26.0003 41.376 25.8803 40.128C25.6643 37.584 25.9403 35.052 26.7083 32.532C27.4763 30.036 28.6883 28.044 30.3443 26.556C30.8243 26.148 31.4723 25.764 32.2883 25.404C32.3363 25.404 32.5043 25.344 32.7923 25.224C33.0803 25.104 33.3083 24.996 33.4763 24.9C34.0043 24.636 34.5323 24.564 35.0603 24.684C35.5883 24.78 36.0563 25.032 36.4643 25.44C36.8483 25.488 37.1243 25.524 37.2923 25.548C38.6123 25.788 39.7043 26.136 40.5683 26.592C42.4163 27.672 43.6763 29.868 44.3483 33.18C44.7563 35.124 44.9483 37.188 44.9243 39.372C44.8763 42.42 44.1203 45.06 42.6563 47.292C41.7923 48.612 40.6763 49.62 39.3083 50.316C37.9643 51.06 36.4283 51.324 34.7003 51.108ZM35.2763 45.816C36.5723 45.96 37.6283 45.444 38.4443 44.268C39.2843 42.924 39.7163 41.268 39.7403 39.3C39.7643 37.524 39.6203 35.856 39.3083 34.296C39.1883 33.672 39.0323 33.132 38.8403 32.676C38.6723 32.196 38.5163 31.86 38.3723 31.668C38.2523 31.452 38.1443 31.32 38.0483 31.272C37.7363 31.104 37.2323 30.96 36.5363 30.84C36.4163 30.84 36.2843 30.828 36.1403 30.804C35.9963 30.78 35.8403 30.756 35.6723 30.732C35.5043 30.708 35.3723 30.696 35.2763 30.696C34.8203 30.6 34.4003 30.504 34.0163 30.408C33.8483 30.504 33.7283 30.588 33.6563 30.66C32.7923 31.428 32.0963 32.652 31.5683 34.332C31.0403 36.012 30.8483 37.776 30.9923 39.624C31.1843 41.448 31.6523 42.9 32.3963 43.98C33.1403 45.06 34.1003 45.672 35.2763 45.816ZM57.13 51.108C55.714 50.916 54.454 50.472 53.35 49.776C52.246 49.056 51.358 48.168 50.686 47.112C50.014 46.056 49.474 44.94 49.066 43.764C48.682 42.588 48.43 41.376 48.31 40.128C48.094 37.584 48.37 35.052 49.138 32.532C49.906 30.036 51.118 28.044 52.774 26.556C53.254 26.148 53.902 25.764 54.718 25.404C54.766 25.404 54.934 25.344 55.222 25.224C55.51 25.104 55.738 24.996 55.906 24.9C56.434 24.636 56.962 24.564 57.49 24.684C58.018 24.78 58.486 25.032 58.894 25.44C59.278 25.488 59.554 25.524 59.722 25.548C61.042 25.788 62.134 26.136 62.998 26.592C64.846 27.672 66.106 29.868 66.778 33.18C67.186 35.124 67.378 37.188 67.354 39.372C67.306 42.42 66.55 45.06 65.086 47.292C64.222 48.612 63.106 49.62 61.738 50.316C60.394 51.06 58.858 51.324 57.13 51.108ZM57.706 45.816C59.002 45.96 60.058 45.444 60.874 44.268C61.714 42.924 62.146 41.268 62.17 39.3C62.194 37.524 62.05 35.856 61.738 34.296C61.618 33.672 61.462 33.132 61.27 32.676C61.102 32.196 60.946 31.86 60.802 31.668C60.682 31.452 60.574 31.32 60.478 31.272C60.166 31.104 59.662 30.96 58.966 30.84C58.846 30.84 58.714 30.828 58.57 30.804C58.426 30.78 58.27 30.756 58.102 30.732C57.934 30.708 57.802 30.696 57.706 30.696C57.25 30.6 56.83 30.504 56.446 30.408C56.278 30.504 56.158 30.588 56.086 30.66C55.222 31.428 54.526 32.652 53.998 34.332C53.47 36.012 53.278 37.776 53.422 39.624C53.614 41.448 54.082 42.9 54.826 43.98C55.57 45.06 56.53 45.672 57.706 45.816Z" fill="url(#paint0_linear)"/>
<path d="M21.06 48.696L21.5597 48.7132L21.5598 48.7109L21.06 48.696ZM20.268 50.46L19.9232 50.0979L20.268 50.46ZM18.468 51.144L18.4508 51.6437L18.468 51.144ZM16.704 50.352L17.0661 50.0072L16.704 50.352ZM16.02 48.552L16.5197 48.5692L16.5198 48.5676L16.02 48.552ZM16.02 34.44L16.52 34.4349L16.5107 33.5171L15.7446 34.0227L16.02 34.44ZM14.22 35.628L13.9446 35.2107L13.9427 35.212L14.22 35.628ZM12.312 36.024L12.2072 36.5129L12.2171 36.515L12.227 36.5167L12.312 36.024ZM10.728 34.944L10.312 35.2213H10.312L10.728 34.944ZM10.332 33.072L9.84219 32.9707L9.83979 32.9841L10.332 33.072ZM11.412 31.452L11.1409 31.0318L11.1346 31.036L11.412 31.452ZM12.528 30.732L12.7991 31.1521L12.7996 31.1518L12.528 30.732ZM13.32 30.228L13.5772 30.6567L13.6061 30.6394L13.6323 30.6184L13.32 30.228ZM13.824 29.832L14.131 30.2267L14.1439 30.2166L14.1562 30.2057L13.824 29.832ZM14.364 29.256L14.7641 29.5561L14.7709 29.5466L14.364 29.256ZM14.904 28.5L14.5504 28.1464L14.5212 28.1757L14.4971 28.2094L14.904 28.5ZM15.12 27.636L14.6372 27.506L14.62 27.5699V27.636H15.12ZM15.804 26.124L15.4065 25.8207L15.404 25.824L15.804 26.124ZM18.54 24.864L18.5804 24.3656L18.5719 24.365L18.54 24.864ZM20.556 26.124L21.0032 25.9004L20.9951 25.8842L20.9859 25.8687L20.556 26.124ZM20.808 26.736L21.2983 26.6379L21.2922 26.6074L21.2823 26.5779L20.808 26.736ZM20.88 27.168L20.385 27.2387V27.2387L20.88 27.168ZM20.952 27.744L21.4509 27.7107L21.4502 27.6997L21.4489 27.6888L20.952 27.744ZM20.988 29.256H20.4878L20.4882 29.2688L20.988 29.256ZM21.06 33.324L21.56 33.3212L21.56 33.3172L21.06 33.324ZM20.5603 48.6788C20.5408 49.2441 20.3323 49.7082 19.9232 50.0979L20.6128 50.8221C21.2117 50.2518 21.5312 49.5399 21.5597 48.7132L20.5603 48.6788ZM19.9232 50.0979C19.5165 50.4852 19.047 50.6637 18.4852 50.6443L18.4508 51.6437C19.281 51.6723 20.0115 51.3948 20.6128 50.8221L19.9232 50.0979ZM18.4852 50.6443C17.9199 50.6248 17.4558 50.4163 17.0661 50.0072L16.3419 50.6968C16.9122 51.2957 17.6241 51.6152 18.4508 51.6437L18.4852 50.6443ZM17.0661 50.0072C16.6788 49.6005 16.5003 49.131 16.5197 48.5692L15.5203 48.5348C15.4917 49.365 15.7692 50.0955 16.3419 50.6968L17.0661 50.0072ZM16.5198 48.5676C16.5921 46.2515 16.592 41.537 16.52 34.4349L15.52 34.4451C15.592 41.551 15.5919 46.2445 15.5202 48.5364L16.5198 48.5676ZM15.7446 34.0227L13.9446 35.2107L14.4954 36.0453L16.2954 34.8573L15.7446 34.0227ZM13.9427 35.212C13.4755 35.5234 12.9697 35.63 12.397 35.5313L12.227 36.5167C13.0463 36.658 13.8125 36.5006 14.4974 36.044L13.9427 35.212ZM12.4168 35.5351C11.8731 35.4186 11.4564 35.1352 11.144 34.6666L10.312 35.2213C10.7676 35.9048 11.4069 36.3414 12.2072 36.5129L12.4168 35.5351ZM11.144 34.6666C10.8305 34.1963 10.7273 33.7029 10.8242 33.1599L9.83979 32.9841C9.69675 33.7851 9.85753 34.5397 10.312 35.2213L11.144 34.6666ZM10.8216 33.1733C10.9398 32.6022 11.226 32.177 11.6894 31.868L11.1346 31.036C10.446 31.495 10.0122 32.1498 9.84237 32.9707L10.8216 33.1733ZM11.6831 31.8721L12.7991 31.1521L12.2569 30.3119L11.1409 31.0318L11.6831 31.8721ZM12.7996 31.1518C13.2096 30.8865 13.466 30.7235 13.5772 30.6567L13.0628 29.7993C12.934 29.8765 12.6624 30.0495 12.2564 30.3122L12.7996 31.1518ZM13.6323 30.6184C13.7497 30.5245 13.9156 30.3942 14.131 30.2267L13.517 29.4373C13.3004 29.6058 13.1303 29.7394 13.0077 29.8376L13.6323 30.6184ZM14.1562 30.2057C14.3923 29.9958 14.5963 29.7795 14.764 29.556L13.964 28.956C13.8437 29.1165 13.6877 29.2842 13.4918 29.4583L14.1562 30.2057ZM14.7709 29.5466L15.3109 28.7906L14.4971 28.2094L13.9571 28.9654L14.7709 29.5466ZM15.2576 28.8536C15.4165 28.6946 15.5025 28.4914 15.5511 28.2973C15.6004 28.1001 15.62 27.8761 15.62 27.636H14.62C14.62 27.8279 14.6036 27.9639 14.5809 28.0547C14.5575 28.1486 14.5355 28.1614 14.5504 28.1464L15.2576 28.8536ZM15.6028 27.766C15.7597 27.1834 15.9649 26.7428 16.204 26.424L15.404 25.824C15.0671 26.2732 14.8163 26.8406 14.6372 27.506L15.6028 27.766ZM16.2015 26.4273C16.7979 25.6458 17.55 25.3018 18.5082 25.363L18.5719 24.365C17.274 24.2822 16.2021 24.7782 15.4065 25.8207L16.2015 26.4273ZM18.4996 25.3624C19.2255 25.4212 19.7526 25.7502 20.1261 26.3793L20.9859 25.8687C20.4474 24.9618 19.6305 24.4508 18.5804 24.3656L18.4996 25.3624ZM20.1088 26.3476C20.1936 26.5172 20.2687 26.6992 20.3337 26.8941L21.2823 26.5779C21.2033 26.3408 21.1104 26.1148 21.0032 25.9004L20.1088 26.3476ZM20.3177 26.8341C20.3394 26.9423 20.3619 27.0767 20.385 27.2387L21.375 27.0973C21.3501 26.9233 21.3246 26.7697 21.2983 26.6379L20.3177 26.8341ZM20.385 27.2387C20.4081 27.4004 20.4315 27.587 20.4551 27.7992L21.4489 27.6888C21.4245 27.469 21.3999 27.2716 21.375 27.0973L20.385 27.2387ZM20.4531 27.7773C20.476 28.1208 20.488 28.6119 20.488 29.256H21.488C21.488 28.6041 21.476 28.0872 21.4509 27.7107L20.4531 27.7773ZM20.4882 29.2688C20.5121 30.2017 20.5361 31.5553 20.56 33.3308L21.56 33.3172C21.5359 31.5407 21.5119 30.1823 21.4878 29.2432L20.4882 29.2688ZM20.56 33.3268C20.608 41.9718 20.6079 47.0843 20.5602 48.6811L21.5598 48.7109C21.6081 47.0917 21.608 41.9562 21.56 33.3212L20.56 33.3268ZM34.7003 51.108L34.6332 51.6035L34.6383 51.6041L34.7003 51.108ZM30.9203 49.776L30.6472 50.1949L30.6537 50.199L30.9203 49.776ZM28.2563 47.112L28.6782 46.8436L28.2563 47.112ZM26.6363 43.764L26.161 43.9192L26.164 43.9279L26.6363 43.764ZM25.8803 40.128L25.3821 40.1703L25.3826 40.1759L25.8803 40.128ZM26.7083 32.532L26.2305 32.385L26.2301 32.3862L26.7083 32.532ZM30.3443 26.556L30.0204 26.1749L30.0102 26.1841L30.3443 26.556ZM32.2883 25.404V24.904H32.183L32.0865 24.9465L32.2883 25.404ZM33.4763 24.9L33.2527 24.4528L33.2403 24.459L33.2283 24.4659L33.4763 24.9ZM35.0603 24.684L34.9495 25.1716L34.9602 25.174L34.9709 25.1759L35.0603 24.684ZM36.4643 25.44L36.1108 25.7936L36.2321 25.9149L36.4023 25.9361L36.4643 25.44ZM37.2923 25.548L37.3818 25.0561L37.3724 25.0544L37.3631 25.053L37.2923 25.548ZM40.5683 26.592L40.8206 26.1603L40.8113 26.1549L40.8017 26.1498L40.5683 26.592ZM44.3483 33.18L43.8583 33.2794L43.859 33.2827L44.3483 33.18ZM44.9243 39.372L45.4243 39.3799L45.4243 39.3775L44.9243 39.372ZM42.6563 47.292L42.2383 47.0178L42.238 47.0182L42.6563 47.292ZM39.3083 50.316L39.0816 49.8704L39.0738 49.8743L39.0662 49.8786L39.3083 50.316ZM35.2763 45.816L35.2156 46.3123L35.2211 46.3129L35.2763 45.816ZM38.4443 44.268L38.8551 44.553L38.862 44.5432L38.8683 44.533L38.4443 44.268ZM39.7403 39.3L39.2404 39.2932L39.2404 39.2939L39.7403 39.3ZM39.3083 34.296L38.8173 34.3904L38.8181 34.3941L39.3083 34.296ZM38.8403 32.676L38.3684 32.8412L38.3735 32.8558L38.3795 32.87L38.8403 32.676ZM38.3723 31.668L37.9353 31.9108L37.9519 31.9407L37.9723 31.968L38.3723 31.668ZM38.0483 31.272L37.8113 31.7122L37.818 31.7158L37.8247 31.7192L38.0483 31.272ZM36.5363 30.84L36.6213 30.3473L36.5791 30.34H36.5363V30.84ZM36.1403 30.804L36.2225 30.3108H36.2225L36.1403 30.804ZM35.2763 30.696L35.1733 31.1853L35.2243 31.196H35.2763V30.696ZM34.0163 30.408L34.1376 29.9229L33.9427 29.8742L33.7683 29.9739L34.0163 30.408ZM33.6563 30.66L33.9885 31.0337L33.9995 31.0239L34.0099 31.0136L33.6563 30.66ZM30.9923 39.624L30.4937 39.6629L30.4951 39.6763L30.9923 39.624ZM34.7675 50.6125C33.4156 50.4292 32.2249 50.0074 31.187 49.353L30.6537 50.199C31.8238 50.9366 33.1531 51.4028 34.6332 51.6035L34.7675 50.6125ZM31.1935 49.3572C30.146 48.674 29.3099 47.8362 28.6782 46.8436L27.8345 47.3804C28.5468 48.4998 29.4867 49.438 30.6472 50.1948L31.1935 49.3572ZM28.6782 46.8436C28.0269 45.8201 27.5039 44.7392 27.1087 43.6001L26.164 43.9279C26.5848 45.1408 27.1418 46.2919 27.8345 47.3804L28.6782 46.8436ZM27.1116 43.6088C26.7392 42.4681 26.4946 41.2921 26.378 40.0801L25.3826 40.1759C25.5061 41.4599 25.7655 42.7079 26.161 43.9192L27.1116 43.6088ZM26.3786 40.0857C26.1681 37.6071 26.4366 35.1389 27.1866 32.6778L26.2301 32.3862C25.4441 34.9651 25.1606 37.5609 25.3821 40.1703L26.3786 40.0857ZM27.1862 32.679C27.9323 30.2545 29.1008 28.3456 30.6785 26.9279L30.0102 26.1841C28.2759 27.7424 27.0204 29.8175 26.2305 32.385L27.1862 32.679ZM30.6682 26.937C31.0997 26.5702 31.7016 26.2094 32.4902 25.8615L32.0865 24.9465C31.2431 25.3186 30.549 25.7258 30.0205 26.175L30.6682 26.937ZM32.2883 25.904C32.3749 25.904 32.4525 25.8823 32.4807 25.8745C32.5239 25.8625 32.571 25.8469 32.6185 25.8299C32.7145 25.7956 32.8376 25.7468 32.9847 25.6855L32.6 24.7625C32.4591 24.8212 32.3542 24.8624 32.2822 24.8881C32.2457 24.9011 32.2238 24.908 32.213 24.911C32.2077 24.9125 32.2099 24.9117 32.2175 24.9102C32.2216 24.9094 32.2489 24.904 32.2883 24.904V25.904ZM32.9847 25.6855C33.2817 25.5618 33.5309 25.4447 33.7244 25.3341L33.2283 24.4659C33.0857 24.5473 32.879 24.6462 32.6 24.7625L32.9847 25.6855ZM33.7 25.3472C34.1345 25.1299 34.5447 25.0796 34.9495 25.1716L35.1712 24.1964C34.5199 24.0484 33.8742 24.1421 33.2527 24.4528L33.7 25.3472ZM34.9709 25.1759C35.3912 25.2524 35.769 25.4518 36.1108 25.7936L36.8179 25.0864C36.3437 24.6122 35.7855 24.3076 35.1498 24.1921L34.9709 25.1759ZM36.4023 25.9361C36.7861 25.9841 37.0583 26.0196 37.2216 26.043L37.3631 25.053C37.1903 25.0284 36.9106 24.9919 36.5264 24.9439L36.4023 25.9361ZM37.2029 26.0399C38.49 26.274 39.5294 26.6091 40.335 27.0342L40.8017 26.1498C39.8792 25.6629 38.7347 25.302 37.3818 25.0561L37.2029 26.0399ZM40.3161 27.0237C41.9851 27.9991 43.1985 30.0274 43.8583 33.2794L44.8384 33.0806C44.1542 29.7086 42.8476 27.3449 40.8206 26.1603L40.3161 27.0237ZM43.859 33.2827C44.2588 35.1878 44.448 37.2153 44.4244 39.3665L45.4243 39.3775C45.4487 37.1607 45.2538 35.0602 44.8377 33.0773L43.859 33.2827ZM44.4244 39.3641C44.3777 42.3312 43.6432 44.8758 42.2383 47.0178L43.0744 47.5662C44.5975 45.2442 45.375 42.5088 45.4243 39.3799L44.4244 39.3641ZM42.238 47.0182C41.4204 48.2673 40.3696 49.2151 39.0816 49.8704L39.5351 50.7616C40.9831 50.0249 42.1643 48.9567 43.0747 47.5658L42.238 47.0182ZM39.0662 49.8786C37.8269 50.5646 36.4 50.8166 34.7624 50.6119L34.6383 51.6041C36.4567 51.8314 38.1018 51.5554 39.5505 50.7534L39.0662 49.8786ZM35.2211 46.3129C35.9527 46.3942 36.6375 46.2903 37.2599 45.9862C37.8797 45.6834 38.409 45.196 38.8551 44.553L38.0336 43.983C37.6637 44.516 37.257 44.8746 36.8208 45.0878C36.3872 45.2997 35.896 45.3818 35.3316 45.3191L35.2211 46.3129ZM38.8683 44.533C39.7674 43.0945 40.2155 41.3437 40.2403 39.3061L39.2404 39.2939C39.2172 41.1923 38.8013 42.7535 38.0203 44.003L38.8683 44.533ZM40.2403 39.3068C40.2647 37.4996 40.1183 35.7962 39.7986 34.1979L38.8181 34.3941C39.1224 35.9158 39.264 37.5484 39.2404 39.2932L40.2403 39.3068ZM39.7993 34.2016C39.6745 33.5525 39.5098 32.9776 39.3012 32.482L38.3795 32.87C38.5548 33.2864 38.7022 33.7915 38.8173 34.3904L39.7993 34.2016ZM39.3123 32.5108C39.1419 32.0241 38.9655 31.6255 38.7723 31.368L37.9723 31.968C38.0672 32.0945 38.2028 32.3679 38.3684 32.8412L39.3123 32.5108ZM38.8094 31.4252C38.7408 31.3016 38.6675 31.1872 38.5883 31.0904C38.5131 30.9984 38.4093 30.8934 38.272 30.8248L37.8247 31.7192C37.8013 31.7075 37.7905 31.6976 37.7918 31.6987C37.7927 31.6995 37.8004 31.7065 37.8144 31.7236C37.8432 31.7588 37.8839 31.8184 37.9353 31.9108L38.8094 31.4252ZM38.2854 30.8318C37.8991 30.6237 37.3286 30.4692 36.6213 30.3473L36.4514 31.3327C37.1361 31.4508 37.5736 31.5843 37.8113 31.7122L38.2854 30.8318ZM36.5363 30.34C36.449 30.34 36.345 30.3312 36.2225 30.3108L36.0581 31.2972C36.2237 31.3248 36.3837 31.34 36.5363 31.34V30.34ZM36.2225 30.3108C36.0742 30.2861 35.9143 30.2615 35.7431 30.237L35.6016 31.227C35.7664 31.2505 35.9185 31.2739 36.0581 31.2972L36.2225 30.3108ZM35.7431 30.237C35.5665 30.2118 35.4074 30.196 35.2763 30.196V31.196C35.3373 31.196 35.4422 31.2042 35.6016 31.227L35.7431 30.237ZM35.3794 30.2067C34.9284 30.1118 34.5146 30.0172 34.1376 29.9229L33.8951 30.8931C34.2861 30.9908 34.7123 31.0882 35.1733 31.1853L35.3794 30.2067ZM33.7683 29.9739C33.5897 30.0759 33.4229 30.1863 33.3028 30.3064L34.0099 31.0136C34.0338 30.9897 34.107 30.9321 34.2644 30.8421L33.7683 29.9739ZM33.3242 30.2863C32.366 31.138 31.6334 32.4575 31.0913 34.1821L32.0453 34.4819C32.5593 32.8465 33.2187 31.718 33.9885 31.0337L33.3242 30.2863ZM31.0913 34.1821C30.5432 35.9262 30.3452 37.7545 30.4939 39.6628L31.4908 39.5852C31.3515 37.7975 31.5375 36.0978 32.0453 34.4819L31.0913 34.1821ZM30.4951 39.6763C30.6925 41.5521 31.1781 43.093 31.9846 44.2637L32.8081 43.6963C32.1266 42.707 31.6762 41.3439 31.4896 39.5717L30.4951 39.6763ZM31.9846 44.2637C32.8001 45.4474 33.8814 46.1489 35.2156 46.3123L35.3371 45.3197C34.3193 45.1951 33.4806 44.6726 32.8081 43.6963L31.9846 44.2637ZM57.13 51.108L57.0628 51.6035L57.068 51.6041L57.13 51.108ZM53.35 49.776L53.0769 50.1949L53.0834 50.199L53.35 49.776ZM50.686 47.112L51.1079 46.8436L50.686 47.112ZM49.066 43.764L48.5906 43.9192L48.5937 43.9279L49.066 43.764ZM48.31 40.128L47.8118 40.1703L47.8123 40.1759L48.31 40.128ZM49.138 32.532L48.6601 32.385L48.6597 32.3862L49.138 32.532ZM52.774 26.556L52.4501 26.1749L52.4398 26.1841L52.774 26.556ZM54.718 25.404V24.904H54.6126L54.5162 24.9465L54.718 25.404ZM55.906 24.9L55.6824 24.4528L55.67 24.459L55.658 24.4659L55.906 24.9ZM57.49 24.684L57.3792 25.1716L57.3899 25.174L57.4006 25.1759L57.49 24.684ZM58.894 25.44L58.5405 25.7936L58.6618 25.9149L58.832 25.9361L58.894 25.44ZM59.722 25.548L59.8115 25.0561L59.8021 25.0544L59.7927 25.053L59.722 25.548ZM62.998 26.592L63.2503 26.1603L63.241 26.1549L63.2314 26.1498L62.998 26.592ZM66.778 33.18L66.288 33.2794L66.2887 33.2827L66.778 33.18ZM67.354 39.372L67.854 39.3799L67.854 39.3775L67.354 39.372ZM65.086 47.292L64.6679 47.0178L64.6677 47.0182L65.086 47.292ZM61.738 50.316L61.5113 49.8704L61.5035 49.8743L61.4959 49.8786L61.738 50.316ZM57.706 45.816L57.6453 46.3123L57.6508 46.3129L57.706 45.816ZM60.874 44.268L61.2848 44.553L61.2917 44.5432L61.298 44.533L60.874 44.268ZM62.17 39.3L61.6701 39.2932L61.6701 39.2939L62.17 39.3ZM61.738 34.296L61.247 34.3904L61.2477 34.3941L61.738 34.296ZM61.27 32.676L60.7981 32.8412L60.8032 32.8558L60.8092 32.87L61.27 32.676ZM60.802 31.668L60.365 31.9108L60.3815 31.9407L60.402 31.968L60.802 31.668ZM60.478 31.272L60.241 31.7122L60.2477 31.7158L60.2544 31.7192L60.478 31.272ZM58.966 30.84L59.051 30.3473L59.0088 30.34H58.966V30.84ZM58.57 30.804L58.6522 30.3108H58.6522L58.57 30.804ZM57.706 30.696L57.603 31.1853L57.654 31.196H57.706V30.696ZM56.446 30.408L56.5673 29.9229L56.3724 29.8742L56.198 29.9739L56.446 30.408ZM56.086 30.66L56.4182 31.0337L56.4292 31.0239L56.4396 31.0136L56.086 30.66ZM53.422 39.624L52.9234 39.6629L52.9248 39.6763L53.422 39.624ZM57.1972 50.6125C55.8453 50.4292 54.6546 50.0074 53.6167 49.353L53.0834 50.199C54.2535 50.9366 55.5827 51.4028 57.0629 51.6035L57.1972 50.6125ZM53.6232 49.3572C52.5757 48.674 51.7396 47.8362 51.1079 46.8436L50.2642 47.3804C50.9765 48.4998 51.9164 49.438 53.0769 50.1948L53.6232 49.3572ZM51.1079 46.8436C50.4566 45.8201 49.9336 44.7392 49.5384 43.6001L48.5937 43.9279C49.0145 45.1408 49.5715 46.2919 50.2642 47.3804L51.1079 46.8436ZM49.5413 43.6088C49.1689 42.4681 48.9243 41.2921 48.8077 40.0801L47.8123 40.1759C47.9358 41.4599 48.1952 42.7079 48.5907 43.9192L49.5413 43.6088ZM48.8082 40.0857C48.5978 37.6071 48.8663 35.1389 49.6163 32.6778L48.6597 32.3862C47.8738 34.9651 47.5903 37.5609 47.8118 40.1703L48.8082 40.0857ZM49.6159 32.679C50.3619 30.2545 51.5305 28.3456 53.1082 26.9279L52.4398 26.1841C50.7056 27.7424 49.4501 29.8175 48.6601 32.385L49.6159 32.679ZM53.0979 26.937C53.5293 26.5702 54.1312 26.2094 54.9199 25.8615L54.5162 24.9465C53.6728 25.3186 52.9787 25.7258 52.4502 26.175L53.0979 26.937ZM54.718 25.904C54.8046 25.904 54.8822 25.8823 54.9104 25.8745C54.9536 25.8625 55.0006 25.8469 55.0482 25.8299C55.1442 25.7956 55.2673 25.7468 55.4143 25.6855L55.0297 24.7625C54.8888 24.8212 54.7839 24.8624 54.7119 24.8881C54.6754 24.9011 54.6535 24.908 54.6427 24.911C54.6374 24.9125 54.6396 24.9117 54.6472 24.9102C54.6512 24.9094 54.6786 24.904 54.718 24.904V25.904ZM55.4143 25.6855C55.7114 25.5618 55.9606 25.4447 56.1541 25.3341L55.658 24.4659C55.5154 24.5473 55.3086 24.6462 55.0297 24.7625L55.4143 25.6855ZM56.1296 25.3472C56.5642 25.1299 56.9744 25.0796 57.3792 25.1716L57.6008 24.1964C56.9496 24.0484 56.3039 24.1421 55.6824 24.4528L56.1296 25.3472ZM57.4006 25.1759C57.8209 25.2524 58.1987 25.4518 58.5405 25.7936L59.2476 25.0864C58.7734 24.6122 58.2152 24.3076 57.5795 24.1921L57.4006 25.1759ZM58.832 25.9361C59.2158 25.9841 59.488 26.0196 59.6513 26.043L59.7927 25.053C59.62 25.0284 59.3402 24.9919 58.9561 24.9439L58.832 25.9361ZM59.6326 26.0399C60.9197 26.274 61.9591 26.6091 62.7647 27.0342L63.2314 26.1498C62.3089 25.6629 61.1644 25.302 59.8115 25.0561L59.6326 26.0399ZM62.7457 27.0237C64.4148 27.9991 65.6282 30.0274 66.288 33.2794L67.268 33.0806C66.5839 29.7086 65.2772 27.3449 63.2503 26.1603L62.7457 27.0237ZM66.2887 33.2827C66.6885 35.1878 66.8777 37.2153 66.8541 39.3665L67.854 39.3775C67.8784 37.1607 67.6835 35.0602 67.2674 33.0773L66.2887 33.2827ZM66.8541 39.3641C66.8074 42.3312 66.0729 44.8758 64.6679 47.0178L65.5041 47.5662C67.0272 45.2442 67.8047 42.5088 67.854 39.3799L66.8541 39.3641ZM64.6677 47.0182C63.8501 48.2673 62.7993 49.2151 61.5113 49.8704L61.9648 50.7616C63.4128 50.0249 64.594 48.9567 65.5044 47.5658L64.6677 47.0182ZM61.4959 49.8786C60.2566 50.5646 58.8296 50.8166 57.1921 50.6119L57.068 51.6041C58.8864 51.8314 60.5314 51.5554 61.9802 50.7534L61.4959 49.8786ZM57.6508 46.3129C58.3824 46.3942 59.0672 46.2903 59.6895 45.9862C60.3093 45.6834 60.8387 45.196 61.2848 44.553L60.4632 43.983C60.0934 44.516 59.6867 44.8746 59.2505 45.0878C58.8169 45.2997 58.3257 45.3818 57.7612 45.3191L57.6508 46.3129ZM61.298 44.533C62.1971 43.0945 62.6451 41.3437 62.67 39.3061L61.6701 39.2939C61.6469 41.1923 61.231 42.7535 60.45 44.003L61.298 44.533ZM62.67 39.3068C62.6944 37.4996 62.548 35.7962 62.2283 34.1979L61.2477 34.3941C61.5521 35.9158 61.6937 37.5484 61.6701 39.2932L62.67 39.3068ZM62.229 34.2016C62.1042 33.5525 61.9395 32.9776 61.7309 32.482L60.8092 32.87C60.9845 33.2864 61.1318 33.7915 61.247 34.3904L62.229 34.2016ZM61.742 32.5108C61.5716 32.0241 61.3952 31.6255 61.202 31.368L60.402 31.968C60.4969 32.0945 60.6325 32.3679 60.7981 32.8412L61.742 32.5108ZM61.2391 31.4252C61.1705 31.3016 61.0972 31.1872 61.018 31.0904C60.9427 30.9984 60.839 30.8934 60.7016 30.8248L60.2544 31.7192C60.231 31.7075 60.2202 31.6976 60.2215 31.6987C60.2224 31.6995 60.2301 31.7065 60.2441 31.7236C60.2729 31.7588 60.3136 31.8184 60.365 31.9108L61.2391 31.4252ZM60.7151 30.8318C60.3288 30.6237 59.7583 30.4692 59.051 30.3473L58.8811 31.3327C59.5658 31.4508 60.0033 31.5843 60.241 31.7122L60.7151 30.8318ZM58.966 30.34C58.8787 30.34 58.7747 30.3312 58.6522 30.3108L58.4878 31.2972C58.6534 31.3248 58.8133 31.34 58.966 31.34V30.34ZM58.6522 30.3108C58.5039 30.2861 58.344 30.2615 58.1727 30.237L58.0313 31.227C58.1961 31.2505 58.3482 31.2739 58.4878 31.2972L58.6522 30.3108ZM58.1727 30.237C57.9962 30.2118 57.837 30.196 57.706 30.196V31.196C57.767 31.196 57.8719 31.2042 58.0313 31.227L58.1727 30.237ZM57.809 30.2067C57.3581 30.1118 56.9443 30.0172 56.5673 29.9229L56.3248 30.8931C56.7158 30.9908 57.1419 31.0882 57.603 31.1853L57.809 30.2067ZM56.198 29.9739C56.0194 30.0759 55.8526 30.1863 55.7325 30.3064L56.4396 31.0136C56.4635 30.9897 56.5367 30.9321 56.6941 30.8421L56.198 29.9739ZM55.7538 30.2863C54.7957 31.138 54.0631 32.4575 53.521 34.1821L54.475 34.4819C54.989 32.8465 55.6484 31.718 56.4182 31.0337L55.7538 30.2863ZM53.521 34.1821C52.9729 35.9262 52.7748 37.7545 52.9235 39.6628L53.9205 39.5852C53.7812 37.7975 53.9672 36.0978 54.475 34.4819L53.521 34.1821ZM52.9248 39.6763C53.1222 41.5521 53.6078 43.093 54.4143 44.2637L55.2378 43.6963C54.5563 42.707 54.1058 41.3439 53.9193 39.5717L52.9248 39.6763ZM54.4143 44.2637C55.2297 45.4474 56.3111 46.1489 57.6453 46.3123L57.7668 45.3197C56.749 45.1951 55.9103 44.6726 55.2378 43.6963L54.4143 44.2637Z" fill="#C36906"/>
</g>
<defs>
<filter id="filter0_d" x="9.78906" y="24.1277" width="58.0669" height="29.5531" filterUnits="userSpaceOnUse" color-interpolation-filters="sRGB">
<feFlood flood-opacity="0" result="BackgroundImageFix"/>
<feColorMatrix in="SourceAlpha" type="matrix" values="0 0 0 0 0 0 0 0 0 0 0 0 0 0 0 0 0 0 127 0"/>
<feOffset dy="2"/>
<feColorMatrix type="matrix" values="0 0 0 0 0.764706 0 0 0 0 0.411765 0 0 0 0 0.0235294 0 0 0 1 0"/>
<feBlend mode="normal" in2="BackgroundImageFix" result="effect1_dropShadow"/>
<feBlend mode="normal" in="SourceGraphic" in2="effect1_dropShadow" result="shape"/>
</filter>
<linearGradient id="paint0_linear" x1="89.6667" y1="-0.529164" x2="24.3288" y2="45.0961" gradientUnits="userSpaceOnUse">
<stop stop-color="#FBB700"/>
<stop offset="1" stop-color="#FECE00"/>
</linearGradient>
</defs>
</svg>
