<svg width="89" height="90" viewBox="0 0 89 90" fill="none" xmlns="http://www.w3.org/2000/svg">
<ellipse cx="45" cy="50" rx="44" ry="40" fill="#914314"/>
<ellipse cx="44.5" cy="46" rx="44.5" ry="40" fill="#BF5A04"/>
<ellipse cx="44" cy="40.5" rx="37" ry="33.5" fill="#D36601"/>
<ellipse cx="44" cy="43.5" rx="37" ry="33.5" fill="#F8A500"/>
<path d="M83.858 59.6108C87.0743 53.193 88.3907 46.042 87.9005 38.953C87.4103 31.8639 85.0152 25.0112 80.9427 19.0457C76.8702 13.0801 71.2554 8.19967 64.6316 4.86783C58.0078 1.53599 50.5948 -0.136658 43.0966 0.00873026C35.5984 0.154119 28.2639 2.11271 21.7895 5.69853C15.3152 9.28434 9.91599 14.3783 6.10461 20.4968C2.29322 26.6152 0.196187 33.555 0.0126488 40.6571C-0.17089 47.7592 1.64805 54.7122 5.13882 61L9.65135 55.1905C7.77116 50.5176 6.74932 46.8062 6.90411 40.8169C7.05889 34.8275 8.82736 28.9751 12.0416 23.8153C15.2558 18.6555 19.8091 14.3596 25.269 11.3356C30.7289 8.31164 36.9143 6.65991 43.2377 6.5373C49.5611 6.41469 55.8126 7.82527 61.3986 10.6351C66.9846 13.4449 71.7196 17.5607 75.1541 22.5915C78.5885 27.6224 80.6083 33.4014 81.0217 39.3798C81.6018 45.4658 81.3511 46.6025 79.3455 53.8012L83.858 59.6108Z" fill="#F6B501"/>
<path d="M6 60.2457C6 60.3729 13.2312 71.503 20.6698 76.1762C28.1084 80.8495 36.8531 83.2245 45.7333 82.9833C54.6134 82.7421 63.205 79.8962 70.3578 74.8267C77.5106 69.7571 83.5032 60.7542 84 58.8475L79.5287 53C78.4108 56.1779 72.339 65.2594 66.3069 69.5347C60.2748 73.8099 53.0293 76.2099 45.5405 76.4133C38.0517 76.6167 30.6771 74.6138 24.404 70.6728C18.1309 66.7318 13.2902 61.0774 10.4713 54.3983C10.4713 54.3983 6 60.1186 6 60.2457Z" fill="#EE900D"/>
<g filter="url(#filter0_d)">
<path d="M37.06 53.696C37.036 54.392 36.772 54.98 36.268 55.46C35.764 55.94 35.164 56.168 34.468 56.144C33.772 56.12 33.184 55.856 32.704 55.352C32.224 54.848 31.996 54.248 32.02 53.552C32.092 51.248 32.092 46.544 32.02 39.44L30.22 40.628C29.644 41.012 29.008 41.144 28.312 41.024C27.64 40.88 27.112 40.52 26.728 39.944C26.344 39.368 26.212 38.744 26.332 38.072C26.476 37.376 26.836 36.836 27.412 36.452L28.528 35.732C28.936 35.468 29.2 35.3 29.32 35.228C29.44 35.132 29.608 35 29.824 34.832C30.04 34.64 30.22 34.448 30.364 34.256L30.904 33.5C31.048 33.356 31.12 33.068 31.12 32.636C31.288 32.012 31.516 31.508 31.804 31.124C32.5 30.212 33.412 29.792 34.54 29.864C35.428 29.936 36.1 30.356 36.556 31.124C36.652 31.316 36.736 31.52 36.808 31.736C36.832 31.856 36.856 32 36.88 32.168C36.904 32.336 36.928 32.528 36.952 32.744C36.976 33.104 36.988 33.608 36.988 34.256C37.012 35.192 37.036 36.548 37.06 38.324C37.108 46.964 37.108 52.088 37.06 53.696ZM50.7003 56.108C49.2843 55.916 48.0243 55.472 46.9203 54.776C45.8163 54.056 44.9283 53.168 44.2563 52.112C43.5843 51.056 43.0443 49.94 42.6363 48.764C42.2523 47.588 42.0003 46.376 41.8803 45.128C41.6643 42.584 41.9403 40.052 42.7083 37.532C43.4763 35.036 44.6883 33.044 46.3443 31.556C46.8243 31.148 47.4723 30.764 48.2883 30.404C48.3363 30.404 48.5043 30.344 48.7923 30.224C49.0803 30.104 49.3083 29.996 49.4763 29.9C50.0043 29.636 50.5323 29.564 51.0603 29.684C51.5883 29.78 52.0563 30.032 52.4643 30.44C52.8483 30.488 53.1243 30.524 53.2923 30.548C54.6123 30.788 55.7043 31.136 56.5683 31.592C58.4163 32.672 59.6763 34.868 60.3483 38.18C60.7563 40.124 60.9483 42.188 60.9243 44.372C60.8763 47.42 60.1203 50.06 58.6563 52.292C57.7923 53.612 56.6763 54.62 55.3083 55.316C53.9643 56.06 52.4283 56.324 50.7003 56.108ZM51.2763 50.816C52.5723 50.96 53.6283 50.444 54.4443 49.268C55.2843 47.924 55.7163 46.268 55.7403 44.3C55.7643 42.524 55.6203 40.856 55.3083 39.296C55.1883 38.672 55.0323 38.132 54.8403 37.676C54.6723 37.196 54.5163 36.86 54.3723 36.668C54.2523 36.452 54.1443 36.32 54.0483 36.272C53.7363 36.104 53.2323 35.96 52.5363 35.84C52.4163 35.84 52.2843 35.828 52.1403 35.804C51.9963 35.78 51.8403 35.756 51.6723 35.732C51.5043 35.708 51.3723 35.696 51.2763 35.696C50.8203 35.6 50.4003 35.504 50.0163 35.408C49.8483 35.504 49.7283 35.588 49.6563 35.66C48.7923 36.428 48.0963 37.652 47.5683 39.332C47.0403 41.012 46.8483 42.776 46.9923 44.624C47.1843 46.448 47.6523 47.9 48.3963 48.98C49.1403 50.06 50.1003 50.672 51.2763 50.816Z" fill="url(#paint0_linear)"/>
<path d="M37.06 53.696L37.5597 53.7132L37.5598 53.7109L37.06 53.696ZM36.268 55.46L35.9232 55.0979L36.268 55.46ZM34.468 56.144L34.4508 56.6437L34.468 56.144ZM32.704 55.352L33.0661 55.0072L32.704 55.352ZM32.02 53.552L32.5197 53.5692L32.5198 53.5676L32.02 53.552ZM32.02 39.44L32.52 39.4349L32.5107 38.5171L31.7446 39.0227L32.02 39.44ZM30.22 40.628L29.9446 40.2107L29.9427 40.212L30.22 40.628ZM28.312 41.024L28.2072 41.5129L28.2171 41.515L28.227 41.5167L28.312 41.024ZM26.728 39.944L26.312 40.2213H26.312L26.728 39.944ZM26.332 38.072L25.8422 37.9707L25.8398 37.9841L26.332 38.072ZM27.412 36.452L27.1409 36.0318L27.1346 36.036L27.412 36.452ZM28.528 35.732L28.7991 36.1521L28.7996 36.1518L28.528 35.732ZM29.32 35.228L29.5772 35.6567L29.6061 35.6394L29.6323 35.6184L29.32 35.228ZM29.824 34.832L30.131 35.2267L30.1439 35.2166L30.1562 35.2057L29.824 34.832ZM30.364 34.256L30.7641 34.5561L30.7709 34.5466L30.364 34.256ZM30.904 33.5L30.5504 33.1464L30.5212 33.1757L30.4971 33.2094L30.904 33.5ZM31.12 32.636L30.6372 32.506L30.62 32.5699V32.636H31.12ZM31.804 31.124L31.4065 30.8207L31.404 30.824L31.804 31.124ZM34.54 29.864L34.5804 29.3656L34.5719 29.365L34.54 29.864ZM36.556 31.124L37.0032 30.9004L36.9951 30.8842L36.9859 30.8687L36.556 31.124ZM36.808 31.736L37.2983 31.6379L37.2922 31.6074L37.2823 31.5779L36.808 31.736ZM36.88 32.168L36.385 32.2387V32.2387L36.88 32.168ZM36.952 32.744L37.4509 32.7107L37.4502 32.6997L37.4489 32.6888L36.952 32.744ZM36.988 34.256H36.4878L36.4882 34.2688L36.988 34.256ZM37.06 38.324L37.56 38.3212L37.56 38.3172L37.06 38.324ZM36.5603 53.6788C36.5408 54.2441 36.3323 54.7082 35.9232 55.0979L36.6128 55.8221C37.2117 55.2518 37.5312 54.5399 37.5597 53.7132L36.5603 53.6788ZM35.9232 55.0979C35.5165 55.4852 35.047 55.6637 34.4852 55.6443L34.4508 56.6437C35.281 56.6723 36.0115 56.3948 36.6128 55.8221L35.9232 55.0979ZM34.4852 55.6443C33.9199 55.6248 33.4558 55.4163 33.0661 55.0072L32.3419 55.6968C32.9122 56.2957 33.6241 56.6152 34.4508 56.6437L34.4852 55.6443ZM33.0661 55.0072C32.6788 54.6005 32.5003 54.131 32.5197 53.5692L31.5203 53.5348C31.4917 54.365 31.7692 55.0955 32.3419 55.6968L33.0661 55.0072ZM32.5198 53.5676C32.5921 51.2515 32.592 46.537 32.52 39.4349L31.52 39.4451C31.592 46.551 31.5919 51.2445 31.5202 53.5364L32.5198 53.5676ZM31.7446 39.0227L29.9446 40.2107L30.4954 41.0453L32.2954 39.8573L31.7446 39.0227ZM29.9427 40.212C29.4755 40.5234 28.9697 40.63 28.397 40.5313L28.227 41.5167C29.0463 41.658 29.8125 41.5006 30.4974 41.044L29.9427 40.212ZM28.4168 40.5351C27.8731 40.4186 27.4564 40.1352 27.144 39.6666L26.312 40.2213C26.7676 40.9048 27.4069 41.3414 28.2072 41.5129L28.4168 40.5351ZM27.144 39.6666C26.8305 39.1963 26.7273 38.7029 26.8242 38.1599L25.8398 37.9841C25.6967 38.7851 25.8575 39.5397 26.312 40.2213L27.144 39.6666ZM26.8216 38.1733C26.9398 37.6022 27.226 37.177 27.6894 36.868L27.1346 36.036C26.446 36.495 26.0122 37.1498 25.8424 37.9707L26.8216 38.1733ZM27.6831 36.8721L28.7991 36.1521L28.2569 35.3119L27.1409 36.0318L27.6831 36.8721ZM28.7996 36.1518C29.2096 35.8865 29.466 35.7235 29.5772 35.6567L29.0628 34.7993C28.934 34.8765 28.6624 35.0495 28.2564 35.3122L28.7996 36.1518ZM29.6323 35.6184C29.7497 35.5245 29.9156 35.3942 30.131 35.2267L29.517 34.4373C29.3004 34.6058 29.1303 34.7394 29.0077 34.8376L29.6323 35.6184ZM30.1562 35.2057C30.3923 34.9958 30.5963 34.7795 30.764 34.556L29.964 33.956C29.8437 34.1165 29.6877 34.2842 29.4918 34.4583L30.1562 35.2057ZM30.7709 34.5466L31.3109 33.7906L30.4971 33.2094L29.9571 33.9654L30.7709 34.5466ZM31.2576 33.8536C31.4165 33.6946 31.5025 33.4914 31.5511 33.2973C31.6004 33.1001 31.62 32.8761 31.62 32.636H30.62C30.62 32.8279 30.6036 32.9639 30.5809 33.0547C30.5575 33.1486 30.5355 33.1614 30.5504 33.1464L31.2576 33.8536ZM31.6028 32.766C31.7597 32.1834 31.9649 31.7428 32.204 31.424L31.404 30.824C31.0671 31.2732 30.8163 31.8406 30.6372 32.506L31.6028 32.766ZM32.2015 31.4273C32.7979 30.6458 33.55 30.3018 34.5082 30.363L34.5719 29.365C33.274 29.2822 32.2021 29.7782 31.4065 30.8207L32.2015 31.4273ZM34.4996 30.3624C35.2255 30.4212 35.7526 30.7502 36.1261 31.3793L36.9859 30.8687C36.4474 29.9618 35.6305 29.4508 34.5804 29.3656L34.4996 30.3624ZM36.1088 31.3476C36.1936 31.5172 36.2687 31.6992 36.3337 31.8941L37.2823 31.5779C37.2033 31.3408 37.1104 31.1148 37.0032 30.9004L36.1088 31.3476ZM36.3177 31.8341C36.3394 31.9423 36.3619 32.0767 36.385 32.2387L37.375 32.0973C37.3501 31.9233 37.3246 31.7697 37.2983 31.6379L36.3177 31.8341ZM36.385 32.2387C36.4081 32.4004 36.4315 32.587 36.4551 32.7992L37.4489 32.6888C37.4245 32.469 37.3999 32.2716 37.375 32.0973L36.385 32.2387ZM36.4531 32.7773C36.476 33.1208 36.488 33.6119 36.488 34.256H37.488C37.488 33.6041 37.476 33.0872 37.4509 32.7107L36.4531 32.7773ZM36.4882 34.2688C36.5121 35.2017 36.5361 36.5553 36.56 38.3308L37.56 38.3172C37.5359 36.5407 37.5119 35.1823 37.4878 34.2432L36.4882 34.2688ZM36.56 38.3268C36.608 46.9718 36.6079 52.0843 36.5602 53.6811L37.5598 53.7109C37.6081 52.0917 37.608 46.9562 37.56 38.3212L36.56 38.3268ZM50.7003 56.108L50.6332 56.6035L50.6383 56.6041L50.7003 56.108ZM46.9203 54.776L46.6472 55.1949L46.6537 55.199L46.9203 54.776ZM44.2563 52.112L44.6782 51.8436L44.2563 52.112ZM42.6363 48.764L42.161 48.9192L42.164 48.9279L42.6363 48.764ZM41.8803 45.128L41.3821 45.1703L41.3826 45.1759L41.8803 45.128ZM42.7083 37.532L42.2305 37.385L42.2301 37.3862L42.7083 37.532ZM46.3443 31.556L46.0204 31.1749L46.0102 31.1841L46.3443 31.556ZM48.2883 30.404V29.904H48.183L48.0865 29.9465L48.2883 30.404ZM49.4763 29.9L49.2527 29.4528L49.2403 29.459L49.2283 29.4659L49.4763 29.9ZM51.0603 29.684L50.9495 30.1716L50.9602 30.174L50.9709 30.1759L51.0603 29.684ZM52.4643 30.44L52.1108 30.7936L52.2321 30.9149L52.4023 30.9361L52.4643 30.44ZM53.2923 30.548L53.3818 30.0561L53.3724 30.0544L53.3631 30.053L53.2923 30.548ZM56.5683 31.592L56.8206 31.1603L56.8113 31.1549L56.8017 31.1498L56.5683 31.592ZM60.3483 38.18L59.8583 38.2794L59.859 38.2827L60.3483 38.18ZM60.9243 44.372L61.4243 44.3799L61.4243 44.3775L60.9243 44.372ZM58.6563 52.292L58.2383 52.0178L58.238 52.0182L58.6563 52.292ZM55.3083 55.316L55.0816 54.8704L55.0738 54.8743L55.0662 54.8786L55.3083 55.316ZM51.2763 50.816L51.2156 51.3123L51.2211 51.3129L51.2763 50.816ZM54.4443 49.268L54.8551 49.553L54.862 49.5432L54.8683 49.533L54.4443 49.268ZM55.7403 44.3L55.2404 44.2932L55.2404 44.2939L55.7403 44.3ZM55.3083 39.296L54.8173 39.3904L54.8181 39.3941L55.3083 39.296ZM54.8403 37.676L54.3684 37.8412L54.3735 37.8558L54.3795 37.87L54.8403 37.676ZM54.3723 36.668L53.9353 36.9108L53.9519 36.9407L53.9723 36.968L54.3723 36.668ZM54.0483 36.272L53.8113 36.7122L53.818 36.7158L53.8247 36.7192L54.0483 36.272ZM52.5363 35.84L52.6213 35.3473L52.5791 35.34H52.5363V35.84ZM52.1403 35.804L52.2225 35.3108H52.2225L52.1403 35.804ZM51.2763 35.696L51.1733 36.1853L51.2243 36.196H51.2763V35.696ZM50.0163 35.408L50.1376 34.9229L49.9427 34.8742L49.7683 34.9739L50.0163 35.408ZM49.6563 35.66L49.9885 36.0337L49.9995 36.0239L50.0099 36.0136L49.6563 35.66ZM46.9923 44.624L46.4937 44.6629L46.4951 44.6763L46.9923 44.624ZM50.7675 55.6125C49.4156 55.4292 48.2249 55.0074 47.187 54.353L46.6537 55.199C47.8238 55.9366 49.1531 56.4028 50.6332 56.6035L50.7675 55.6125ZM47.1935 54.3572C46.146 53.674 45.3099 52.8362 44.6782 51.8436L43.8345 52.3804C44.5468 53.4998 45.4867 54.438 46.6472 55.1948L47.1935 54.3572ZM44.6782 51.8436C44.0269 50.8201 43.5039 49.7392 43.1087 48.6001L42.164 48.9279C42.5848 50.1408 43.1418 51.2919 43.8345 52.3804L44.6782 51.8436ZM43.1116 48.6088C42.7392 47.4681 42.4946 46.2921 42.378 45.0801L41.3826 45.1759C41.5061 46.4599 41.7655 47.7079 42.161 48.9192L43.1116 48.6088ZM42.3786 45.0857C42.1681 42.6071 42.4366 40.1389 43.1866 37.6778L42.2301 37.3862C41.4441 39.9651 41.1606 42.5609 41.3821 45.1703L42.3786 45.0857ZM43.1862 37.679C43.9323 35.2545 45.1008 33.3456 46.6785 31.9279L46.0102 31.1841C44.2759 32.7424 43.0204 34.8175 42.2305 37.385L43.1862 37.679ZM46.6682 31.937C47.0997 31.5702 47.7016 31.2094 48.4902 30.8615L48.0865 29.9465C47.2431 30.3186 46.549 30.7258 46.0205 31.175L46.6682 31.937ZM48.2883 30.904C48.3749 30.904 48.4525 30.8823 48.4807 30.8745C48.5239 30.8625 48.571 30.8469 48.6185 30.8299C48.7145 30.7956 48.8376 30.7468 48.9847 30.6855L48.6 29.7625C48.4591 29.8212 48.3542 29.8624 48.2822 29.8881C48.2457 29.9011 48.2238 29.908 48.213 29.911C48.2077 29.9125 48.2099 29.9117 48.2175 29.9102C48.2216 29.9094 48.2489 29.904 48.2883 29.904V30.904ZM48.9847 30.6855C49.2817 30.5618 49.5309 30.4447 49.7244 30.3341L49.2283 29.4659C49.0857 29.5473 48.879 29.6462 48.6 29.7625L48.9847 30.6855ZM49.7 30.3472C50.1345 30.1299 50.5447 30.0796 50.9495 30.1716L51.1712 29.1964C50.5199 29.0484 49.8742 29.1421 49.2527 29.4528L49.7 30.3472ZM50.9709 30.1759C51.3912 30.2524 51.769 30.4518 52.1108 30.7936L52.8179 30.0864C52.3437 29.6122 51.7855 29.3076 51.1498 29.1921L50.9709 30.1759ZM52.4023 30.9361C52.7861 30.9841 53.0583 31.0196 53.2216 31.043L53.3631 30.053C53.1903 30.0284 52.9106 29.9919 52.5264 29.9439L52.4023 30.9361ZM53.2029 31.0399C54.49 31.274 55.5294 31.6091 56.335 32.0342L56.8017 31.1498C55.8792 30.6629 54.7347 30.302 53.3818 30.0561L53.2029 31.0399ZM56.3161 32.0237C57.9851 32.9991 59.1985 35.0274 59.8583 38.2794L60.8384 38.0806C60.1542 34.7086 58.8476 32.3449 56.8206 31.1603L56.3161 32.0237ZM59.859 38.2827C60.2588 40.1878 60.448 42.2153 60.4244 44.3665L61.4243 44.3775C61.4487 42.1607 61.2538 40.0602 60.8377 38.0773L59.859 38.2827ZM60.4244 44.3641C60.3777 47.3312 59.6432 49.8758 58.2383 52.0178L59.0744 52.5662C60.5975 50.2442 61.375 47.5088 61.4243 44.3799L60.4244 44.3641ZM58.238 52.0182C57.4204 53.2673 56.3696 54.2151 55.0816 54.8704L55.5351 55.7616C56.9831 55.0249 58.1643 53.9567 59.0747 52.5658L58.238 52.0182ZM55.0662 54.8786C53.8269 55.5646 52.4 55.8166 50.7624 55.6119L50.6383 56.6041C52.4567 56.8314 54.1018 56.5554 55.5505 55.7534L55.0662 54.8786ZM51.2211 51.3129C51.9527 51.3942 52.6375 51.2903 53.2599 50.9862C53.8797 50.6834 54.409 50.196 54.8551 49.553L54.0336 48.983C53.6637 49.516 53.257 49.8746 52.8208 50.0878C52.3872 50.2997 51.896 50.3818 51.3316 50.3191L51.2211 51.3129ZM54.8683 49.533C55.7674 48.0945 56.2155 46.3437 56.2403 44.3061L55.2404 44.2939C55.2172 46.1923 54.8013 47.7535 54.0203 49.003L54.8683 49.533ZM56.2403 44.3068C56.2647 42.4996 56.1183 40.7962 55.7986 39.1979L54.8181 39.3941C55.1224 40.9158 55.264 42.5484 55.2404 44.2932L56.2403 44.3068ZM55.7993 39.2016C55.6745 38.5525 55.5098 37.9776 55.3012 37.482L54.3795 37.87C54.5548 38.2864 54.7022 38.7915 54.8173 39.3904L55.7993 39.2016ZM55.3123 37.5108C55.1419 37.0241 54.9655 36.6255 54.7723 36.368L53.9723 36.968C54.0672 37.0945 54.2028 37.3679 54.3684 37.8412L55.3123 37.5108ZM54.8094 36.4252C54.7408 36.3016 54.6675 36.1872 54.5883 36.0904C54.5131 35.9984 54.4093 35.8934 54.272 35.8248L53.8247 36.7192C53.8013 36.7075 53.7905 36.6976 53.7918 36.6987C53.7927 36.6995 53.8004 36.7065 53.8144 36.7236C53.8432 36.7588 53.8839 36.8184 53.9353 36.9108L54.8094 36.4252ZM54.2854 35.8318C53.8991 35.6237 53.3286 35.4692 52.6213 35.3473L52.4514 36.3327C53.1361 36.4508 53.5736 36.5843 53.8113 36.7122L54.2854 35.8318ZM52.5363 35.34C52.449 35.34 52.345 35.3312 52.2225 35.3108L52.0581 36.2972C52.2237 36.3248 52.3837 36.34 52.5363 36.34V35.34ZM52.2225 35.3108C52.0742 35.2861 51.9143 35.2615 51.7431 35.237L51.6016 36.227C51.7664 36.2505 51.9185 36.2739 52.0581 36.2972L52.2225 35.3108ZM51.7431 35.237C51.5665 35.2118 51.4074 35.196 51.2763 35.196V36.196C51.3373 36.196 51.4422 36.2042 51.6016 36.227L51.7431 35.237ZM51.3794 35.2067C50.9284 35.1118 50.5146 35.0172 50.1376 34.9229L49.8951 35.8931C50.2861 35.9908 50.7123 36.0882 51.1733 36.1853L51.3794 35.2067ZM49.7683 34.9739C49.5897 35.0759 49.4229 35.1863 49.3028 35.3064L50.0099 36.0136C50.0338 35.9897 50.107 35.9321 50.2644 35.8421L49.7683 34.9739ZM49.3242 35.2863C48.366 36.138 47.6334 37.4575 47.0913 39.1821L48.0453 39.4819C48.5593 37.8465 49.2187 36.718 49.9885 36.0337L49.3242 35.2863ZM47.0913 39.1821C46.5432 40.9262 46.3452 42.7545 46.4939 44.6628L47.4908 44.5852C47.3515 42.7975 47.5375 41.0978 48.0453 39.4819L47.0913 39.1821ZM46.4951 44.6763C46.6925 46.5521 47.1781 48.093 47.9846 49.2637L48.8081 48.6963C48.1266 47.707 47.6762 46.3439 47.4896 44.5717L46.4951 44.6763ZM47.9846 49.2637C48.8001 50.4474 49.8814 51.1489 51.2156 51.3123L51.3371 50.3197C50.3193 50.1951 49.4806 49.6726 48.8081 48.6963L47.9846 49.2637Z" fill="#C36906"/>
</g>
<defs>
<filter id="filter0_d" x="25.7891" y="29.1277" width="35.6372" height="29.5531" filterUnits="userSpaceOnUse" color-interpolation-filters="sRGB">
<feFlood flood-opacity="0" result="BackgroundImageFix"/>
<feColorMatrix in="SourceAlpha" type="matrix" values="0 0 0 0 0 0 0 0 0 0 0 0 0 0 0 0 0 0 127 0"/>
<feOffset dy="2"/>
<feColorMatrix type="matrix" values="0 0 0 0 0.764706 0 0 0 0 0.411765 0 0 0 0 0.0235294 0 0 0 1 0"/>
<feBlend mode="normal" in2="BackgroundImageFix" result="effect1_dropShadow"/>
<feBlend mode="normal" in="SourceGraphic" in2="effect1_dropShadow" result="shape"/>
</filter>
<linearGradient id="paint0_linear" x1="75.2514" y1="4.47084" x2="24.3364" y2="26.6191" gradientUnits="userSpaceOnUse">
<stop stop-color="#FBB700"/>
<stop offset="1" stop-color="#FECE00"/>
</linearGradient>
</defs>
</svg>
