<svg width="121" height="122" viewBox="0 0 121 122" fill="none" xmlns="http://www.w3.org/2000/svg">
<ellipse cx="61" cy="67.5" rx="60" ry="54.5" fill="#914314"/>
<ellipse cx="60.5" cy="62.5" rx="60.5" ry="54.5" fill="#BF5A04"/>
<ellipse cx="60" cy="55.5" rx="51" ry="46.5" fill="#D36601"/>
<ellipse cx="60" cy="58.5" rx="51" ry="45.5" fill="#F8A500"/>
<path d="M114.352 81.1097C118.738 72.3773 120.533 62.6473 119.864 53.0016C119.196 43.3558 115.93 34.0317 110.376 25.9146C104.823 17.7975 97.1665 11.1569 88.134 6.62344C79.1015 2.08995 68.9929 -0.185945 58.7681 0.0118789C48.5433 0.209703 38.5416 2.87468 29.713 7.75373C20.8844 12.6328 13.5218 19.564 8.32446 27.889C3.12712 36.2141 0.267528 45.6568 0.0172483 55.3203C-0.233031 64.9838 2.24734 74.4445 7.00749 83L13.1609 75.0952C10.597 68.7371 9.20362 63.6872 9.41469 55.5377C9.62575 47.3883 12.0373 39.4251 16.4203 32.4044C20.8034 25.3837 27.0124 19.5385 34.4577 15.4239C41.9031 11.3093 50.3377 9.06185 58.9605 8.89502C67.5833 8.72819 76.1081 10.6475 83.7254 14.4707C91.3426 18.2939 97.7995 23.894 102.483 30.7393C107.166 37.5846 109.92 45.4478 110.484 53.5823C111.275 61.8634 110.933 63.4099 108.198 73.205L114.352 81.1097Z" fill="#F6B501"/>
<path d="M7 82.661C7 82.8305 17.0124 97.6706 27.312 103.902C37.6116 110.133 49.7197 113.299 62.0153 112.978C74.3109 112.656 86.207 108.862 96.1108 102.102C106.015 95.3428 114.312 83.339 115 80.7966L108.809 73C107.261 77.2373 98.854 89.3459 90.5019 95.0462C82.1498 100.747 72.1176 103.947 61.7484 104.218C51.3793 104.489 41.1683 101.818 32.4824 96.5637C23.7966 91.309 17.0941 83.7699 13.1911 74.8644C13.1911 74.8644 7 82.4915 7 82.661Z" fill="#EE900D"/>
<g filter="url(#filter0_d)">
<path d="M48.836 72.036C46.988 72.108 45.476 71.94 44.3 71.532C43.988 71.412 43.652 71.256 43.292 71.064L40.916 69.876C40.316 69.564 39.908 69.084 39.692 68.436C39.5 67.788 39.548 67.164 39.836 66.564C40.148 65.964 40.628 65.568 41.276 65.376C41.924 65.16 42.548 65.196 43.148 65.484L44.372 66.168C44.804 66.384 45.116 66.54 45.308 66.636C45.524 66.732 45.74 66.816 45.956 66.888C46.532 67.104 47.42 67.188 48.62 67.14C49.124 67.116 49.652 66.96 50.204 66.672C51.428 66.024 52.148 65.268 52.364 64.404C52.556 63.66 52.4 62.868 51.896 62.028C51.32 61.044 50.492 60.288 49.412 59.76C48.356 59.232 47.312 59.076 46.28 59.292C46.184 59.292 46.016 59.364 45.776 59.508C44.96 59.988 44.528 60.24 44.48 60.264C44.192 60.408 43.88 60.492 43.544 60.516C43.256 60.588 42.956 60.612 42.644 60.588C41.972 60.492 41.42 60.18 40.988 59.652C40.58 59.124 40.412 58.524 40.484 57.852C40.82 55.164 41.168 52.176 41.528 48.888C41.576 48.552 41.696 48.24 41.888 47.952C42.032 47.424 42.32 47.004 42.752 46.692C43.184 46.356 43.676 46.188 44.228 46.188C46.58 46.164 49.976 46.152 54.416 46.152C55.112 46.152 55.7 46.404 56.18 46.908C56.684 47.388 56.936 47.976 56.936 48.672C56.936 49.368 56.684 49.968 56.18 50.472C55.7 50.952 55.112 51.192 54.416 51.192H46.136C45.944 53.112 45.836 54.18 45.812 54.396C47.9 54.084 49.88 54.444 51.752 55.476C53.648 56.484 55.1 57.84 56.108 59.544C57.284 61.56 57.62 63.588 57.116 65.628C56.54 67.884 55.004 69.672 52.508 70.992C51.284 71.64 50.06 71.988 48.836 72.036ZM69.3253 72.108C67.9093 71.916 66.6493 71.472 65.5453 70.776C64.4413 70.056 63.5533 69.168 62.8813 68.112C62.2093 67.056 61.6693 65.94 61.2613 64.764C60.8773 63.588 60.6253 62.376 60.5053 61.128C60.2893 58.584 60.5653 56.052 61.3333 53.532C62.1013 51.036 63.3133 49.044 64.9693 47.556C65.4493 47.148 66.0973 46.764 66.9133 46.404C66.9613 46.404 67.1293 46.344 67.4173 46.224C67.7053 46.104 67.9333 45.996 68.1013 45.9C68.6293 45.636 69.1573 45.564 69.6853 45.684C70.2133 45.78 70.6813 46.032 71.0893 46.44C71.4733 46.488 71.7493 46.524 71.9173 46.548C73.2373 46.788 74.3293 47.136 75.1933 47.592C77.0413 48.672 78.3013 50.868 78.9733 54.18C79.3813 56.124 79.5733 58.188 79.5493 60.372C79.5013 63.42 78.7453 66.06 77.2813 68.292C76.4173 69.612 75.3013 70.62 73.9333 71.316C72.5893 72.06 71.0533 72.324 69.3253 72.108ZM69.9013 66.816C71.1973 66.96 72.2533 66.444 73.0693 65.268C73.9093 63.924 74.3413 62.268 74.3653 60.3C74.3893 58.524 74.2453 56.856 73.9333 55.296C73.8133 54.672 73.6573 54.132 73.4653 53.676C73.2973 53.196 73.1413 52.86 72.9973 52.668C72.8773 52.452 72.7693 52.32 72.6733 52.272C72.3613 52.104 71.8573 51.96 71.1613 51.84C71.0413 51.84 70.9093 51.828 70.7653 51.804C70.6213 51.78 70.4653 51.756 70.2973 51.732C70.1293 51.708 69.9973 51.696 69.9013 51.696C69.4453 51.6 69.0253 51.504 68.6413 51.408C68.4733 51.504 68.3533 51.588 68.2813 51.66C67.4173 52.428 66.7213 53.652 66.1933 55.332C65.6653 57.012 65.4733 58.776 65.6173 60.624C65.8093 62.448 66.2773 63.9 67.0213 64.98C67.7653 66.06 68.7253 66.672 69.9013 66.816Z" fill="url(#paint0_linear)"/>
<path d="M48.836 72.036L48.8555 72.5356L48.8556 72.5356L48.836 72.036ZM44.3 71.532L44.1205 71.9987L44.1283 72.0017L44.1361 72.0044L44.3 71.532ZM43.292 71.064L43.5274 70.6227L43.5156 70.6168L43.292 71.064ZM40.916 69.876L40.6853 70.3197L40.6924 70.3232L40.916 69.876ZM39.692 68.436L39.2126 68.578L39.215 68.5861L39.2177 68.5941L39.692 68.436ZM39.836 66.564L39.3924 66.3333L39.3887 66.3404L39.3852 66.3476L39.836 66.564ZM41.276 65.376L41.418 65.8554L41.4261 65.853L41.4341 65.8503L41.276 65.376ZM43.148 65.484L43.3919 65.0475L43.3784 65.04L43.3644 65.0332L43.148 65.484ZM44.372 66.168L44.1281 66.6045L44.1381 66.6101L44.1484 66.6152L44.372 66.168ZM45.308 66.636L45.0844 67.0832L45.0946 67.0883L45.1049 67.0929L45.308 66.636ZM45.956 66.888L46.1316 66.4198L46.1229 66.4166L46.1141 66.4137L45.956 66.888ZM48.62 67.14L48.64 67.6396L48.6438 67.6394L48.62 67.14ZM50.204 66.672L50.4353 67.1153L50.4379 67.1139L50.204 66.672ZM52.364 64.404L51.8798 64.2791L51.8789 64.2827L52.364 64.404ZM51.896 62.028L51.4645 62.2806L51.4673 62.2852L51.896 62.028ZM49.412 59.76L49.1884 60.2072L49.1924 60.2092L49.412 59.76ZM46.28 59.292V59.792H46.3318L46.3824 59.7814L46.28 59.292ZM45.776 59.508L46.0295 59.939L46.0332 59.9367L45.776 59.508ZM44.48 60.264L44.7036 60.7112L44.7036 60.7112L44.48 60.264ZM43.544 60.516L43.5084 60.0173L43.465 60.0204L43.4227 60.0309L43.544 60.516ZM42.644 60.588L42.5733 61.083L42.5894 61.0853L42.6057 61.0865L42.644 60.588ZM40.988 59.652L40.5922 59.9578L40.601 59.9686L40.988 59.652ZM40.484 57.852L39.9878 57.79L39.9868 57.7987L40.484 57.852ZM41.528 48.888L41.033 48.8173L41.0319 48.8254L41.031 48.8336L41.528 48.888ZM41.888 47.952L42.304 48.2293L42.349 48.1618L42.3704 48.0836L41.888 47.952ZM42.752 46.692L43.0447 47.0973L43.052 47.0921L43.059 47.0867L42.752 46.692ZM44.228 46.188V46.688L44.2331 46.688L44.228 46.188ZM56.18 46.908L55.8179 47.2528L55.8263 47.2617L55.8352 47.2701L56.18 46.908ZM56.18 50.472L55.8264 50.1184V50.1184L56.18 50.472ZM46.136 51.192V50.692H45.6835L45.6385 51.1422L46.136 51.192ZM45.812 54.396L45.3151 54.3408L45.2433 54.9865L45.8859 54.8905L45.812 54.396ZM51.752 55.476L51.5106 55.9139L51.5173 55.9175L51.752 55.476ZM56.108 59.544L56.5399 59.2921L56.5383 59.2894L56.108 59.544ZM57.116 65.628L57.6005 65.7517L57.6014 65.7479L57.116 65.628ZM52.508 70.992L52.2743 70.55L52.2741 70.5501L52.508 70.992ZM48.8165 71.5364C47.0034 71.607 45.5597 71.4398 44.4639 71.0596L44.1361 72.0044C45.3923 72.4402 46.9726 72.609 48.8555 72.5356L48.8165 71.5364ZM44.4795 71.0653C44.1902 70.9541 43.873 70.8072 43.5273 70.6228L43.0567 71.5052C43.431 71.7048 43.7858 71.8699 44.1205 71.9987L44.4795 71.0653ZM43.5156 70.6168L41.1396 69.4288L40.6924 70.3232L43.0684 71.5112L43.5156 70.6168ZM41.1467 69.4324C40.6632 69.181 40.3417 68.8041 40.1663 68.2779L39.2177 68.5941C39.4743 69.3639 39.9688 69.947 40.6853 70.3196L41.1467 69.4324ZM40.1714 68.294C40.014 67.7628 40.0533 67.2667 40.2868 66.7804L39.3852 66.3476C39.0427 67.0613 38.986 67.8132 39.2126 68.578L40.1714 68.294ZM40.2796 66.7947C40.529 66.315 40.9002 66.0088 41.418 65.8554L41.134 64.8966C40.3558 65.1272 39.767 65.613 39.3924 66.3333L40.2796 66.7947ZM41.4341 65.8503C41.9626 65.6742 42.4521 65.7046 42.9316 65.9348L43.3644 65.0332C42.6439 64.6874 41.8854 64.6458 41.1179 64.9017L41.4341 65.8503ZM42.9041 65.9205L44.1281 66.6045L44.6159 65.7315L43.3919 65.0475L42.9041 65.9205ZM44.1484 66.6152C44.5804 66.8312 44.8924 66.9872 45.0844 67.0832L45.5316 66.1888C45.3396 66.0928 45.0276 65.9368 44.5956 65.7208L44.1484 66.6152ZM45.1049 67.0929C45.3351 67.1952 45.5661 67.2851 45.7979 67.3623L46.1141 66.4137C45.9139 66.3469 45.7129 66.2688 45.5111 66.1791L45.1049 67.0929ZM45.7804 67.3562C46.4536 67.6086 47.4247 67.6882 48.64 67.6396L48.6 66.6404C47.4153 66.6878 46.6104 66.5994 46.1316 66.4198L45.7804 67.3562ZM48.6438 67.6394C49.2351 67.6113 49.8337 67.4292 50.4353 67.1153L49.9727 66.2287C49.4703 66.4908 49.0129 66.6207 48.5962 66.6406L48.6438 67.6394ZM50.4379 67.1139C51.7184 66.436 52.5834 65.5878 52.8491 64.5253L51.8789 64.2827C51.7126 64.9482 51.1376 65.612 49.9701 66.2301L50.4379 67.1139ZM52.8481 64.5289C53.0822 63.622 52.8777 62.6924 52.3247 61.7708L51.4673 62.2852C51.9223 63.0436 52.0298 63.698 51.8799 64.2791L52.8481 64.5289ZM52.3275 61.7754C51.699 60.7017 50.795 59.8796 49.6316 59.3108L49.1924 60.2092C50.189 60.6964 50.941 61.3863 51.4645 62.2806L52.3275 61.7754ZM49.6356 59.3128C48.4916 58.7408 47.3331 58.5607 46.1776 58.8026L46.3824 59.7814C47.2909 59.5912 48.2204 59.7232 49.1884 60.2072L49.6356 59.3128ZM46.28 58.792C46.1276 58.792 45.9852 58.8435 45.885 58.8864C45.7724 58.9347 45.6491 59.001 45.5188 59.0793L46.0332 59.9367C46.1429 59.871 46.2236 59.8293 46.279 59.8056C46.3063 59.7939 46.3213 59.7892 46.3261 59.7879C46.3328 59.7861 46.3148 59.792 46.28 59.792V58.792ZM45.5225 59.077C45.1146 59.3169 44.8033 59.4996 44.5881 59.6251C44.4804 59.6879 44.3974 59.7361 44.3388 59.7698C44.272 59.8082 44.252 59.819 44.2564 59.8168L44.7036 60.7112C44.7718 60.6771 45.229 60.4099 46.0295 59.939L45.5225 59.077ZM44.2564 59.8168C44.0298 59.9301 43.782 59.9977 43.5084 60.0173L43.5796 61.0147C43.978 60.9863 44.3542 60.8859 44.7036 60.7112L44.2564 59.8168ZM43.4227 60.0309C43.1896 60.0892 42.9437 60.1096 42.6823 60.0895L42.6057 61.0865C42.9683 61.1144 43.3224 61.0868 43.6653 61.0011L43.4227 60.0309ZM42.7147 60.093C42.1674 60.0148 41.7281 59.7669 41.375 59.3354L40.601 59.9686C41.1119 60.5931 41.7766 60.9692 42.5733 61.083L42.7147 60.093ZM41.3836 59.3463C41.0557 58.9218 40.9227 58.4508 40.9812 57.9053L39.9868 57.7987C39.9013 58.5972 40.1043 59.3262 40.5924 59.9577L41.3836 59.3463ZM40.9801 57.914C41.3165 55.223 41.6648 52.2324 42.025 48.9424L41.031 48.8336C40.6712 52.1196 40.3235 55.105 39.9879 57.79L40.9801 57.914ZM42.023 48.9587C42.0602 48.6981 42.1526 48.4565 42.304 48.2293L41.472 47.6746C41.2394 48.0235 41.0918 48.4059 41.033 48.8173L42.023 48.9587ZM42.3704 48.0836C42.4852 47.6626 42.7081 47.3405 43.0447 47.0973L42.4593 46.2867C41.9319 46.6675 41.5788 47.1854 41.4056 47.8204L42.3704 48.0836ZM43.059 47.0867C43.4024 46.8196 43.7861 46.688 44.228 46.688V45.688C43.5659 45.688 42.9656 45.8924 42.445 46.2973L43.059 47.0867ZM44.2331 46.688C46.5825 46.664 49.9765 46.652 54.416 46.652V45.652C49.9755 45.652 46.5775 45.664 44.2229 45.688L44.2331 46.688ZM54.416 46.652C54.9752 46.652 55.4323 46.8479 55.8179 47.2528L56.5421 46.5632C55.9677 45.9601 55.2488 45.652 54.416 45.652V46.652ZM55.8352 47.2701C56.2401 47.6557 56.436 48.1128 56.436 48.672H57.436C57.436 47.8392 57.1279 47.1203 56.5248 46.5459L55.8352 47.2701ZM56.436 48.672C56.436 49.2319 56.2392 49.7057 55.8264 50.1184L56.5336 50.8256C57.1288 50.2303 57.436 49.5041 57.436 48.672H56.436ZM55.8264 50.1184C55.4428 50.5021 54.9832 50.692 54.416 50.692V51.692C55.2409 51.692 55.9572 51.4019 56.5336 50.8256L55.8264 50.1184ZM54.416 50.692H46.136V51.692H54.416V50.692ZM45.6385 51.1422C45.4463 53.0645 45.3387 54.1283 45.3151 54.3408L46.3089 54.4512C46.3333 54.2316 46.4417 53.1595 46.6335 51.2418L45.6385 51.1422ZM45.8859 54.8905C47.864 54.5949 49.7333 54.9341 51.5106 55.9139L51.9934 55.0381C50.0267 53.9539 47.936 53.5731 45.7381 53.9015L45.8859 54.8905ZM51.5173 55.9175C53.3393 56.8861 54.7204 58.1803 55.6777 59.7986L56.5383 59.2894C55.4796 57.4997 53.9567 56.0819 51.9867 55.0345L51.5173 55.9175ZM55.6761 59.7959C56.7945 61.7132 57.0998 63.6087 56.6306 65.5081L57.6014 65.7479C58.1402 63.5673 57.7735 61.4068 56.5399 59.2921L55.6761 59.7959ZM56.6315 65.5043C56.0978 67.595 54.6743 69.2808 52.2743 70.55L52.7417 71.434C55.3337 70.0632 56.9822 68.173 57.6005 65.7517L56.6315 65.5043ZM52.2741 70.5501C51.1076 71.1676 49.9563 71.4917 48.8164 71.5364L48.8556 72.5356C50.1637 72.4843 51.4604 72.1124 52.7419 71.4339L52.2741 70.5501ZM69.3253 72.108L69.2582 72.6035L69.2633 72.6041L69.3253 72.108ZM65.5453 70.776L65.2722 71.1949L65.2787 71.199L65.5453 70.776ZM62.8813 68.112L63.3032 67.8436L62.8813 68.112ZM61.2613 64.764L60.786 64.9192L60.789 64.9279L61.2613 64.764ZM60.5053 61.128L60.0071 61.1703L60.0076 61.1759L60.5053 61.128ZM61.3333 53.532L60.8555 53.385L60.8551 53.3862L61.3333 53.532ZM64.9693 47.556L64.6454 47.1749L64.6352 47.1841L64.9693 47.556ZM66.9133 46.404V45.904H66.808L66.7115 45.9465L66.9133 46.404ZM68.1013 45.9L67.8777 45.4528L67.8653 45.459L67.8533 45.4659L68.1013 45.9ZM69.6853 45.684L69.5745 46.1716L69.5852 46.174L69.5959 46.1759L69.6853 45.684ZM71.0893 46.44L70.7358 46.7936L70.8571 46.9149L71.0273 46.9361L71.0893 46.44ZM71.9173 46.548L72.0068 46.0561L71.9974 46.0544L71.9881 46.053L71.9173 46.548ZM75.1933 47.592L75.4456 47.1603L75.4363 47.1549L75.4267 47.1498L75.1933 47.592ZM78.9733 54.18L78.4833 54.2794L78.484 54.2827L78.9733 54.18ZM79.5493 60.372L80.0493 60.3799L80.0493 60.3775L79.5493 60.372ZM77.2813 68.292L76.8633 68.0178L76.863 68.0182L77.2813 68.292ZM73.9333 71.316L73.7066 70.8704L73.6988 70.8743L73.6912 70.8786L73.9333 71.316ZM69.9013 66.816L69.8406 67.3123L69.8461 67.3129L69.9013 66.816ZM73.0693 65.268L73.4801 65.553L73.487 65.5432L73.4933 65.533L73.0693 65.268ZM74.3653 60.3L73.8654 60.2932L73.8654 60.2939L74.3653 60.3ZM73.9333 55.296L73.4423 55.3904L73.4431 55.3941L73.9333 55.296ZM73.4653 53.676L72.9934 53.8412L72.9985 53.8558L73.0045 53.87L73.4653 53.676ZM72.9973 52.668L72.5603 52.9108L72.5769 52.9407L72.5973 52.968L72.9973 52.668ZM72.6733 52.272L72.4363 52.7122L72.443 52.7158L72.4497 52.7192L72.6733 52.272ZM71.1613 51.84L71.2463 51.3473L71.2041 51.34H71.1613V51.84ZM70.7653 51.804L70.8475 51.3108H70.8475L70.7653 51.804ZM69.9013 51.696L69.7983 52.1853L69.8493 52.196H69.9013V51.696ZM68.6413 51.408L68.7626 50.9229L68.5677 50.8742L68.3933 50.9739L68.6413 51.408ZM68.2813 51.66L68.6135 52.0337L68.6245 52.0239L68.6349 52.0136L68.2813 51.66ZM65.6173 60.624L65.1187 60.6629L65.1201 60.6763L65.6173 60.624ZM69.3925 71.6125C68.0406 71.4292 66.8499 71.0074 65.812 70.353L65.2787 71.199C66.4488 71.9366 67.7781 72.4028 69.2582 72.6035L69.3925 71.6125ZM65.8185 70.3572C64.771 69.674 63.9349 68.8362 63.3032 67.8436L62.4595 68.3804C63.1718 69.4998 64.1117 70.438 65.2722 71.1948L65.8185 70.3572ZM63.3032 67.8436C62.6519 66.8201 62.1289 65.7392 61.7337 64.6001L60.789 64.9279C61.2098 66.1408 61.7668 67.2919 62.4595 68.3804L63.3032 67.8436ZM61.7366 64.6088C61.3642 63.4681 61.1196 62.2921 61.003 61.0801L60.0076 61.1759C60.1311 62.4599 60.3905 63.7079 60.786 64.9192L61.7366 64.6088ZM61.0036 61.0857C60.7931 58.6071 61.0616 56.1389 61.8116 53.6778L60.8551 53.3862C60.0691 55.9651 59.7856 58.5609 60.0071 61.1703L61.0036 61.0857ZM61.8112 53.679C62.5573 51.2545 63.7258 49.3456 65.3035 47.9279L64.6352 47.1841C62.9009 48.7424 61.6454 50.8175 60.8555 53.385L61.8112 53.679ZM65.2932 47.937C65.7247 47.5702 66.3266 47.2094 67.1152 46.8615L66.7115 45.9465C65.8681 46.3186 65.174 46.7258 64.6455 47.175L65.2932 47.937ZM66.9133 46.904C66.9999 46.904 67.0775 46.8823 67.1057 46.8745C67.1489 46.8625 67.196 46.8469 67.2435 46.8299C67.3395 46.7956 67.4626 46.7468 67.6097 46.6855L67.225 45.7625C67.0841 45.8212 66.9792 45.8624 66.9072 45.8881C66.8707 45.9011 66.8488 45.908 66.838 45.911C66.8327 45.9125 66.8349 45.9117 66.8425 45.9102C66.8466 45.9094 66.8739 45.904 66.9133 45.904V46.904ZM67.6097 46.6855C67.9067 46.5618 68.1559 46.4447 68.3494 46.3341L67.8533 45.4659C67.7107 45.5473 67.504 45.6462 67.225 45.7625L67.6097 46.6855ZM68.325 46.3472C68.7595 46.1299 69.1697 46.0796 69.5745 46.1716L69.7962 45.1964C69.1449 45.0484 68.4992 45.1421 67.8777 45.4528L68.325 46.3472ZM69.5959 46.1759C70.0162 46.2524 70.394 46.4518 70.7358 46.7936L71.4429 46.0864C70.9687 45.6122 70.4105 45.3076 69.7748 45.1921L69.5959 46.1759ZM71.0273 46.9361C71.4111 46.9841 71.6833 47.0196 71.8466 47.043L71.9881 46.053C71.8153 46.0284 71.5356 45.9919 71.1514 45.9439L71.0273 46.9361ZM71.8279 47.0399C73.115 47.274 74.1544 47.6091 74.96 48.0342L75.4267 47.1498C74.5042 46.6629 73.3597 46.302 72.0068 46.0561L71.8279 47.0399ZM74.9411 48.0237C76.6101 48.9991 77.8235 51.0274 78.4833 54.2794L79.4634 54.0806C78.7792 50.7086 77.4726 48.3449 75.4456 47.1603L74.9411 48.0237ZM78.484 54.2827C78.8838 56.1878 79.073 58.2153 79.0494 60.3665L80.0493 60.3775C80.0737 58.1607 79.8788 56.0602 79.4627 54.0773L78.484 54.2827ZM79.0494 60.3641C79.0027 63.3312 78.2682 65.8758 76.8633 68.0178L77.6994 68.5662C79.2225 66.2442 80 63.5088 80.0493 60.3799L79.0494 60.3641ZM76.863 68.0182C76.0454 69.2673 74.9946 70.2151 73.7066 70.8704L74.1601 71.7616C75.6081 71.0249 76.7893 69.9567 77.6997 68.5658L76.863 68.0182ZM73.6912 70.8786C72.4519 71.5646 71.025 71.8166 69.3874 71.6119L69.2633 72.6041C71.0817 72.8314 72.7268 72.5554 74.1755 71.7534L73.6912 70.8786ZM69.8461 67.3129C70.5777 67.3942 71.2625 67.2903 71.8849 66.9862C72.5047 66.6834 73.034 66.196 73.4801 65.553L72.6586 64.983C72.2887 65.516 71.882 65.8746 71.4458 66.0878C71.0122 66.2997 70.521 66.3818 69.9566 66.3191L69.8461 67.3129ZM73.4933 65.533C74.3924 64.0945 74.8405 62.3437 74.8653 60.3061L73.8654 60.2939C73.8422 62.1923 73.4263 63.7535 72.6453 65.003L73.4933 65.533ZM74.8653 60.3068C74.8897 58.4996 74.7433 56.7962 74.4236 55.1979L73.4431 55.3941C73.7474 56.9158 73.889 58.5484 73.8654 60.2932L74.8653 60.3068ZM74.4243 55.2016C74.2995 54.5525 74.1348 53.9776 73.9262 53.482L73.0045 53.87C73.1799 54.2864 73.3272 54.7915 73.4423 55.3904L74.4243 55.2016ZM73.9373 53.5108C73.7669 53.0241 73.5905 52.6255 73.3973 52.368L72.5973 52.968C72.6922 53.0945 72.8278 53.3679 72.9934 53.8412L73.9373 53.5108ZM73.4344 52.4252C73.3658 52.3016 73.2925 52.1872 73.2133 52.0904C73.1381 51.9984 73.0343 51.8934 72.897 51.8248L72.4497 52.7192C72.4263 52.7075 72.4155 52.6976 72.4168 52.6987C72.4177 52.6995 72.4254 52.7065 72.4394 52.7236C72.4682 52.7588 72.5089 52.8184 72.5603 52.9108L73.4344 52.4252ZM72.9104 51.8318C72.5241 51.6237 71.9536 51.4692 71.2463 51.3473L71.0764 52.3327C71.7611 52.4508 72.1986 52.5843 72.4363 52.7122L72.9104 51.8318ZM71.1613 51.34C71.074 51.34 70.97 51.3312 70.8475 51.3108L70.6831 52.2972C70.8487 52.3248 71.0087 52.34 71.1613 52.34V51.34ZM70.8475 51.3108C70.6992 51.2861 70.5393 51.2615 70.3681 51.237L70.2266 52.227C70.3914 52.2505 70.5435 52.2739 70.6831 52.2972L70.8475 51.3108ZM70.3681 51.237C70.1915 51.2118 70.0323 51.196 69.9013 51.196V52.196C69.9623 52.196 70.0672 52.2042 70.2266 52.227L70.3681 51.237ZM70.0043 51.2067C69.5534 51.1118 69.1396 51.0172 68.7626 50.9229L68.5201 51.8931C68.9111 51.9908 69.3373 52.0882 69.7983 52.1853L70.0043 51.2067ZM68.3933 50.9739C68.2147 51.0759 68.0479 51.1863 67.9278 51.3064L68.6349 52.0136C68.6588 51.9897 68.732 51.9321 68.8894 51.8421L68.3933 50.9739ZM67.9492 51.2863C66.991 52.138 66.2584 53.4575 65.7163 55.1821L66.6703 55.4819C67.1843 53.8465 67.8437 52.718 68.6135 52.0337L67.9492 51.2863ZM65.7163 55.1821C65.1682 56.9262 64.9702 58.7545 65.1189 60.6628L66.1158 60.5852C65.9765 58.7975 66.1625 57.0978 66.6703 55.4819L65.7163 55.1821ZM65.1201 60.6763C65.3175 62.5521 65.8031 64.093 66.6096 65.2637L67.4331 64.6963C66.7516 63.707 66.3012 62.3439 66.1146 60.5717L65.1201 60.6763ZM66.6096 65.2637C67.4251 66.4474 68.5064 67.1489 69.8406 67.3123L69.9621 66.3197C68.9443 66.1951 68.1056 65.6726 67.4331 64.6963L66.6096 65.2637Z" fill="#C36906"/>
</g>
<defs>
<filter id="filter0_d" x="39.0769" y="45.1277" width="40.9745" height="29.5531" filterUnits="userSpaceOnUse" color-interpolation-filters="sRGB">
<feFlood flood-opacity="0" result="BackgroundImageFix"/>
<feColorMatrix in="SourceAlpha" type="matrix" values="0 0 0 0 0 0 0 0 0 0 0 0 0 0 0 0 0 0 127 0"/>
<feOffset dy="2"/>
<feColorMatrix type="matrix" values="0 0 0 0 0.764706 0 0 0 0 0.411765 0 0 0 0 0.0235294 0 0 0 1 0"/>
<feBlend mode="normal" in2="BackgroundImageFix" result="effect1_dropShadow"/>
<feBlend mode="normal" in="SourceGraphic" in2="effect1_dropShadow" result="shape"/>
</filter>
<linearGradient id="paint0_linear" x1="96.1858" y1="20.4708" x2="40.2635" y2="48.6383" gradientUnits="userSpaceOnUse">
<stop stop-color="#FBB700"/>
<stop offset="1" stop-color="#FECE00"/>
</linearGradient>
</defs>
</svg>
