<svg width="68" height="69" viewBox="0 0 68 69" fill="none" xmlns="http://www.w3.org/2000/svg">
<ellipse cx="34.5" cy="38.5" rx="33.5" ry="30.5" fill="#914314"/>
<ellipse cx="34" cy="35" rx="34" ry="31" fill="#BF5A04"/>
<ellipse cx="33.5" cy="31" rx="28.5" ry="26" fill="#D36601"/>
<ellipse cx="33.5" cy="33.5" rx="28.5" ry="25.5" fill="#F8A500"/>
<path d="M63.8465 45.9296C66.2952 40.9847 67.2974 35.475 66.9242 30.0129C66.551 24.5509 64.7275 19.271 61.6268 14.6745C58.5262 10.0781 54.2513 6.31778 49.2082 3.75062C44.165 1.18346 38.5211 -0.105294 32.8122 0.0067266C27.1033 0.118747 21.5191 1.62783 16.5898 4.39067C11.6604 7.15351 7.54968 11.0784 4.64782 15.7926C1.74597 20.5068 0.14937 25.8538 0.00963031 31.3259C-0.130109 36.7981 1.25476 42.1553 3.91251 47L7.34819 42.5238C5.91668 38.9234 5.13869 36.0638 5.25653 31.4491C5.37438 26.8343 6.72083 22.3251 9.16802 18.3495C11.6152 14.3739 15.0819 11.064 19.2389 8.73401C23.3959 6.40405 28.1052 5.13141 32.9196 5.03694C37.734 4.94247 42.4937 6.02931 46.7467 8.19424C50.9996 10.3592 54.6047 13.5303 57.2196 17.4066C59.8344 21.2829 61.3722 25.7355 61.687 30.3418C62.1286 35.0311 61.9377 35.9068 60.4108 41.4534L63.8465 45.9296Z" fill="#F6B501"/>
<path d="M4 46.5551C4 46.6525 9.65515 55.1856 15.4725 58.7684C21.2899 62.3513 28.1287 64.1721 35.0735 63.9872C42.0182 63.8023 48.7373 61.6204 54.3311 57.7338C59.925 53.8471 64.6115 46.9449 65 45.483L61.5032 41C60.629 43.4364 55.8805 50.3989 51.1631 53.6766C46.4457 56.9543 40.7794 58.7943 34.9227 58.9502C29.0661 59.1062 23.2988 57.5706 18.3929 54.5491C13.487 51.5277 9.7013 47.1927 7.49682 42.072C7.49682 42.072 4 46.4576 4 46.5551Z" fill="#EE900D"/>
<g filter="url(#filter0_d)">
<path d="M33.836 45.036C31.988 45.108 30.476 44.94 29.3 44.532C28.988 44.412 28.652 44.256 28.292 44.064L25.916 42.876C25.316 42.564 24.908 42.084 24.692 41.436C24.5 40.788 24.548 40.164 24.836 39.564C25.148 38.964 25.628 38.568 26.276 38.376C26.924 38.16 27.548 38.196 28.148 38.484L29.372 39.168C29.804 39.384 30.116 39.54 30.308 39.636C30.524 39.732 30.74 39.816 30.956 39.888C31.532 40.104 32.42 40.188 33.62 40.14C34.124 40.116 34.652 39.96 35.204 39.672C36.428 39.024 37.148 38.268 37.364 37.404C37.556 36.66 37.4 35.868 36.896 35.028C36.32 34.044 35.492 33.288 34.412 32.76C33.356 32.232 32.312 32.076 31.28 32.292C31.184 32.292 31.016 32.364 30.776 32.508C29.96 32.988 29.528 33.24 29.48 33.264C29.192 33.408 28.88 33.492 28.544 33.516C28.256 33.588 27.956 33.612 27.644 33.588C26.972 33.492 26.42 33.18 25.988 32.652C25.58 32.124 25.412 31.524 25.484 30.852C25.82 28.164 26.168 25.176 26.528 21.888C26.576 21.552 26.696 21.24 26.888 20.952C27.032 20.424 27.32 20.004 27.752 19.692C28.184 19.356 28.676 19.188 29.228 19.188C31.58 19.164 34.976 19.152 39.416 19.152C40.112 19.152 40.7 19.404 41.18 19.908C41.684 20.388 41.936 20.976 41.936 21.672C41.936 22.368 41.684 22.968 41.18 23.472C40.7 23.952 40.112 24.192 39.416 24.192H31.136C30.944 26.112 30.836 27.18 30.812 27.396C32.9 27.084 34.88 27.444 36.752 28.476C38.648 29.484 40.1 30.84 41.108 32.544C42.284 34.56 42.62 36.588 42.116 38.628C41.54 40.884 40.004 42.672 37.508 43.992C36.284 44.64 35.06 44.988 33.836 45.036Z" fill="url(#paint0_linear)"/>
<path d="M33.836 45.036L33.8555 45.5356L33.8556 45.5356L33.836 45.036ZM29.3 44.532L29.1205 44.9987L29.1283 45.0017L29.1361 45.0044L29.3 44.532ZM28.292 44.064L28.5274 43.6227L28.5156 43.6168L28.292 44.064ZM25.916 42.876L25.6853 43.3197L25.6924 43.3232L25.916 42.876ZM24.692 41.436L24.2126 41.578L24.215 41.5861L24.2177 41.5941L24.692 41.436ZM24.836 39.564L24.3924 39.3333L24.3887 39.3404L24.3852 39.3476L24.836 39.564ZM26.276 38.376L26.418 38.8554L26.4261 38.853L26.4341 38.8503L26.276 38.376ZM28.148 38.484L28.3919 38.0475L28.3784 38.04L28.3644 38.0332L28.148 38.484ZM29.372 39.168L29.1281 39.6045L29.1381 39.6101L29.1484 39.6152L29.372 39.168ZM30.308 39.636L30.0844 40.0832L30.0946 40.0883L30.1049 40.0929L30.308 39.636ZM30.956 39.888L31.1316 39.4198L31.1229 39.4166L31.1141 39.4137L30.956 39.888ZM33.62 40.14L33.64 40.6396L33.6438 40.6394L33.62 40.14ZM35.204 39.672L35.4353 40.1153L35.4379 40.1139L35.204 39.672ZM37.364 37.404L36.8798 37.2791L36.8789 37.2827L37.364 37.404ZM36.896 35.028L36.4645 35.2806L36.4673 35.2852L36.896 35.028ZM34.412 32.76L34.1884 33.2072L34.1924 33.2092L34.412 32.76ZM31.28 32.292V32.792H31.3318L31.3824 32.7814L31.28 32.292ZM30.776 32.508L31.0295 32.939L31.0332 32.9367L30.776 32.508ZM29.48 33.264L29.7036 33.7112L29.7036 33.7112L29.48 33.264ZM28.544 33.516L28.5084 33.0173L28.465 33.0204L28.4227 33.0309L28.544 33.516ZM27.644 33.588L27.5733 34.083L27.5894 34.0853L27.6057 34.0865L27.644 33.588ZM25.988 32.652L25.5922 32.9578L25.601 32.9686L25.988 32.652ZM25.484 30.852L24.9878 30.79L24.9868 30.7987L25.484 30.852ZM26.528 21.888L26.033 21.8173L26.0319 21.8254L26.031 21.8336L26.528 21.888ZM26.888 20.952L27.304 21.2293L27.349 21.1618L27.3704 21.0836L26.888 20.952ZM27.752 19.692L28.0447 20.0973L28.052 20.0921L28.059 20.0867L27.752 19.692ZM29.228 19.188V19.688L29.2331 19.688L29.228 19.188ZM41.18 19.908L40.8179 20.2528L40.8263 20.2617L40.8352 20.2701L41.18 19.908ZM41.18 23.472L40.8264 23.1184V23.1184L41.18 23.472ZM31.136 24.192V23.692H30.6835L30.6385 24.1422L31.136 24.192ZM30.812 27.396L30.3151 27.3408L30.2433 27.9865L30.8859 27.8905L30.812 27.396ZM36.752 28.476L36.5106 28.9139L36.5173 28.9175L36.752 28.476ZM41.108 32.544L41.5399 32.2921L41.5383 32.2894L41.108 32.544ZM42.116 38.628L42.6005 38.7517L42.6014 38.7479L42.116 38.628ZM37.508 43.992L37.2743 43.55L37.2741 43.5501L37.508 43.992ZM33.8165 44.5364C32.0034 44.607 30.5597 44.4398 29.4639 44.0596L29.1361 45.0044C30.3923 45.4402 31.9726 45.609 33.8555 45.5356L33.8165 44.5364ZM29.4795 44.0653C29.1902 43.9541 28.873 43.8072 28.5273 43.6228L28.0567 44.5052C28.431 44.7048 28.7858 44.8699 29.1205 44.9987L29.4795 44.0653ZM28.5156 43.6168L26.1396 42.4288L25.6924 43.3232L28.0684 44.5112L28.5156 43.6168ZM26.1467 42.4324C25.6632 42.181 25.3417 41.8041 25.1663 41.2779L24.2177 41.5941C24.4743 42.3639 24.9688 42.947 25.6853 43.3196L26.1467 42.4324ZM25.1714 41.294C25.014 40.7628 25.0533 40.2667 25.2868 39.7804L24.3852 39.3476C24.0427 40.0613 23.986 40.8132 24.2126 41.578L25.1714 41.294ZM25.2796 39.7947C25.529 39.315 25.9002 39.0088 26.418 38.8554L26.134 37.8966C25.3558 38.1272 24.767 38.613 24.3924 39.3333L25.2796 39.7947ZM26.4341 38.8503C26.9626 38.6742 27.4521 38.7046 27.9316 38.9348L28.3644 38.0332C27.6439 37.6874 26.8854 37.6458 26.1179 37.9017L26.4341 38.8503ZM27.9041 38.9205L29.1281 39.6045L29.6159 38.7315L28.3919 38.0475L27.9041 38.9205ZM29.1484 39.6152C29.5804 39.8312 29.8924 39.9872 30.0844 40.0832L30.5316 39.1888C30.3396 39.0928 30.0276 38.9368 29.5956 38.7208L29.1484 39.6152ZM30.1049 40.0929C30.3351 40.1952 30.5661 40.2851 30.7979 40.3623L31.1141 39.4137C30.9139 39.3469 30.7129 39.2688 30.5111 39.1791L30.1049 40.0929ZM30.7804 40.3562C31.4536 40.6086 32.4247 40.6882 33.64 40.6396L33.6 39.6404C32.4153 39.6878 31.6104 39.5994 31.1316 39.4198L30.7804 40.3562ZM33.6438 40.6394C34.2351 40.6113 34.8337 40.4292 35.4353 40.1153L34.9727 39.2287C34.4703 39.4908 34.0129 39.6207 33.5962 39.6406L33.6438 40.6394ZM35.4379 40.1139C36.7184 39.436 37.5834 38.5878 37.8491 37.5253L36.8789 37.2827C36.7126 37.9482 36.1376 38.612 34.9701 39.2301L35.4379 40.1139ZM37.8481 37.5289C38.0822 36.622 37.8777 35.6924 37.3247 34.7708L36.4673 35.2852C36.9223 36.0436 37.0298 36.698 36.8799 37.2791L37.8481 37.5289ZM37.3275 34.7754C36.699 33.7017 35.795 32.8796 34.6316 32.3108L34.1924 33.2092C35.189 33.6964 35.941 34.3863 36.4645 35.2806L37.3275 34.7754ZM34.6356 32.3128C33.4916 31.7408 32.3331 31.5607 31.1776 31.8026L31.3824 32.7814C32.2909 32.5912 33.2204 32.7232 34.1884 33.2072L34.6356 32.3128ZM31.28 31.792C31.1276 31.792 30.9852 31.8435 30.885 31.8864C30.7724 31.9347 30.6491 32.001 30.5188 32.0793L31.0332 32.9367C31.1429 32.871 31.2236 32.8293 31.279 32.8056C31.3063 32.7939 31.3213 32.7892 31.3261 32.7879C31.3328 32.7861 31.3148 32.792 31.28 32.792V31.792ZM30.5225 32.077C30.1146 32.3169 29.8033 32.4996 29.5881 32.6251C29.4804 32.6879 29.3974 32.7361 29.3388 32.7698C29.272 32.8082 29.252 32.819 29.2564 32.8168L29.7036 33.7112C29.7718 33.6771 30.229 33.4099 31.0295 32.939L30.5225 32.077ZM29.2564 32.8168C29.0298 32.9301 28.782 32.9977 28.5084 33.0173L28.5796 34.0147C28.978 33.9863 29.3542 33.8859 29.7036 33.7112L29.2564 32.8168ZM28.4227 33.0309C28.1896 33.0892 27.9437 33.1096 27.6823 33.0895L27.6057 34.0865C27.9683 34.1144 28.3224 34.0868 28.6653 34.0011L28.4227 33.0309ZM27.7147 33.093C27.1674 33.0148 26.7281 32.7669 26.375 32.3354L25.601 32.9686C26.1119 33.5931 26.7766 33.9692 27.5733 34.083L27.7147 33.093ZM26.3836 32.3463C26.0557 31.9218 25.9227 31.4508 25.9812 30.9053L24.9868 30.7987C24.9013 31.5972 25.1043 32.3262 25.5924 32.9577L26.3836 32.3463ZM25.9801 30.914C26.3165 28.223 26.6648 25.2324 27.025 21.9424L26.031 21.8336C25.6712 25.1196 25.3235 28.105 24.9879 30.79L25.9801 30.914ZM27.023 21.9587C27.0602 21.6981 27.1526 21.4565 27.304 21.2293L26.472 20.6746C26.2394 21.0235 26.0918 21.4059 26.033 21.8173L27.023 21.9587ZM27.3704 21.0836C27.4852 20.6626 27.7081 20.3405 28.0447 20.0973L27.4593 19.2867C26.9319 19.6675 26.5788 20.1854 26.4056 20.8204L27.3704 21.0836ZM28.059 20.0867C28.4024 19.8196 28.7861 19.688 29.228 19.688V18.688C28.5659 18.688 27.9656 18.8924 27.445 19.2973L28.059 20.0867ZM29.2331 19.688C31.5825 19.664 34.9765 19.652 39.416 19.652V18.652C34.9755 18.652 31.5775 18.664 29.2229 18.688L29.2331 19.688ZM39.416 19.652C39.9752 19.652 40.4323 19.8479 40.8179 20.2528L41.5421 19.5632C40.9677 18.9601 40.2488 18.652 39.416 18.652V19.652ZM40.8352 20.2701C41.2401 20.6557 41.436 21.1128 41.436 21.672H42.436C42.436 20.8392 42.1279 20.1203 41.5248 19.5459L40.8352 20.2701ZM41.436 21.672C41.436 22.2319 41.2392 22.7057 40.8264 23.1184L41.5336 23.8256C42.1288 23.2303 42.436 22.5041 42.436 21.672H41.436ZM40.8264 23.1184C40.4428 23.5021 39.9832 23.692 39.416 23.692V24.692C40.2409 24.692 40.9572 24.4019 41.5336 23.8256L40.8264 23.1184ZM39.416 23.692H31.136V24.692H39.416V23.692ZM30.6385 24.1422C30.4463 26.0645 30.3387 27.1283 30.3151 27.3408L31.3089 27.4512C31.3333 27.2316 31.4417 26.1595 31.6335 24.2418L30.6385 24.1422ZM30.8859 27.8905C32.864 27.5949 34.7333 27.9341 36.5106 28.9139L36.9934 28.0381C35.0267 26.9539 32.936 26.5731 30.7381 26.9015L30.8859 27.8905ZM36.5173 28.9175C38.3393 29.8861 39.7204 31.1803 40.6777 32.7986L41.5383 32.2894C40.4796 30.4997 38.9567 29.0819 36.9867 28.0345L36.5173 28.9175ZM40.6761 32.7959C41.7945 34.7132 42.0998 36.6087 41.6306 38.5081L42.6014 38.7479C43.1402 36.5673 42.7735 34.4068 41.5399 32.2921L40.6761 32.7959ZM41.6315 38.5043C41.0978 40.595 39.6743 42.2808 37.2743 43.55L37.7417 44.434C40.3337 43.0632 41.9822 41.173 42.6005 38.7517L41.6315 38.5043ZM37.2741 43.5501C36.1076 44.1676 34.9563 44.4917 33.8164 44.5364L33.8556 45.5356C35.1637 45.4843 36.4604 45.1124 37.7419 44.4339L37.2741 43.5501Z" fill="#C36906"/>
</g>
<defs>
<filter id="filter0_d" x="24.0769" y="18.652" width="18.766" height="28.9002" filterUnits="userSpaceOnUse" color-interpolation-filters="sRGB">
<feFlood flood-opacity="0" result="BackgroundImageFix"/>
<feColorMatrix in="SourceAlpha" type="matrix" values="0 0 0 0 0 0 0 0 0 0 0 0 0 0 0 0 0 0 127 0"/>
<feOffset dy="2"/>
<feColorMatrix type="matrix" values="0 0 0 0 0.764706 0 0 0 0 0.411765 0 0 0 0 0.0235294 0 0 0 1 0"/>
<feBlend mode="normal" in2="BackgroundImageFix" result="effect1_dropShadow"/>
<feBlend mode="normal" in="SourceGraphic" in2="effect1_dropShadow" result="shape"/>
</filter>
<linearGradient id="paint0_linear" x1="50.7705" y1="-6.52916" x2="19.137" y2="1.07544" gradientUnits="userSpaceOnUse">
<stop stop-color="#FBB700"/>
<stop offset="1" stop-color="#FECE00"/>
</linearGradient>
</defs>
</svg>
