<svg viewBox="0 0 118 118" fill="none" xmlns="http://www.w3.org/2000/svg">
<g clip-path="url(#clip0)">
<path d="M106.107 60.0422C94.6183 47.4924 75.7027 16.1019 69.2838 5.2473C68.0186 3.11578 65.3282 2.31381 63.1024 3.40474L59.3959 5.20548C58.8975 5.44754 58.6856 6.04476 58.9199 6.54685L59.2662 7.25964C71.3266 34.9852 30.8972 54.6271 16.4989 28.0374C16.3812 27.7951 16.2703 27.567 16.1526 27.3246C15.9144 26.8509 15.3514 26.6406 14.8609 26.8421L11.1544 28.6428C8.92114 29.7182 7.88869 32.3289 8.78232 34.6409C13.3765 46.3821 26.3617 80.6537 29.1262 97.4422C29.7363 101.128 34.5861 115.934 49.5345 110.434C64.4829 104.934 75.8875 99.3929 75.8875 99.3929L78.7386 98.0077C78.7386 98.0077 90.1432 92.467 103.706 84.1155C117.27 75.764 108.628 62.8 106.107 60.0422Z" fill="#E0E4E6"/>
<path d="M59.3297 7.28155C77.4567 47.5306 36.9989 67.1864 16.5624 28.0593C30.9322 54.6629 71.3615 35.021 59.3297 7.28155Z" fill="#D1D1D1"/>
<path d="M48.0268 105.88L47.8843 105.949C42.8446 107.799 40.3659 106.36 39.5349 105.883C36.0142 103.822 34.1579 98.7684 33.8135 96.645C33.6689 96.0654 33.8625 95.4537 34.3143 95.0628C34.7661 94.6719 35.3992 94.5683 35.9521 94.7948C36.5049 95.0212 36.8834 95.5393 36.9311 96.1348C37.1818 97.775 38.7879 101.77 41.1468 103.144C41.6397 103.433 43.1396 104.308 46.7842 102.96C47.1797 102.816 47.6159 102.836 47.9968 103.015C48.3776 103.193 48.6719 103.516 48.8148 103.912C49.0945 104.673 48.7545 105.522 48.0268 105.88Z" fill="#FCFFFF"/>
<path d="M101.058 80.1159C100.325 80.4766 99.4382 80.2209 99.0094 79.5254C98.7858 79.1663 98.7151 78.7326 98.813 78.321C98.9108 77.9094 99.1692 77.554 99.5306 77.334C102.843 75.3019 103.011 73.6168 103.159 73.016C103.595 70.2848 101.418 66.6378 100.255 65.3699C99.9682 65.0607 99.8162 64.6499 99.833 64.2283C99.8498 63.8067 100.034 63.4092 100.345 63.1239C100.993 62.5362 101.996 62.5857 102.583 63.2345C104.04 64.8176 106.865 69.4006 106.309 73.4417C106.171 74.39 105.77 77.2279 101.201 80.0466L101.058 80.1159Z" fill="#FCFFFF"/>
</g>
<defs>
<clipPath id="clip0">
<rect width="118" height="118" fill="white"/>
</clipPath>
</defs>
</svg>
