<svg viewBox="0 0 118 118" fill="none" xmlns="http://www.w3.org/2000/svg">
<path d="M65.471 46.9149L87.5353 45.1693C87.4818 44.3966 87.978 43.6812 88.7581 43.5204C89.3528 43.3978 89.9248 43.6416 90.2828 44.0821L91.0359 43.3202C91.4429 42.9072 92.0442 42.7536 92.5999 42.9179C93.1556 43.0822 93.5757 43.5394 93.6929 44.1077L96.2313 56.4209C96.3484 56.9892 96.1433 57.5751 95.698 57.9458C95.2526 58.3165 94.6395 58.4131 94.1024 58.1948L93.1093 57.7929C92.9548 58.3391 92.526 58.7892 91.9311 58.9119C91.151 59.0727 90.4123 58.6119 90.1559 57.881L69.2002 65.0042C67.1867 69.41 63.2137 72.8551 58.117 73.9058L35.031 78.6651C34.4628 78.7823 33.8768 78.5771 33.5061 78.1318C33.1357 77.688 33.0388 77.0733 33.2571 76.5363L36.9187 67.489L27.8714 63.8274C27.3824 63.6289 27.0277 63.2006 26.922 62.6881C26.9155 62.6565 26.9104 62.6246 26.9055 62.5928C26.827 62.037 27.0483 61.4837 27.4889 61.1359L31.2973 58.1367L25.6934 54.4484C25.3454 54.2193 25.1025 53.862 25.0182 53.4531C24.9339 53.0443 25.0156 52.6199 25.2447 52.2719L27.6897 48.5571C27.9188 48.209 28.2761 47.9661 28.685 47.8818L51.771 43.1225C56.8675 42.0719 61.8792 43.6648 65.471 46.9149Z" fill="#4FB272"/>
<path d="M89.4773 54.7924L88.1336 48.2746L68.0334 49.8649C69.1086 51.4873 69.9191 53.3212 70.3355 55.3413C70.752 57.3613 70.7328 59.3662 70.387 61.2816L89.4773 54.7924Z" fill="#4FB272"/>
<path d="M29.957 50.8289L28.7339 52.6871L34.8469 56.7092C35.1983 56.9391 35.4388 57.3002 35.5222 57.7046C35.5389 57.7858 35.5499 57.8696 35.5535 57.955C35.5746 58.4599 35.3517 58.9446 34.9554 59.2566L31.5608 61.9293L39.555 65.1656C40.3591 65.4933 40.7476 66.4052 40.4219 67.212L37.2721 74.9942L57.4825 70.8277C64.272 69.4281 68.657 62.7655 67.2573 55.9761C65.8577 49.1866 59.195 44.8013 52.4056 46.201L29.957 50.8289Z" fill="#4FB272"/>
<path opacity="0.1" d="M68.0333 49.8649L88.1336 48.2748L88.3855 49.4968L69.1436 51.9213C68.8083 51.2118 68.4603 50.5093 68.0333 49.8649Z" fill="#A5DABC"/>
<path opacity="0.2" d="M89.2253 53.5703L89.4772 54.7924L70.3869 61.2815C70.5243 60.5209 70.566 59.7379 70.5935 58.9537L89.2253 53.5703Z" fill="white"/>
<path opacity="0.1" d="M67.2572 55.9757C66.3824 51.7324 60.1469 49.4187 53.3574 50.8184L32.4459 55.1294L28.7339 52.6871L29.9569 50.8288L52.4055 46.2009C59.1949 44.8012 65.8575 49.1863 67.2572 55.9757Z" fill="#A5DABC"/>
<path opacity="0.2" d="M57.4824 70.8276L37.2718 74.9941L39.3975 69.7422L56.5305 66.2101C63.3199 64.8105 68.132 60.2193 67.2572 55.9759C68.6569 62.7652 64.2718 69.4279 57.4824 70.8276Z" fill="white"/>
<path d="M90.1904 57.8855L87.5693 45.171L72.4067 46.2471L81.5749 60.8914L90.1904 57.8855Z" fill="#DAF2E5"/>
</svg>
