<svg viewBox="0 0 118 118" fill="none" xmlns="http://www.w3.org/2000/svg">
<g clip-path="url(#clip0)">
<path d="M56.241 87.6038L100.921 79.7022L105.714 22.0272L62.0103 18.1875L56.241 87.6038Z" fill="#FCD462"/>
<path d="M56.2409 87.6037L13.4788 72.4348L18.2722 14.7597L62.0101 18.1874L56.2409 87.6037Z" fill="#EAB659"/>
<path d="M5.67234 18.6024L51.2043 2.6488L62.1645 18.2004L16.6325 34.1541L5.67234 18.6024Z" fill="#EAAF47"/>
<path d="M117.588 27.9038L75.3871 4.65868L62.0101 18.1876L104.211 41.4328L117.588 27.9038Z" fill="#F6C358"/>
<path d="M53.9172 115.563L11.1551 100.394L16.6602 34.1564L59.4223 49.3251L53.9172 115.563Z" fill="#FCD462"/>
<path d="M53.9178 115.563L98.5976 107.662L104.103 41.4241L59.4229 49.3254L53.9178 115.563Z" fill="#F6C358"/>
<path d="M48.4826 67.4555L5.72023 52.2868L16.6606 34.1567L59.4227 49.3254L48.4826 67.4555Z" fill="#F6C358"/>
<path d="M64.929 68.8223L109.609 60.921L104.102 41.424L59.4219 49.3253L64.929 68.8223Z" fill="#EAAF47"/>
</g>
<defs>
<clipPath id="clip0">
<rect width="118" height="118" fill="white"/>
</clipPath>
</defs>
</svg>
