<svg viewBox="0 0 118 118" fill="none" xmlns="http://www.w3.org/2000/svg">
<path d="M33.2701 43.219L21.6202 29.4512L29.4511 21.6203L43.2189 33.2702C45.3263 35.0533 47.7984 36.3537 50.4616 37.0801L54.036 38.0546C58.4519 39.2589 62.477 41.5948 65.7136 44.8314L95.361 74.4788C96.2263 75.3441 96.7125 76.5178 96.7125 77.7416C96.7125 78.9654 96.2263 80.1391 95.361 81.0045L81.0044 95.3611C80.139 96.2265 78.9653 96.7126 77.7415 96.7126C76.5177 96.7126 75.344 96.2265 74.4786 95.3611L44.8312 65.7137C41.5947 62.4772 39.2588 58.452 38.0544 54.0361L37.0797 50.4615C36.3533 47.7984 35.053 45.3264 33.2701 43.219V43.219Z" fill="#4FB272"/>
<path d="M26.6745 35.4254L39.3377 29.9862L29.4512 21.6202L21.6203 29.4511L26.6745 35.4254Z" fill="#4FB272"/>
<path d="M21.6203 29.4512L29.4512 21.6204L39.3377 29.9863L26.6745 35.4255L21.6203 29.4512Z" fill="#DAF2E5"/>
<path d="M20.2182 25.7818L25.8564 20.1436C26.8944 19.1056 28.412 18.9403 29.2461 19.7744C30.0802 20.6085 29.9149 22.1261 28.8769 23.164L23.2387 28.8023C22.2007 29.8402 20.6831 30.0055 19.849 29.1714C19.015 28.3374 19.1802 26.8198 20.2182 25.7818Z" fill="#4FB272"/>
<path d="M59.4694 69.9107C55.1445 65.5859 55.1445 58.5738 59.4694 54.249C63.7943 49.9241 70.8063 49.9241 75.1312 54.249L80.3518 59.4696C84.6766 63.7944 84.6766 70.8064 80.3518 75.1313C76.0269 79.4562 69.0149 79.4562 64.69 75.1313L59.4694 69.9107Z" fill="#DAF2E5"/>
<path d="M48.1596 58.3019C48.4242 58.0374 48.6021 57.6988 48.6699 57.3308C48.7377 56.9629 48.692 56.5831 48.539 56.2417C48.3664 55.8564 48.2067 55.4598 48.0648 55.063C47.8997 54.6021 47.5583 54.2258 47.1156 54.0166C46.673 53.8075 46.1654 53.7828 45.7046 53.9479C45.2437 54.113 44.8674 54.4544 44.6582 54.8971C44.4491 55.3397 44.4244 55.8472 44.5895 56.3081C44.7636 56.7938 44.9587 57.279 45.17 57.7506C45.2924 58.0234 45.4792 58.2624 45.7144 58.4471C45.9496 58.6318 46.2261 58.7566 46.5202 58.8108C46.8142 58.8651 47.1171 58.8471 47.4026 58.7585C47.6882 58.6699 47.948 58.5132 48.1597 58.302L48.1596 58.3019Z" fill="#A5DABC"/>
<path d="M45.7205 52.3363C45.9975 52.0591 46.1791 51.701 46.239 51.3137C46.2989 50.9264 46.2339 50.5301 46.0536 50.1822C45.3457 48.8154 44.8333 47.3559 44.5315 45.8465L44.3124 44.7506C44.2142 44.2728 43.9308 43.8533 43.5242 43.5837C43.1177 43.3142 42.6209 43.2166 42.1425 43.3122C41.6642 43.4078 41.2431 43.689 40.9714 44.0941C40.6997 44.4993 40.5995 44.9955 40.6926 45.4743L40.9117 46.5705C41.2812 48.419 41.9087 50.2063 42.7757 51.8802C42.9092 52.138 43.1016 52.3607 43.3373 52.5302C43.573 52.6997 43.8454 52.8112 44.1323 52.8556C44.4192 52.9001 44.7126 52.8762 44.9885 52.786C45.2645 52.6957 45.5152 52.5417 45.7205 52.3363Z" fill="#A5DABC"/>
<path d="M86.5512 81.9832L88.9331 79.6014C89.2792 79.2552 89.4737 78.7857 89.4737 78.2962C89.4737 77.8067 89.2792 77.3372 88.9331 76.9911C88.5869 76.6449 88.1175 76.4504 87.6279 76.4504C87.1384 76.4504 86.6689 76.6449 86.3228 76.9911L83.9409 79.373C83.5947 79.7191 83.4003 80.1886 83.4003 80.6781C83.4003 81.1676 83.5947 81.6371 83.9409 81.9832C84.287 82.3294 84.7565 82.5239 85.246 82.5239C85.7356 82.5239 86.205 82.3294 86.5512 81.9832Z" fill="#A5DABC"/>
<path d="M73.8259 94.7084L80.9587 87.5756C81.3049 87.2294 81.4993 86.76 81.4993 86.2705C81.4993 85.7809 81.3049 85.3114 80.9587 84.9653C80.6126 84.6192 80.1431 84.4247 79.6536 84.4247C79.164 84.4247 78.6946 84.6192 78.3484 84.9653L71.2156 92.0981L73.8259 94.7084Z" fill="#A5DABC"/>
</svg>
