<svg width="103" height="153" viewBox="0 0 103 153" fill="none" xmlns="http://www.w3.org/2000/svg">
<path d="M82.1001 141.206H20.9001V150.609C20.9001 151.93 21.9705 153 23.2908 153H79.7095C81.0297 153 82.1001 151.93 82.1001 150.609V141.206Z" fill="#6EC265"/>
<path d="M74.7689 141.206V150.45C74.7689 151.858 73.6274 153 72.219 153H79.5502C80.9585 153 82.1001 151.858 82.1001 150.45V141.206H74.7689Z" fill="#8FD787"/>
<path d="M97.4001 56.1L92.8648 133.199C92.5477 138.59 88.0829 142.8 82.6822 142.8H20.3177C14.917 142.8 10.4525 138.59 10.1351 133.199L5.6001 56.1V53.3732H97.4001V56.1Z" fill="#9DDC34"/>
<path d="M90.0689 53.3732V56.1003L85.5336 133.199C85.2165 138.591 80.752 142.8 75.3513 142.8H82.6825C88.0832 142.8 92.5477 138.591 92.8647 133.199L97.4001 56.1V53.3729H90.0689V53.3732Z" fill="#6EC265"/>
<path d="M97.4001 35.7001V37.2938H5.6001V35.7001L13.6864 7.39779C14.9376 3.01906 18.9398 0 23.4939 0H79.5063C84.0604 0 88.0626 3.01906 89.3138 7.39779L97.4001 35.7001Z" fill="#9DDC34"/>
<path d="M89.3137 7.39779C88.0625 3.01906 84.0603 0 79.5062 0H72.175C76.7292 0 80.7314 3.01906 81.9826 7.39779L90.0689 35.7001V37.2938H97.4V35.7001L89.3137 7.39779Z" fill="#6EC265"/>
<path d="M82.1001 35.7V37.2937H20.9001V35.7L25.1803 14.2998C25.6572 11.916 27.7502 10.1998 30.1811 10.1998H72.8191C75.2501 10.1998 77.3434 11.9157 77.82 14.2998L82.1001 35.7Z" fill="#5A5A5A"/>
<path d="M77.8201 14.2998C77.3432 11.916 75.2502 10.1998 72.8192 10.1998H65.488C67.919 10.1998 70.0123 11.9157 70.4892 14.2998L74.7694 35.7V37.2937H82.1002V35.7L77.8201 14.2998Z" fill="#464646"/>
<path d="M5.6001 35.7001C2.78335 35.7001 0.5 37.9834 0.5 40.8002V51.0001C0.5 53.8168 2.78335 56.1002 5.6001 56.1002H97.4001C100.217 56.1002 102.5 53.8168 102.5 51.0001V40.8002C102.5 37.9834 100.217 35.7001 97.4001 35.7001H5.6001Z" fill="#6EC265"/>
<path d="M97.4 35.7001H90.0688C92.8856 35.7001 95.1689 37.9834 95.1689 40.8002V51.0001C95.1689 53.8168 92.8856 56.1002 90.0688 56.1002H97.4C100.217 56.1002 102.5 53.8168 102.5 51.0001V40.8002C102.5 37.9834 100.217 35.7001 97.4 35.7001V35.7001Z" fill="#8FD787"/>
<path d="M96.6595 68.6904L96.9407 63.9092H6.05933L6.34052 68.6904H96.6595Z" fill="#6EC265"/>
<g clip-path="url(#clip0)">
<path d="M31.693 94.2203L34.244 96.2135L31.843 100.813C30.6425 102.934 32.7048 105 34.0188 105.719C35.3124 106.427 37.3201 106.511 39.1959 106.486L42.5722 100.966L45.1232 102.346L40.6964 94.1437L31.693 94.2203ZM32.0681 105.479L37.5452 115.598C38.6456 117.004 40.7215 117.336 42.8723 117.285H48.6495V107.703L37.6953 107.626C35.9947 107.728 33.7687 107.37 32.0681 105.479ZM66.5275 86.8314L63.5475 88.0963L60.6887 83.7665C59.4157 81.6884 56.6088 82.4904 55.3428 83.291C54.0965 84.0792 53.0495 85.7944 52.1624 87.4473L55.353 93.0762L52.9094 94.6384L62.2295 94.7433L66.5275 86.8314ZM56.4981 81.701L44.9925 81.5857C43.2298 81.8668 41.9329 83.5212 40.9348 85.4273L38.134 90.4802L46.5149 95.1258L51.8927 85.5821C52.6277 84.045 54.0198 82.2717 56.4981 81.701ZM56.9986 120.746L57.337 117.526L62.5099 117.125C64.9446 117.019 65.604 114.176 65.5175 112.68C65.4325 111.208 64.4399 109.461 63.4242 107.883L56.9543 107.945L56.7726 105.05L52.1623 113.151L56.9986 120.746ZM66.3481 114.461L72.027 104.454C72.6357 102.776 71.8175 100.84 70.6343 99.043L67.5728 94.1436L59.4465 99.2215L65.1864 108.552C66.1744 109.94 67.0505 112.017 66.3481 114.461Z" fill="white"/>
</g>
<path d="M30.3545 51.1906C29.9884 50.6759 29.7539 49.9323 29.651 48.96C29.5709 48.2736 29.548 47.4271 29.5823 46.4205C29.6052 45.8714 29.6567 45.0363 29.7368 43.9153C29.8054 42.6341 29.8397 41.8505 29.8397 41.5645C29.8512 41.2328 29.9713 40.9525 30.2001 40.7237C30.4403 40.4949 30.7263 40.3862 31.058 40.3977C31.3897 40.3977 31.67 40.5178 31.8988 40.758C32.1276 40.9868 32.2362 41.3529 32.2248 41.8562C32.2248 42.3595 32.1905 43.1031 32.1219 44.0868C32.0418 45.2765 31.996 46.0773 31.9846 46.4891C31.9503 47.3928 31.9617 48.1306 32.0189 48.7026C32.0875 49.2631 32.1848 49.6349 32.3106 49.8179C32.6309 50.2755 33.077 50.5786 33.649 50.7273C34.221 50.876 34.7872 50.8589 35.3477 50.6759C35.9197 50.4814 36.3658 50.1497 36.6861 49.6806C37.2238 48.9028 37.5097 47.776 37.5441 46.3003C37.5555 45.7741 37.5383 45.0821 37.4926 44.2241C37.4239 42.737 37.3839 41.8676 37.3725 41.616C37.3725 41.2842 37.4811 40.9982 37.6985 40.758C37.9273 40.5178 38.2075 40.3977 38.5393 40.3977C38.871 40.3862 39.157 40.4949 39.3972 40.7237C39.6374 40.9411 39.7633 41.2156 39.7747 41.5473C39.7747 41.7761 39.809 42.6226 39.8777 44.0868C39.9349 45.0134 39.952 45.7741 39.9291 46.369C39.8834 48.3137 39.4659 49.8637 38.6765 51.019C38.2304 51.6711 37.6356 52.1916 36.892 52.5805C36.1485 52.958 35.382 53.1696 34.5927 53.2154C33.8149 53.2611 33.037 53.1124 32.2591 52.7692C31.4813 52.4261 30.8464 51.8999 30.3545 51.1906ZM34.301 37.8753C34.5413 38.1041 34.6614 38.3844 34.6614 38.7161C34.6614 39.0479 34.5413 39.3338 34.301 39.5741C34.0722 39.8028 33.792 39.9172 33.4602 39.9172C33.1285 39.9172 32.8425 39.8028 32.6023 39.5741C32.3735 39.3338 32.2591 39.0479 32.2591 38.7161C32.2591 38.3844 32.3735 38.1041 32.6023 37.8753C32.8425 37.6351 33.1228 37.5207 33.4431 37.5322C33.7748 37.5322 34.0608 37.6465 34.301 37.8753ZM37.3382 37.9611C37.5784 38.1899 37.6985 38.4702 37.6985 38.8019C37.6985 39.1336 37.5784 39.4196 37.3382 39.6599C37.1094 39.8886 36.8291 40.003 36.4974 40.003C36.1656 40.003 35.8796 39.8886 35.6394 39.6599C35.4106 39.4196 35.2962 39.1336 35.2962 38.8019C35.2962 38.4702 35.4106 38.1899 35.6394 37.9611C35.8796 37.7209 36.1599 37.6065 36.4802 37.6179C36.8119 37.6179 37.0979 37.7323 37.3382 37.9611Z" fill="white"/>
<path d="M46.5853 52.9237C46.2765 53.0609 45.9676 53.0667 45.6587 52.9408C45.3499 52.815 45.1325 52.6034 45.0067 52.306C44.5606 51.265 44.1602 50.2583 43.8056 49.286L42.4672 45.5968C41.8723 43.961 41.4548 42.8228 41.2146 42.1822C41.1116 41.8733 41.1288 41.5702 41.2661 41.2728C41.4033 40.9639 41.6264 40.758 41.9353 40.6551C42.2441 40.5407 42.5473 40.5521 42.8447 40.6894C43.1535 40.8267 43.3652 41.0497 43.4796 41.3586L44.8008 44.9791C45.3384 46.5234 45.7674 47.7131 46.0877 48.5482C47.1859 45.4596 48.1182 43.0344 48.8846 41.2728C49.0104 40.9754 49.2278 40.7637 49.5366 40.6379C49.8455 40.5121 50.1486 40.5178 50.4461 40.6551C50.7549 40.7809 50.9723 40.9982 51.0981 41.3071C51.2239 41.616 51.2182 41.9248 51.0809 42.2337C50.5547 43.4005 50.0972 44.5101 49.7082 45.5625L48.4042 49.1659C47.9237 50.5271 47.5576 51.5338 47.306 52.1858C47.203 52.4718 47.02 52.6834 46.7569 52.8207C46.6997 52.8665 46.6425 52.9008 46.5853 52.9237Z" fill="white"/>
<path d="M60.7151 52.9237C59.0221 52.9237 56.7114 52.9065 53.7829 52.8722C53.5541 52.8722 53.3425 52.8093 53.148 52.6834C52.965 52.5462 52.8278 52.3803 52.7362 52.1858C52.599 51.9799 52.5303 51.7569 52.5303 51.5166C52.5418 51.1163 52.536 49.5033 52.5132 46.6778C52.5017 44.6188 52.5532 43.0001 52.6676 41.8219C52.679 41.6732 52.7134 41.5359 52.7706 41.4101C52.8621 41.1813 53.0051 40.9982 53.1995 40.861C53.394 40.7123 53.6171 40.6322 53.8687 40.6208C54.7038 40.6093 55.8306 40.6093 57.249 40.6208C58.6675 40.6208 59.7943 40.615 60.6293 40.6036C60.9611 40.6036 61.2413 40.718 61.4701 40.9468C61.7103 41.1756 61.8304 41.4558 61.8304 41.7876C61.8304 42.1079 61.7161 42.3881 61.4873 42.6283C61.2699 42.8571 60.9954 42.9715 60.6636 42.9715C60.023 42.9715 59.0679 42.9715 57.7981 42.9715C56.5284 42.9601 55.5732 42.9601 54.9326 42.9715C54.8983 43.6693 54.8754 44.4929 54.8639 45.4424C55.413 45.431 57.106 45.4252 59.943 45.4252C60.2747 45.4252 60.555 45.5396 60.7838 45.7684C61.024 45.9972 61.1441 46.2775 61.1441 46.6092C61.1441 46.9295 61.024 47.2098 60.7838 47.45C60.555 47.6788 60.2747 47.7932 59.943 47.7932C57.0946 47.7932 55.4073 47.7989 54.8811 47.8103C54.904 49.0915 54.9097 49.9952 54.8983 50.5214C57.2204 50.5443 59.1594 50.5557 60.7151 50.5557C61.0469 50.5557 61.3271 50.6701 61.5559 50.8989C61.7847 51.1277 61.8991 51.408 61.8991 51.7397C61.8991 52.0714 61.7847 52.3517 61.5559 52.5805C61.3271 52.8093 61.0469 52.9237 60.7151 52.9237Z" fill="white"/>
<path d="M73.1792 50.9332C72.6301 51.5967 71.9952 52.1 71.2745 52.4432C70.5539 52.775 69.8275 52.9351 69.0954 52.9237C68.3632 52.9237 67.6426 52.7978 66.9333 52.5462C66.2241 52.2945 65.5778 51.9113 64.9944 51.3965C64.411 50.8818 63.9477 50.2869 63.6045 49.612C63.1698 48.7769 62.9468 47.9076 62.9353 47.0039C62.9239 46.0887 63.084 45.2536 63.4158 44.4987C63.7361 43.7322 64.1936 43.0516 64.7885 42.4568C65.3948 41.839 66.0697 41.37 66.8132 41.0497C67.5682 40.718 68.4033 40.5693 69.3184 40.6036C70.2336 40.6379 71.1144 40.9067 71.9609 41.4101C72.1897 41.5245 72.3899 41.656 72.5614 41.8047C72.7445 41.942 72.9161 42.0964 73.0762 42.268C73.2364 42.4396 73.3565 42.5769 73.4366 42.6798C73.5166 42.7713 73.6367 42.9258 73.7969 43.1431C73.957 43.3605 74.06 43.4977 74.1057 43.5549C74.3002 43.818 74.3746 44.1154 74.3288 44.4472C74.2831 44.7675 74.1286 45.0249 73.8655 45.2193C73.6024 45.4138 73.3107 45.4882 72.9904 45.4424C72.6701 45.3966 72.407 45.2422 72.2011 44.9791L71.8579 44.533L71.5834 44.1555C71.5376 44.0868 71.4633 44.0011 71.3603 43.8981C71.2688 43.7951 71.1773 43.7151 71.0858 43.6579C71.0057 43.5892 70.9028 43.5149 70.7769 43.4348C69.9762 43.023 69.204 42.8857 68.4605 43.023C67.7169 43.1488 67.0592 43.5092 66.4872 44.104C65.8924 44.6988 65.5206 45.3909 65.3719 46.1802C65.2232 46.9581 65.3318 47.736 65.6979 48.5138C66.0754 49.2574 66.613 49.8065 67.3108 50.1611C68.0201 50.5157 68.7465 50.6301 69.49 50.5043C70.2336 50.367 70.8513 50.0009 71.3432 49.4061C71.572 49.143 71.7035 48.9314 71.7378 48.7712C71.7607 48.6911 71.7779 48.6168 71.7893 48.5482C71.4576 48.5367 70.8284 48.5539 69.9018 48.5996C69.5701 48.6111 69.2841 48.5081 69.0439 48.2908C68.8037 48.0734 68.6778 47.7989 68.6664 47.4671C68.6549 47.1354 68.7579 46.8494 68.9752 46.6092C69.1926 46.369 69.4671 46.2431 69.7989 46.2317C70.7254 46.1974 71.7721 46.1802 72.9389 46.1802C73.2707 46.1802 73.5567 46.3003 73.7969 46.5406C74.0485 46.7808 74.1687 47.0782 74.1572 47.4328V47.8275C74.1687 48.102 74.1629 48.3766 74.1401 48.6511C74.1286 48.9142 74.1 49.1487 74.0543 49.3546C73.917 49.8694 73.6253 50.3956 73.1792 50.9332Z" fill="white"/>
<defs>
<clipPath id="clip0">
<rect width="40.7523" height="40.7523" fill="white" transform="translate(31.4812 80.7897)"/>
</clipPath>
</defs>
</svg>
