<svg viewBox="0 0 118 118" fill="none" xmlns="http://www.w3.org/2000/svg">
<path d="M27.7677 104.013L5.78316 51.1144C5.3167 49.992 5.45903 48.6706 6.17884 47.4407C6.89864 46.2109 8.13695 45.1733 9.62136 44.5564L85.1804 13.1539L103.647 57.5884L92.1329 77.2623L27.7677 104.013Z" fill="#E5E4D1"/>
<path d="M92.1327 77.2623L86.8564 64.5667L103.647 57.5884L92.1327 77.2623Z" fill="#C6C3A7"/>
<path d="M101.728 60.8673L106.125 71.4469L92.1328 77.2622L101.728 60.8673Z" fill="#E5E4D1"/>
<path d="M101.927 73.1915L103.686 77.4234L35.1234 105.918C33.639 106.535 32.0301 106.681 30.6506 106.324C29.2711 105.966 28.2341 105.135 27.7677 104.012L101.927 73.1915Z" fill="#D3D1B6"/>
<path d="M65.5109 25.0508L86.6161 75.833L83.8176 76.9961L62.7124 26.2138L65.5109 25.0508Z" fill="#2D75BB"/>
<path d="M57.5551 29.5979L67.2283 52.8731L50.4374 59.8514L40.7642 36.5762L57.5551 29.5979Z" fill="#F9BB4B"/>
<path d="M30.5298 39.589L36.6855 54.4005L33.887 55.5635L27.7313 40.752L30.5298 39.589Z" fill="#394D5C"/>
<path d="M36.1267 37.2628L46.6793 62.6539L43.8808 63.817L33.3282 38.4259L36.1267 37.2628Z" fill="#394D5C"/>
<path d="M24.9329 41.915L34.6061 65.1902L31.8076 66.3533L22.1344 43.0781L24.9329 41.915Z" fill="#394D5C"/>
<path d="M44.1991 92.2208L38.0434 77.4093L49.2373 72.7571L55.393 87.5686L44.1991 92.2208Z" fill="#F9BB4B"/>
<path d="M33.0051 96.873L12.7793 48.2067L18.3763 45.8806L38.6021 94.5469L33.0051 96.873Z" fill="#2D75BB"/>
<path d="M68.9871 57.105L77.7809 78.2642L72.1839 80.5904L63.3901 59.4311L68.9871 57.105Z" fill="#F9BB4B"/>
<path d="M57.7931 61.7571L66.5869 82.9163L60.99 85.2425L52.1961 64.0832L57.7931 61.7571Z" fill="#F9BB4B"/>
<path d="M47.5588 64.7699L49.3176 69.0018L46.5191 70.1648L44.7604 65.933L47.5588 64.7699Z" fill="#394D5C"/>
<path d="M37.5649 56.5164L43.7206 71.3278L40.9221 72.4909L34.7665 57.6794L37.5649 56.5164Z" fill="#394D5C"/>
<path d="M35.4854 67.3062L38.1235 73.6539L35.325 74.817L32.6869 68.4692L35.4854 67.3062Z" fill="#394D5C"/>
</svg>
