<svg width="103" height="153" viewBox="0 0 103 153" fill="none" xmlns="http://www.w3.org/2000/svg">
<path d="M82.1001 141.206H20.9001V150.609C20.9001 151.93 21.9705 153 23.2908 153H79.7095C81.0297 153 82.1001 151.93 82.1001 150.609V141.206Z" fill="#3FAFBE"/>
<path d="M74.7689 141.206V150.45C74.7689 151.858 73.6274 153 72.219 153H79.5502C80.9585 153 82.1001 151.858 82.1001 150.45V141.206H74.7689Z" fill="#6492AC"/>
<path d="M97.4001 56.1L92.8648 133.199C92.5477 138.59 88.0829 142.8 82.6822 142.8H20.3177C14.917 142.8 10.4525 138.59 10.1351 133.199L5.6001 56.1V53.3732H97.4001V56.1Z" fill="#30C0D3"/>
<path d="M90.0689 53.3732V56.1003L85.5336 133.199C85.2165 138.591 80.752 142.8 75.3513 142.8H82.6825C88.0832 142.8 92.5477 138.591 92.8647 133.199L97.4001 56.1V53.3729H90.0689V53.3732Z" fill="#3FAFBE"/>
<path d="M97.4001 35.7001V37.2938H5.6001V35.7001L13.6864 7.39779C14.9376 3.01906 18.9398 0 23.4939 0H79.5063C84.0604 0 88.0626 3.01906 89.3138 7.39779L97.4001 35.7001Z" fill="#30C0D3"/>
<path d="M89.3137 7.39779C88.0625 3.01906 84.0603 0 79.5062 0H72.175C76.7292 0 80.7314 3.01906 81.9826 7.39779L90.0689 35.7001V37.2938H97.4V35.7001L89.3137 7.39779Z" fill="#3FAFBE"/>
<path d="M82.1001 35.7V37.2937H20.9001V35.7L25.1803 14.2998C25.6572 11.916 27.7502 10.1998 30.1811 10.1998H72.8191C75.2501 10.1998 77.3434 11.9157 77.82 14.2998L82.1001 35.7Z" fill="#5A5A5A"/>
<path d="M77.8201 14.2998C77.3432 11.916 75.2502 10.1998 72.8192 10.1998H65.488C67.919 10.1998 70.0123 11.9157 70.4892 14.2998L74.7694 35.7V37.2937H82.1002V35.7L77.8201 14.2998Z" fill="#464646"/>
<path d="M5.6001 35.7001C2.78335 35.7001 0.5 37.9834 0.5 40.8002V51.0001C0.5 53.8168 2.78335 56.1002 5.6001 56.1002H97.4001C100.217 56.1002 102.5 53.8168 102.5 51.0001V40.8002C102.5 37.9834 100.217 35.7001 97.4001 35.7001H5.6001Z" fill="#3FAFBE"/>
<path d="M97.4 35.7001H90.0688C92.8856 35.7001 95.1689 37.9834 95.1689 40.8002V51.0001C95.1689 53.8168 92.8856 56.1002 90.0688 56.1002H97.4C100.217 56.1002 102.5 53.8168 102.5 51.0001V40.8002C102.5 37.9834 100.217 35.7001 97.4 35.7001V35.7001Z" fill="#6492AC"/>
<path d="M96.6595 68.6904L96.9407 63.9092H6.05933L6.34052 68.6904H96.6595Z" fill="#3FAFBE"/>
<g clip-path="url(#clip0)">
<path d="M31.693 94.2203L34.244 96.2135L31.843 100.813C30.6425 102.934 32.7048 105 34.0188 105.719C35.3124 106.427 37.3201 106.511 39.1959 106.486L42.5722 100.966L45.1232 102.346L40.6964 94.1437L31.693 94.2203ZM32.0681 105.479L37.5452 115.598C38.6456 117.004 40.7215 117.336 42.8723 117.285H48.6495V107.703L37.6953 107.626C35.9947 107.728 33.7687 107.37 32.0681 105.479ZM66.5275 86.8314L63.5475 88.0963L60.6887 83.7665C59.4157 81.6884 56.6088 82.4904 55.3428 83.291C54.0965 84.0792 53.0495 85.7944 52.1624 87.4473L55.353 93.0762L52.9094 94.6384L62.2295 94.7433L66.5275 86.8314ZM56.4981 81.701L44.9925 81.5857C43.2298 81.8668 41.9329 83.5212 40.9348 85.4273L38.134 90.4802L46.5149 95.1258L51.8927 85.5821C52.6277 84.045 54.0198 82.2717 56.4981 81.701ZM56.9986 120.746L57.337 117.526L62.5099 117.125C64.9446 117.019 65.604 114.176 65.5175 112.68C65.4325 111.208 64.4399 109.461 63.4242 107.883L56.9543 107.945L56.7726 105.05L52.1623 113.151L56.9986 120.746ZM66.3481 114.461L72.027 104.454C72.6357 102.776 71.8175 100.84 70.6343 99.043L67.5728 94.1436L59.4465 99.2215L65.1864 108.552C66.1744 109.94 67.0505 112.017 66.3481 114.461Z" fill="white"/>
</g>
<path d="M31.6471 51.8255C31.6471 52.1572 31.527 52.4432 31.2867 52.6834C31.0579 52.9122 30.7777 53.0266 30.4459 53.0266C30.1142 53.0266 29.8282 52.9122 29.588 52.6834C29.3592 52.4432 29.2448 52.1572 29.2448 51.8255C29.2448 51.4938 29.2334 49.8293 29.2105 46.8323C29.1876 43.8352 29.1933 42.1708 29.2277 41.839C29.2391 41.5073 29.3649 41.2327 29.6052 41.0154C29.8454 40.7866 30.1314 40.6722 30.4631 40.6722C30.5203 40.6722 30.5775 40.6779 30.6347 40.6894C30.6576 40.6894 30.6862 40.6837 30.7205 40.6722C32.1161 40.4434 33.2085 40.3519 33.9978 40.3977C35.5536 40.5006 36.7318 41.044 37.5326 42.0278C38.1503 42.7828 38.4649 43.5892 38.4763 44.4472C38.4877 45.3051 38.2189 46.0258 37.6698 46.6092C37.2237 47.1011 36.6632 47.4843 35.9883 47.7588C35.3133 48.0334 34.627 48.1878 33.9292 48.2221C33.7004 48.2336 33.4545 48.2336 33.1914 48.2221C32.9283 48.2107 32.608 48.1878 32.2305 48.1535C31.8644 48.1192 31.6585 48.0963 31.6127 48.0849C31.6356 49.8122 31.6471 51.0591 31.6471 51.8255ZM33.8262 45.8199C34.2495 45.8085 34.6499 45.7284 35.0274 45.5797C35.4049 45.4195 35.6851 45.2308 35.8682 45.0134C35.9597 44.9105 36.0226 44.819 36.0569 44.7389C36.0912 44.6474 36.0798 44.4815 36.0226 44.2413C35.9768 44.001 35.8624 43.7665 35.6794 43.5378C35.3133 43.0916 34.7013 42.8457 33.8434 42.7999C33.2714 42.7656 32.5279 42.8171 31.6127 42.9544C31.6013 43.7208 31.5956 44.6302 31.5956 45.6826H31.6127L32.4192 45.7684C32.7166 45.7913 32.974 45.8085 33.1914 45.8199C33.4087 45.8313 33.6203 45.8313 33.8262 45.8199Z" fill="white"/>
<path d="M37.8807 52.203C37.7434 51.8941 37.7377 51.591 37.8635 51.2936L41.7071 41.3929C41.7986 41.1756 41.9416 40.9982 42.1361 40.861C42.3306 40.7237 42.5479 40.6493 42.7881 40.6379C43.0398 40.5922 43.2857 40.6379 43.526 40.7752C43.7776 40.901 43.9664 41.084 44.0922 41.3243L45.362 44.4815L46.8548 48.1707L48.0388 51.2593C48.1646 51.5681 48.1589 51.877 48.0216 52.1858C47.8958 52.4833 47.6727 52.6949 47.3524 52.8207C47.0435 52.9465 46.7347 52.9465 46.4258 52.8207C46.117 52.6834 45.8996 52.4661 45.7738 52.1687L44.7786 49.9037C43.4974 49.8694 42.2276 49.8808 40.9693 49.938L40.1285 52.203C39.9912 52.5004 39.7682 52.7178 39.4593 52.855C39.1505 52.9809 38.8416 52.9809 38.5327 52.855C38.2239 52.7178 38.0065 52.5004 37.8807 52.203ZM41.9645 47.4843C42.3992 47.4843 43.0284 47.4843 43.852 47.4843L42.9426 45.0134L41.9645 47.4843Z" fill="white"/>
<path d="M51.9395 51.8255C51.9395 52.1572 51.8193 52.4432 51.5791 52.6834C51.3503 52.9122 51.0701 53.0266 50.7383 53.0266C50.4066 53.0266 50.1206 52.9122 49.8804 52.6834C49.6516 52.4432 49.5372 52.1572 49.5372 51.8255C49.5372 51.4938 49.5258 49.8293 49.5029 46.8323C49.48 43.8352 49.4857 42.1708 49.52 41.839C49.5315 41.5073 49.6573 41.2327 49.8975 41.0154C50.1378 40.7866 50.4237 40.6722 50.7555 40.6722C50.8127 40.6722 50.8699 40.6779 50.9271 40.6894C50.95 40.6894 50.9786 40.6837 51.0129 40.6722C52.4085 40.4434 53.5009 40.3519 54.2902 40.3977C55.846 40.5006 57.0242 41.044 57.8249 42.0278C58.4427 42.7828 58.7572 43.5892 58.7687 44.4472C58.7801 45.3051 58.5113 46.0258 57.9622 46.6092C57.5161 47.1011 56.9556 47.4843 56.2806 47.7588C55.6057 48.0334 54.9194 48.1878 54.2216 48.2221C53.9928 48.2336 53.7469 48.2336 53.4838 48.2221C53.2206 48.2107 52.9003 48.1878 52.5229 48.1535C52.1568 48.1192 51.9509 48.0963 51.9051 48.0849C51.928 49.8122 51.9395 51.0591 51.9395 51.8255ZM54.1186 45.8199C54.5419 45.8085 54.9423 45.7284 55.3198 45.5797C55.6972 45.4195 55.9775 45.2308 56.1605 45.0134C56.252 44.9105 56.315 44.819 56.3493 44.7389C56.3836 44.6474 56.3722 44.4815 56.315 44.2413C56.2692 44.001 56.1548 43.7665 55.9718 43.5378C55.6057 43.0916 54.9937 42.8457 54.1358 42.7999C53.5638 42.7656 52.8203 42.8171 51.9051 42.9544C51.8937 43.7208 51.888 44.6302 51.888 45.6826H51.9051L52.7116 45.7684C53.009 45.7913 53.2664 45.8085 53.4838 45.8199C53.7011 45.8313 53.9127 45.8313 54.1186 45.8199Z" fill="white"/>
<path d="M62.629 51.7912C62.629 52.1229 62.5089 52.4032 62.2687 52.632C62.0285 52.8607 61.7425 52.9751 61.4107 52.9751C61.079 52.9751 60.7988 52.855 60.57 52.6148C60.3412 52.3746 60.2268 52.0886 60.2268 51.7569C60.2382 50.6816 60.2439 49.0343 60.2439 46.8151C60.2439 44.5845 60.2439 42.9258 60.2439 41.839C60.2439 41.5073 60.3641 41.227 60.6043 40.9982C60.8445 40.7695 61.1305 40.6551 61.4622 40.6551C61.794 40.6551 62.0742 40.7752 62.303 41.0154C62.5318 41.2556 62.6462 41.5416 62.6462 41.8733C62.6462 42.9486 62.6462 44.6016 62.6462 46.8323C62.6462 49.0515 62.6405 50.7045 62.629 51.7912ZM61.119 39.8658C60.7987 39.8086 60.5356 39.6484 60.3297 39.3853C60.1353 39.1222 60.0609 38.8305 60.1067 38.5102C60.1639 38.1785 60.324 37.9154 60.5871 37.7209L62.2001 36.5541C62.4746 36.3482 62.772 36.2681 63.0923 36.3139C63.4126 36.3711 63.67 36.5312 63.8645 36.7943C64.0704 37.0574 64.1447 37.3548 64.0875 37.6866C64.0418 38.0069 63.8873 38.2643 63.6242 38.4587L62.0113 39.6255C61.7482 39.8314 61.4508 39.9115 61.119 39.8658Z" fill="white"/>
<path d="M72.7016 51.9971C72.4385 50.8188 72.2097 49.9323 72.0152 49.3375C71.8093 48.8227 71.5748 48.4452 71.3117 48.205C71.0257 47.9419 70.6139 47.776 70.0763 47.7074C69.9504 47.7188 69.7788 47.7302 69.5615 47.7417C69.3441 47.7417 69.2297 47.7417 69.2183 47.7417C68.7722 47.7531 68.429 47.7646 68.1888 47.776H67.674C67.6854 49.3317 67.6912 50.6473 67.6912 51.7225C67.6912 52.0543 67.5711 52.3403 67.3308 52.5805C67.102 52.8093 66.8218 52.9237 66.49 52.9237C66.1583 52.9237 65.8723 52.8093 65.6321 52.5805C65.4033 52.3403 65.2889 52.0543 65.2889 51.7225C65.2889 50.4299 65.2775 48.714 65.2546 46.5749C65.2317 44.4357 65.2203 42.8342 65.2203 41.7704C65.2203 41.4387 65.3347 41.1584 65.5635 40.9296C65.8037 40.6894 66.0897 40.5693 66.4214 40.5693H66.5072C68.143 40.3634 69.6644 40.3691 71.0715 40.5864C72.1582 40.7466 73.0161 41.0497 73.6453 41.4959C74.5948 42.1593 75.0409 43.0516 74.9837 44.1726C74.9151 45.2708 74.3431 46.1402 73.2678 46.7808C73.6796 47.2612 74.0114 47.8389 74.263 48.5138C74.5147 49.1773 74.7721 50.1439 75.0352 51.4137C75.1152 51.734 75.0695 52.0371 74.8979 52.3231C74.7263 52.6091 74.4804 52.7921 74.1601 52.8722C73.8398 52.9523 73.5366 52.9065 73.2506 52.7349C72.9647 52.5633 72.7816 52.3174 72.7016 51.9971ZM67.6912 45.3738C68.6406 45.2594 69.4528 45.2365 70.1277 45.3051C70.2192 45.2937 70.2993 45.2822 70.368 45.2708C71.0429 45.1564 71.5862 44.9848 71.998 44.756C72.3755 44.5387 72.57 44.2985 72.5814 44.0354C72.6043 43.8066 72.5071 43.6178 72.2897 43.4691C71.9466 43.2289 71.4146 43.0573 70.694 42.9544C69.8246 42.8171 68.8008 42.7885 67.6225 42.8686C67.6225 43.5664 67.6283 44.4014 67.6397 45.3738H67.6912Z" fill="white"/>
<defs>
<clipPath id="clip0">
<rect width="40.7523" height="40.7523" fill="white" transform="translate(31.4812 80.7897)"/>
</clipPath>
</defs>
</svg>
