<svg width="103" height="153" viewBox="0 0 103 153" fill="none" xmlns="http://www.w3.org/2000/svg">
<path d="M82.1001 141.206H20.9001V150.609C20.9001 151.93 21.9705 153 23.2908 153H79.7095C81.0297 153 82.1001 151.93 82.1001 150.609V141.206Z" fill="#D6C63E"/>
<path d="M74.7689 141.206V150.45C74.7689 151.858 73.6274 153 72.219 153H79.5502C80.9585 153 82.1001 151.858 82.1001 150.45V141.206H74.7689Z" fill="#A79E4C"/>
<path d="M97.4001 56.1L92.8648 133.199C92.5477 138.59 88.0829 142.8 82.6822 142.8H20.3177C14.917 142.8 10.4525 138.59 10.1351 133.199L5.6001 56.1V53.3732H97.4001V56.1Z" fill="#ECD82A"/>
<path d="M90.0689 53.3732V56.1003L85.5336 133.199C85.2165 138.591 80.752 142.8 75.3513 142.8H82.6825C88.0832 142.8 92.5477 138.591 92.8647 133.199L97.4001 56.1V53.3729H90.0689V53.3732Z" fill="#D6C63E"/>
<path d="M97.4001 35.7001V37.2938H5.6001V35.7001L13.6864 7.39779C14.9376 3.01906 18.9398 0 23.4939 0H79.5063C84.0604 0 88.0626 3.01906 89.3138 7.39779L97.4001 35.7001Z" fill="#ECD82A"/>
<path d="M89.3137 7.39779C88.0625 3.01906 84.0603 0 79.5062 0H72.175C76.7292 0 80.7314 3.01906 81.9826 7.39779L90.0689 35.7001V37.2938H97.4V35.7001L89.3137 7.39779Z" fill="#D6C63E"/>
<path d="M82.1001 35.7V37.2937H20.9001V35.7L25.1803 14.2998C25.6572 11.916 27.7502 10.1998 30.1811 10.1998H72.8191C75.2501 10.1998 77.3434 11.9157 77.82 14.2998L82.1001 35.7Z" fill="#5A5A5A"/>
<path d="M77.8201 14.2998C77.3432 11.916 75.2502 10.1998 72.8192 10.1998H65.488C67.919 10.1998 70.0123 11.9157 70.4892 14.2998L74.7694 35.7V37.2937H82.1002V35.7L77.8201 14.2998Z" fill="#464646"/>
<path d="M5.6001 35.7001C2.78335 35.7001 0.5 37.9834 0.5 40.8002V51.0001C0.5 53.8168 2.78335 56.1002 5.6001 56.1002H97.4001C100.217 56.1002 102.5 53.8168 102.5 51.0001V40.8002C102.5 37.9834 100.217 35.7001 97.4001 35.7001H5.6001Z" fill="#D6C63E"/>
<path d="M97.4 35.7001H90.0688C92.8856 35.7001 95.1689 37.9834 95.1689 40.8002V51.0001C95.1689 53.8168 92.8856 56.1002 90.0688 56.1002H97.4C100.217 56.1002 102.5 53.8168 102.5 51.0001V40.8002C102.5 37.9834 100.217 35.7001 97.4 35.7001V35.7001Z" fill="#A79E4C"/>
<path d="M96.6595 68.6904L96.9407 63.9092H6.05933L6.34052 68.6904H96.6595Z" fill="#D6C63E"/>
<g clip-path="url(#clip0)">
<path d="M31.693 94.2203L34.244 96.2135L31.843 100.813C30.6425 102.934 32.7048 105 34.0188 105.719C35.3124 106.427 37.3201 106.511 39.1959 106.486L42.5722 100.966L45.1232 102.346L40.6964 94.1437L31.693 94.2203ZM32.0681 105.479L37.5452 115.598C38.6456 117.004 40.7215 117.336 42.8723 117.285H48.6495V107.703L37.6953 107.626C35.9947 107.728 33.7687 107.37 32.0681 105.479ZM66.5275 86.8314L63.5475 88.0963L60.6887 83.7665C59.4157 81.6884 56.6088 82.4904 55.3428 83.291C54.0965 84.0792 53.0495 85.7944 52.1624 87.4473L55.353 93.0762L52.9094 94.6384L62.2295 94.7433L66.5275 86.8314ZM56.4981 81.701L44.9925 81.5857C43.2298 81.8668 41.9329 83.5212 40.9348 85.4273L38.134 90.4802L46.5149 95.1258L51.8927 85.5821C52.6277 84.045 54.0198 82.2717 56.4981 81.701ZM56.9986 120.746L57.337 117.526L62.5099 117.125C64.9446 117.019 65.604 114.176 65.5175 112.68C65.4325 111.208 64.4399 109.461 63.4242 107.883L56.9543 107.945L56.7726 105.05L52.1623 113.151L56.9986 120.746ZM66.3481 114.461L72.027 104.454C72.6357 102.776 71.8175 100.84 70.6343 99.043L67.5728 94.1436L59.4465 99.2215L65.1864 108.552C66.1744 109.94 67.0505 112.017 66.3481 114.461Z" fill="white"/>
</g>
<path d="M24.2345 51.7569C24.223 52.0886 24.0972 52.3689 23.857 52.5977C23.6168 52.8264 23.3308 52.9351 22.999 52.9237C22.6673 52.9122 22.387 52.7864 22.1583 52.5462C21.9295 52.306 21.8208 52.02 21.8322 51.6882C21.8551 50.9447 21.8437 48.7483 21.7979 45.0992C20.9514 46.1631 20.1163 47.3013 19.2927 48.5138C19.0983 48.7884 18.8409 48.96 18.5206 49.0286C18.2003 49.0858 17.9029 49.0229 17.6283 48.8399C17.594 48.817 17.5654 48.7941 17.5425 48.7712C17.4167 48.6911 17.308 48.5939 17.2165 48.4795L14.574 45.1507C14.5855 45.1736 14.5855 46.2717 14.574 48.4452C14.574 50.6072 14.574 51.694 14.574 51.7054C14.574 52.0371 14.4539 52.3231 14.2137 52.5633C13.9849 52.7921 13.7046 52.9065 13.3729 52.9065C13.0412 52.9065 12.7552 52.7921 12.515 52.5633C12.2862 52.3231 12.1718 52.0371 12.1718 51.7054C12.1718 51.2249 12.1718 50.4185 12.1718 49.286C12.1832 48.1535 12.1889 47.2784 12.1889 46.6607C12.1889 46.043 12.1775 45.2765 12.1546 44.3614C12.1318 43.5492 12.0917 42.7084 12.0345 41.839C12.0116 41.5073 12.1089 41.2156 12.3262 40.9639C12.5436 40.7123 12.8181 40.575 13.1498 40.5521C13.3214 40.5407 13.4816 40.5636 13.6303 40.6208C13.9506 40.6665 14.208 40.8209 14.4024 41.084L18.2117 45.8714C19.4472 44.1555 20.7055 42.6112 21.9867 41.2385C22.2269 40.8267 22.5815 40.6265 23.0505 40.6379C23.3823 40.6494 23.6625 40.7752 23.8913 41.0154C24.1201 41.2556 24.2288 41.5416 24.2173 41.8734C24.183 42.9601 24.183 44.6245 24.2173 46.8666C24.2516 49.0972 24.2574 50.7273 24.2345 51.7569Z" fill="white"/>
<path d="M32.7848 52.7006C32.1557 52.8493 31.5951 52.9122 31.1033 52.8894C30.6114 52.855 30.1481 52.7178 29.7134 52.4775C29.2787 52.2373 28.9012 51.9571 28.5809 51.6368C28.272 51.3165 27.9975 50.9504 27.7573 50.5386C26.9794 49.246 26.5676 47.4614 26.5218 45.185C26.4875 42.8972 26.4761 41.7361 26.4875 41.7018C26.5104 41.37 26.6477 41.1012 26.8993 40.8953C27.1624 40.6894 27.4599 40.6036 27.7916 40.6379C28.1233 40.6608 28.3922 40.8038 28.5981 41.0669C28.804 41.3185 28.8898 41.6103 28.8554 41.942C28.844 42.0678 28.8497 43.0802 28.8726 44.9791C28.8955 46.878 29.2043 48.3194 29.7992 49.3031C30.108 49.8179 30.4455 50.1668 30.8116 50.3498C31.1776 50.5329 31.6066 50.55 32.0985 50.4013C33.231 50.0696 33.9688 48.8341 34.312 46.695C34.5293 45.3566 34.5693 43.7094 34.4321 41.7532C34.4206 41.4215 34.5236 41.1355 34.7409 40.8953C34.9697 40.6436 35.2443 40.5121 35.5646 40.5006C35.8963 40.4778 36.1823 40.5807 36.4225 40.8095C36.6742 41.0268 36.8114 41.2957 36.8343 41.616C36.9716 43.7665 36.9201 45.5854 36.6799 47.0725C36.1766 50.2068 34.8782 52.0829 32.7848 52.7006ZM30.537 39.5054C30.3769 39.7685 30.1481 39.9344 29.8507 40.003C29.5647 40.0602 29.2901 40.0145 29.027 39.8658C28.7754 39.7056 28.6152 39.4768 28.5466 39.1794C28.4894 38.882 28.5409 38.6074 28.701 38.3558L29.7477 36.7085C29.8964 36.4569 30.1195 36.3024 30.4169 36.2452C30.7143 36.1766 30.9889 36.2224 31.2405 36.3825C31.4922 36.5312 31.6466 36.7543 31.7038 37.0517C31.7725 37.3491 31.7324 37.618 31.5837 37.8582L30.537 39.5054ZM33.9173 39.6427C33.7228 39.8715 33.4769 40.0088 33.1795 40.0545C32.8935 40.0888 32.6304 40.0145 32.3902 39.8314C32.1499 39.637 32.0127 39.391 31.9784 39.0936C31.944 38.7962 32.0184 38.5331 32.2014 38.3043L33.231 37.0002C33.414 36.76 33.6542 36.6227 33.9516 36.5884C34.2491 36.5427 34.5122 36.617 34.7409 36.8115C34.9812 36.9945 35.1184 37.2347 35.1528 37.5322C35.1985 37.8296 35.1242 38.0927 34.9297 38.3215L33.9173 39.6427Z" fill="white"/>
<path d="M37.4116 52.203C37.2743 51.8941 37.2686 51.591 37.3944 51.2936L41.238 41.3929C41.3295 41.1756 41.4725 40.9983 41.667 40.861C41.8614 40.7237 42.0788 40.6494 42.319 40.6379C42.5707 40.5922 42.8166 40.6379 43.0568 40.7752C43.3085 40.901 43.4972 41.084 43.6231 41.3243L44.8928 44.4815L46.3856 48.1707L47.5696 51.2593C47.6954 51.5681 47.6897 51.877 47.5525 52.1858C47.4266 52.4833 47.2036 52.6949 46.8833 52.8207C46.5744 52.9465 46.2655 52.9465 45.9567 52.8207C45.6478 52.6834 45.4305 52.4661 45.3046 52.1687L44.3094 49.9037C43.0282 49.8694 41.7585 49.8808 40.5002 49.938L39.6594 52.203C39.5221 52.5004 39.299 52.7178 38.9902 52.855C38.6813 52.9809 38.3725 52.9809 38.0636 52.855C37.7547 52.7178 37.5374 52.5004 37.4116 52.203ZM41.4954 47.4843C41.9301 47.4843 42.5592 47.4843 43.3828 47.4843L42.4734 45.0134L41.4954 47.4843Z" fill="white"/>
<path d="M58.1279 52.8379C57.6818 52.918 57.31 52.7807 57.0126 52.4261C56.2462 51.5224 55.2796 50.184 54.1128 48.4109C52.843 46.6149 51.945 45.3966 51.4188 44.756C51.4303 45.2136 51.4589 46.2317 51.5046 47.8103C51.5504 49.3775 51.5733 50.6816 51.5733 51.7225C51.5733 52.0543 51.4531 52.3403 51.2129 52.5805C50.9841 52.8093 50.7039 52.9237 50.3721 52.9237C50.0404 52.9237 49.7544 52.8093 49.5142 52.5805C49.2854 52.3403 49.171 52.0543 49.171 51.7225C49.171 50.7159 49.1367 49.0915 49.0681 46.8494C49.0109 44.5959 49.0051 42.8914 49.0509 41.7361C49.0623 41.4043 49.1882 41.1241 49.4284 40.8953C49.6686 40.6665 49.9546 40.5578 50.2863 40.5693C50.4465 40.5807 50.6009 40.615 50.7496 40.6722C50.967 40.7409 51.1557 40.8667 51.3159 41.0497C51.5103 41.29 51.8249 41.6732 52.2596 42.1994C52.6943 42.7141 53.0203 43.1031 53.2377 43.3662C53.8783 44.0297 54.8277 45.2537 56.086 47.0382L56.9097 48.2221C56.944 45.5682 56.9497 43.4119 56.9268 41.7532C56.9268 41.4215 57.0412 41.1412 57.27 40.9125C57.4988 40.6722 57.7791 40.5521 58.1108 40.5521C58.4425 40.5407 58.7228 40.6494 58.9516 40.8781C59.1918 41.1069 59.3176 41.3872 59.3291 41.7189C59.3405 43.2747 59.3234 46.5863 59.2776 51.6539C59.2662 51.9742 59.1518 52.2488 58.9344 52.4775C58.7171 52.6949 58.4482 52.815 58.1279 52.8379Z" fill="white"/>
<path d="M64.5621 51.774C64.5621 51.488 64.5564 51.0991 64.545 50.6072C64.545 50.1039 64.545 49.7092 64.545 49.4233V48.4452L62.8291 45.5968C61.9826 44.2127 61.3534 43.1317 60.9416 42.3538C60.7815 42.0678 60.7471 41.7704 60.8386 41.4615C60.9302 41.1412 61.1189 40.901 61.4049 40.7409C61.7023 40.5807 62.0055 40.5464 62.3143 40.6379C62.6346 40.7294 62.8748 40.9239 63.035 41.2213C63.4125 41.8962 64.2704 43.3433 65.6088 45.5625L66.5354 44.1212L68.4915 41.1698C68.6631 40.8953 68.909 40.718 69.2293 40.6379C69.5496 40.5578 69.8471 40.6093 70.1216 40.7923C70.4076 40.9639 70.5906 41.2099 70.6707 41.5302C70.7508 41.8505 70.6993 42.1536 70.5163 42.4396C70.4476 42.554 69.7841 43.5606 68.5258 45.4596C67.8509 46.4777 67.319 47.3299 66.9301 48.0162C66.9415 48.2793 66.9472 48.857 66.9472 49.7493C66.9472 50.6415 66.9529 51.2936 66.9644 51.7054C66.9758 52.0371 66.8671 52.3231 66.6383 52.5633C66.4096 52.8036 66.1293 52.9294 65.7976 52.9408C65.4658 52.9523 65.1798 52.8436 64.9396 52.6148C64.6994 52.386 64.5736 52.1058 64.5621 51.774Z" fill="white"/>
<path d="M69.4336 52.203C69.2964 51.8941 69.2906 51.591 69.4165 51.2936L73.2601 41.3929C73.3516 41.1756 73.4946 40.9983 73.689 40.861C73.8835 40.7237 74.1008 40.6494 74.3411 40.6379C74.5927 40.5922 74.8387 40.6379 75.0789 40.7752C75.3306 40.901 75.5193 41.084 75.6451 41.3243L76.9149 44.4815L78.4077 48.1707L79.5917 51.2593C79.7175 51.5681 79.7118 51.877 79.5745 52.1858C79.4487 52.4833 79.2256 52.6949 78.9053 52.8207C78.5965 52.9465 78.2876 52.9465 77.9788 52.8207C77.6699 52.6834 77.4526 52.4661 77.3267 52.1687L76.3315 49.9037C75.0503 49.8694 73.7806 49.8808 72.5222 49.938L71.6814 52.203C71.5442 52.5004 71.3211 52.7178 71.0123 52.855C70.7034 52.9809 70.3945 52.9809 70.0857 52.855C69.7768 52.7178 69.5595 52.5004 69.4336 52.203ZM73.5174 47.4843C73.9521 47.4843 74.5813 47.4843 75.4049 47.4843L74.4955 45.0134L73.5174 47.4843Z" fill="white"/>
<path d="M90.3268 50.9332C89.7778 51.5967 89.1429 52.1 88.4222 52.4432C87.7015 52.775 86.9751 52.9351 86.243 52.9237C85.5109 52.9237 84.7903 52.7978 84.081 52.5462C83.3718 52.2945 82.7255 51.9113 82.1421 51.3965C81.5587 50.8818 81.0954 50.2869 80.7522 49.612C80.3175 48.7769 80.0944 47.9076 80.083 47.0039C80.0716 46.0887 80.2317 45.2537 80.5634 44.4987C80.8837 43.7322 81.3413 43.0516 81.9362 42.4568C82.5424 41.839 83.2173 41.37 83.9609 41.0497C84.7159 40.718 85.551 40.5693 86.4661 40.6036C87.3812 40.6379 88.2621 40.9067 89.1086 41.4101C89.3374 41.5245 89.5375 41.656 89.7091 41.8047C89.8922 41.942 90.0637 42.0964 90.2239 42.268C90.384 42.4396 90.5042 42.5769 90.5842 42.6798C90.6643 42.7713 90.7844 42.9258 90.9446 43.1431C91.1047 43.3605 91.2077 43.4977 91.2534 43.5549C91.4479 43.818 91.5222 44.1154 91.4765 44.4472C91.4307 44.7675 91.2763 45.0249 91.0132 45.2193C90.7501 45.4138 90.4584 45.4882 90.1381 45.4424C89.8178 45.3966 89.5547 45.2422 89.3488 44.9791L89.0056 44.533L88.7311 44.1555C88.6853 44.0868 88.611 44.0011 88.508 43.8981C88.4165 43.7951 88.325 43.7151 88.2335 43.6579C88.1534 43.5892 88.0504 43.5149 87.9246 43.4348C87.1239 43.023 86.3517 42.8857 85.6082 43.023C84.8646 43.1488 84.2068 43.5092 83.6349 44.104C83.04 44.6988 82.6683 45.3909 82.5196 46.1802C82.3708 46.9581 82.4795 47.736 82.8456 48.5138C83.2231 49.2574 83.7607 49.8065 84.4585 50.1611C85.1677 50.5157 85.8941 50.6301 86.6377 50.5043C87.3812 50.367 87.999 50.0009 88.4908 49.4061C88.7196 49.143 88.8512 48.9314 88.8855 48.7712C88.9084 48.6911 88.9255 48.6168 88.937 48.5482C88.6052 48.5367 87.9761 48.5539 87.0495 48.5996C86.7178 48.6111 86.4318 48.5081 86.1916 48.2908C85.9513 48.0734 85.8255 47.7989 85.8141 47.4671C85.8026 47.1354 85.9056 46.8494 86.1229 46.6092C86.3403 46.369 86.6148 46.2431 86.9465 46.2317C87.8731 46.1974 88.9198 46.1802 90.0866 46.1802C90.4184 46.1802 90.7043 46.3003 90.9446 46.5406C91.1962 46.7808 91.3163 47.0782 91.3049 47.4328V47.8275C91.3163 48.102 91.3106 48.3766 91.2877 48.6511C91.2763 48.9142 91.2477 49.1487 91.202 49.3546C91.0647 49.8694 90.773 50.3956 90.3268 50.9332Z" fill="white"/>
<defs>
<clipPath id="clip0">
<rect width="40.7523" height="40.7523" fill="white" transform="translate(31.4812 80.7897)"/>
</clipPath>
</defs>
</svg>
