<svg viewBox="0 0 118 118" fill="none" xmlns="http://www.w3.org/2000/svg">
<path d="M47.1019 84.7341L50.2523 83.8764C51.9923 83.4027 53.1279 82.0088 52.7887 80.7629L53.7731 80.4949L46.4039 53.4254L45.4195 53.6934C45.0803 52.4475 43.3949 51.8215 41.6549 52.2952L38.5044 53.1529C37.2547 53.4931 36.3189 54.3082 36.0154 55.2019C35.981 55.303 35.872 55.3892 35.7395 55.4252L35.7388 55.4254C35.6062 55.4615 35.4686 55.4426 35.3877 55.3728C34.673 54.7561 33.4532 54.528 32.2035 54.8682L29.053 55.7259C27.8033 56.0661 26.8675 56.8812 26.564 57.7749C26.5296 57.876 26.4206 57.9621 26.2881 57.9982L26.2876 57.9984C26.155 58.0345 26.0174 58.0156 25.9366 57.9457C25.2218 57.3291 24.002 57.1009 22.7523 57.4411L19.6018 58.2988C18.3521 58.639 17.4163 59.4541 17.1128 60.3478C17.0784 60.4489 16.9694 60.5351 16.8369 60.5712L16.8364 60.5713C16.7038 60.6074 16.5662 60.5885 16.4853 60.5186C15.7706 59.902 14.5508 59.6738 13.3011 60.0141C9.82132 60.9614 7.55025 63.7492 8.22856 66.2409L14.3696 88.799C15.048 91.2908 18.4188 92.5426 21.8986 91.5953C23.1483 91.2551 24.0841 90.4401 24.3876 89.5462C24.422 89.4451 24.5309 89.359 24.6635 89.3229L24.664 89.3227C24.7966 89.2867 24.9342 89.3056 25.015 89.3754C25.7298 89.9921 26.9496 90.2202 28.1993 89.88L31.3498 89.0223C32.5995 88.6821 33.5353 87.8671 33.8388 86.9733C33.8732 86.8722 33.9822 86.786 34.1147 86.75L34.1152 86.7498C34.2478 86.7137 34.3854 86.7326 34.4662 86.8025C35.181 87.4191 36.4008 87.6473 37.6505 87.3071L40.801 86.4494C42.0507 86.1092 42.9865 85.2942 43.29 84.4003C43.3244 84.2993 43.4334 84.2131 43.5659 84.177L43.5666 84.1768C43.6992 84.1407 43.8368 84.1597 43.9176 84.2295C44.6323 84.8461 45.8522 85.0743 47.1019 84.7341V84.7341Z" fill="#D8E2F3"/>
<path d="M43.9179 84.2299C44.6326 84.8465 45.8525 85.0747 47.1022 84.7345L50.2526 83.8768C51.9926 83.4031 53.1281 82.0092 52.789 80.7633L51.9062 77.5206C52.2454 78.7665 51.1098 80.1604 49.3699 80.6341L46.2194 81.4918C44.9697 81.832 43.7499 81.6038 43.0351 80.9872C42.9543 80.9175 42.8167 80.8984 42.6841 80.9345L42.6834 80.9347C42.5509 80.9708 42.4418 81.0568 42.4075 81.158C42.104 82.0519 41.1682 82.8669 39.9185 83.2071L36.768 84.0648C35.5183 84.405 34.2985 84.1768 33.5838 83.5602C33.5029 83.4905 33.3653 83.4714 33.2327 83.5075L33.232 83.5077C33.0995 83.5438 32.9904 83.6298 32.9561 83.731C32.6526 84.6249 31.7168 85.4399 30.4671 85.7801L27.3166 86.6377C26.0669 86.9779 24.8471 86.7498 24.1324 86.1331C24.0515 86.0634 23.9139 86.0444 23.7814 86.0805L23.7806 86.0807C23.6481 86.1168 23.5391 86.2028 23.5047 86.304C23.2012 87.1979 22.2654 88.0128 21.0157 88.3531C17.5359 89.3004 14.1651 88.0484 13.4867 85.5568L14.3695 88.7994C15.0479 91.2912 18.4187 92.543 21.8985 91.5957C23.1482 91.2555 24.084 90.4405 24.3875 89.5467C24.4219 89.4456 24.5309 89.3594 24.6634 89.3234L24.6641 89.3232C24.7967 89.2871 24.9343 89.306 25.0151 89.3758C25.7298 89.9925 26.9497 90.2206 28.1994 89.8804L31.3498 89.0228C32.5995 88.6825 33.5354 87.8676 33.8389 86.9737C33.8732 86.8726 33.9822 86.7865 34.1148 86.7504L34.1155 86.7502C34.2481 86.7141 34.3856 86.733 34.4665 86.8028C35.1812 87.4195 36.4011 87.6476 37.6508 87.3074L40.8012 86.4498C42.0509 86.1096 42.9868 85.2946 43.2903 84.4007C43.3246 84.2997 43.4336 84.2135 43.5662 84.1774L43.5669 84.1772C43.6993 84.1412 43.837 84.16 43.9179 84.2299V84.2299Z" fill="#BACDEA"/>
<path d="M43.5859 78.4224L36.9248 53.9541C36.4866 54.3154 36.1693 54.7484 36.0152 55.2019C35.9808 55.303 35.8718 55.3892 35.7393 55.4252L35.7386 55.4254C35.606 55.4615 35.4684 55.4426 35.3876 55.3728C35.025 55.0599 34.5318 54.8476 33.9711 54.7582L40.6322 79.2264C40.7912 79.8104 41.5811 80.1038 42.3968 79.8817C43.2127 79.6598 43.7449 79.0063 43.5859 78.4224V78.4224Z" fill="#BACDEA"/>
<path d="M34.4665 86.8025C34.8293 87.1153 35.3223 87.3277 35.8831 87.417L29.2221 62.9488C29.0631 62.3647 28.2732 62.0713 27.4575 62.2934C26.6417 62.5154 26.1096 63.1687 26.2686 63.7528L32.9296 88.221C33.3676 87.8598 33.6852 87.4268 33.8391 86.9733C33.8734 86.8723 33.9824 86.7861 34.115 86.75L34.1157 86.7498C34.2479 86.7138 34.3856 86.7327 34.4665 86.8025Z" fill="#BACDEA"/>
<path d="M24.6835 83.5683L18.0225 59.1C17.5843 59.4613 17.2669 59.8943 17.1128 60.3478C17.0785 60.4489 16.9695 60.535 16.837 60.5711L16.8362 60.5713C16.7037 60.6074 16.5661 60.5885 16.4852 60.5187C16.1227 60.2058 15.6296 59.9934 15.0688 59.9041L21.7298 84.3722C21.8888 84.9563 22.6787 85.2497 23.4944 85.0276C24.3104 84.8056 24.8425 84.1522 24.6835 83.5683V83.5683Z" fill="#BACDEA"/>
<path d="M53.0956 81.8909L45.1123 52.5655C44.9427 51.9426 45.5104 51.2457 46.3804 51.0089L65.2828 45.863C66.1528 45.6261 66.9954 45.9392 67.1649 46.562L68.1496 46.294L76.1329 75.6195L75.1485 75.8875C75.3181 76.5104 74.7502 77.2074 73.8804 77.4441L54.978 82.59C54.1078 82.8269 53.2652 82.5138 53.0956 81.8909V81.8909Z" fill="#62A4FB"/>
<path d="M75.1484 75.8874L76.1329 75.6194L75.2501 72.3767L74.2657 72.6447C74.4353 73.2677 73.8676 73.9645 72.9976 74.2014L54.0952 79.3472C53.2252 79.5841 52.3826 79.2711 52.213 78.6482L53.0958 81.8909C53.2653 82.5138 54.108 82.8267 54.9779 82.5899L73.8803 77.444C74.7502 77.2073 75.318 76.5103 75.1484 75.8874Z" fill="#5392F9"/>
<path d="M98.2022 61.1308L94.5175 47.596L101.015 45.8271C102.647 45.383 104.226 45.9698 104.544 47.1379L107.078 56.4431C107.396 57.6111 106.331 58.9179 104.7 59.3619L98.2022 61.1308Z" fill="#EDF6FF"/>
<path d="M96.2748 49.5409L98.7312 58.5642L90.1443 60.9018L87.6878 51.8785L96.2748 49.5409Z" fill="#BACDEA"/>
<path d="M59.4955 68.1093L57.6148 61.2009C57.4558 60.6169 57.9882 59.9635 58.8037 59.7415L62.1509 58.8302C62.9665 58.6082 63.7566 58.9017 63.9155 59.4856L65.7963 66.3941C65.9552 66.978 65.4229 67.6315 64.6074 67.8535L61.2601 68.7647C60.4446 68.9867 59.6545 68.6934 59.4955 68.1093Z" fill="#EDF6FF"/>
<path d="M88.831 51.5673C87.1352 45.3381 78.7081 42.2082 70.0086 44.5765L68.4334 45.0053C67.5634 45.2422 66.9958 45.9392 67.1653 46.562L75.1487 75.8875C75.3183 76.5104 76.1609 76.8234 77.0309 76.5865L78.606 76.1577C87.3055 73.7894 92.9832 66.8198 91.2874 60.5906L88.831 51.5673Z" fill="#D8E2F3"/>
<path d="M98.2022 61.1308L94.5175 47.596L101.015 45.8271C102.647 45.383 104.226 45.9698 104.544 47.1379L107.078 56.4431C107.396 57.6111 106.331 58.9179 104.7 59.3619L98.2022 61.1308Z" fill="#EDF6FF"/>
<path d="M107.039 56.3021L106.156 53.0594C106.496 54.3053 105.36 55.6993 103.62 56.173L97.3194 57.8882L98.2022 61.1309L104.503 59.4156C106.243 58.942 107.378 57.548 107.039 56.3021Z" fill="#D8E2F3"/>
<path d="M96.7255 61.533L93.0409 47.9982C92.8819 47.4141 93.4141 46.7608 94.2298 46.5387C95.0455 46.3167 95.8354 46.61 95.9944 47.1941L99.679 60.7289C99.838 61.313 99.3059 61.9663 98.4901 62.1884C97.6746 62.4104 96.8845 62.1171 96.7255 61.533Z" fill="#D8E2F3"/>
<path d="M91.2874 60.5905L90.4047 57.3478C92.1005 63.577 86.4228 70.5467 77.7232 72.915L76.1481 73.3438C75.2781 73.5806 74.4355 73.2677 74.2659 72.6447L75.1487 75.8874C75.3183 76.5103 76.161 76.8232 77.0309 76.5864L78.606 76.1576C87.3055 73.7893 92.9833 66.8198 91.2874 60.5905V60.5905Z" fill="#BACDEA"/>
<path d="M65.7771 66.3237L64.8943 63.0811C65.0639 63.704 64.496 64.4009 63.6262 64.6377L60.4757 65.4954C59.6057 65.7322 58.7631 65.4193 58.5935 64.7963L59.4763 68.039C59.6459 68.6619 60.4885 68.9749 61.3585 68.7381L64.509 67.8804C65.3789 67.6436 65.9466 66.9467 65.7771 66.3237Z" fill="#D8E2F3"/>
<path d="M53.8111 53.8319L52.5829 49.3203L49.6294 50.1244L50.8576 54.6359C51.0166 55.22 51.8065 55.5134 52.6222 55.2913C53.4377 55.0693 53.9701 54.4158 53.8111 53.8319Z" fill="#5392F9"/>
<path d="M58.2267 81.7057L61.1802 80.9016L59.952 76.39C59.793 75.806 59.0032 75.5126 58.1874 75.7347C57.3717 75.9567 56.8395 76.61 56.9985 77.1941L58.2267 81.7057Z" fill="#5392F9"/>
</svg>
