<svg width="438" height="322" viewBox="0 0 438 322" fill="none" xmlns="http://www.w3.org/2000/svg">
<g clip-path="url(#clip0)">
<path d="M506 118H-68V139H506V118Z" fill="#B58943"/>
<path d="M506 31H-68V52H506V31Z" fill="#B58943"/>
<path d="M0.0510664 0L13.3988 13.0513V159.689H-13L-13 13.0513L0.0510664 0Z" fill="#C9A25B"/>
<path d="M55.0511 0L68.3988 13.0513V159.689H42L42 13.0513L55.0511 0Z" fill="#C9A25B"/>
<path d="M109.051 0L122.399 13.0513V159.689H96L96 13.0513L109.051 0Z" fill="#C9A25B"/>
<path d="M164.051 0L177.399 13.0513V159.689H151L151 13.0513L164.051 0Z" fill="#C9A25B"/>
<path d="M218.051 0L231.399 13.0513V159.689H205L205 13.0513L218.051 0Z" fill="#C9A25B"/>
<path d="M274.051 0L287.399 13.0513V159.689H261L261 13.0513L274.051 0Z" fill="#C9A25B"/>
<path d="M328.051 0L341.399 13.0513V159.689H315L315 13.0513L328.051 0Z" fill="#C9A25B"/>
<path d="M383.051 0L396.399 13.0513V159.689H370L370 13.0513L383.051 0Z" fill="#C9A25B"/>
<path d="M438.051 0L451.399 13.0513V159.689H425L425 13.0513L438.051 0Z" fill="#C9A25B"/>
<path d="M164.091 132.088C166.057 132.088 167.651 130.495 167.651 128.529C167.651 126.563 166.057 124.969 164.091 124.969C162.126 124.969 160.532 126.563 160.532 128.529C160.532 130.495 162.126 132.088 164.091 132.088Z" fill="#B58943"/>
<path d="M164.091 45.857C166.057 45.857 167.651 44.2634 167.651 42.2976C167.651 40.3318 166.057 38.7382 164.091 38.7382C162.126 38.7382 160.532 40.3318 160.532 42.2976C160.532 44.2634 162.126 45.857 164.091 45.857Z" fill="#B58943"/>
<path d="M-0.188883 132.088C1.77692 132.088 3.37053 130.495 3.37053 128.529C3.37053 126.563 1.77692 124.969 -0.188883 124.969C-2.15469 124.969 -3.74829 126.563 -3.74829 128.529C-3.74829 130.495 -2.15469 132.088 -0.188883 132.088Z" fill="#B58943"/>
<path d="M-0.188883 45.857C1.77692 45.857 3.37053 44.2634 3.37053 42.2976C3.37053 40.3318 1.77692 38.7382 -0.188883 38.7382C-2.15469 38.7382 -3.74829 40.3318 -3.74829 42.2976C-3.74829 44.2634 -2.15469 45.857 -0.188883 45.857Z" fill="#B58943"/>
<path d="M218.852 132.088C220.817 132.088 222.411 130.495 222.411 128.529C222.411 126.563 220.817 124.969 218.852 124.969C216.886 124.969 215.292 126.563 215.292 128.529C215.292 130.495 216.886 132.088 218.852 132.088Z" fill="#B58943"/>
<path d="M218.852 45.857C220.817 45.857 222.411 44.2634 222.411 42.2976C222.411 40.3318 220.817 38.7382 218.852 38.7382C216.886 38.7382 215.292 40.3318 215.292 42.2976C215.292 44.2634 216.886 45.857 218.852 45.857Z" fill="#B58943"/>
<path d="M383.132 132.088C385.098 132.088 386.691 130.495 386.691 128.529C386.691 126.563 385.098 124.969 383.132 124.969C381.166 124.969 379.573 126.563 379.573 128.529C379.573 130.495 381.166 132.088 383.132 132.088Z" fill="#B58943"/>
<path d="M383.132 45.857C385.098 45.857 386.691 44.2634 386.691 42.2976C386.691 40.3318 385.098 38.7382 383.132 38.7382C381.166 38.7382 379.573 40.3318 379.573 42.2976C379.573 44.2634 381.166 45.857 383.132 45.857Z" fill="#B58943"/>
<path d="M54.5714 132.088C56.5372 132.088 58.1308 130.495 58.1308 128.529C58.1308 126.563 56.5372 124.969 54.5714 124.969C52.6056 124.969 51.012 126.563 51.012 128.529C51.012 130.495 52.6056 132.088 54.5714 132.088Z" fill="#B58943"/>
<path d="M54.5714 45.857C56.5372 45.857 58.1308 44.2634 58.1308 42.2976C58.1308 40.3318 56.5372 38.7382 54.5714 38.7382C52.6056 38.7382 51.012 40.3318 51.012 42.2976C51.012 44.2634 52.6056 45.857 54.5714 45.857Z" fill="#B58943"/>
<path d="M273.612 132.088C275.578 132.088 277.171 130.495 277.171 128.529C277.171 126.563 275.578 124.969 273.612 124.969C271.646 124.969 270.052 126.563 270.052 128.529C270.052 130.495 271.646 132.088 273.612 132.088Z" fill="#B58943"/>
<path d="M273.612 45.857C275.578 45.857 277.171 44.2634 277.171 42.2976C277.171 40.3318 275.578 38.7382 273.612 38.7382C271.646 38.7382 270.052 40.3318 270.052 42.2976C270.052 44.2634 271.646 45.857 273.612 45.857Z" fill="#B58943"/>
<path d="M437.892 132.088C439.858 132.088 441.451 130.495 441.451 128.529C441.451 126.563 439.858 124.969 437.892 124.969C435.926 124.969 434.333 126.563 434.333 128.529C434.333 130.495 435.926 132.088 437.892 132.088Z" fill="#B58943"/>
<path d="M437.892 45.857C439.858 45.857 441.451 44.2634 441.451 42.2976C441.451 40.3318 439.858 38.7382 437.892 38.7382C435.926 38.7382 434.333 40.3318 434.333 42.2976C434.333 44.2634 435.926 45.857 437.892 45.857Z" fill="#B58943"/>
<path d="M109.331 132.088C111.297 132.088 112.891 130.495 112.891 128.529C112.891 126.563 111.297 124.969 109.331 124.969C107.366 124.969 105.772 126.563 105.772 128.529C105.772 130.495 107.366 132.088 109.331 132.088Z" fill="#B58943"/>
<path d="M109.331 45.857C111.297 45.857 112.891 44.2634 112.891 42.2976C112.891 40.3318 111.297 38.7382 109.331 38.7382C107.366 38.7382 105.772 40.3318 105.772 42.2976C105.772 44.2634 107.366 45.857 109.331 45.857Z" fill="#B58943"/>
<path d="M328.372 132.088C330.338 132.088 331.931 130.495 331.931 128.529C331.931 126.563 330.338 124.969 328.372 124.969C326.406 124.969 324.812 126.563 324.812 128.529C324.812 130.495 326.406 132.088 328.372 132.088Z" fill="#B58943"/>
<path d="M328.372 45.857C330.338 45.857 331.931 44.2634 331.931 42.2976C331.931 40.3318 330.338 38.7382 328.372 38.7382C326.406 38.7382 324.812 40.3318 324.812 42.2976C324.812 44.2634 326.406 45.857 328.372 45.857Z" fill="#B58943"/>
<path d="M-68 159H506V281.772C365.397 292.692 121.25 297.698 -68 282.227V159Z" fill="#BFBFC1"/>
<path d="M-68 281.5C141.124 300.237 395.138 287.898 506 281.5V295.21C506 295.21 422.066 302.522 225.945 303.436C29.825 304.35 -68 295.21 -68 295.21V281.5Z" fill="#D9D9DB"/>
<path d="M-68 292.5C68.9779 308.206 476.813 303.843 506 294.245V309.951C506 309.951 367.665 319.549 219 321.294C70.3353 323.039 -32.9641 313.441 -68 302.971V292.5Z" fill="#99A4AA"/>
<path d="M-40 308.317V295.232L-32.8134 283.5M30.069 316.439V298.841L34.5606 287.11M102.833 319.598V300.646L103.282 289.366M171.105 320.5V301.098L171.554 290.72M243.869 320.5L244.318 301.549L244.767 290.72M320.226 318.695V300.646L317.531 289.366M396.134 315.537V299.293L392.092 287.11M468 311.476V295.232L459.017 283.951" stroke="#EBEBEB" stroke-opacity="0.7"/>
</g>
<defs>
<clipPath id="clip0">
<rect width="438" height="322" fill="white"/>
</clipPath>
</defs>
</svg>
