<svg width="375" height="529" viewBox="0 0 375 529" fill="none" xmlns="http://www.w3.org/2000/svg">
<g clip-path="url(#clip0)">
<path d="M376 463H1V529H376V463Z" fill="url(#paint0_linear)"/>
<path d="M83.6194 317.47L153.17 190.348L141.709 386.709V501L63.5 493L16.5 476.5L44.5 393.5L83.6194 317.47Z" fill="#B3865F"/>
<path d="M153.17 190.348L195 277L190 356L238 505.172H188.318L141.709 501V386.709L153.17 190.348Z" fill="#916246"/>
<path d="M153 190.5L284 232.5L302 391L277.948 515.788L237.129 505.172L200 387.5L221 274L153 190.5Z" fill="#B3865F"/>
<path d="M301.954 391.118L284 232.592H376.5L384.889 490.173L277.948 515.789L301.954 391.118Z" fill="#916246"/>
<path d="M176.438 181.81L258.567 216.585L376.5 218V232.592H284L162 193.5L153 190.5L176.438 181.81Z" fill="#CBA380"/>
<path d="M213 134L246.5 89L266.5 63.5L281.5 45.5L280 78L274.5 105.5L266.5 146L231 207L176.438 181.81L213 134Z" fill="#B3865F"/>
<path d="M290.5 124.5L304.229 103L304 79.4999L310.5 44.9999L341.5 52.9999L346 157L316 220L280.5 218L290.5 124.5Z" fill="#916246"/>
<path d="M311 37L344.775 45.5022L375.958 49.7487V57L343.35 53.3721L311 45.5022L281.5 45.5L311 37Z" fill="#CBA380"/>
<path d="M194.929 277.154L153 190.5L221.5 274L200 387.5L189.5 356L194.929 277.154Z" fill="#71452A"/>
<path d="M376.5 56.9998L341.5 52.9999L345.7 156.88L316 220L376.5 218V56.9998Z" fill="#71452A"/>
<path d="M93.5 424L142 389V501L63.5 493L93.5 424Z" fill="#A4765B"/>
<path d="M281.5 45.4999H310.5L304 79.9999L304.5 103L290.5 124.5L281 218L258 216.5L231 207L266 146L280 77.9999L281.5 45.4999Z" fill="#A4765B"/>
<path d="M186.815 471.247L214.81 463L213.101 486.294L185.96 493.774L171 491.423L186.815 471.247Z" fill="#BAB3AD"/>
<path d="M214.811 463L249.218 471.976L242.165 477.532L230.839 483.089L213.101 486.081L214.811 463Z" fill="#D7CEC9"/>
<path d="M171 491.423L185.96 493.774L213.315 486.081L216.52 493.774L243.875 515.786H196.004L184.036 511.298L171 491.423Z" fill="#9E938D"/>
<path d="M213.101 486.081L230.625 483.089L241.524 477.746L249.218 471.976L252.851 498.048L244.089 516L216.306 493.774L213.101 486.081Z" fill="#C7BEB9"/>
<path d="M45.1932 453.484L34.0456 448L9.00024 468.599L9.54862 495.709H24.3548L38.0643 489.677L44.6448 477.064L45.1932 453.484Z" fill="#D1C8C2"/>
<path d="M38.064 489.677L24.3545 495.709H9.54834L14.4837 502.838H50.1283L38.064 489.677Z" fill="#938883"/>
<path d="M44.6448 463.355V477.064L53.9672 480.903L73.7088 486.387L44.6448 463.355Z" fill="#ABA49F"/>
<path d="M45.1931 453.484L44.6448 464.451L74.2572 486.935L82.4829 484.193L90.1602 478.709L76.4507 462.258L45.1931 453.484Z" fill="#C7BEB9"/>
<path d="M90.1602 478.709L82.4829 484.193L74.2572 486.387L44.6447 477.064L38.0642 489.677L49.5802 502.838L85.2248 502.289L90.1602 478.709Z" fill="#9E938D"/>
</g>
<defs>
<linearGradient id="paint0_linear" x1="457" y1="417" x2="-9.00001" y2="573.5" gradientUnits="userSpaceOnUse">
<stop stop-color="#9FB84A"/>
<stop offset="0.188266" stop-color="#9FB84A"/>
<stop offset="0.833911" stop-color="#BFD575"/>
</linearGradient>
<clipPath id="clip0">
<rect width="375" height="529" fill="white"/>
</clipPath>
</defs>
</svg>
