<svg width="375" height="529" viewBox="0 0 375 529" fill="none" xmlns="http://www.w3.org/2000/svg">
<rect y="463" width="375" height="66" fill="url(#paint0_linear)"/>
<path d="M82.6195 317.47L152.17 190.348L140.709 386.709L140.709 501L62.5001 493L15.5001 476.5L43.5001 393.5L82.6195 317.47Z" fill="#B3865F"/>
<path d="M152.17 190.348L194 277L189 356L237 505.172L187.318 505.172L140.709 501L140.709 386.709L152.17 190.348Z" fill="#916246"/>
<path d="M152 190.5L283 232.5L301 391L276.948 515.788L236.129 505.172L199 387.5L220 274L152 190.5Z" fill="#B3865F"/>
<path d="M300.954 391.118L283 232.592L375.5 232.592L383.889 490.173L276.948 515.789L300.954 391.118Z" fill="#916246"/>
<path d="M175.438 181.81L257.567 216.585L375.5 218L375.5 232.592L283 232.592L161 193.5L152 190.5L175.438 181.81Z" fill="#CBA380"/>
<path d="M212 134L245.5 89L265.5 63.5L280.5 45.5L279 78L273.5 105.5L265.5 146L230 207L175.438 181.81L212 134Z" fill="#B3865F"/>
<path d="M289.5 124.5L303.229 103L303 79.4999L309.5 44.9999L340.5 52.9999L345 157L315 220L279.5 218L289.5 124.5Z" fill="#916246"/>
<path d="M310 37L343.775 45.5022L374.958 49.7487L374.958 57L342.35 53.3721L310 45.5022L280.5 45.5L310 37Z" fill="#CBA380"/>
<path d="M193.929 277.154L152 190.5L220.5 274L199 387.5L188.5 356L193.929 277.154Z" fill="#71452A"/>
<path d="M375.5 56.9998L340.5 52.9999L344.7 156.88L315 220L375.5 218L375.5 56.9998Z" fill="#71452A"/>
<path d="M357.5 27.9999L374.958 0.999936L374.958 16.5L374.958 49.7486L350 46.4999L357.5 27.9999Z" fill="#71452A"/>
<path d="M334 22.4999L375.5 0.499913L357.5 27.9999L348 35.4999L343.776 45.5021L335 43.9999L310 36.9999L334 22.4999Z" fill="#B3865F"/>
<path d="M92.5 424L141 389V501L62.5 493L92.5 424Z" fill="#A4765B"/>
<path d="M280.5 45.4999H309.5L303 79.9999L303.5 103L289.5 124.5L280 218L257 216.5L230 207L265 146L279 77.9999L280.5 45.4999Z" fill="#A4765B"/>
<path d="M348 35.5L357.5 28L350 46.5L342 45.1667L348 35.5Z" fill="#916246"/>
<path d="M185.815 471.247L213.81 463L212.101 486.294L184.96 493.774L170 491.423L185.815 471.247Z" fill="#BAB3AD"/>
<path d="M213.811 463L248.218 471.976L241.165 477.532L229.839 483.089L212.101 486.081L213.811 463Z" fill="#D7CEC9"/>
<path d="M170 491.423L184.96 493.774L212.315 486.081L215.52 493.774L242.875 515.786H195.004L183.036 511.298L170 491.423Z" fill="#9E938D"/>
<path d="M212.101 486.081L229.625 483.089L240.524 477.746L248.218 471.976L251.851 498.048L243.089 516L215.306 493.774L212.101 486.081Z" fill="#C7BEB9"/>
<path d="M44.1931 453.484L33.0455 448L8.00014 468.599L8.54852 495.709H23.3547L37.0642 489.677L43.6447 477.064L44.1931 453.484Z" fill="#D1C8C2"/>
<path d="M37.0641 489.677L23.3546 495.709H8.54842L13.4838 502.838H49.1284L37.0641 489.677Z" fill="#938883"/>
<path d="M43.6447 463.355V477.064L52.9671 480.903L72.7087 486.387L43.6447 463.355Z" fill="#ABA49F"/>
<path d="M44.1931 453.484L43.6448 464.451L73.2572 486.935L81.4829 484.193L89.1602 478.709L75.4507 462.258L44.1931 453.484Z" fill="#C7BEB9"/>
<path d="M89.1602 478.709L81.4829 484.193L73.2572 486.387L43.6447 477.064L37.0642 489.677L48.5802 502.838L84.2248 502.289L89.1602 478.709Z" fill="#9E938D"/>
<defs>
<linearGradient id="paint0_linear" x1="456" y1="417" x2="-9.99999" y2="573.5" gradientUnits="userSpaceOnUse">
<stop stop-color="#9FB84A"/>
<stop offset="0.188266" stop-color="#9FB84A"/>
<stop offset="0.833911" stop-color="#BFD575"/>
</linearGradient>
</defs>
</svg>
