<svg width="127" height="240" viewBox="0 0 127 240" fill="none" xmlns="http://www.w3.org/2000/svg">
<path d="M70.006 125.247C68.3059 126.982 66.0432 127.94 63.6346 127.945L63.3228 127.945C57.427 127.04 53.5157 123.073 54.288 118.79L54.0958 9.2261C54.0868 4.16917 58.1253 0.0478607 63.0978 0.0394292L63.4101 0.0388799C68.382 0.0301621 72.4346 4.13699 72.4433 9.19393L72.6357 118.758C72.6402 121.207 71.7063 123.512 70.006 125.247Z" fill="#A44E3F"/>
<path d="M63.4102 0.0386795L63.315 0.0388432L63.4829 127.945L63.6344 127.944C66.0429 127.94 68.3056 126.982 70.0057 125.247C71.706 123.512 72.6399 121.207 72.6355 118.758L72.4436 9.19387C72.4349 4.13693 68.3822 0.0299619 63.4102 0.0386795V0.0386795Z" fill="#87363E"/>
<path d="M103.775 26.3004C99.03 22.4542 93.6094 19.3951 87.663 17.2079C80.285 14.4943 72.0805 13.1262 63.2776 13.1416C54.4746 13.1571 46.2748 14.5541 38.9065 17.2934C32.9679 19.5014 27.5579 22.5796 22.8267 26.4425C14.6969 33.0804 11.3712 39.7608 11.2335 40.0418C10.5784 41.3803 10.9746 43.0045 12.1686 43.8766C13.363 44.7487 15.0028 44.6113 16.0406 43.5522C16.0671 43.5251 18.8832 40.7702 25.8329 37.9288C32.6275 35.1511 44.6449 31.8331 63.3103 31.8004C81.6517 31.7683 93.5613 34.9382 100.322 37.6032C107.404 40.3943 110.446 43.221 110.63 43.3955C111.661 44.4667 113.289 44.5988 114.491 43.7292C114.629 43.6298 114.755 43.5202 114.871 43.4022C115.77 42.4843 116.004 41.0501 115.416 39.859C115.277 39.5783 111.927 32.9092 103.775 26.3004V26.3004Z" fill="#DCE1EB"/>
<path d="M100.323 37.6023C107.404 40.3934 110.446 43.2201 110.63 43.3946C111.661 44.4657 113.289 44.5978 114.491 43.7283C114.629 43.6289 114.756 43.5193 114.871 43.4013C115.771 42.4834 116.004 41.0493 115.416 39.8581C115.277 39.5775 111.927 32.9085 103.775 26.2996C99.0303 22.4534 93.6097 19.3944 87.6634 17.2072C80.3011 14.4992 72.1155 13.1318 63.3337 13.1413L63.358 31.7997C81.6723 31.7731 93.5674 34.9395 100.323 37.6023V37.6023Z" fill="#CDD2E1"/>
</svg>
