<svg width="156" height="197" viewBox="0 0 156 197" fill="none" xmlns="http://www.w3.org/2000/svg">
<g filter="url(#filter0_i)">
<path d="M40.3018 20.5363C49.6823 21.3639 56.5986 14.4456 55.773 5.06715C46.3924 4.23952 39.4762 11.1578 40.3018 20.5363Z" fill="#219653"/>
</g>
<path d="M39.9426 27.0706C40.7517 26.8683 41.3874 26.1831 41.4844 25.3059C41.9281 21.2875 40.7785 17.3392 38.2522 14.1855C35.7239 11.0318 32.1183 9.05046 28.1019 8.60878C26.975 8.48701 25.9636 9.29813 25.8419 10.423C25.718 11.5478 26.5291 12.5591 27.654 12.685C30.5827 13.007 33.2101 14.4497 35.0532 16.7489C36.8962 19.0481 37.7321 21.9252 37.4102 24.8539C37.2863 25.9808 38.0975 26.9922 39.2244 27.1181C39.472 27.147 39.7135 27.1284 39.9426 27.0706Z" fill="#795030"/>
<g filter="url(#filter1_i)">
<path d="M24.7462 20.5115C26.9835 19.915 29.2971 20.0389 31.5674 20.7695C37.4001 22.6497 43.6022 22.6497 49.4349 20.7695C51.7052 20.0389 54.0188 19.915 56.2561 20.5115C65.1888 22.8912 69.4983 35.8134 65.8844 49.3755C57.5 65 53 64 43.1688 69.6205C43.1585 69.6185 43.1502 69.6164 43.1399 69.6123C41.4041 69.1438 39.5961 69.1438 37.8604 69.6123C37.85 69.6144 37.8418 69.6164 37.8315 69.6205C28.9009 72.0003 18.7298 62.9355 15.1159 49.3755C11.504 35.8134 15.8156 22.8912 24.7462 20.5115Z" fill="#D02020"/>
</g>
<g filter="url(#filter2_i)">
<path d="M81.1952 154.373C89.6193 150.165 91.8867 140.649 86.2707 133.092C77.8466 137.301 75.5793 146.817 81.1952 154.373Z" fill="#219653"/>
</g>
<path d="M76.8557 160.211C77.6774 160.353 78.5359 159.984 78.9795 159.221C81.0109 155.725 81.5568 151.649 80.5222 147.743C79.4858 143.837 76.9898 140.566 73.4954 138.537C72.5141 137.97 71.2611 138.303 70.6947 139.282C70.1264 140.261 70.4591 141.514 71.4368 142.084C73.985 143.563 75.8042 145.945 76.5596 148.794C77.315 151.642 76.9156 154.611 75.4364 157.159C74.8673 158.14 75.2 159.393 76.1796 159.964C76.3944 160.09 76.6228 160.171 76.8557 160.211Z" fill="#795030"/>
<g filter="url(#filter3_i)">
<path d="M64.7462 147.511C66.9835 146.915 69.2971 147.039 71.5674 147.769C77.4001 149.65 83.6022 149.65 89.4349 147.769C91.7052 147.039 94.0188 146.915 96.2561 147.511C105.189 149.891 109.498 162.813 105.884 176.375C97.5 192 93 191 83.1688 196.621C83.1585 196.618 83.1502 196.616 83.1399 196.612C81.4041 196.144 79.5961 196.144 77.8604 196.612C77.85 196.614 77.8418 196.616 77.8315 196.621C68.9009 199 62.1139 187.56 58.5 174C54.8881 160.438 58.5 152.5 64.7462 147.511Z" fill="#B8D020"/>
</g>
<g clip-path="url(#clip0)">
<g filter="url(#filter4_i)">
<path d="M39.6416 93.1929C30.2416 92.6268 24.4224 84.7634 26.6233 75.6095C36.0233 76.1756 41.8425 84.0391 39.6416 93.1929Z" fill="#219653"/>
</g>
<path d="M39.0322 99.7087C38.2618 99.3892 37.7343 98.6177 37.7678 97.7358C37.9221 93.6958 39.6419 89.9605 42.6061 87.2143C45.5722 84.4684 49.4309 83.041 53.4685 83.197C54.601 83.2429 55.4815 84.1944 55.4359 85.3249C55.3923 86.4557 54.4408 87.3362 53.3097 87.2947C50.3655 87.1808 47.554 88.2199 45.3917 90.2218C43.2294 92.2238 41.978 94.946 41.8641 97.8901C41.8202 99.023 40.8687 99.9035 39.7355 99.8617C39.4863 99.8537 39.2502 99.7997 39.0322 99.7087Z" fill="#795030"/>
<g filter="url(#filter5_i)">
<path d="M55.0306 95.4645C52.9059 94.5443 50.5993 94.3253 48.246 94.7128C42.1997 95.7114 36.0655 94.7959 30.5743 92.0753C28.4367 91.0175 26.1667 90.5535 23.8658 90.8132C12.0002 97 8.50994 103.993 10.0823 117.94C11.6547 131.887 20.3745 142.351 29.5605 141.316C29.5711 141.316 29.5795 141.315 29.5903 141.312C31.3763 141.105 33.1644 141.372 34.812 142.092C34.8219 142.095 34.8298 142.098 34.8394 142.104C43.3209 145.776 51.424 139.378 57 126.5C60.2055 115.566 62.5 103.5 55.0306 95.4645Z" fill="#B8D020"/>
</g>
</g>
<g clip-path="url(#clip1)">
<g filter="url(#filter6_i)">
<path d="M112.379 24.0254C102.972 24.4599 96.3517 17.2584 97.5689 7.92267C106.976 7.48815 113.597 14.6897 112.379 24.0254Z" fill="#219653"/>
</g>
<path d="M109.032 26.7088C108.262 26.3893 107.734 25.6177 107.768 24.7359C107.922 20.6959 109.642 16.9606 112.606 14.2144C115.572 11.4684 117.121 9.96053 121.159 10.1166C122.291 10.1625 123.172 11.114 123.126 12.2445C123.083 13.3753 122.131 14.2558 121 14.2143C118.056 14.1004 117.554 15.22 115.392 17.2219C113.229 19.2239 111.978 21.9461 111.864 24.8902C111.82 26.0231 110.869 26.9036 109.736 26.8617C109.486 26.8538 109.25 26.7997 109.032 26.7088Z" fill="#795030"/>
<g filter="url(#filter7_i)">
<path d="M95.6445 18.3166C97.9393 18.0081 100.219 18.4238 102.378 19.4359C107.926 22.0392 114.078 22.8241 120.102 21.6972C122.446 21.2598 124 21.6972 129.275 26.2857C136.516 35.6029 138.1 39.1595 132.799 52.1551C127.497 65.1507 116.263 72.8535 107.703 69.3624C107.693 69.359 107.686 69.3559 107.676 69.3505C106.013 68.6661 104.22 68.4373 102.439 68.6823C102.428 68.6831 102.42 68.6841 102.409 68.6869C93.2491 69.9171 87.1884 61.5586 85.3197 47.6503C85.2045 36.2566 86.2734 24.021 95.6445 18.3166Z" fill="#B8D020"/>
</g>
</g>
<g clip-path="url(#clip2)">
<g filter="url(#filter8_i)">
<path d="M111.931 97.4752C111.871 88.0584 104.332 81.8246 95.0732 83.53C95.1328 92.9467 102.672 99.1805 111.931 97.4752Z" fill="#219653"/>
</g>
<path d="M113.601 97.9293C112.901 98.3816 111.966 98.3771 111.259 97.8483C108.023 95.4252 105.927 91.8871 105.352 87.8875C104.779 83.8863 105.798 79.9002 108.221 76.6669C108.902 75.7611 110.186 75.5775 111.09 76.2575C111.995 76.9361 112.179 78.2194 111.502 79.1264C109.735 81.4841 108.992 84.388 109.41 87.3049C109.828 90.2218 111.357 92.7987 113.714 94.5657C114.622 95.2456 114.805 96.529 114.127 97.4375C113.979 97.6381 113.8 97.8016 113.601 97.9293Z" fill="#795030"/>
<g filter="url(#filter9_i)">
<path d="M97.5796 101.679C99.2189 100.043 101.284 98.9938 103.616 98.4914C109.607 97.2034 114.978 94.1023 119.09 89.5577C120.69 87.7898 122.632 86.5257 124.868 85.9236C133.794 83.5182 143.987 92.5544 147.638 106.106C151.29 119.659 147.014 132.592 138.089 134.997C138.079 135 138.07 135.003 138.059 135.004C136.322 135.466 134.756 136.37 133.487 137.644C133.479 137.651 133.473 137.657 133.466 137.666C126.922 144.192 110.41 137.436 100.5 127.5C90.591 117.561 91.0353 108.205 97.5796 101.679Z" fill="#D02020"/>
</g>
</g>
<defs>
<filter id="filter0_i" x="40.2349" y="5" width="15.6049" height="15.6034" filterUnits="userSpaceOnUse" color-interpolation-filters="sRGB">
<feFlood flood-opacity="0" result="BackgroundImageFix"/>
<feBlend mode="normal" in="SourceGraphic" in2="BackgroundImageFix" result="shape"/>
<feColorMatrix in="SourceAlpha" type="matrix" values="0 0 0 0 0 0 0 0 0 0 0 0 0 0 0 0 0 0 127 0" result="hardAlpha"/>
<feOffset dy="-4"/>
<feComposite in2="hardAlpha" operator="arithmetic" k2="-1" k3="1"/>
<feColorMatrix type="matrix" values="0 0 0 0 0 0 0 0 0 0 0 0 0 0 0 0 0 0 0.25 0"/>
<feBlend mode="normal" in2="shape" result="effect1_innerShadow"/>
</filter>
<filter id="filter1_i" x="13.8389" y="20.1326" width="53.324" height="49.8673" filterUnits="userSpaceOnUse" color-interpolation-filters="sRGB">
<feFlood flood-opacity="0" result="BackgroundImageFix"/>
<feBlend mode="normal" in="SourceGraphic" in2="BackgroundImageFix" result="shape"/>
<feColorMatrix in="SourceAlpha" type="matrix" values="0 0 0 0 0 0 0 0 0 0 0 0 0 0 0 0 0 0 127 0" result="hardAlpha"/>
<feOffset dx="-2" dy="-6"/>
<feComposite in2="hardAlpha" operator="arithmetic" k2="-1" k3="1"/>
<feColorMatrix type="matrix" values="0 0 0 0 0 0 0 0 0 0 0 0 0 0 0 0 0 0 0.25 0"/>
<feBlend mode="normal" in2="shape" result="effect1_innerShadow"/>
</filter>
<filter id="filter2_i" x="73" y="133" width="21.4662" height="21.4657" filterUnits="userSpaceOnUse" color-interpolation-filters="sRGB">
<feFlood flood-opacity="0" result="BackgroundImageFix"/>
<feBlend mode="normal" in="SourceGraphic" in2="BackgroundImageFix" result="shape"/>
<feColorMatrix in="SourceAlpha" type="matrix" values="0 0 0 0 0 0 0 0 0 0 0 0 0 0 0 0 0 0 127 0" result="hardAlpha"/>
<feOffset dy="-4"/>
<feComposite in2="hardAlpha" operator="arithmetic" k2="-1" k3="1"/>
<feColorMatrix type="matrix" values="0 0 0 0 0 0 0 0 0 0 0 0 0 0 0 0 0 0 0.25 0"/>
<feBlend mode="normal" in2="shape" result="effect1_innerShadow"/>
</filter>
<filter id="filter3_i" x="57.0637" y="147.133" width="50.0992" height="49.8032" filterUnits="userSpaceOnUse" color-interpolation-filters="sRGB">
<feFlood flood-opacity="0" result="BackgroundImageFix"/>
<feBlend mode="normal" in="SourceGraphic" in2="BackgroundImageFix" result="shape"/>
<feColorMatrix in="SourceAlpha" type="matrix" values="0 0 0 0 0 0 0 0 0 0 0 0 0 0 0 0 0 0 127 0" result="hardAlpha"/>
<feOffset dx="-2" dy="-6"/>
<feComposite in2="hardAlpha" operator="arithmetic" k2="-1" k3="1"/>
<feColorMatrix type="matrix" values="0 0 0 0 0 0 0 0 0 0 0 0 0 0 0 0 0 0 0.25 0"/>
<feBlend mode="normal" in2="shape" result="effect1_innerShadow"/>
</filter>
<filter id="filter4_i" x="24.2639" y="75.5332" width="17.7372" height="17.736" filterUnits="userSpaceOnUse" color-interpolation-filters="sRGB">
<feFlood flood-opacity="0" result="BackgroundImageFix"/>
<feBlend mode="normal" in="SourceGraphic" in2="BackgroundImageFix" result="shape"/>
<feColorMatrix in="SourceAlpha" type="matrix" values="0 0 0 0 0 0 0 0 0 0 0 0 0 0 0 0 0 0 127 0" result="hardAlpha"/>
<feOffset dy="-4"/>
<feComposite in2="hardAlpha" operator="arithmetic" k2="-1" k3="1"/>
<feColorMatrix type="matrix" values="0 0 0 0 0 0 0 0 0 0 0 0 0 0 0 0 0 0 0.25 0"/>
<feBlend mode="normal" in2="shape" result="effect1_innerShadow"/>
</filter>
<filter id="filter5_i" x="5.48169" y="88.7861" width="56.9571" height="56.7778" filterUnits="userSpaceOnUse" color-interpolation-filters="sRGB">
<feFlood flood-opacity="0" result="BackgroundImageFix"/>
<feBlend mode="normal" in="SourceGraphic" in2="BackgroundImageFix" result="shape"/>
<feColorMatrix in="SourceAlpha" type="matrix" values="0 0 0 0 0 0 0 0 0 0 0 0 0 0 0 0 0 0 127 0" result="hardAlpha"/>
<feOffset dx="-2" dy="-6"/>
<feComposite in2="hardAlpha" operator="arithmetic" k2="-1" k3="1"/>
<feColorMatrix type="matrix" values="0 0 0 0 0 0 0 0 0 0 0 0 0 0 0 0 0 0 0.25 0"/>
<feBlend mode="normal" in2="shape" result="effect1_innerShadow"/>
</filter>
<filter id="filter6_i" x="96.8523" y="7.85278" width="16.2439" height="16.2425" filterUnits="userSpaceOnUse" color-interpolation-filters="sRGB">
<feFlood flood-opacity="0" result="BackgroundImageFix"/>
<feBlend mode="normal" in="SourceGraphic" in2="BackgroundImageFix" result="shape"/>
<feColorMatrix in="SourceAlpha" type="matrix" values="0 0 0 0 0 0 0 0 0 0 0 0 0 0 0 0 0 0 127 0" result="hardAlpha"/>
<feOffset dy="-4"/>
<feComposite in2="hardAlpha" operator="arithmetic" k2="-1" k3="1"/>
<feColorMatrix type="matrix" values="0 0 0 0 0 0 0 0 0 0 0 0 0 0 0 0 0 0 0.25 0"/>
<feBlend mode="normal" in2="shape" result="effect1_innerShadow"/>
</filter>
<filter id="filter7_i" x="82" y="17" width="56.2018" height="55.8869" filterUnits="userSpaceOnUse" color-interpolation-filters="sRGB">
<feFlood flood-opacity="0" result="BackgroundImageFix"/>
<feBlend mode="normal" in="SourceGraphic" in2="BackgroundImageFix" result="shape"/>
<feColorMatrix in="SourceAlpha" type="matrix" values="0 0 0 0 0 0 0 0 0 0 0 0 0 0 0 0 0 0 127 0" result="hardAlpha"/>
<feOffset dx="-2" dy="-6"/>
<feComposite in2="hardAlpha" operator="arithmetic" k2="-1" k3="1"/>
<feColorMatrix type="matrix" values="0 0 0 0 0 0 0 0 0 0 0 0 0 0 0 0 0 0 0.25 0"/>
<feBlend mode="normal" in2="shape" result="effect1_innerShadow"/>
</filter>
<filter id="filter8_i" x="95" y="82" width="17.004" height="17.0053" filterUnits="userSpaceOnUse" color-interpolation-filters="sRGB">
<feFlood flood-opacity="0" result="BackgroundImageFix"/>
<feBlend mode="normal" in="SourceGraphic" in2="BackgroundImageFix" result="shape"/>
<feColorMatrix in="SourceAlpha" type="matrix" values="0 0 0 0 0 0 0 0 0 0 0 0 0 0 0 0 0 0 127 0" result="hardAlpha"/>
<feOffset dy="-4"/>
<feComposite in2="hardAlpha" operator="arithmetic" k2="-1" k3="1"/>
<feColorMatrix type="matrix" values="0 0 0 0 0 0 0 0 0 0 0 0 0 0 0 0 0 0 0.25 0"/>
<feBlend mode="normal" in2="shape" result="effect1_innerShadow"/>
</filter>
<filter id="filter9_i" x="87.3813" y="80.1421" width="71.6763" height="70.1733" filterUnits="userSpaceOnUse" color-interpolation-filters="sRGB">
<feFlood flood-opacity="0" result="BackgroundImageFix"/>
<feBlend mode="normal" in="SourceGraphic" in2="BackgroundImageFix" result="shape"/>
<feColorMatrix in="SourceAlpha" type="matrix" values="0 0 0 0 0 0 0 0 0 0 0 0 0 0 0 0 0 0 127 0" result="hardAlpha"/>
<feOffset dx="-2" dy="-6"/>
<feComposite in2="hardAlpha" operator="arithmetic" k2="-1" k3="1"/>
<feColorMatrix type="matrix" values="0 0 0 0 0 0 0 0 0 0 0 0 0 0 0 0 0 0 0.25 0"/>
<feBlend mode="normal" in2="shape" result="effect1_innerShadow"/>
</filter>
<clipPath id="clip0">
<rect width="65" height="65" fill="white" transform="translate(9.59497 73) rotate(8.48877)"/>
</clipPath>
<clipPath id="clip1">
<rect width="65" height="65" fill="white" transform="translate(79.595) rotate(8.48877)"/>
</clipPath>
<clipPath id="clip2">
<rect width="65" height="65" fill="white" transform="matrix(-1 0 0 1 156 75)"/>
</clipPath>
</defs>
</svg>
