<svg width="155" height="169" viewBox="0 0 155 169" fill="none" xmlns="http://www.w3.org/2000/svg">
<g filter="url(#filter0_i)">
<path d="M118.994 108.536C128.375 109.364 135.291 102.446 134.465 93.0672C125.085 92.2395 118.169 99.1578 118.994 108.536Z" fill="#219653"/>
</g>
<path d="M118.635 115.071C119.444 114.868 120.08 114.183 120.177 113.306C120.62 109.287 119.471 105.339 116.945 102.186C114.416 99.0318 110.811 97.0505 106.794 96.6088C105.667 96.487 104.656 97.2981 104.534 98.423C104.41 99.5478 105.222 100.559 106.346 100.685C109.275 101.007 111.902 102.45 113.746 104.749C115.589 107.048 116.425 109.925 116.103 112.854C115.979 113.981 116.79 114.992 117.917 115.118C118.164 115.147 118.406 115.128 118.635 115.071Z" fill="#795030"/>
<g filter="url(#filter1_i)">
<path d="M103.439 108.511C105.676 107.915 107.99 108.039 110.26 108.769C116.092 110.65 122.295 110.65 128.127 108.769C130.398 108.039 132.711 107.915 134.949 108.511C143.881 110.891 148.191 123.813 144.577 137.375C136.192 153 131.692 152 121.861 157.621C121.851 157.618 121.843 157.616 121.832 157.612C120.097 157.144 118.289 157.144 116.553 157.612C116.542 157.614 116.534 157.616 116.524 157.621C107.593 160 97.4222 150.935 93.8083 137.375C90.1964 123.813 94.5079 110.891 103.439 108.511Z" fill="#D02020"/>
</g>
<g clip-path="url(#clip0)">
<g filter="url(#filter2_i)">
<path d="M39.5415 116.029C45.3965 108.653 43.4284 99.0709 35.1445 94.5972C29.2895 101.973 31.2576 111.555 39.5415 116.029Z" fill="#219653"/>
</g>
<path d="M38.0765 123.154C38.8813 122.935 39.5032 122.237 39.5826 121.358C39.9459 117.332 38.7175 113.407 36.1287 110.305C33.5378 107.202 29.8931 105.294 25.8687 104.932C24.7396 104.833 23.7447 105.664 23.6455 106.791C23.5442 107.919 24.3754 108.913 25.5025 109.017C28.4371 109.28 31.0928 110.67 32.9815 112.932C34.8702 115.194 35.7635 118.053 35.5002 120.988C35.399 122.117 36.2301 123.112 37.3593 123.215C37.6075 123.239 37.8486 123.216 38.0765 123.154Z" fill="#795030"/>
<g filter="url(#filter3_i)">
<path d="M21.7337 116.764C23.509 115.278 25.6581 114.412 28.0245 114.114C34.1052 113.353 39.7258 110.731 44.2168 106.561C45.9654 104.939 48.0098 103.849 50.2895 103.443C59.3907 101.824 68.759 111.713 71.2172 125.531C70.2242 143.235 65.7233 144.231 59.1899 153.481C59.1797 153.484 59.1713 153.485 59.1602 153.486C57.3891 153.795 55.7506 154.559 54.3757 155.718C54.3672 155.724 54.3606 155.729 54.353 155.737C47.2657 161.669 36.2787 154.171 27.2711 143.41C18.2645 132.646 18.182 123.926 21.7337 116.764Z" fill="#B8D020"/>
</g>
</g>
<g clip-path="url(#clip1)">
<g filter="url(#filter4_i)">
<path d="M123.072 24.0254C113.665 24.4599 107.044 17.2584 108.261 7.92267C117.668 7.48815 124.289 14.6897 123.072 24.0254Z" fill="#219653"/>
</g>
<path d="M119.725 26.7088C118.954 26.3893 118.427 25.6177 118.46 24.7359C118.614 20.6959 120.334 16.9606 123.298 14.2144C126.265 11.4684 127.814 9.96053 131.851 10.1166C132.984 10.1625 133.864 11.114 133.819 12.2445C133.775 13.3753 132.823 14.2558 131.692 14.2143C128.748 14.1004 128.246 15.22 126.084 17.2219C123.922 19.2239 122.67 21.9461 122.556 24.8902C122.513 26.0231 121.561 26.9036 120.428 26.8617C120.179 26.8538 119.943 26.7997 119.725 26.7088Z" fill="#795030"/>
<g filter="url(#filter5_i)">
<path d="M106.337 18.3166C108.632 18.0081 110.911 18.4238 113.071 19.4359C118.618 22.0392 124.771 22.8241 130.794 21.6972C133.139 21.2598 134.692 21.6972 139.967 26.2857C147.209 35.6029 148.792 39.1595 143.491 52.1551C138.19 65.1507 126.955 72.8535 118.396 69.3624C118.386 69.359 118.378 69.3559 118.368 69.3505C116.706 68.6661 114.912 68.4373 113.131 68.6823C113.121 68.6831 113.112 68.6841 113.101 68.6869C103.941 69.9171 97.8807 61.5586 96.0121 47.6503C95.8969 36.2566 96.9658 24.021 106.337 18.3166Z" fill="#B8D020"/>
</g>
</g>
<g clip-path="url(#clip2)">
<g filter="url(#filter6_i)">
<path d="M38.6233 34.4752C38.5636 25.0584 31.0245 18.8246 21.7655 20.53C21.8252 29.9467 29.3643 36.1805 38.6233 34.4752Z" fill="#219653"/>
</g>
<path d="M40.2936 34.9293C39.5929 35.3816 38.6582 35.3771 37.9517 34.8483C34.7154 32.4252 32.6195 28.8871 32.0447 24.8875C31.4712 20.8863 32.4899 16.9002 34.9131 13.6669C35.5945 12.7611 36.8779 12.5775 37.7821 13.2575C38.6878 13.9361 38.8714 15.2194 38.1944 16.1264C36.4273 18.4841 35.6843 21.388 36.1025 24.3049C36.5207 27.2218 38.0492 29.7987 40.4069 31.5657C41.314 32.2456 41.4977 33.529 40.8192 34.4375C40.671 34.6381 40.4924 34.8016 40.2936 34.9293Z" fill="#795030"/>
<g filter="url(#filter7_i)">
<path d="M24.272 38.6786C25.9113 37.0434 27.9769 35.9938 30.3083 35.4914C36.2997 34.2034 41.6709 31.1023 45.782 26.5577C47.3828 24.7898 49.3246 23.5257 51.5604 22.9236C60.4862 20.5182 70.6794 29.5544 74.3307 43.1065C77.9819 56.6585 73.7067 69.5915 64.7809 71.997C64.771 72.0003 64.7628 72.0027 64.7518 72.0043C63.0143 72.4664 61.4485 73.3704 60.1796 74.644C60.1717 74.651 60.1656 74.6569 60.1587 74.6656C53.6144 81.1918 37.1021 74.4363 27.1924 64.5C17.2834 54.5608 17.7277 45.2048 24.272 38.6786Z" fill="#D02020"/>
</g>
</g>
<defs>
<filter id="filter0_i" x="118.927" y="93" width="15.6049" height="15.6034" filterUnits="userSpaceOnUse" color-interpolation-filters="sRGB">
<feFlood flood-opacity="0" result="BackgroundImageFix"/>
<feBlend mode="normal" in="SourceGraphic" in2="BackgroundImageFix" result="shape"/>
<feColorMatrix in="SourceAlpha" type="matrix" values="0 0 0 0 0 0 0 0 0 0 0 0 0 0 0 0 0 0 127 0" result="hardAlpha"/>
<feOffset dy="-4"/>
<feComposite in2="hardAlpha" operator="arithmetic" k2="-1" k3="1"/>
<feColorMatrix type="matrix" values="0 0 0 0 0 0 0 0 0 0 0 0 0 0 0 0 0 0 0.25 0"/>
<feBlend mode="normal" in2="shape" result="effect1_innerShadow"/>
</filter>
<filter id="filter1_i" x="92.5312" y="108.133" width="53.324" height="49.8673" filterUnits="userSpaceOnUse" color-interpolation-filters="sRGB">
<feFlood flood-opacity="0" result="BackgroundImageFix"/>
<feBlend mode="normal" in="SourceGraphic" in2="BackgroundImageFix" result="shape"/>
<feColorMatrix in="SourceAlpha" type="matrix" values="0 0 0 0 0 0 0 0 0 0 0 0 0 0 0 0 0 0 127 0" result="hardAlpha"/>
<feOffset dx="-2" dy="-6"/>
<feComposite in2="hardAlpha" operator="arithmetic" k2="-1" k3="1"/>
<feColorMatrix type="matrix" values="0 0 0 0 0 0 0 0 0 0 0 0 0 0 0 0 0 0 0.25 0"/>
<feBlend mode="normal" in2="shape" result="effect1_innerShadow"/>
</filter>
<filter id="filter2_i" x="31.7744" y="94.5972" width="11.1372" height="21.4317" filterUnits="userSpaceOnUse" color-interpolation-filters="sRGB">
<feFlood flood-opacity="0" result="BackgroundImageFix"/>
<feBlend mode="normal" in="SourceGraphic" in2="BackgroundImageFix" result="shape"/>
<feColorMatrix in="SourceAlpha" type="matrix" values="0 0 0 0 0 0 0 0 0 0 0 0 0 0 0 0 0 0 127 0" result="hardAlpha"/>
<feOffset dy="-4"/>
<feComposite in2="hardAlpha" operator="arithmetic" k2="-1" k3="1"/>
<feColorMatrix type="matrix" values="0 0 0 0 0 0 0 0 0 0 0 0 0 0 0 0 0 0 0.25 0"/>
<feBlend mode="normal" in2="shape" result="effect1_innerShadow"/>
</filter>
<filter id="filter3_i" x="19.5493" y="103.27" width="51.668" height="54.5588" filterUnits="userSpaceOnUse" color-interpolation-filters="sRGB">
<feFlood flood-opacity="0" result="BackgroundImageFix"/>
<feBlend mode="normal" in="SourceGraphic" in2="BackgroundImageFix" result="shape"/>
<feColorMatrix in="SourceAlpha" type="matrix" values="0 0 0 0 0 0 0 0 0 0 0 0 0 0 0 0 0 0 127 0" result="hardAlpha"/>
<feOffset dx="-2" dy="-6"/>
<feComposite in2="hardAlpha" operator="arithmetic" k2="-1" k3="1"/>
<feColorMatrix type="matrix" values="0 0 0 0 0 0 0 0 0 0 0 0 0 0 0 0 0 0 0.25 0"/>
<feBlend mode="normal" in2="shape" result="effect1_innerShadow"/>
</filter>
<filter id="filter4_i" x="108.117" y="7.90405" width="15.099" height="16.1401" filterUnits="userSpaceOnUse" color-interpolation-filters="sRGB">
<feFlood flood-opacity="0" result="BackgroundImageFix"/>
<feBlend mode="normal" in="SourceGraphic" in2="BackgroundImageFix" result="shape"/>
<feColorMatrix in="SourceAlpha" type="matrix" values="0 0 0 0 0 0 0 0 0 0 0 0 0 0 0 0 0 0 127 0" result="hardAlpha"/>
<feOffset dy="-4"/>
<feComposite in2="hardAlpha" operator="arithmetic" k2="-1" k3="1"/>
<feColorMatrix type="matrix" values="0 0 0 0 0 0 0 0 0 0 0 0 0 0 0 0 0 0 0.25 0"/>
<feBlend mode="normal" in2="shape" result="effect1_innerShadow"/>
</filter>
<filter id="filter5_i" x="96.0044" y="18.2168" width="50.6221" height="51.9861" filterUnits="userSpaceOnUse" color-interpolation-filters="sRGB">
<feFlood flood-opacity="0" result="BackgroundImageFix"/>
<feBlend mode="normal" in="SourceGraphic" in2="BackgroundImageFix" result="shape"/>
<feColorMatrix in="SourceAlpha" type="matrix" values="0 0 0 0 0 0 0 0 0 0 0 0 0 0 0 0 0 0 127 0" result="hardAlpha"/>
<feOffset dx="-2" dy="-6"/>
<feComposite in2="hardAlpha" operator="arithmetic" k2="-1" k3="1"/>
<feColorMatrix type="matrix" values="0 0 0 0 0 0 0 0 0 0 0 0 0 0 0 0 0 0 0.25 0"/>
<feBlend mode="normal" in2="shape" result="effect1_innerShadow"/>
</filter>
<filter id="filter6_i" x="21.7656" y="20.249" width="16.8577" height="14.5071" filterUnits="userSpaceOnUse" color-interpolation-filters="sRGB">
<feFlood flood-opacity="0" result="BackgroundImageFix"/>
<feBlend mode="normal" in="SourceGraphic" in2="BackgroundImageFix" result="shape"/>
<feColorMatrix in="SourceAlpha" type="matrix" values="0 0 0 0 0 0 0 0 0 0 0 0 0 0 0 0 0 0 127 0" result="hardAlpha"/>
<feOffset dy="-4"/>
<feComposite in2="hardAlpha" operator="arithmetic" k2="-1" k3="1"/>
<feColorMatrix type="matrix" values="0 0 0 0 0 0 0 0 0 0 0 0 0 0 0 0 0 0 0.25 0"/>
<feBlend mode="normal" in2="shape" result="effect1_innerShadow"/>
</filter>
<filter id="filter7_i" x="19.5271" y="22.5359" width="56.1083" height="54.7107" filterUnits="userSpaceOnUse" color-interpolation-filters="sRGB">
<feFlood flood-opacity="0" result="BackgroundImageFix"/>
<feBlend mode="normal" in="SourceGraphic" in2="BackgroundImageFix" result="shape"/>
<feColorMatrix in="SourceAlpha" type="matrix" values="0 0 0 0 0 0 0 0 0 0 0 0 0 0 0 0 0 0 127 0" result="hardAlpha"/>
<feOffset dx="-2" dy="-6"/>
<feComposite in2="hardAlpha" operator="arithmetic" k2="-1" k3="1"/>
<feColorMatrix type="matrix" values="0 0 0 0 0 0 0 0 0 0 0 0 0 0 0 0 0 0 0.25 0"/>
<feBlend mode="normal" in2="shape" result="effect1_innerShadow"/>
</filter>
<clipPath id="clip0">
<rect width="65" height="65" fill="white" transform="matrix(-0.906247 0.422749 0.422749 0.906247 58.906 82.3076)"/>
</clipPath>
<clipPath id="clip1">
<rect width="65" height="65" fill="white" transform="translate(90.2874) rotate(8.48877)"/>
</clipPath>
<clipPath id="clip2">
<rect width="65" height="65" fill="white" transform="matrix(-1 0 0 1 82.6924 12)"/>
</clipPath>
</defs>
</svg>
