<svg width="175" height="175" viewBox="0 0 175 175" fill="none" xmlns="http://www.w3.org/2000/svg">
<g filter="url(#filter0_i)">
<path d="M88.7684 74.2458C80.7731 74.6318 75.1561 68.4561 76.2032 60.4369C84.1985 60.0509 89.8155 66.2266 88.7684 74.2458Z" fill="#219653"/>
</g>
<path d="M85.9198 76.5554C85.2656 76.282 84.8183 75.6201 84.848 74.8627C84.9846 71.393 86.4514 68.1828 88.9742 65.8203C91.4988 63.458 92.8173 62.1609 96.2485 62.2894C97.211 62.3273 97.958 63.1433 97.9177 64.1142C97.8791 65.0854 97.0692 65.8429 96.108 65.8087C93.606 65.715 93.178 66.6771 91.3376 68.3994C89.4971 70.1216 88.4299 72.4611 88.3291 74.9897C88.2903 75.9627 87.4804 76.7202 86.5174 76.6858C86.3056 76.6793 86.105 76.6332 85.9198 76.5554Z" fill="#795030"/>
<g filter="url(#filter1_i)">
<path d="M74.5535 69.3664C76.5042 69.0983 78.4408 69.4522 80.2748 70.3184C84.9862 72.5466 90.2137 73.2124 95.3347 72.2364C97.3278 71.8575 98.6475 72.2311 103.124 76.1644C109.266 84.1562 110.607 87.2085 106.084 98.3764C101.561 109.544 92.0024 116.175 84.7325 113.188C84.7241 113.185 84.7173 113.183 84.7091 113.178C83.2971 112.593 81.7732 112.398 80.2592 112.611C80.2502 112.612 80.243 112.613 80.2339 112.615C72.4474 113.684 67.3079 106.514 65.7388 94.5723C65.6564 84.7875 66.5815 74.2782 74.5535 69.3664Z" fill="#B8D020"/>
</g>
<defs>
<filter id="filter0_i" x="76.0776" y="60.4199" width="12.8163" height="13.8432" filterUnits="userSpaceOnUse" color-interpolation-filters="sRGB">
<feFlood flood-opacity="0" result="BackgroundImageFix"/>
<feBlend mode="normal" in="SourceGraphic" in2="BackgroundImageFix" result="shape"/>
<feColorMatrix in="SourceAlpha" type="matrix" values="0 0 0 0 0 0 0 0 0 0 0 0 0 0 0 0 0 0 127 0" result="hardAlpha"/>
<feOffset dy="-4"/>
<feComposite in2="hardAlpha" operator="arithmetic" k2="-1" k3="1"/>
<feColorMatrix type="matrix" values="0 0 0 0 0 0 0 0 0 0 0 0 0 0 0 0 0 0 0.25 0"/>
<feBlend mode="normal" in2="shape" result="effect1_innerShadow"/>
</filter>
<filter id="filter1_i" x="65.7341" y="69.2788" width="43.0307" height="44.6255" filterUnits="userSpaceOnUse" color-interpolation-filters="sRGB">
<feFlood flood-opacity="0" result="BackgroundImageFix"/>
<feBlend mode="normal" in="SourceGraphic" in2="BackgroundImageFix" result="shape"/>
<feColorMatrix in="SourceAlpha" type="matrix" values="0 0 0 0 0 0 0 0 0 0 0 0 0 0 0 0 0 0 127 0" result="hardAlpha"/>
<feOffset dx="-2" dy="-6"/>
<feComposite in2="hardAlpha" operator="arithmetic" k2="-1" k3="1"/>
<feColorMatrix type="matrix" values="0 0 0 0 0 0 0 0 0 0 0 0 0 0 0 0 0 0 0.25 0"/>
<feBlend mode="normal" in2="shape" result="effect1_innerShadow"/>
</filter>
</defs>
</svg>
