<svg width="199" height="59" viewBox="0 0 199 59" fill="none" xmlns="http://www.w3.org/2000/svg">
<g clip-path="url(#clip0)">
<g filter="url(#filter0_d)">
<path d="M9.84441 27.9851L35.9886 54.8896C36.3738 55.286 36.8347 55.6011 37.3439 55.8163C37.8531 56.0314 38.4003 56.1422 38.9531 56.1421L150.08 56.1421C150.352 56.1424 150.62 56.0891 150.871 55.9853C151.122 55.8815 151.35 55.7293 151.542 55.5373C151.734 55.3453 151.886 55.1174 151.99 54.8665C152.094 54.6156 152.147 54.3467 152.147 54.0752L152.147 1.91286C152.147 1.64137 152.094 1.3725 151.99 1.12163C151.886 0.870756 151.734 0.642813 151.542 0.450839C151.35 0.258865 151.122 0.106627 150.871 0.00284151C150.62 -0.100944 150.352 -0.154248 150.08 -0.15401L38.9515 -0.147478C38.3991 -0.147661 37.8522 -0.0370496 37.3433 0.177812C36.8344 0.392674 36.3737 0.707425 35.9886 1.10344L9.84441 27.9851ZM28.5656 27.985C28.5657 29.01 28.2618 30.0121 27.6924 30.8643C27.123 31.7166 26.3137 32.3809 25.3667 32.7732C24.4197 33.1655 23.3777 33.2682 22.3724 33.0682C21.3671 32.8683 20.4437 32.3747 19.7189 31.6499C18.9941 30.9251 18.5005 30.0017 18.3006 28.9964C18.1006 27.9911 18.2033 26.9491 18.5956 26.0021C18.9879 25.0551 19.6522 24.2458 20.5044 23.6764C21.3567 23.1069 22.3587 22.8031 23.3837 22.8032C24.0644 22.8026 24.7385 22.9363 25.3674 23.1965C25.9964 23.4567 26.5678 23.8384 27.0491 24.3197C27.5304 24.801 27.9121 25.3724 28.1723 26.0014C28.4325 26.6303 28.5662 27.3044 28.5656 27.985Z" fill="#F6C863"/>
<path d="M1.31951 27.9972C1.3199 28.8427 1.65597 29.6535 2.25386 30.2514C2.85176 30.8493 3.66256 31.1854 4.50812 31.1858L21.8264 31.1858C22.6451 31.1458 23.4171 30.7924 23.9825 30.1988C24.5478 29.6052 24.8631 28.8169 24.8631 27.9972C24.8631 27.1774 24.5478 26.3891 23.9825 25.7955C23.4171 25.2019 22.6451 24.8485 21.8264 24.8086L4.50975 24.8086C3.66401 24.8088 2.85296 25.1448 2.25478 25.7427C1.6566 26.3405 1.32021 27.1514 1.31951 27.9972V27.9972Z" fill="#EEEFEE"/>
<path d="M145.573 49.5544L46.8464 49.5544L46.8463 6.46396L145.573 6.46405L145.573 49.5544Z" fill="#EAB54E"/>
</g>
</g>
<defs>
<filter id="filter0_d" x="0" y="-57" width="179.085" height="173.99" filterUnits="userSpaceOnUse" color-interpolation-filters="sRGB">
<feFlood flood-opacity="0" result="BackgroundImageFix"/>
<feColorMatrix in="SourceAlpha" type="matrix" values="0 0 0 0 0 0 0 0 0 0 0 0 0 0 0 0 0 0 127 0"/>
<feOffset dy="4"/>
<feColorMatrix type="matrix" values="0 0 0 0 0.7 0 0 0 0 0.5275 0 0 0 0 0.14875 0 0 0 1 0"/>
<feBlend mode="normal" in2="BackgroundImageFix" result="effect1_dropShadow"/>
<feBlend mode="normal" in="SourceGraphic" in2="effect1_dropShadow" result="shape"/>
</filter>
<clipPath id="clip0">
<rect width="199" height="59" fill="white"/>
</clipPath>
</defs>
</svg>
