<svg width="199" height="59" viewBox="0 0 199 59" fill="none" xmlns="http://www.w3.org/2000/svg">
<g clip-path="url(#clip0)">
<g filter="url(#filter0_d)">
<path d="M189.241 27.9851L163.097 54.8896C162.711 55.286 162.251 55.6011 161.741 55.8163C161.232 56.0314 160.685 56.1422 160.132 56.1421L49.0052 56.1421C48.7337 56.1424 48.4648 56.0891 48.2139 55.9853C47.963 55.8815 47.7351 55.7293 47.5431 55.5373C47.3512 55.3453 47.1989 55.1174 47.0951 54.8665C46.9913 54.6156 46.938 54.3467 46.9383 54.0752L46.9383 1.91286C46.938 1.64137 46.9913 1.3725 47.0951 1.12163C47.1989 0.870756 47.3512 0.642813 47.5431 0.450839C47.7351 0.258865 47.963 0.106627 48.2139 0.00284151C48.4648 -0.100944 48.7337 -0.154248 49.0052 -0.15401L160.134 -0.147478C160.686 -0.147661 161.233 -0.0370496 161.742 0.177812C162.251 0.392674 162.711 0.707425 163.097 1.10344L189.241 27.9851ZM170.52 27.985C170.519 29.01 170.823 30.0121 171.393 30.8643C171.962 31.7166 172.772 32.3809 173.719 32.7732C174.665 33.1655 175.707 33.2682 176.713 33.0682C177.718 32.8683 178.642 32.3747 179.366 31.6499C180.091 30.9251 180.585 30.0017 180.785 28.9964C180.985 27.9911 180.882 26.9491 180.49 26.0021C180.097 25.0551 179.433 24.2458 178.581 23.6764C177.728 23.1069 176.726 22.8031 175.701 22.8032C175.021 22.8026 174.347 22.9363 173.718 23.1965C173.089 23.4567 172.517 23.8384 172.036 24.3197C171.555 24.801 171.173 25.3724 170.913 26.0014C170.653 26.6303 170.519 27.3044 170.52 27.985Z" fill="#F6C863"/>
<path d="M197.766 27.9972C197.765 28.8427 197.429 29.6535 196.831 30.2514C196.234 30.8493 195.423 31.1854 194.577 31.1858L177.259 31.1858C176.44 31.1458 175.668 30.7924 175.103 30.1988C174.538 29.6052 174.222 28.8169 174.222 27.9972C174.222 27.1774 174.538 26.3891 175.103 25.7955C175.668 25.2019 176.44 24.8485 177.259 24.8086L194.576 24.8086C195.421 24.8088 196.232 25.1448 196.831 25.7427C197.429 26.3405 197.765 27.1514 197.766 27.9972V27.9972Z" fill="#EEEFEE"/>
<path d="M53.5128 49.5544L152.239 49.5544L152.239 6.46396L53.5128 6.46405L53.5128 49.5544Z" fill="#EAB54E"/>
</g>
</g>
<defs>
<filter id="filter0_d" x="19.9999" y="-57" width="179.086" height="173.99" filterUnits="userSpaceOnUse" color-interpolation-filters="sRGB">
<feFlood flood-opacity="0" result="BackgroundImageFix"/>
<feColorMatrix in="SourceAlpha" type="matrix" values="0 0 0 0 0 0 0 0 0 0 0 0 0 0 0 0 0 0 127 0"/>
<feOffset dy="4"/>
<feColorMatrix type="matrix" values="0 0 0 0 0.7 0 0 0 0 0.5275 0 0 0 0 0.14875 0 0 0 1 0"/>
<feBlend mode="normal" in2="BackgroundImageFix" result="effect1_dropShadow"/>
<feBlend mode="normal" in="SourceGraphic" in2="effect1_dropShadow" result="shape"/>
</filter>
<clipPath id="clip0">
<rect width="199" height="59" fill="white"/>
</clipPath>
</defs>
</svg>
