<svg width="153" height="239" viewBox="0 0 153 239" fill="none" xmlns="http://www.w3.org/2000/svg">
<g filter="url(#filter0_i)">
<path d="M37.3018 34.5363C46.6823 35.3639 53.5986 28.4456 52.773 19.0672C43.3924 18.2395 36.4762 25.1578 37.3018 34.5363Z" fill="#219653"/>
</g>
<path d="M36.9426 41.0706C37.7517 40.8683 38.3874 40.1831 38.4844 39.3059C38.9281 35.2875 37.7785 31.3392 35.2522 28.1855C32.7239 25.0318 29.1183 23.0505 25.1019 22.6088C23.975 22.487 22.9636 23.2981 22.8419 24.423C22.718 25.5478 23.5291 26.5591 24.654 26.685C27.5827 27.007 30.2101 28.4497 32.0532 30.7489C33.8962 33.0481 34.7321 35.9252 34.4102 38.8539C34.2863 39.9808 35.0975 40.9922 36.2244 41.1181C36.472 41.147 36.7135 41.1284 36.9426 41.0706Z" fill="#795030"/>
<g filter="url(#filter1_i)">
<path d="M21.7462 34.5115C23.9835 33.915 26.2971 34.0389 28.5674 34.7695C34.4001 36.6497 40.6022 36.6497 46.4349 34.7695C48.7052 34.0389 51.0188 33.915 53.2561 34.5115C62.1888 36.8912 66.4983 49.8134 62.8844 63.3755C54.5 79 50 78 40.1688 83.6205C40.1585 83.6185 40.1502 83.6164 40.1399 83.6123C38.4041 83.1438 36.5961 83.1438 34.8604 83.6123C34.85 83.6144 34.8418 83.6164 34.8315 83.6205C25.9009 86.0003 15.7298 76.9355 12.1159 63.3755C8.50402 49.8134 12.8156 36.8912 21.7462 34.5115Z" fill="#D02020"/>
</g>
<g filter="url(#filter2_i)">
<path d="M121.195 177.373C129.619 173.165 131.887 163.649 126.271 156.092C117.847 160.301 115.579 169.817 121.195 177.373Z" fill="#219653"/>
</g>
<path d="M116.856 183.211C117.677 183.353 118.536 182.984 118.979 182.221C121.011 178.725 121.557 174.649 120.522 170.743C119.486 166.837 116.99 163.566 113.495 161.537C112.514 160.97 111.261 161.303 110.695 162.282C110.126 163.261 110.459 164.514 111.437 165.084C113.985 166.563 115.804 168.945 116.56 171.794C117.315 174.642 116.916 177.611 115.436 180.159C114.867 181.14 115.2 182.393 116.18 182.964C116.394 183.09 116.623 183.171 116.856 183.211Z" fill="#795030"/>
<g filter="url(#filter3_i)">
<path d="M104.746 170.511C106.983 169.915 109.297 170.039 111.567 170.769C117.4 172.65 123.602 172.65 129.435 170.769C131.705 170.039 134.019 169.915 136.256 170.511C145.189 172.891 149.498 185.813 145.884 199.375C137.5 215 133 214 123.169 219.621C123.158 219.618 123.15 219.616 123.14 219.612C121.404 219.144 119.596 219.144 117.86 219.612C117.85 219.614 117.842 219.616 117.831 219.621C108.901 222 102.114 210.56 98.5 197C94.8881 183.438 98.5 175.5 104.746 170.511Z" fill="#B8D020"/>
</g>
<g clip-path="url(#clip0)">
<g filter="url(#filter4_i)">
<path d="M62.1952 198.373C70.6193 194.165 72.8867 184.649 67.2707 177.092C58.8466 181.301 56.5793 190.817 62.1952 198.373Z" fill="#219653"/>
</g>
<path d="M56.9316 199.604C57.7533 199.746 58.6119 199.377 59.0554 198.614C61.0868 195.118 61.6327 191.043 60.5981 187.136C59.5617 183.23 57.0657 179.959 53.5713 177.93C52.59 177.363 51.337 177.696 50.7706 178.675C50.2023 179.654 50.535 180.907 51.5128 181.477C54.0609 182.956 55.8801 185.338 56.6355 188.187C57.391 191.035 56.9915 194.004 55.5123 196.552C54.9432 197.533 55.2759 198.786 56.2555 199.357C56.4703 199.484 56.6987 199.564 56.9316 199.604Z" fill="#795030"/>
<g filter="url(#filter5_i)">
<path d="M76.3051 193.584C74.213 192.592 71.9152 192.294 69.5501 192.601C63.4732 193.393 57.3739 192.269 51.9787 189.362C49.8784 188.232 47.6255 187.691 45.3172 187.872C36.1011 188.593 23.3598 199.376 24.4554 213.368C29.8686 230.254 34.4753 230.086 43.1248 237.396C43.1354 237.396 49.3047 238.539 49.3155 238.537C51.1075 238.391 52.8855 238.719 54.5076 239.494C54.5174 239.498 54.5251 239.501 54.5345 239.507C62.8858 243.466 71.6341 233.446 77.6462 220.766C83.6566 208.083 81.5435 199.622 76.3051 193.584Z" fill="#D02020"/>
</g>
</g>
<g clip-path="url(#clip1)">
<g filter="url(#filter6_i)">
<path d="M39.6416 107.193C30.2416 106.627 24.4224 98.7634 26.6233 89.6095C36.0233 90.1756 41.8425 98.0391 39.6416 107.193Z" fill="#219653"/>
</g>
<path d="M39.0322 113.709C38.2618 113.389 37.7343 112.618 37.7678 111.736C37.9221 107.696 39.6419 103.96 42.6061 101.214C45.5722 98.4684 49.4309 97.041 53.4685 97.197C54.601 97.2429 55.4815 98.1944 55.4359 99.3249C55.3923 100.456 54.4408 101.336 53.3097 101.295C50.3655 101.181 47.554 102.22 45.3917 104.222C43.2294 106.224 41.978 108.946 41.8641 111.89C41.8202 113.023 40.8687 113.903 39.7355 113.862C39.4863 113.854 39.2502 113.8 39.0322 113.709Z" fill="#795030"/>
<g filter="url(#filter7_i)">
<path d="M55.0306 109.465C52.9059 108.544 50.5993 108.325 48.246 108.713C42.1997 109.711 36.0655 108.796 30.5743 106.075C28.4367 105.018 26.1667 104.553 23.8658 104.813C12.0002 111 8.50994 117.993 10.0823 131.94C11.6547 145.887 20.3745 156.351 29.5605 155.316C29.5711 155.316 29.5795 155.315 29.5903 155.312C31.3763 155.105 33.1644 155.372 34.812 156.092C34.8219 156.095 34.8298 156.098 34.8394 156.104C43.3209 159.776 51.424 153.378 57 140.5C60.2055 129.566 62.5 117.5 55.0306 109.465Z" fill="#B8D020"/>
</g>
</g>
<g clip-path="url(#clip2)">
<g filter="url(#filter8_i)">
<path d="M115.379 24.0254C105.972 24.4599 99.3517 17.2584 100.569 7.92267C109.976 7.48815 116.597 14.6897 115.379 24.0254Z" fill="#219653"/>
</g>
<path d="M112.032 26.7088C111.262 26.3893 110.734 25.6177 110.768 24.7359C110.922 20.6959 112.642 16.9606 115.606 14.2144C118.572 11.4684 120.121 9.96053 124.159 10.1166C125.291 10.1625 126.172 11.114 126.126 12.2445C126.083 13.3753 125.131 14.2558 124 14.2143C121.056 14.1004 120.554 15.22 118.392 17.2219C116.229 19.2239 114.978 21.9461 114.864 24.8902C114.82 26.0231 113.869 26.9036 112.736 26.8617C112.486 26.8538 112.25 26.7997 112.032 26.7088Z" fill="#795030"/>
<g filter="url(#filter9_i)">
<path d="M98.6445 18.3166C100.939 18.0081 103.219 18.4238 105.378 19.4359C110.926 22.0392 117.078 22.8241 123.102 21.6972C125.446 21.2598 127 21.6972 132.275 26.2857C139.516 35.6029 141.1 39.1595 135.799 52.1551C130.497 65.1507 119.263 72.8535 110.703 69.3624C110.693 69.359 110.686 69.3559 110.676 69.3505C109.013 68.6661 107.22 68.4373 105.439 68.6823C105.428 68.6831 105.42 68.6841 105.409 68.6869C96.2491 69.9171 90.1884 61.5586 88.3197 47.6503C88.2045 36.2566 89.2734 24.021 98.6445 18.3166Z" fill="#B8D020"/>
</g>
</g>
<g clip-path="url(#clip3)">
<g filter="url(#filter10_i)">
<path d="M99.9309 97.4752C99.8712 88.0584 92.3322 81.8246 83.0732 83.53C83.1328 92.9467 90.6719 99.1805 99.9309 97.4752Z" fill="#219653"/>
</g>
<path d="M101.601 97.9293C100.901 98.3816 99.9659 98.3771 99.2593 97.8483C96.023 95.4252 93.9272 91.8871 93.3523 87.8875C92.7789 83.8863 93.7975 79.9002 96.2207 76.6669C96.9022 75.7611 98.1855 75.5775 99.0897 76.2575C99.9954 76.9361 100.179 78.2194 99.502 79.1264C97.735 81.4841 96.9919 84.388 97.4101 87.3049C97.8283 90.2218 99.3568 92.7987 101.714 94.5657C102.622 95.2456 102.805 96.529 102.127 97.4375C101.979 97.6381 101.8 97.8016 101.601 97.9293Z" fill="#795030"/>
<g filter="url(#filter11_i)">
<path d="M85.5796 101.679C87.2189 100.043 89.2845 98.9938 91.616 98.4914C97.6073 97.2034 102.978 94.1023 107.09 89.5577C108.69 87.7898 110.632 86.5257 112.868 85.9236C121.794 83.5182 131.987 92.5544 135.638 106.106C139.29 119.659 135.014 132.592 126.089 134.997C126.079 135 126.07 135.003 126.059 135.004C124.322 135.466 122.756 136.37 121.487 137.644C121.479 137.651 121.473 137.657 121.466 137.666C114.922 144.192 98.4098 137.436 88.5 127.5C78.591 117.561 79.0353 108.205 85.5796 101.679Z" fill="#D02020"/>
</g>
</g>
<defs>
<filter id="filter0_i" x="37.2349" y="19" width="15.6049" height="15.6034" filterUnits="userSpaceOnUse" color-interpolation-filters="sRGB">
<feFlood flood-opacity="0" result="BackgroundImageFix"/>
<feBlend mode="normal" in="SourceGraphic" in2="BackgroundImageFix" result="shape"/>
<feColorMatrix in="SourceAlpha" type="matrix" values="0 0 0 0 0 0 0 0 0 0 0 0 0 0 0 0 0 0 127 0" result="hardAlpha"/>
<feOffset dy="-4"/>
<feComposite in2="hardAlpha" operator="arithmetic" k2="-1" k3="1"/>
<feColorMatrix type="matrix" values="0 0 0 0 0 0 0 0 0 0 0 0 0 0 0 0 0 0 0.25 0"/>
<feBlend mode="normal" in2="shape" result="effect1_innerShadow"/>
</filter>
<filter id="filter1_i" x="10.8389" y="34.1326" width="53.324" height="49.8673" filterUnits="userSpaceOnUse" color-interpolation-filters="sRGB">
<feFlood flood-opacity="0" result="BackgroundImageFix"/>
<feBlend mode="normal" in="SourceGraphic" in2="BackgroundImageFix" result="shape"/>
<feColorMatrix in="SourceAlpha" type="matrix" values="0 0 0 0 0 0 0 0 0 0 0 0 0 0 0 0 0 0 127 0" result="hardAlpha"/>
<feOffset dx="-2" dy="-6"/>
<feComposite in2="hardAlpha" operator="arithmetic" k2="-1" k3="1"/>
<feColorMatrix type="matrix" values="0 0 0 0 0 0 0 0 0 0 0 0 0 0 0 0 0 0 0.25 0"/>
<feBlend mode="normal" in2="shape" result="effect1_innerShadow"/>
</filter>
<filter id="filter2_i" x="118.112" y="156.092" width="11.2426" height="21.2812" filterUnits="userSpaceOnUse" color-interpolation-filters="sRGB">
<feFlood flood-opacity="0" result="BackgroundImageFix"/>
<feBlend mode="normal" in="SourceGraphic" in2="BackgroundImageFix" result="shape"/>
<feColorMatrix in="SourceAlpha" type="matrix" values="0 0 0 0 0 0 0 0 0 0 0 0 0 0 0 0 0 0 127 0" result="hardAlpha"/>
<feOffset dy="-4"/>
<feComposite in2="hardAlpha" operator="arithmetic" k2="-1" k3="1"/>
<feColorMatrix type="matrix" values="0 0 0 0 0 0 0 0 0 0 0 0 0 0 0 0 0 0 0.25 0"/>
<feBlend mode="normal" in2="shape" result="effect1_innerShadow"/>
</filter>
<filter id="filter3_i" x="97.0637" y="170.133" width="50.0992" height="49.8032" filterUnits="userSpaceOnUse" color-interpolation-filters="sRGB">
<feFlood flood-opacity="0" result="BackgroundImageFix"/>
<feBlend mode="normal" in="SourceGraphic" in2="BackgroundImageFix" result="shape"/>
<feColorMatrix in="SourceAlpha" type="matrix" values="0 0 0 0 0 0 0 0 0 0 0 0 0 0 0 0 0 0 127 0" result="hardAlpha"/>
<feOffset dx="-2" dy="-6"/>
<feComposite in2="hardAlpha" operator="arithmetic" k2="-1" k3="1"/>
<feColorMatrix type="matrix" values="0 0 0 0 0 0 0 0 0 0 0 0 0 0 0 0 0 0 0.25 0"/>
<feBlend mode="normal" in2="shape" result="effect1_innerShadow"/>
</filter>
<filter id="filter4_i" x="59.1116" y="177.092" width="11.2426" height="21.2812" filterUnits="userSpaceOnUse" color-interpolation-filters="sRGB">
<feFlood flood-opacity="0" result="BackgroundImageFix"/>
<feBlend mode="normal" in="SourceGraphic" in2="BackgroundImageFix" result="shape"/>
<feColorMatrix in="SourceAlpha" type="matrix" values="0 0 0 0 0 0 0 0 0 0 0 0 0 0 0 0 0 0 127 0" result="hardAlpha"/>
<feOffset dy="-4"/>
<feComposite in2="hardAlpha" operator="arithmetic" k2="-1" k3="1"/>
<feColorMatrix type="matrix" values="0 0 0 0 0 0 0 0 0 0 0 0 0 0 0 0 0 0 0.25 0"/>
<feBlend mode="normal" in2="shape" result="effect1_innerShadow"/>
</filter>
<filter id="filter5_i" x="24.3892" y="187.838" width="56.902" height="52.5459" filterUnits="userSpaceOnUse" color-interpolation-filters="sRGB">
<feFlood flood-opacity="0" result="BackgroundImageFix"/>
<feBlend mode="normal" in="SourceGraphic" in2="BackgroundImageFix" result="shape"/>
<feColorMatrix in="SourceAlpha" type="matrix" values="0 0 0 0 0 0 0 0 0 0 0 0 0 0 0 0 0 0 127 0" result="hardAlpha"/>
<feOffset dx="-2" dy="-6"/>
<feComposite in2="hardAlpha" operator="arithmetic" k2="-1" k3="1"/>
<feColorMatrix type="matrix" values="0 0 0 0 0 0 0 0 0 0 0 0 0 0 0 0 0 0 0.25 0"/>
<feBlend mode="normal" in2="shape" result="effect1_innerShadow"/>
</filter>
<filter id="filter6_i" x="26.1582" y="89.6094" width="13.9486" height="17.5834" filterUnits="userSpaceOnUse" color-interpolation-filters="sRGB">
<feFlood flood-opacity="0" result="BackgroundImageFix"/>
<feBlend mode="normal" in="SourceGraphic" in2="BackgroundImageFix" result="shape"/>
<feColorMatrix in="SourceAlpha" type="matrix" values="0 0 0 0 0 0 0 0 0 0 0 0 0 0 0 0 0 0 127 0" result="hardAlpha"/>
<feOffset dy="-4"/>
<feComposite in2="hardAlpha" operator="arithmetic" k2="-1" k3="1"/>
<feColorMatrix type="matrix" values="0 0 0 0 0 0 0 0 0 0 0 0 0 0 0 0 0 0 0.25 0"/>
<feBlend mode="normal" in2="shape" result="effect1_innerShadow"/>
</filter>
<filter id="filter7_i" x="9.72754" y="104.742" width="50.2917" height="52.3886" filterUnits="userSpaceOnUse" color-interpolation-filters="sRGB">
<feFlood flood-opacity="0" result="BackgroundImageFix"/>
<feBlend mode="normal" in="SourceGraphic" in2="BackgroundImageFix" result="shape"/>
<feColorMatrix in="SourceAlpha" type="matrix" values="0 0 0 0 0 0 0 0 0 0 0 0 0 0 0 0 0 0 127 0" result="hardAlpha"/>
<feOffset dx="-2" dy="-6"/>
<feComposite in2="hardAlpha" operator="arithmetic" k2="-1" k3="1"/>
<feColorMatrix type="matrix" values="0 0 0 0 0 0 0 0 0 0 0 0 0 0 0 0 0 0 0.25 0"/>
<feBlend mode="normal" in2="shape" result="effect1_innerShadow"/>
</filter>
<filter id="filter8_i" x="100.425" y="7.90405" width="15.099" height="16.1401" filterUnits="userSpaceOnUse" color-interpolation-filters="sRGB">
<feFlood flood-opacity="0" result="BackgroundImageFix"/>
<feBlend mode="normal" in="SourceGraphic" in2="BackgroundImageFix" result="shape"/>
<feColorMatrix in="SourceAlpha" type="matrix" values="0 0 0 0 0 0 0 0 0 0 0 0 0 0 0 0 0 0 127 0" result="hardAlpha"/>
<feOffset dy="-4"/>
<feComposite in2="hardAlpha" operator="arithmetic" k2="-1" k3="1"/>
<feColorMatrix type="matrix" values="0 0 0 0 0 0 0 0 0 0 0 0 0 0 0 0 0 0 0.25 0"/>
<feBlend mode="normal" in2="shape" result="effect1_innerShadow"/>
</filter>
<filter id="filter9_i" x="88.312" y="18.2168" width="50.6221" height="51.9861" filterUnits="userSpaceOnUse" color-interpolation-filters="sRGB">
<feFlood flood-opacity="0" result="BackgroundImageFix"/>
<feBlend mode="normal" in="SourceGraphic" in2="BackgroundImageFix" result="shape"/>
<feColorMatrix in="SourceAlpha" type="matrix" values="0 0 0 0 0 0 0 0 0 0 0 0 0 0 0 0 0 0 127 0" result="hardAlpha"/>
<feOffset dx="-2" dy="-6"/>
<feComposite in2="hardAlpha" operator="arithmetic" k2="-1" k3="1"/>
<feColorMatrix type="matrix" values="0 0 0 0 0 0 0 0 0 0 0 0 0 0 0 0 0 0 0.25 0"/>
<feBlend mode="normal" in2="shape" result="effect1_innerShadow"/>
</filter>
<filter id="filter10_i" x="83.0732" y="83.249" width="16.8577" height="14.5071" filterUnits="userSpaceOnUse" color-interpolation-filters="sRGB">
<feFlood flood-opacity="0" result="BackgroundImageFix"/>
<feBlend mode="normal" in="SourceGraphic" in2="BackgroundImageFix" result="shape"/>
<feColorMatrix in="SourceAlpha" type="matrix" values="0 0 0 0 0 0 0 0 0 0 0 0 0 0 0 0 0 0 127 0" result="hardAlpha"/>
<feOffset dy="-4"/>
<feComposite in2="hardAlpha" operator="arithmetic" k2="-1" k3="1"/>
<feColorMatrix type="matrix" values="0 0 0 0 0 0 0 0 0 0 0 0 0 0 0 0 0 0 0.25 0"/>
<feBlend mode="normal" in2="shape" result="effect1_innerShadow"/>
</filter>
<filter id="filter11_i" x="80.8347" y="85.5359" width="56.1083" height="54.7107" filterUnits="userSpaceOnUse" color-interpolation-filters="sRGB">
<feFlood flood-opacity="0" result="BackgroundImageFix"/>
<feBlend mode="normal" in="SourceGraphic" in2="BackgroundImageFix" result="shape"/>
<feColorMatrix in="SourceAlpha" type="matrix" values="0 0 0 0 0 0 0 0 0 0 0 0 0 0 0 0 0 0 127 0" result="hardAlpha"/>
<feOffset dx="-2" dy="-6"/>
<feComposite in2="hardAlpha" operator="arithmetic" k2="-1" k3="1"/>
<feColorMatrix type="matrix" values="0 0 0 0 0 0 0 0 0 0 0 0 0 0 0 0 0 0 0.25 0"/>
<feBlend mode="normal" in2="shape" result="effect1_innerShadow"/>
</filter>
<clipPath id="clip0">
<rect width="65" height="65" fill="white" transform="matrix(-1 0 0 1 80 174)"/>
</clipPath>
<clipPath id="clip1">
<rect width="65" height="65" fill="white" transform="translate(9.59497 87) rotate(8.48877)"/>
</clipPath>
<clipPath id="clip2">
<rect width="65" height="65" fill="white" transform="translate(82.595) rotate(8.48877)"/>
</clipPath>
<clipPath id="clip3">
<rect width="65" height="65" fill="white" transform="matrix(-1 0 0 1 144 75)"/>
</clipPath>
</defs>
</svg>
