<svg width="137" height="156" viewBox="0 0 137 156" fill="none" xmlns="http://www.w3.org/2000/svg">
<g clip-path="url(#clip0)">
<g filter="url(#filter0_i)">
<path d="M64.5415 102.721C70.3965 95.3457 68.4284 85.7633 60.1445 81.2896C54.2895 88.6651 56.2576 98.2475 64.5415 102.721Z" fill="#219653"/>
</g>
<path d="M63.0765 109.846C63.8813 109.628 64.5032 108.93 64.5826 108.051C64.9459 104.024 63.7175 100.1 61.1287 96.9973C58.5378 93.8948 54.8931 91.986 50.8687 91.6248C49.7396 91.5256 48.7447 92.3568 48.6455 93.4838C48.5442 94.6109 49.3754 95.6058 50.5025 95.7092C53.4371 95.9725 56.0928 97.3623 57.9815 99.6242C59.8702 101.886 60.7635 104.746 60.5002 107.68C60.399 108.81 61.2301 109.804 62.3593 109.908C62.6075 109.932 62.8486 109.908 63.0765 109.846Z" fill="#795030"/>
<g filter="url(#filter1_i)">
<path d="M46.7337 103.457C48.509 101.97 50.6581 101.104 53.0245 100.807C59.1052 100.045 64.7258 97.423 69.2168 93.2533C70.9654 91.6314 73.0098 90.5411 75.2895 90.1358C84.3907 88.5162 93.759 98.4051 96.2172 112.223C95.2242 129.928 90.7233 130.924 84.1899 140.173C84.1797 140.176 84.1713 140.178 84.1602 140.178C82.3891 140.487 80.7506 141.252 79.3757 142.41C79.3672 142.416 79.3606 142.422 79.353 142.43C72.2657 148.362 61.2787 140.863 52.2711 130.102C43.2645 119.339 43.182 110.618 46.7337 103.457Z" fill="#B8D020"/>
</g>
</g>
<g clip-path="url(#clip1)">
<g filter="url(#filter2_i)">
<path d="M105.072 24.0254C95.6649 24.4599 89.0441 17.2584 90.2612 7.92267C99.6682 7.48815 106.289 14.6897 105.072 24.0254Z" fill="#219653"/>
</g>
<path d="M101.725 26.7088C100.954 26.3893 100.427 25.6177 100.46 24.7359C100.614 20.6959 102.334 16.9606 105.298 14.2144C108.265 11.4684 109.814 9.96053 113.851 10.1166C114.984 10.1625 115.864 11.114 115.819 12.2445C115.775 13.3753 114.823 14.2558 113.692 14.2143C110.748 14.1004 110.246 15.22 108.084 17.2219C105.922 19.2239 104.67 21.9461 104.556 24.8902C104.513 26.0231 103.561 26.9036 102.428 26.8617C102.179 26.8538 101.943 26.7997 101.725 26.7088Z" fill="#795030"/>
<g filter="url(#filter3_i)">
<path d="M88.3368 18.3166C90.6316 18.0081 92.911 18.4238 95.0706 19.4359C100.618 22.0392 106.771 22.8241 112.794 21.6972C115.139 21.2598 116.692 21.6972 121.967 26.2857C129.209 35.6029 130.792 39.1595 125.491 52.1551C120.19 65.1507 108.955 72.8535 100.396 69.3624C100.386 69.359 100.378 69.3559 100.368 69.3505C98.7057 68.6661 96.9123 68.4373 95.1312 68.6823C95.1207 68.6831 95.1122 68.6841 95.1015 68.6869C85.9415 69.9171 79.8807 61.5586 78.0121 47.6503C77.8969 36.2566 78.9658 24.021 88.3368 18.3166Z" fill="#B8D020"/>
</g>
</g>
<g clip-path="url(#clip2)">
<g filter="url(#filter4_i)">
<path d="M21.6233 34.4752C21.5636 25.0584 14.0245 18.8246 4.76553 20.53C4.82523 29.9467 12.3643 36.1805 21.6233 34.4752Z" fill="#219653"/>
</g>
<path d="M23.2936 34.9293C22.5929 35.3816 21.6582 35.3771 20.9517 34.8483C17.7154 32.4252 15.6195 28.8871 15.0447 24.8875C14.4712 20.8863 15.4899 16.9002 17.9131 13.6669C18.5945 12.7611 19.8779 12.5775 20.7821 13.2575C21.6878 13.9361 21.8714 15.2194 21.1944 16.1264C19.4273 18.4841 18.6843 21.388 19.1025 24.3049C19.5207 27.2218 21.0492 29.7987 23.4069 31.5657C24.314 32.2456 24.4977 33.529 23.8192 34.4375C23.671 34.6381 23.4924 34.8016 23.2936 34.9293Z" fill="#795030"/>
<g filter="url(#filter5_i)">
<path d="M7.27195 38.6786C8.91127 37.0434 10.9769 35.9938 13.3083 35.4914C19.2997 34.2034 24.6709 31.1023 28.782 26.5577C30.3828 24.7898 32.3246 23.5257 34.5604 22.9236C43.4862 20.5182 53.6794 29.5544 57.3307 43.1065C60.9819 56.6585 56.7067 69.5915 47.7809 71.997C47.771 72.0003 47.7628 72.0027 47.7518 72.0043C46.0143 72.4664 44.4485 73.3704 43.1796 74.644C43.1717 74.651 43.1656 74.6569 43.1587 74.6656C36.6144 81.1918 20.1021 74.4363 10.1924 64.5C0.283382 54.5608 0.727673 45.2048 7.27195 38.6786Z" fill="#D02020"/>
</g>
</g>
<defs>
<filter id="filter0_i" x="56.7744" y="81.2896" width="11.1372" height="21.4317" filterUnits="userSpaceOnUse" color-interpolation-filters="sRGB">
<feFlood flood-opacity="0" result="BackgroundImageFix"/>
<feBlend mode="normal" in="SourceGraphic" in2="BackgroundImageFix" result="shape"/>
<feColorMatrix in="SourceAlpha" type="matrix" values="0 0 0 0 0 0 0 0 0 0 0 0 0 0 0 0 0 0 127 0" result="hardAlpha"/>
<feOffset dy="-4"/>
<feComposite in2="hardAlpha" operator="arithmetic" k2="-1" k3="1"/>
<feColorMatrix type="matrix" values="0 0 0 0 0 0 0 0 0 0 0 0 0 0 0 0 0 0 0.25 0"/>
<feBlend mode="normal" in2="shape" result="effect1_innerShadow"/>
</filter>
<filter id="filter1_i" x="39.6111" y="85.1816" width="66.4565" height="66.3134" filterUnits="userSpaceOnUse" color-interpolation-filters="sRGB">
<feFlood flood-opacity="0" result="BackgroundImageFix"/>
<feBlend mode="normal" in="SourceGraphic" in2="BackgroundImageFix" result="shape"/>
<feColorMatrix in="SourceAlpha" type="matrix" values="0 0 0 0 0 0 0 0 0 0 0 0 0 0 0 0 0 0 127 0" result="hardAlpha"/>
<feOffset dx="-2" dy="-6"/>
<feComposite in2="hardAlpha" operator="arithmetic" k2="-1" k3="1"/>
<feColorMatrix type="matrix" values="0 0 0 0 0 0 0 0 0 0 0 0 0 0 0 0 0 0 0.25 0"/>
<feBlend mode="normal" in2="shape" result="effect1_innerShadow"/>
</filter>
<filter id="filter2_i" x="90.1169" y="7.90405" width="15.099" height="16.1401" filterUnits="userSpaceOnUse" color-interpolation-filters="sRGB">
<feFlood flood-opacity="0" result="BackgroundImageFix"/>
<feBlend mode="normal" in="SourceGraphic" in2="BackgroundImageFix" result="shape"/>
<feColorMatrix in="SourceAlpha" type="matrix" values="0 0 0 0 0 0 0 0 0 0 0 0 0 0 0 0 0 0 127 0" result="hardAlpha"/>
<feOffset dy="-4"/>
<feComposite in2="hardAlpha" operator="arithmetic" k2="-1" k3="1"/>
<feColorMatrix type="matrix" values="0 0 0 0 0 0 0 0 0 0 0 0 0 0 0 0 0 0 0.25 0"/>
<feBlend mode="normal" in2="shape" result="effect1_innerShadow"/>
</filter>
<filter id="filter3_i" x="78.0044" y="18.2168" width="50.6221" height="51.9861" filterUnits="userSpaceOnUse" color-interpolation-filters="sRGB">
<feFlood flood-opacity="0" result="BackgroundImageFix"/>
<feBlend mode="normal" in="SourceGraphic" in2="BackgroundImageFix" result="shape"/>
<feColorMatrix in="SourceAlpha" type="matrix" values="0 0 0 0 0 0 0 0 0 0 0 0 0 0 0 0 0 0 127 0" result="hardAlpha"/>
<feOffset dx="-2" dy="-6"/>
<feComposite in2="hardAlpha" operator="arithmetic" k2="-1" k3="1"/>
<feColorMatrix type="matrix" values="0 0 0 0 0 0 0 0 0 0 0 0 0 0 0 0 0 0 0.25 0"/>
<feBlend mode="normal" in2="shape" result="effect1_innerShadow"/>
</filter>
<filter id="filter4_i" x="4.76562" y="20.249" width="16.8577" height="14.5071" filterUnits="userSpaceOnUse" color-interpolation-filters="sRGB">
<feFlood flood-opacity="0" result="BackgroundImageFix"/>
<feBlend mode="normal" in="SourceGraphic" in2="BackgroundImageFix" result="shape"/>
<feColorMatrix in="SourceAlpha" type="matrix" values="0 0 0 0 0 0 0 0 0 0 0 0 0 0 0 0 0 0 127 0" result="hardAlpha"/>
<feOffset dy="-4"/>
<feComposite in2="hardAlpha" operator="arithmetic" k2="-1" k3="1"/>
<feColorMatrix type="matrix" values="0 0 0 0 0 0 0 0 0 0 0 0 0 0 0 0 0 0 0.25 0"/>
<feBlend mode="normal" in2="shape" result="effect1_innerShadow"/>
</filter>
<filter id="filter5_i" x="2.5271" y="22.5359" width="56.1083" height="54.7107" filterUnits="userSpaceOnUse" color-interpolation-filters="sRGB">
<feFlood flood-opacity="0" result="BackgroundImageFix"/>
<feBlend mode="normal" in="SourceGraphic" in2="BackgroundImageFix" result="shape"/>
<feColorMatrix in="SourceAlpha" type="matrix" values="0 0 0 0 0 0 0 0 0 0 0 0 0 0 0 0 0 0 127 0" result="hardAlpha"/>
<feOffset dx="-2" dy="-6"/>
<feComposite in2="hardAlpha" operator="arithmetic" k2="-1" k3="1"/>
<feColorMatrix type="matrix" values="0 0 0 0 0 0 0 0 0 0 0 0 0 0 0 0 0 0 0.25 0"/>
<feBlend mode="normal" in2="shape" result="effect1_innerShadow"/>
</filter>
<clipPath id="clip0">
<rect width="65" height="65" fill="white" transform="matrix(-0.906247 0.422749 0.422749 0.906247 83.906 69)"/>
</clipPath>
<clipPath id="clip1">
<rect width="65" height="65" fill="white" transform="translate(72.2874) rotate(8.48877)"/>
</clipPath>
<clipPath id="clip2">
<rect width="65" height="65" fill="white" transform="matrix(-1 0 0 1 65.6924 12)"/>
</clipPath>
</defs>
</svg>
