<svg width="375" height="507" viewBox="0 0 375 507" fill="none" xmlns="http://www.w3.org/2000/svg">
<path d="M248.856 -7H379V498.878C379 498.878 360.788 501.403 342.575 498.878C324.363 496.353 309.945 484.677 306.53 481.836C303.115 478.996 292.112 467.635 291.732 464.479C291.353 461.324 289.67 415 303.027 375C308.603 358.302 312.258 347.953 314.945 339.888L322.466 311.738C302.735 280.18 227.229 214.223 248.856 -7Z" fill="url(#paint0_linear)"/>
<path d="M315.276 306.653L379.354 289.918L379.354 300L318.773 316.212L315.276 306.653Z" fill="url(#paint1_linear)"/>
<path d="M131.144 0H1V505.878C1 505.878 19.2121 508.403 37.4247 505.878C55.6372 503.353 70.0555 491.677 73.4703 488.836C76.8851 485.996 87.8885 474.635 88.268 471.479C88.6474 468.324 90.3304 422 76.9732 382C71.3973 365.302 67.7416 354.953 65.0555 346.888L57.5343 318.738C77.2646 287.18 152.771 221.223 131.144 0Z" fill="url(#paint2_linear)"/>
<path d="M64.7238 313.653L0.646225 296.918L0.646226 307L61.227 323.212L64.7238 313.653Z" fill="url(#paint3_linear)"/>
<path d="M164.426 205C164.401 205 164.377 205.004 164.353 205.012L162.572 205.628C160.424 206.371 158.709 207.266 157.297 208.389C156.661 208.895 156.034 209.496 155.573 210.012C155.342 210.27 155.154 210.507 155.023 210.708C154.958 210.808 154.907 210.899 154.872 210.989C154.837 211.08 154.803 211.175 154.853 211.305C154.826 211.236 154.853 211.265 154.811 211.325C154.769 211.384 154.69 211.462 154.596 211.523C154.47 211.606 154.364 211.688 154.284 211.766C154.244 211.805 154.211 211.84 154.179 211.893C154.164 211.919 154.146 211.949 154.138 212.003C154.137 212.011 154.148 212.025 154.148 212.034C154.142 212.048 154.123 212.082 154.093 212.126C154.031 212.217 153.928 212.345 153.807 212.477C153.672 212.626 153.558 212.776 153.479 212.91C153.44 212.977 153.408 213.039 153.386 213.106C153.374 213.143 153.363 213.189 153.364 213.242C153.333 213.266 153.31 213.289 153.286 213.315C153.237 213.37 153.189 213.436 153.137 213.515C153.032 213.673 152.914 213.881 152.802 214.111C152.698 214.322 152.585 214.508 152.495 214.627C152.45 214.686 152.41 214.728 152.392 214.744C152.297 214.75 152.205 214.779 152.15 214.84C152.07 214.926 152.037 215.032 152.029 215.144C152.027 215.167 151.995 215.323 151.945 215.497C151.894 215.67 151.826 215.877 151.753 216.07C151.517 216.703 151.5 217.323 151.71 217.875C151.919 218.427 152.348 218.903 152.961 219.276C153.568 219.646 154.285 219.693 154.96 219.466C155.635 219.239 156.273 218.746 156.766 218.036C158.9 214.966 162.212 211.811 164.433 210.693C166.309 209.749 170.446 208.708 176.162 207.773C176.799 207.669 177.378 207.562 177.801 207.473C178.013 207.429 178.184 207.39 178.309 207.356C178.372 207.339 178.422 207.324 178.467 207.306C178.489 207.298 178.509 207.29 178.538 207.273C178.552 207.264 178.569 207.253 178.592 207.228C178.616 207.203 178.656 207.154 178.656 207.069C178.656 206.971 178.615 206.927 178.589 206.897C178.563 206.866 178.539 206.846 178.513 206.826C178.462 206.787 178.403 206.751 178.331 206.712C178.187 206.633 177.994 206.542 177.766 206.444C177.311 206.248 176.719 206.026 176.152 205.847C173.915 205.14 172.645 205 168.475 205H164.426ZM154.149 212.038C154.155 212.164 154.275 212.37 154.149 212.038ZM97.4579 223.864C96.9577 224.244 96.8759 226.294 95.9765 225.901C96.3827 225.347 96.8456 223.193 97.4579 223.864ZM60.1586 227.959C59.0496 228.523 61.1258 227.175 61.5021 228.033C60.5114 227.839 60.8178 227.911 60.1586 227.959ZM49.237 232.203C48.9253 232.271 48.324 233.023 48.5662 232.844C46.8984 234.704 45.4788 237.213 44.8119 239.488C44.0791 241.988 43.9003 243.563 43.9004 247.486C43.9007 254.17 44.6422 257.842 46.9043 262.321C49.6769 267.812 53.3348 271.254 59.8452 274.512C60.3923 274.786 60.9349 275.047 61.3702 275.247C61.8056 275.448 62.0998 275.581 62.2741 275.628C62.4201 275.667 62.4463 275.686 62.4749 275.734C62.5035 275.782 62.5365 275.916 62.5518 276.17C62.833 280.837 63.983 287.667 65.0101 290.71C67.6555 298.547 71.2991 304.695 75.7578 308.811L76.5251 309.52L76.119 309.727C74.2616 310.674 69.1655 313.978 66.4089 316.015C62.4234 318.96 53.4143 327.019 48.4288 332.093C45.343 335.234 39.3114 342.439 36.5109 346.328C34.6957 348.849 31.552 354.091 30.3 356.687C29.6497 358.035 28.3865 360.969 27.4828 363.227C23.7313 372.601 22.5378 377.518 21.7219 386.964C21.0222 395.064 20.9277 397.129 21.0397 401.804C21.2612 411.049 21.8441 416.596 23.5787 425.967C23.9469 427.956 24.548 430.449 25.1046 432.45C25.3829 433.45 25.6498 434.327 25.8725 434.959C25.9838 435.276 26.0834 435.53 26.1723 435.715C26.2168 435.808 26.2574 435.883 26.3042 435.947C26.3276 435.979 26.3519 436.009 26.3886 436.04C26.3986 436.048 26.4243 436.05 26.4373 436.058C26.403 436.147 26.3687 436.215 26.4032 436.345C26.4206 436.411 26.4986 436.513 26.5989 436.533C26.6174 436.537 26.6211 436.525 26.6372 436.525C26.6487 436.535 26.6542 436.539 26.6723 436.558C26.7369 436.626 26.8331 436.741 26.9462 436.887C27.1724 437.181 27.4705 437.604 27.7808 438.079C29.3387 440.466 30.6012 442.138 32.2267 443.967C32.976 444.81 34.13 446.158 34.7847 446.956C36.3625 448.878 42.0547 454.515 43.9748 456.056C50.2235 461.073 57.166 464.848 68.1032 469.185C73.5729 471.354 75.5395 472.027 78.8127 472.851C80.268 473.217 82.6642 473.854 84.1306 474.265C85.612 474.679 88.5242 475.362 90.6234 475.787C92.7393 476.216 94.0481 476.459 94.6187 476.522C94.7614 476.538 94.8373 476.552 94.9495 476.531C94.9776 476.525 95.013 476.523 95.0707 476.476C95.0995 476.452 95.134 476.41 95.1485 476.355C95.1629 476.3 95.1535 476.244 95.139 476.208C95.1099 476.136 95.0777 476.117 95.0548 476.099C95.032 476.082 95.0127 476.07 94.9922 476.059C94.8283 475.969 94.5435 475.876 94.0533 475.724C84.8276 472.866 77.6471 470.145 71.1491 467.045C66.833 464.985 57.667 459.63 54.1325 457.104C53.4574 456.621 51.7695 455.143 50.4332 453.855C49.0874 452.558 47.4882 451.1 46.8436 450.587C45.9657 449.889 45.2229 449.249 44.6683 448.72C44.1137 448.19 43.7446 447.754 43.6345 447.539C43.5317 447.338 43.2972 447.052 42.9631 446.661C42.6289 446.27 42.2058 445.804 41.7717 445.352C39.861 443.363 34.7368 436.363 33.7584 434.423C31.6474 430.238 30.1677 424.78 28.8754 416.362C28.0286 410.846 27.8858 407.377 28.1348 398.324C28.2989 392.355 28.6212 389.105 29.6968 382.573C30.9948 374.689 32.1964 370.579 34.6945 365.464C36.4626 361.843 38.0703 359.3 40.9877 355.508C42.3787 353.7 44.557 350.802 45.8328 349.063C50.5827 342.588 53.036 339.851 58.9999 334.373C63.8385 329.928 64.5095 329.392 68.85 326.497C74.0923 323 78.8425 320.461 83.0028 318.926C83.5256 318.733 84.0357 318.535 84.4383 318.372C84.6397 318.291 84.8139 318.218 84.9507 318.157C85.0874 318.097 85.1781 318.056 85.2499 318.011C85.2915 317.985 85.2877 317.985 85.3292 317.991C85.3707 317.997 85.4641 318.03 85.6136 318.122C85.9125 318.304 86.4246 318.7 87.3087 319.409C91.7382 322.965 95.0929 325.172 99.1169 327.177C105.058 330.136 109.212 331.938 112.862 333.135C115.683 334.06 120.533 335.204 123.051 335.536C124.416 335.716 126.405 335.977 127.472 336.115C130.667 336.53 137.229 336.836 139.584 336.674C143.7 336.39 146.524 336.023 148.77 335.477C150.014 335.175 151.913 334.738 152.983 334.509C154.995 334.078 156.328 333.589 161.434 331.411C162.846 330.809 165.133 329.757 167.071 328.838C168.04 328.378 168.921 327.951 169.561 327.631C169.882 327.47 170.141 327.337 170.324 327.237C170.416 327.187 170.488 327.146 170.543 327.111C170.57 327.094 170.593 327.079 170.617 327.06C170.629 327.05 170.641 327.04 170.659 327.02C170.676 327 170.719 326.976 170.719 326.865L170.71 326.803C170.71 326.803 170.696 326.764 170.686 326.747C170.665 326.714 170.641 326.693 170.621 326.679C170.58 326.651 170.556 326.647 170.538 326.644C170.502 326.636 170.489 326.638 170.475 326.639C170.448 326.639 170.43 326.642 170.408 326.645C170.363 326.652 170.307 326.662 170.236 326.677C170.094 326.706 169.894 326.752 169.647 326.811C169.153 326.929 168.473 327.101 167.726 327.298C163.546 328.399 160.65 328.933 156.954 329.284C152.293 329.726 149.434 330.051 147.789 330.327C147.074 330.446 144.567 330.602 142.234 330.662C138.839 330.75 137.672 330.722 136.116 330.516C135.044 330.374 133.113 330.145 131.819 330.006C123.087 329.067 118.333 328.05 112.34 325.839C108.359 324.371 100.536 320.531 97.5583 318.588C93.0353 315.637 87.741 311.256 85.9302 308.996C83.7659 306.295 80.871 301.831 76.8989 295.059C76.1422 293.769 75.4015 292.468 75.2872 292.239C75.2197 292.103 75.093 291.747 74.9454 291.261C74.7977 290.776 74.6231 290.151 74.4346 289.436C74.0576 288.006 73.6245 286.214 73.235 284.437C71.7157 277.506 70.9992 274.199 70.538 272.488C70.3074 271.632 70.1411 271.172 69.958 270.849C69.775 270.526 69.5807 270.361 69.3479 270.128C68.8877 269.668 68.4505 269.376 67.976 269.276C67.5016 269.176 67.013 269.278 66.4833 269.534L65.87 269.832L64.6686 269.044C60.1423 266.076 56.478 262.479 52.5552 257.149C51.4694 255.674 50.6252 253.837 50.2598 252.159C48.9714 246.245 48.871 245.604 48.8856 243.277C48.8934 242.039 48.9833 239.815 49.0849 238.352C49.1869 236.882 49.3136 234.952 49.3667 234.059L49.4628 232.44C49.4705 232.31 49.3661 232.201 49.236 232.203L49.237 232.203ZM337.511 234.416C336.729 234.28 333.304 238.757 335.375 236.308C334.35 237.52 332.842 239.417 330.622 242.259C329.696 243.445 327.673 245.82 326.14 247.52C324.771 249.038 324.066 249.814 323.63 250.207C323.195 250.599 323.081 250.605 322.709 250.66C320.229 251.024 316.962 252.007 314.619 253.095C311.764 254.42 309.33 256.123 304.262 260.331C302.625 261.69 301.474 262.502 300.416 263.049C298.622 263.977 297.991 264.2 293.979 265.329C290.293 266.367 288.346 267.109 285.422 268.592C282.17 270.241 280.182 271.621 278.164 273.634C275.348 276.442 273.722 279.199 272.13 283.851C271.536 285.59 269.828 291.863 268.28 297.783C267.506 300.742 266.773 303.609 266.244 305.763C265.98 306.841 265.766 307.74 265.623 308.385C265.552 308.708 265.498 308.967 265.464 309.156C265.447 309.25 265.435 309.327 265.428 309.39C265.425 309.421 265.423 309.448 265.422 309.477C265.422 309.498 265.426 309.53 265.436 309.568C265.354 309.608 265.282 309.668 265.256 309.743C265.217 309.855 265.233 309.962 265.272 310.064C265.26 310.033 265.27 310.062 265.272 310.106C265.272 310.15 265.269 310.215 265.262 310.293C265.247 310.451 265.217 310.667 265.174 310.923C265.088 311.434 264.952 312.105 264.79 312.826C264.466 314.266 264.038 315.907 263.708 316.863C262.675 319.852 260.858 324.021 259.742 325.975C257.089 330.616 253.171 334.858 250.233 336.338C246.231 338.353 236.841 339.764 231.215 339.169C225.571 338.572 220.498 337.713 217.348 336.825C216.574 336.607 215.486 336.396 214.875 336.35L213.823 336.27C213.58 336.252 213.488 336.581 213.705 336.692L215.257 337.475C216.127 337.913 217.583 338.519 218.529 338.836C221.668 339.886 230.037 341.418 235.006 341.862C237.221 342.06 242.246 341.94 244.281 341.639C247.859 341.109 249.393 340.684 253.317 339.138C257.987 337.298 258.449 337.014 261.686 334.006C264.339 331.541 267.181 327.71 269.959 322.871C271.931 319.436 272.292 318.691 273.737 315.08C275.011 311.894 276.064 308.24 276.755 304.605C277.845 298.877 281.037 289.187 282.986 285.646C283.362 284.961 284.77 282.762 286.089 280.805L288.458 277.29L289.859 276.553C291.44 275.722 292.608 275.2 297.365 273.198C306.333 269.425 308.964 267.735 312.469 263.497C313.121 262.709 314.844 260.817 316.28 259.314C316.999 258.561 317.677 257.844 318.189 257.295C318.445 257.02 318.659 256.787 318.817 256.613C318.976 256.438 319.064 256.342 319.12 256.264C319.154 256.216 319.302 256.079 319.492 255.944C319.681 255.809 319.916 255.663 320.147 255.533C320.379 255.404 320.609 255.29 320.783 255.22C320.87 255.185 320.944 255.161 320.989 255.152C321.034 255.142 321.049 255.177 320.964 255.124C321.081 255.196 321.152 255.175 321.23 255.166C321.307 255.157 321.389 255.138 321.48 255.112C321.661 255.058 321.875 254.972 322.091 254.865C323.301 254.26 324.789 252.611 330.16 246.093C333.421 242.135 334.127 241.224 334.939 239.912C335.63 238.798 336.357 237.54 336.899 236.545C337.17 236.048 337.395 235.616 337.547 235.298C337.623 235.138 337.682 235.008 337.72 234.905C337.739 234.854 337.754 234.811 337.764 234.763C337.769 234.74 337.773 234.716 337.772 234.679C337.771 234.642 337.771 234.579 337.702 234.509C337.652 234.459 337.583 234.429 337.512 234.416L337.511 234.416ZM351.359 238.24C350.719 238.258 350.021 238.725 349.052 239.699C348.084 240.672 346.844 242.176 345.188 244.355C343.079 247.13 342.423 247.903 339.798 250.705C339.011 251.546 338.549 252.021 338.259 252.26C338.114 252.38 338.015 252.438 337.951 252.461C337.887 252.484 337.856 252.483 337.789 252.47C337.577 252.427 337.333 252.456 337.131 252.617C336.929 252.779 336.735 253.035 336.416 253.476C336.014 254.033 335.539 254.734 335.344 255.063C335.148 255.393 334.937 255.926 334.764 256.454C334.592 256.981 334.459 257.468 334.459 257.787C334.459 257.863 334.464 257.942 334.506 258.027C334.549 258.113 334.641 258.186 334.729 258.214C334.903 258.27 335.063 258.241 335.322 258.203C336.227 258.068 337.309 257.409 338.378 256.403C339.521 255.327 342.502 251.749 344.899 248.593C345.911 247.26 347.538 245.196 348.507 244.014C349.484 242.824 350.711 241.224 351.251 240.436C351.512 240.055 351.771 239.714 351.973 239.477C352.074 239.358 352.162 239.265 352.222 239.211C352.239 239.196 352.244 239.193 352.255 239.184C352.304 239.186 352.36 239.176 352.423 239.12C352.477 239.071 352.502 238.996 352.505 238.946C352.507 238.896 352.497 238.862 352.486 238.834C352.446 238.721 352.385 238.659 352.299 238.571C352.068 238.336 351.704 238.23 351.36 238.24L351.359 238.24ZM359.909 247.914C357.684 248.922 360.88 246.222 357.909 248.767C357.701 248.942 357.442 249.173 357.147 249.446C356.557 249.991 355.823 250.7 355.086 251.446C353.62 252.929 351.462 255.029 350.302 256.105L348.331 257.93L348.133 257.753L347.784 257.439C347.574 257.25 347.279 257.545 347.469 257.755L347.787 258.109L347.966 258.308L345.972 260.356C345.38 260.963 344.801 261.592 344.342 262.119C343.883 262.645 343.555 263.044 343.421 263.289C343.314 263.485 343.23 263.661 343.176 263.8C343.149 263.87 343.129 263.927 343.118 263.99C343.113 264.022 343.105 264.054 343.118 264.117C343.125 264.148 343.14 264.193 343.183 264.237C343.226 264.28 343.298 264.306 343.35 264.306C343.445 264.306 343.501 264.283 343.579 264.254C343.658 264.226 343.747 264.187 343.849 264.139C344.053 264.043 344.303 263.912 344.577 263.758C345.125 263.45 345.763 263.055 346.273 262.695C346.914 262.243 348.475 260.813 349.817 259.466C351.974 257.301 354.586 254.583 356.66 252.371C357.697 251.264 358.599 250.285 359.244 249.563C359.566 249.202 359.823 248.906 360.003 248.689C360.093 248.58 360.163 248.491 360.214 248.42C360.24 248.384 360.261 248.354 360.279 248.322C360.297 248.29 360.326 248.281 360.326 248.167C360.326 248.089 360.272 248.001 360.221 247.964C360.17 247.928 360.129 247.92 360.095 247.914C360.027 247.902 359.972 247.907 359.909 247.914ZM361.281 249.55C360.895 249.807 362.121 250.832 361.483 251.026C361.667 250.6 361.3 249.188 361.483 249.613C361.451 249.581 361.368 249.534 361.281 249.55ZM354.772 274.154C354.167 274.352 354.461 275.521 354.436 275.36C354.437 275.79 354.442 276.106 354.454 276.271C354.457 276.314 354.459 276.345 354.465 276.38C354.469 276.398 354.466 276.411 354.491 276.46C354.503 276.484 354.519 276.54 354.624 276.575C354.676 276.592 354.746 276.585 354.79 276.564C354.834 276.543 354.856 276.518 354.871 276.5C354.928 276.427 354.914 276.415 354.918 276.396C354.923 276.377 354.925 276.361 354.928 276.343C354.933 276.308 354.937 276.265 354.942 276.21C354.976 275.77 354.976 275.045 354.942 274.558C354.937 274.497 354.933 274.449 354.929 274.41C354.924 274.371 354.927 274.354 354.906 274.294C354.902 274.282 354.897 274.269 354.883 274.247C354.869 274.224 354.847 274.184 354.772 274.155L354.772 274.154ZM201.846 279.819C201.473 279.553 201.44 281.639 201.567 280.492C201.565 280.501 201.565 280.509 201.565 280.518C201.565 280.745 201.57 280.905 201.587 281.017C201.591 281.045 201.594 281.069 201.608 281.106C201.615 281.125 201.622 281.148 201.655 281.186C201.688 281.224 201.793 281.283 201.886 281.259C201.979 281.234 202.008 281.183 202.024 281.156C202.041 281.13 202.047 281.113 202.053 281.097C202.064 281.065 202.07 281.039 202.075 281.008C202.123 280.76 202.122 280.402 202.08 280.123C202.074 280.088 202.069 280.058 202.062 280.03C202.055 280.002 202.057 279.981 202.019 279.923C201.999 279.894 201.956 279.829 201.846 279.819ZM201.767 286.175C201.478 286.572 202.791 287.942 202.029 288.2C201.986 286.897 202.661 286.582 201.767 286.175ZM257.109 326.525C256.609 326.905 256.528 328.955 255.628 328.562C256.034 328.008 256.497 325.854 257.109 326.525ZM241.108 334.343C239.994 334.899 242.748 333.795 242.702 334.526C241.743 334.095 241.687 334.361 241.108 334.343ZM179.977 371.635C178.356 371.653 177.203 372.057 175.5 373.197C173.867 374.29 170.49 377.133 169.241 378.469C168.969 378.761 168.697 379.026 168.484 379.215C168.378 379.309 168.285 379.384 168.22 379.432C168.187 379.455 168.16 379.472 168.147 379.479C168.134 379.486 168.125 379.475 168.19 379.475C168.089 379.475 168.043 379.497 167.957 379.525C167.872 379.552 167.769 379.59 167.652 379.637C167.418 379.729 167.129 379.855 166.835 379.994C165.99 380.394 165.608 380.48 164.492 380.527C162.835 380.596 161.54 380.974 158.744 382.193C154.716 383.949 151.804 385.7 149.648 387.675C148.854 388.402 147.752 389.518 146.844 390.484C146.39 390.968 145.985 391.413 145.691 391.756C145.544 391.927 145.426 392.072 145.34 392.186C145.297 392.244 145.262 392.293 145.234 392.34C145.206 392.386 145.17 392.402 145.17 392.53C145.17 392.611 145.255 392.729 145.326 392.756C145.396 392.783 145.437 392.775 145.472 392.77C145.541 392.76 145.594 392.74 145.658 392.713C145.787 392.659 145.945 392.574 146.12 392.464C148.335 391.072 152.476 389.198 154.622 388.61C155.451 388.383 157.103 387.719 158.353 387.119L160.524 386.074L161.588 386.396C162.206 386.582 162.958 386.882 163.172 387.01C163.467 387.186 163.974 387.405 164.352 387.525C164.67 387.626 165.259 387.916 165.59 388.14C167.042 389.121 169.53 390.486 173.253 392.35C177.836 394.645 179.006 395.454 181.849 398.297C183.072 399.519 183.723 400.235 184.042 400.891C184.362 401.547 184.382 402.175 184.312 403.309C184.159 405.752 183.203 408.05 180.545 412.288C178.987 414.772 178.267 415.749 176.309 418.041C175.635 418.831 174.494 420.237 173.767 421.176C172.315 423.048 171.682 423.685 169.296 425.669C167.614 427.068 166.234 428.436 165.123 429.809C164.72 430.308 164.478 430.803 164.424 431.263C164.37 431.723 164.529 432.16 164.896 432.426C165.207 432.651 165.646 432.698 166.154 432.648C166.662 432.598 167.246 432.44 167.844 432.182C168.089 432.077 168.471 431.845 168.982 431.511C169.493 431.177 170.122 430.745 170.812 430.254C172.193 429.272 173.817 428.059 175.219 426.946C176.052 426.283 178.151 424.205 180.02 422.204C186.627 415.13 189.462 410.766 190.721 405.681C191.094 404.171 191.142 403.677 191.068 402.115C190.978 400.206 190.721 399.239 189.838 397.489C189.563 396.944 189.21 396.339 188.996 396.076L188.836 395.878L190.979 394.667C192.275 393.935 195.194 392.408 197.451 391.283C200.04 389.993 201.556 389.184 202.42 388.535C202.851 388.21 203.125 387.922 203.274 387.615C203.423 387.308 203.426 386.99 203.349 386.682C203.277 386.395 203.046 386.189 202.759 386.061C202.473 385.932 202.116 385.865 201.712 385.845C200.902 385.807 199.897 385.966 198.92 386.332C196.217 387.343 190.651 391.18 188.863 393.271C188.555 393.632 188.066 394.098 187.837 394.261L187.505 394.498L186.141 393.193C181.889 389.129 179.333 387.743 172.972 386.054C172.031 385.805 171.025 385.465 170.171 385.121C169.317 384.777 168.606 384.42 168.294 384.179C168.267 384.159 168.278 384.17 168.266 384.158C168.346 384.071 168.624 383.862 169.174 383.491C170.642 382.5 175.046 379.393 177.568 377.57C179.678 376.044 181.199 374.633 181.708 373.634C181.882 373.293 181.998 373.006 182.038 372.744C182.078 372.483 182.029 372.225 181.862 372.042C181.694 371.859 181.449 371.764 181.141 371.707C180.833 371.65 180.451 371.631 179.977 371.636L179.977 371.635ZM192.57 376.802C192.329 376.807 192.048 376.838 191.713 376.892C190.341 377.109 189.055 377.473 187.958 377.956C186.698 378.51 183.951 380.336 182.192 381.77C181.359 382.449 180.465 383.159 180.238 383.325C179.953 383.533 179.173 384.229 178.435 384.921C178.066 385.267 177.738 385.58 177.505 385.809C177.388 385.924 177.296 386.016 177.232 386.084C177.2 386.117 177.176 386.143 177.155 386.168C177.145 386.181 177.136 386.189 177.12 386.217C177.112 386.23 177.096 386.239 177.088 386.311C177.087 386.32 177.087 386.33 177.087 386.342C177.088 386.354 177.092 386.382 177.092 386.382L177.141 386.481L177.236 386.546C177.236 386.546 177.265 386.555 177.278 386.557C177.291 386.559 177.302 386.56 177.312 386.56H177.314C177.376 386.56 177.37 386.553 177.382 386.55C177.394 386.547 177.405 386.543 177.417 386.539C177.442 386.532 177.473 386.521 177.51 386.508C177.586 386.482 177.689 386.446 177.812 386.401C178.06 386.311 178.391 386.187 178.748 386.051C179.46 385.78 180.549 385.371 181.165 385.143C182.344 384.708 184.448 383.802 186.394 382.918C188.341 382.035 190.099 381.195 190.666 380.829C191.49 380.298 192.234 379.704 192.78 379.165C193.054 378.895 193.277 378.639 193.438 378.405C193.599 378.17 193.708 377.964 193.708 377.736C193.708 377.446 193.631 377.178 193.422 377.01C193.214 376.842 192.931 376.795 192.57 376.803L192.57 376.802ZM82.6639 390.2C82.1602 390.068 82.4888 391.352 82.4311 390.979C83.0561 396.072 85.4863 402.916 88.0895 406.901C91.516 412.145 95.2286 415.414 101.108 418.365C104.777 420.207 105.203 420.342 108.148 420.627C109.606 420.768 111.04 420.918 111.277 420.952C111.502 420.985 111.902 420.991 112.434 420.987C112.966 420.984 113.616 420.967 114.286 420.941C115.625 420.888 117.032 420.8 117.736 420.702C118.384 420.611 119.304 420.58 119.704 420.625C119.868 420.643 119.997 420.656 120.097 420.664C120.197 420.671 120.252 420.679 120.34 420.662C120.361 420.658 120.388 420.654 120.43 420.629C120.472 420.604 120.542 420.525 120.544 420.434C120.546 420.342 120.504 420.294 120.481 420.269C120.458 420.243 120.441 420.231 120.425 420.22C120.361 420.177 120.305 420.155 120.219 420.12C120.05 420.05 119.729 419.952 119.265 419.819C118.801 419.685 118.203 419.522 117.521 419.342C116.157 418.982 114.455 418.554 112.818 418.164C109.175 417.296 106.605 416.466 104.358 415.435C100.478 413.655 97.2286 411.58 95.1819 409.589C92.6662 407.141 89.7845 403.463 88.104 400.555C85.2059 395.541 84.1583 393.545 83.3146 391.441C83.1792 391.103 83.077 390.848 83 390.666C82.9229 390.484 82.8961 390.397 82.8156 390.296C82.7954 390.27 82.7798 390.222 82.6638 390.2L82.6639 390.2ZM41.9999 459.386C41.8069 459.391 41.7114 459.622 41.8443 459.763L42.8108 460.775C43.0775 461.054 43.3251 461.308 43.5103 461.493C43.6029 461.585 43.6799 461.661 43.7374 461.715C43.7661 461.742 43.7896 461.764 43.8107 461.782C43.8213 461.791 43.8307 461.798 43.8446 461.808C43.8515 461.813 43.8592 461.819 43.874 461.827C43.8888 461.835 43.899 461.856 43.9844 461.856C44.0242 461.856 44.0986 461.864 44.1801 461.775C44.2209 461.73 44.2425 461.663 44.2434 461.616C44.2442 461.568 44.2334 461.536 44.2235 461.511C44.1836 461.41 44.1384 461.371 44.0634 461.289C43.9136 461.126 43.6429 460.863 43.1722 460.413L42.1602 459.447C42.117 459.406 42.0593 459.384 41.9999 459.386ZM58.5987 473.557C57.8133 475.354 57.8988 474.655 58.2056 478.352C58.401 480.701 58.663 483.53 58.7894 484.65C58.9145 485.759 59.2414 488.967 59.5149 491.772C60.0552 497.312 60.5312 501.676 60.9001 504.473C60.9645 504.961 61.0229 505.42 61.0652 505.765C61.0864 505.938 61.1038 506.082 61.1155 506.187C61.1272 506.292 61.1326 506.389 61.1326 506.353C61.1326 506.441 61.1831 506.501 61.2123 506.526C61.2415 506.551 61.2605 506.559 61.2755 506.565C61.3056 506.578 61.3223 506.581 61.34 506.585C61.3756 506.593 61.4105 506.597 61.4545 506.602C61.5426 506.611 61.6627 506.619 61.817 506.627C62.1254 506.643 62.5666 506.657 63.1108 506.669C64.1992 506.693 65.6982 506.708 67.347 506.708C68.9954 506.708 70.4937 506.7 71.581 506.686C72.1247 506.679 72.5654 506.671 72.872 506.662C73.0253 506.658 73.1446 506.653 73.2293 506.648C73.2717 506.645 73.3048 506.643 73.3343 506.639C73.3491 506.637 73.3617 506.636 73.3837 506.63C73.3947 506.628 73.4068 506.626 73.4346 506.612C73.4485 506.605 73.4675 506.596 73.4944 506.57C73.5078 506.557 73.5371 506.512 73.5371 506.512L73.5614 506.41C73.5614 506.358 73.5558 506.353 73.5516 506.333C73.5474 506.314 73.5425 506.293 73.5361 506.269C73.5234 506.221 73.5061 506.16 73.4849 506.089C73.4424 505.946 73.3842 505.763 73.3204 505.57C73.1969 505.197 72.9373 504.336 72.748 503.671C72.0417 501.189 70.2357 495.872 68.975 492.561C68.2642 490.694 67.4646 488.465 67.2068 487.635C66.4352 485.152 66.2312 484.737 64.2241 481.59C63.2382 480.045 61.9153 478.061 60.8197 476.461C60.2718 475.662 59.7813 474.958 59.4171 474.453C59.235 474.201 59.0846 473.998 58.9727 473.855C58.9168 473.784 58.8711 473.728 58.8317 473.685C58.812 473.663 58.7946 473.645 58.7722 473.625C58.761 473.615 58.7492 473.605 58.7283 473.593C58.7074 473.58 58.6804 473.555 58.5986 473.557L58.5987 473.557ZM234.821 474.465C234.434 474.721 235.66 475.747 235.023 475.941C235.206 475.515 234.839 474.103 235.023 474.528C234.991 474.496 234.908 474.449 234.821 474.465ZM234.483 485.118C234.154 485.475 235.469 486.691 234.729 486.958C234.688 485.784 235.411 485.515 234.483 485.118Z" fill="#B8845B"/>
<path d="M175.983 207.656C175.885 207.557 172.772 208.107 169.99 208.714C167.546 209.248 165.506 209.893 164.25 210.53C162.415 211.461 159.888 213.716 158.026 216.084C156.519 218.001 155.733 218.858 155.116 219.252L154.711 219.511L155.074 220.219C155.274 220.609 155.529 221.055 155.64 221.211C155.92 221.602 155.638 222.01 154.967 222.184C154.507 222.303 154.155 222.186 152.227 221.278C147.21 218.915 141.812 217.356 136.414 216.71C133.52 216.364 126.584 216.452 124.188 216.866C120.36 217.526 117.484 218.518 113.445 220.568C109.433 222.604 105.732 225.132 100.952 229.099C99.7054 230.134 98.1023 231.447 97.3899 232.018C94.3722 234.436 90.9527 237.561 87.1886 241.344C85.5014 243.04 84.0512 244.361 83.7448 244.482C83.0065 244.773 82.2375 244.449 80.3069 243.03C75.8998 239.792 73.6288 238.478 69.8558 236.982C67.2095 235.933 64.7195 235.48 60.714 235.318C56.6991 235.156 53.9035 235.64 51.2415 236.958C48.889 238.122 48.9297 238.061 48.7193 240.794C48.4419 244.399 48.5536 245.363 50.0441 252.204C50.4176 253.918 51.2724 255.777 52.3778 257.279C56.3114 262.624 59.9994 266.245 64.5487 269.229L65.8561 270.086L66.5835 269.733C67.5891 269.244 68.3054 269.396 69.1922 270.284C70.1481 271.241 69.9805 270.62 73.0193 284.483C73.7996 288.042 74.7533 291.66 75.0898 292.336C75.2228 292.603 75.9512 293.878 76.7087 295.17C80.6833 301.945 83.58 306.415 85.7585 309.134C87.6132 311.448 92.8982 315.81 97.4389 318.773C100.453 320.74 108.255 324.568 112.265 326.047C118.413 328.314 122.613 329.2 132.527 330.318C134.219 330.509 136.004 330.726 136.494 330.801C137.851 331.008 146.204 330.821 147.826 330.547C149.453 330.272 152.292 329.949 156.977 329.504C160.683 329.152 163.598 328.615 167.778 327.514C169.265 327.122 170.435 326.88 170.377 326.975C170.319 327.071 170.549 326.94 170.888 326.683C171.227 326.426 173.227 325.328 175.333 324.243C179.377 322.158 180.699 321.385 182.598 319.994C183.916 319.03 184.645 318.164 186.595 315.248C188.088 313.016 188.978 311.344 189.525 309.743C189.723 309.164 190.433 307.452 191.104 305.938C192.489 302.81 192.89 301.612 193.895 297.608C195.661 290.574 195.962 285.645 195.113 277.716C194.253 269.684 192.78 263.947 190.365 259.222C187.723 254.055 185.6 250.962 182.335 247.527C181.257 246.393 180.375 245.385 180.375 245.286C180.375 245.188 180.77 244.731 181.252 244.271C181.928 243.627 182.205 243.212 182.457 242.463C183.716 238.734 184.337 233.422 184.217 227.404C184.035 218.276 182.755 214.834 177.609 209.633C176.573 208.587 175.801 207.731 175.892 207.731C175.983 207.731 176.023 207.697 175.982 207.656L175.983 207.656ZM171.112 213.442C172.208 213.499 173.544 213.825 174.547 214.312C176.045 215.04 178.085 217.019 178.87 218.504C180.036 220.709 180.409 223.43 179.826 225.461C179.372 227.04 177.157 231.81 176.684 232.227C176.533 232.359 175.98 232.695 175.455 232.972C173.898 233.796 173.579 233.712 170.995 231.807C167.92 229.539 164.009 225.2 162.868 222.789C162.678 222.389 162.454 221.926 162.369 221.76C162.254 221.534 162.297 221.385 162.54 221.158C162.724 220.987 162.943 220.455 163.048 219.921C163.338 218.454 163.516 217.998 164.197 216.979C165.385 215.2 167.654 213.858 170.116 213.479C170.407 213.434 170.746 213.423 171.112 213.442ZM151.877 218.053C151.877 218.143 152.168 218.481 152.525 218.803C152.881 219.125 153.264 219.388 153.375 219.388C153.486 219.388 153.352 219.251 153.077 219.083C152.802 218.915 152.419 218.578 152.227 218.333C152.034 218.088 151.877 217.962 151.877 218.053ZM98.8935 222.636C98.8211 222.654 98.6137 222.86 98.1104 223.397L97.3884 224.166L98.1575 223.444C98.5806 223.047 98.9267 222.701 98.9267 222.675C98.9267 222.644 98.9176 222.63 98.8935 222.636ZM337.91 234.647C337.646 234.693 337.511 234.929 337.063 235.781C335.67 238.431 333.945 241.111 332.504 242.868C331.664 243.892 330.118 245.787 329.07 247.078C326.914 249.733 324.185 252.858 323.25 253.744C322.523 254.432 321.335 255.086 321.089 254.934C320.882 254.806 319.225 255.731 318.941 256.132C318.829 256.29 317.56 257.651 316.121 259.157C314.683 260.662 312.963 262.55 312.3 263.351C308.812 267.57 306.242 269.219 297.282 272.99C292.524 274.992 291.345 275.518 289.759 276.352L288.307 277.115L285.907 280.678C284.586 282.637 283.185 284.823 282.793 285.535C280.812 289.137 277.635 298.8 276.539 304.561C275.85 308.182 274.801 311.824 273.533 314.995C272.089 318.604 271.74 319.324 269.769 322.757C266.998 327.584 264.164 331.4 261.538 333.84C258.303 336.846 257.906 337.089 253.239 338.928C250.022 340.195 249.398 340.399 247.409 340.837C240.79 342.293 234.15 342.034 223.853 339.918C219.794 339.084 217.584 338.395 215.362 337.271L213.81 336.485L214.781 336.556L215.753 336.626L214.296 336.214C208.824 334.665 204.264 332.827 197.166 329.307C190.432 325.969 188.01 325.052 186.202 325.154C185.239 325.209 184.859 325.361 181.749 326.934C177.608 329.029 171.017 332.064 167.969 333.28C163.352 335.123 153.373 337.747 146.692 338.875C143.709 339.378 139.147 340.009 137.219 340.184C132.223 340.639 125.888 340.108 121.443 338.862C115.546 337.209 104.442 331.572 100.187 328.072C99.5888 327.58 99.1441 327.105 99.1986 327.017C99.2531 326.929 99.2198 326.905 99.1246 326.964C99.0293 327.023 98.927 327.012 98.8972 326.94C98.8673 326.868 98.2963 326.529 97.6283 326.187C95.0419 324.859 91.12 322.181 87.4474 319.233C85.6772 317.813 85.4068 317.648 85.1304 317.82C84.9583 317.928 83.9655 318.33 82.9242 318.714C78.7407 320.258 73.9774 322.806 68.7249 326.309C64.3824 329.205 63.6871 329.761 58.8475 334.207C52.8788 339.689 50.4056 342.449 45.6517 348.929C44.3777 350.665 42.1988 353.564 40.8095 355.37C37.8868 359.169 36.2661 361.733 34.4925 365.364C31.9859 370.497 30.7747 374.641 29.4751 382.534C28.3988 389.071 28.0745 392.341 27.9103 398.315C27.6612 407.373 27.8051 410.868 28.6535 416.394C29.9475 424.823 31.4303 430.304 33.5577 434.522C34.578 436.544 39.6573 443.473 41.6097 445.505C42.4718 446.402 43.293 447.362 43.4345 447.639C43.716 448.189 44.9396 449.357 46.7035 450.761C47.3269 451.257 48.9349 452.721 50.2771 454.014C51.6193 455.308 53.2952 456.779 54.0014 457.284C57.635 459.881 66.7 465.167 71.201 467.313C77.5808 470.356 86.9687 473.904 93.8655 475.88C94.7636 476.137 95.1355 476.31 94.999 476.407C94.872 476.497 94.9719 476.513 95.2659 476.448C95.5248 476.391 95.7815 476.418 95.8367 476.507C95.892 476.597 96.4455 476.713 97.0667 476.767C97.6878 476.82 98.9247 476.988 99.8153 477.14C102.155 477.539 110.072 477.525 112.607 477.119C117.8 476.285 123.378 475.082 126.327 474.16C128.822 473.38 139.471 469.061 142.126 467.753L144.765 466.453L146.725 464.324C150.918 459.77 155.549 453.863 156.404 451.976C156.953 450.766 158.5 448.165 160.438 445.193C161.898 442.956 163.646 439.382 165.091 435.678C166.016 433.31 166.167 432.482 165.673 432.482C165.085 432.482 164.666 432.013 164.666 431.354C164.666 430.869 164.807 430.555 165.3 429.946C166.4 428.587 167.77 427.229 169.443 425.837C171.831 423.85 172.491 423.187 173.946 421.309C174.671 420.374 175.812 418.967 176.482 418.183C178.443 415.887 179.177 414.891 180.737 412.403C183.402 408.155 184.382 405.812 184.538 403.319C184.68 401.035 184.461 400.585 182.011 398.136C179.16 395.286 177.945 394.445 173.356 392.147C169.637 390.285 167.152 388.92 165.718 387.951C165.362 387.711 164.779 387.422 164.423 387.309C164.067 387.196 163.557 386.973 163.289 386.814C163.022 386.655 162.287 386.369 161.656 386.179L160.509 385.832L158.259 386.914C157.022 387.509 155.36 388.174 154.566 388.391C152.376 388.992 148.249 390.862 146.004 392.271C145.67 392.481 145.397 392.591 145.397 392.516C145.397 392.44 145.961 391.765 146.65 391.016L147.904 389.653L146.238 391.176C144.325 392.924 143.396 393.951 140.362 397.668C134.293 405.106 132.278 408.367 130.107 414.265C128.332 419.089 128.106 419.472 126.728 419.986C125.198 420.557 123.233 420.705 116.898 420.726C111.991 420.742 110.87 420.703 108.254 420.43C105.228 420.115 104.869 419.999 101.211 418.162C95.3573 415.223 91.6889 411.993 88.2796 406.775C85.7062 402.836 83.2888 396.036 82.6541 390.948C82.5588 390.185 82.5893 390.228 83.1838 391.696C83.8528 393.348 85.1609 395.895 86.7089 398.559C87.2264 399.449 87.8005 400.451 87.9844 400.784C88.1682 401.117 88.3805 401.391 88.4562 401.391C88.532 401.391 89.4792 401.817 90.5612 402.336C91.8079 402.934 93.9195 404.212 96.3254 405.826C100.544 408.656 101.766 409.361 105.123 410.899C109.507 412.908 113.467 414.297 116.413 414.859C117.526 415.072 122.726 415.131 123.7 414.942C124.253 414.835 124.289 414.78 125.065 412.849C127.196 407.547 129.651 403.928 135.583 397.344C135.864 397.033 136.813 395.94 137.692 394.916C138.572 393.891 139.845 392.411 140.523 391.626C143.331 388.371 147.895 384.943 152.11 382.924C154.79 381.64 157.278 380.694 158.494 380.495C159.249 380.371 159.498 380.226 160.356 379.41C161.69 378.139 163.82 376.502 165.464 375.482C168.08 373.859 172.788 371.672 174.741 371.172C176.609 370.693 180.858 371.115 180.858 371.778C180.858 371.858 180.995 371.922 181.162 371.922C181.59 371.922 181.882 372.334 181.791 372.811C181.747 373.042 181.808 373.294 181.934 373.398C183.008 374.29 180.37 377.867 176.807 380.349C175.527 381.24 173.14 383.191 172.042 384.242C171.734 384.538 171.74 384.54 172.366 384.361C173.933 383.911 176.751 384.261 177.774 385.033C178.129 385.3 178.146 385.363 177.938 385.63C177.81 385.795 178.182 385.473 178.764 384.915C179.345 384.357 180.046 383.737 180.32 383.538C180.594 383.339 181.502 382.62 182.336 381.94C184.099 380.504 186.851 378.686 188.097 378.135C189.03 377.723 191.009 377.189 192.196 377.031C193.345 376.878 193.494 377.075 193.597 378.891C193.769 381.903 192.629 384.958 190.446 387.337C189.493 388.374 187.886 389.934 187.173 390.514L186.768 390.843L187.983 391.973L189.197 393.104L188.55 393.807C188.195 394.194 188.495 393.922 189.218 393.202C191.726 390.704 196.431 387.499 199.002 386.537C200.951 385.807 202.932 385.922 203.146 386.776C203.216 387.053 203.159 387.372 202.986 387.674C202.796 388.005 202.718 388.529 202.718 389.478C202.718 391.769 201.97 393.986 199.98 397.587C199.163 399.067 196.845 402.644 196.138 403.517C195.821 403.907 195.564 404.521 195.367 405.356C194.971 407.036 193.462 409.968 191.491 412.889C187.619 418.627 186.586 420.032 184.556 422.329C183.368 423.673 181.94 425.349 181.381 426.055C180.364 427.339 178.091 430.718 177.22 432.239C176.965 432.684 176.246 433.595 175.623 434.263C172.364 437.754 170.502 441.579 167.823 450.294C167.398 451.674 166.826 453.168 166.551 453.613C165.744 454.921 159.597 463.299 157.696 465.682C155.862 467.982 154.264 469.601 151.727 471.733C150.889 472.436 149.469 473.629 148.57 474.383C141.678 480.165 131.61 484.388 118.374 487.05C114.873 487.754 113.582 487.858 108.235 487.858C103.203 487.858 100.175 487.704 96.9812 487.284C87.6554 486.058 78.9234 484.025 73.2593 481.762C69.1876 480.135 65.6435 478.244 61.1994 475.33C59.9099 474.484 58.8322 473.815 58.8047 473.843C58.7772 473.87 59.4653 474.904 60.3338 476.14C62.5499 479.294 65.8957 484.563 66.234 485.431C66.3901 485.832 66.7329 486.852 66.9959 487.698C67.2588 488.544 68.0565 490.766 68.7684 492.637C69.8675 495.523 71.7823 501.116 72.345 503.081C72.4343 503.392 72.7013 504.285 72.9383 505.064L73.3691 506.481H218.672L219.026 505.712C219.579 504.51 219.904 500.794 219.998 494.58C220.164 483.644 219.584 477.9 217.453 469.4C215.411 461.25 212.776 449.503 211.878 444.545C210.661 437.826 210.284 432.652 210.638 427.543C210.805 425.124 211.398 419.459 211.769 416.72C211.869 415.986 211.849 415.756 211.68 415.691C211.56 415.645 211.462 415.447 211.462 415.252C211.462 414.835 212.471 414.371 212.805 414.635C213.201 414.947 214.111 415.009 220.367 415.146C228.563 415.326 231.288 415.187 241.094 414.095C249.926 413.112 254.712 412.016 259.958 409.777C265.098 407.582 269.837 404.894 273.721 401.97C275.859 400.36 281.24 395.58 282.782 393.919C286.682 389.721 291.413 382.063 293.769 376.132C294.948 373.165 296.064 369.198 298.323 359.94C299.693 354.322 300.231 351.384 300.843 346.176C302.756 329.872 304.096 322.587 306.561 315.087C307.86 311.132 309.745 307.232 311.382 305.111C313.565 302.281 315.762 301.008 322.084 298.908C329.628 296.402 336.297 291.817 340.119 286.507C342.067 283.8 344.271 278.699 344.951 275.321C345.093 274.616 345.272 273.048 345.349 271.836C345.567 268.401 345.934 267.818 350.231 264.073C353.606 261.131 359.784 254.693 359.784 254.118C359.784 253.999 359.914 253.86 360.073 253.809C360.976 253.523 361.626 250.074 361.005 248.871C360.606 248.1 360.268 248.105 359.566 248.89C355.223 253.755 347.623 261.47 346.149 262.511C345.024 263.304 343.455 264.16 343.338 264.043C343.147 263.852 344.505 262.149 346.29 260.34L348.305 258.3L347.724 257.79C347.404 257.509 346.963 257.162 346.744 257.018C346.232 256.683 346.239 256.6 346.865 255.689C347.352 254.98 347.36 254.948 346.986 255.188C344.695 256.66 340.109 258.924 339.543 258.862C338.761 258.777 338.954 258.23 340.093 257.305C341.957 255.794 345.449 252.231 347.023 250.236C349.212 247.461 350.028 246.304 351.479 243.918L352.76 241.811L352.656 240.68C352.55 239.523 352.242 238.676 352.019 238.924C351.95 239 351.527 239.614 351.078 240.288C350.629 240.961 349.432 242.528 348.417 243.769C347.402 245.01 345.741 247.119 344.726 248.455C342.327 251.61 339.329 255.202 338.229 256.237C337.18 257.225 336.115 257.857 335.293 257.979C334.563 258.087 334.536 257.953 334.989 256.497C335.241 255.686 335.955 254.462 337.077 252.918C337.263 252.661 337.148 252.595 335.822 252.197C335.019 251.956 334.362 251.686 334.362 251.597C334.362 251.508 334.052 251.645 333.674 251.902C332.465 252.724 328.61 254.835 325.898 256.162C324.453 256.869 323.12 257.556 322.936 257.687C322.652 257.89 322.556 257.893 322.3 257.705C322.033 257.51 322.022 257.427 322.204 256.988C322.328 256.689 322.593 256.427 322.868 256.331C324.19 255.871 331.369 248.898 333.647 245.864C335.599 243.263 338.068 239.676 338.855 238.299C339.298 237.522 339.708 236.933 339.765 236.99C339.822 237.047 339.761 236.738 339.63 236.302C339.289 235.169 338.892 234.7 338.232 234.647C338.099 234.637 337.997 234.631 337.909 234.647L337.91 234.647ZM64.6141 238.852C65.0234 238.867 65.4811 238.908 66.0088 238.973C68.417 239.27 69.4891 239.591 71.0414 240.481C72.9332 241.565 74.1107 242.484 75.8587 244.238C78.5988 246.988 78.9249 248.577 77.3789 251.648C75.6951 254.994 71.2995 260.348 69.0076 261.844C67.5825 262.774 66.8956 262.808 65.0895 262.036C62.5208 260.939 61.5018 259.96 59.9425 257.087C59.3892 256.068 58.9364 255.175 58.9364 255.103C58.9364 255.03 58.5006 254.088 57.9681 253.008C57.4355 251.929 56.889 250.611 56.7536 250.08C56.2495 248.103 56.6038 245.32 57.5958 243.463C58.2184 242.298 60.4084 240.158 61.6562 239.496C62.5949 238.998 63.3863 238.806 64.6141 238.852ZM164.149 259.202C164.921 259.191 165.271 259.275 165.841 259.609C168.983 261.45 170.742 266.39 169.282 269.272C168.974 269.878 168.72 270.123 168.047 270.458C167.581 270.691 166.977 270.881 166.705 270.879C165.448 270.875 163.512 269.351 162.529 267.593C161.736 266.174 161.199 264.263 161.2 262.866C161.2 261.737 161.262 261.457 161.681 260.686C162.289 259.569 162.87 259.22 164.149 259.202ZM120.103 271.387C120.495 271.408 120.884 271.527 121.358 271.748C122.993 272.511 124.27 274.592 124.864 277.461C125.404 280.07 125.126 281.759 124.025 282.543C123.318 283.046 121.885 283.136 121.034 282.73C120.171 282.318 119.295 281.42 118.339 279.969C116.935 277.836 116.406 275.162 117.052 273.458C117.457 272.388 117.878 271.952 118.832 271.615C119.317 271.444 119.711 271.367 120.103 271.387L120.103 271.387ZM164.519 276.937C166.149 276.895 167.6 276.982 169.402 277.212C172.705 277.634 173.795 278.547 174.565 281.54C175.561 285.405 174.154 292.745 171.565 297.193C170.758 298.58 168.472 300.911 167.309 301.533C166.844 301.782 165.969 302.09 165.365 302.218C164.365 302.43 162.043 302.493 160.624 302.346C157.838 302.057 154.542 300.798 151.88 299.005C150.856 298.315 147.989 295.363 147.21 294.198C146.024 292.421 145.481 290.454 145.601 288.356C145.663 287.263 145.755 286.974 146.447 285.705C148.444 282.04 150.212 280.381 153.095 279.463C153.451 279.35 154.325 279.02 155.038 278.729C157.886 277.567 159.235 277.271 162.81 277.022C163.413 276.98 163.976 276.951 164.519 276.937L164.519 276.937ZM201.852 282.127C201.832 282.044 201.818 282.59 201.818 283.592C201.818 284.928 201.843 285.496 201.873 284.854C201.903 284.213 201.904 283.12 201.873 282.425C201.866 282.252 201.858 282.155 201.852 282.127H201.852ZM102.751 328.705C102.666 328.705 102.752 328.807 103.06 329.011C103.328 329.188 103.656 329.33 103.789 329.327C103.923 329.324 103.777 329.182 103.465 329.011C103.092 328.807 102.836 328.705 102.751 328.705ZM232.235 339.42C231.991 339.457 232.191 339.488 232.681 339.488C233.171 339.488 233.371 339.457 233.126 339.42C232.881 339.383 232.48 339.383 232.235 339.42ZM170.513 377.345C170.493 377.341 170.435 377.371 170.34 377.436C169.846 377.777 167.416 379.682 167.05 380.017C166.977 380.083 167.268 380.017 167.698 379.869C168.293 379.664 168.766 379.297 169.692 378.323C170.302 377.682 170.575 377.357 170.513 377.345ZM192.922 378.804L192.277 379.37C191.022 380.473 189.436 381.35 185.85 382.923C183.854 383.799 181.716 384.701 181.098 384.929C179.416 385.55 178.339 385.993 178.493 386.002C178.568 386.006 178.277 386.332 177.845 386.727L177.06 387.446L177.627 387.644C179.198 388.194 182.82 390.343 183.444 391.095C183.562 391.237 183.698 391.353 183.747 391.353C183.796 391.353 183.672 391.178 183.472 390.964C183.131 390.601 183.123 390.546 183.351 390.114C183.485 389.86 184.082 389.179 184.678 388.6C185.711 387.597 188.532 384.287 190.696 381.538C191.249 380.836 191.976 379.933 192.312 379.532L192.922 378.804ZM150.229 387.313C150.157 387.331 149.949 387.538 149.446 388.074L148.724 388.843L149.493 388.121C149.916 387.724 150.262 387.378 150.262 387.352C150.262 387.321 150.253 387.307 150.229 387.313ZM202.313 388.357L201.873 388.703C201.631 388.893 199.592 389.967 197.343 391.089C195.093 392.21 192.185 393.731 190.88 394.468L188.507 395.808L188.833 396.212C189.268 396.748 190.138 398.504 190.517 399.611C190.755 400.306 190.823 400.969 190.823 402.639C190.823 403.814 190.866 404.725 190.919 404.663C191.342 404.159 192.816 402.116 194.599 399.559C196.005 397.542 196.759 396.31 196.829 395.915C196.891 395.566 197.344 394.75 197.922 393.943C199.705 391.456 201.474 389.166 201.612 389.166C201.686 389.166 201.875 388.984 202.03 388.762L202.313 388.357ZM185.156 392.405L186.285 393.579C186.906 394.225 187.467 394.753 187.53 394.753C187.594 394.753 187.699 394.669 187.762 394.566C187.837 394.445 187.806 394.423 187.674 394.505C187.542 394.587 187.068 394.243 186.313 393.518L185.156 392.405ZM38.9385 451.022L39.7421 451.872C40.184 452.339 40.5666 452.722 40.5922 452.722C40.713 452.722 40.5785 452.572 39.7886 451.825L38.9385 451.022ZM234.559 482.803C234.537 482.765 234.521 483.082 234.521 483.65C234.521 484.407 234.549 484.716 234.583 484.338C234.617 483.959 234.617 483.34 234.583 482.961C234.574 482.867 234.566 482.815 234.559 482.803Z" fill="#926541"/>
<path d="M178.736 206.7C177.695 206.842 178.092 206.809 177.413 206.899C175.738 207.655 176.523 205.563 175.444 207.663C175.618 208.66 177.847 210.756 177.249 210.002C182.342 215.15 183.526 218.34 183.707 227.422C183.827 233.399 183.203 238.669 181.974 242.308C181.74 243.003 181.548 243.292 180.901 243.909C180.649 244.149 180.421 244.387 180.248 244.588C180.161 244.688 180.088 244.778 180.026 244.866C179.996 244.91 179.968 244.953 179.94 245.007C179.912 245.062 179.866 245.111 179.866 245.294C179.866 245.491 179.911 245.515 179.932 245.556C179.954 245.598 179.972 245.626 179.992 245.656C180.031 245.715 180.075 245.773 180.13 245.842C180.239 245.98 180.386 246.155 180.567 246.362C180.929 246.776 181.422 247.315 181.965 247.886C185.201 251.291 187.282 254.32 189.911 259.462C192.288 264.112 193.75 269.781 194.606 277.778C195.452 285.672 195.156 290.498 193.401 297.492C192.398 301.488 192.018 302.622 190.638 305.739C189.963 307.261 189.262 308.945 189.042 309.586C188.515 311.129 187.651 312.761 186.171 314.973C184.229 317.878 183.57 318.659 182.298 319.591C180.416 320.968 179.138 321.716 175.1 323.797C174.044 324.342 173.023 324.882 172.226 325.317C171.827 325.534 171.485 325.724 171.22 325.876C170.956 326.029 170.789 326.125 170.655 326.226C170.225 326.549 168.71 327.36 166.626 328.347C164.542 329.333 161.847 330.533 158.884 331.785C155.365 333.273 154.413 333.587 151.857 334.107C150.689 334.344 149.053 334.715 148.187 334.939C146.576 335.357 141.753 335.946 138.741 336.07C134.936 336.226 124.341 335.285 120.246 334.421C113.908 333.084 108.372 331.079 101.547 327.644C100.887 327.312 100.288 327.018 99.8497 326.81C99.6305 326.706 99.4527 326.623 99.3219 326.566C99.2565 326.538 99.205 326.516 99.1533 326.497C99.1274 326.488 99.1064 326.479 99.0543 326.467C99.0282 326.461 99.0022 326.449 98.906 326.454C98.8579 326.456 98.7836 326.456 98.665 326.528C98.5464 326.6 98.4183 326.812 98.4183 326.966C98.4183 327.137 98.4664 327.192 98.492 327.237C98.5176 327.282 98.5383 327.309 98.5581 327.334C98.5977 327.384 98.6345 327.422 98.6773 327.464C98.763 327.549 98.8703 327.645 99.0012 327.758C99.263 327.984 99.6163 328.27 100.012 328.58C100.803 329.2 101.757 329.908 102.451 330.371C105.73 332.557 112.817 336.194 117.055 337.874C121.238 339.532 124.928 340.401 129.011 340.688C134.477 341.07 138.609 340.767 146.782 339.386C153.509 338.251 163.465 335.637 168.163 333.763C171.247 332.532 177.826 329.502 181.984 327.398C183.538 326.612 184.408 326.184 184.975 325.957C185.542 325.731 185.778 325.698 186.236 325.672C187.847 325.581 190.221 326.44 196.944 329.773C204.701 333.619 209.046 335.322 215.546 337.062C220.867 338.486 221.439 338.593 229.536 339.669C234.807 340.37 241.634 339.785 247.273 338.162C251.565 336.927 254.309 334.784 258.007 329.826C260.439 326.565 262.643 322.089 264.507 316.666C264.699 316.108 265.032 314.792 265.333 313.52C265.483 312.884 265.622 312.268 265.723 311.784C265.774 311.543 265.815 311.334 265.844 311.169C265.873 311.003 265.902 310.946 265.889 310.743C265.887 310.709 265.887 310.663 265.848 310.572C265.839 310.549 265.826 310.524 265.808 310.496C265.79 310.467 265.734 310.405 265.734 310.405L265.464 310.268L265.32 310.264C265.32 310.264 265.239 310.278 265.208 310.289C265.146 310.311 265.107 310.336 265.078 310.357C265.02 310.398 264.999 310.426 264.982 310.447C264.912 310.531 264.916 310.543 264.904 310.568C264.879 310.617 264.861 310.66 264.836 310.719C264.787 310.837 264.723 311.003 264.643 311.214C264.484 311.635 264.267 312.23 264.03 312.9C261.303 320.605 258.728 324.867 254.657 328.481C249.328 333.212 246.292 334.403 240.313 334.119C235.845 333.906 232.008 332.846 224.21 329.645C222.25 328.84 219.008 327.51 217.004 326.688C207.049 322.606 202.384 320.45 198.285 318.048C197.282 317.459 195.889 316.731 194.689 316.143C194.089 315.849 193.538 315.592 193.105 315.404C192.888 315.31 192.701 315.234 192.546 315.178H192.544C192.616 315.063 192.618 315.037 192.777 314.841C195.545 311.401 199.16 303.108 200.839 296.519C202.08 291.645 202.182 290.67 202.173 283.519C202.165 277.917 202.116 276.701 201.796 274.067C200.757 265.51 199.571 260.169 197.2 253.374C194.565 245.823 192.795 242.695 189.871 240.644C189.566 240.43 189.355 240.254 189.254 240.147C189.235 240.127 189.24 240.131 189.229 240.117C189.624 238.674 190.618 233.181 190.768 231.649C191.042 228.845 190.621 225.068 189.516 220.104C188.058 213.558 186.07 210.838 180.337 207.543L178.99 206.77C178.913 206.726 178.826 206.702 178.736 206.702L178.736 206.7ZM131.23 208.295C128.06 208.304 126.85 208.47 121.742 209.605C117.257 210.602 113.973 211.865 109.131 214.452C106.067 216.089 103.987 217.439 102.048 219.053C98.506 222.004 89.1788 232.098 86.6052 235.772C86.2 236.35 86.0013 236.595 85.8924 236.717C85.8881 236.714 85.8848 236.712 85.8804 236.709C85.8177 236.672 85.7382 236.628 85.6397 236.573C85.4428 236.465 85.1718 236.319 84.8418 236.145C84.1817 235.795 83.2869 235.33 82.3014 234.822C80.3301 233.807 77.9976 232.624 76.4617 231.87C74.2186 230.77 70.5818 229.35 68.7371 228.864C66.1716 228.19 63.6687 227.886 60.7133 227.888C58.2398 227.89 57.7773 227.943 56.0374 228.406C53.646 229.044 51.9793 229.813 50.3299 231.051C49.8217 231.433 49.4882 231.701 49.2445 231.967C49.0009 232.232 48.8485 232.535 48.8059 232.828C48.736 233.307 48.6439 234.604 48.5665 235.855C48.5278 236.48 48.4946 237.082 48.4751 237.535C48.4653 237.762 48.4587 237.95 48.4567 238.092C48.4558 238.163 48.4556 238.22 48.4577 238.274C48.4587 238.3 48.4597 238.325 48.4643 238.362C48.4667 238.38 48.4691 238.402 48.4792 238.44C48.4893 238.478 48.4704 238.534 48.6149 238.678C48.7359 238.799 48.8757 238.826 48.9561 238.83C49.0365 238.835 49.0825 238.824 49.1193 238.815C49.1928 238.797 49.2298 238.779 49.267 238.761C49.3414 238.726 49.4038 238.687 49.4757 238.641C49.6196 238.548 49.7899 238.423 49.971 238.278C50.6703 237.718 52.7389 236.761 54.1532 236.399C56.1406 235.891 58.007 235.728 60.6931 235.836C64.6711 235.996 67.0793 236.438 69.667 237.465C73.4377 238.963 75.5761 240.18 79.2726 242.934C80.268 243.676 81.3828 244.436 81.9308 244.711C82.1675 244.83 82.4099 244.936 82.6227 245.016C82.8356 245.097 82.9405 245.168 83.2252 245.168C83.5295 245.168 83.7643 245.053 84.0314 244.899C84.2984 244.744 84.5899 244.531 84.9207 244.258C85.5822 243.712 86.3967 242.923 87.3628 241.898C88.437 240.757 90.191 239.033 91.2244 238.1C92.2762 237.15 93.7337 235.836 94.4625 235.179C95.1786 234.534 96.5059 233.406 97.3864 232.695C98.2813 231.973 100.029 230.538 101.278 229.5C106.031 225.553 109.7 223.049 113.675 221.031C117.687 218.995 120.489 218.03 124.275 217.376C126.52 216.989 133.564 216.891 136.352 217.225C141.695 217.863 147.042 219.408 152.009 221.748C152.976 222.204 153.549 222.464 153.987 222.609C154.425 222.754 154.795 222.763 155.095 222.686C155.508 222.579 155.857 222.4 156.081 222.075C156.305 221.75 156.288 221.246 156.049 220.918C156.01 220.864 155.721 220.354 155.532 219.954C155.39 219.652 155.279 219.435 155.102 219.247C154.926 219.059 154.553 218.923 154.287 219.003C154.244 219.016 153.931 219.007 153.61 218.882C153.29 218.756 152.951 218.542 152.746 218.33C152.192 217.759 152.076 217.098 152.443 215.994C152.518 215.766 152.597 215.604 152.642 215.371C152.687 215.138 152.606 214.774 152.415 214.569C152.032 214.158 151.506 213.975 150.31 213.36C146.965 211.636 142.844 210.14 138.854 209.196C135.649 208.438 134.37 208.287 131.23 208.296L131.23 208.295ZM171.138 212.939C170.746 212.918 170.376 212.929 170.038 212.981C167.444 213.381 165.061 214.773 163.772 216.702C163.075 217.746 162.841 218.342 162.547 219.829C162.501 220.062 162.428 220.302 162.351 220.488C162.275 220.675 162.165 220.817 162.191 220.792C162.04 220.933 161.896 221.089 161.829 221.327C161.761 221.566 161.824 221.823 161.914 221.999C161.99 222.147 162.218 222.617 162.406 223.015C163.179 224.647 164.882 226.823 166.972 228.916C168.91 230.857 171.393 232.914 172.775 233.662C173.143 233.861 173.575 233.983 173.991 233.988C174.249 233.991 174.453 233.924 174.708 233.838C174.964 233.752 175.245 233.637 175.529 233.505C176.097 233.242 176.654 232.94 177.021 232.617C177.187 232.47 177.254 232.344 177.37 232.156C177.486 231.967 177.617 231.734 177.761 231.462C178.049 230.92 178.387 230.229 178.725 229.502C179.4 228.048 180.066 226.48 180.316 225.609C180.949 223.406 180.547 220.591 179.322 218.272C178.453 216.629 176.431 214.667 174.77 213.86C173.687 213.334 172.314 213 171.138 212.939ZM339.636 236.496C339.008 236.773 338.033 238.577 338.41 238.052C337.662 239.362 335.178 242.978 333.237 245.565C332.14 247.026 329.774 249.535 327.541 251.704C326.424 252.788 325.337 253.792 324.455 254.547C324.014 254.925 323.624 255.241 323.313 255.469C323.001 255.698 322.742 255.841 322.698 255.856C322.246 256.014 321.912 256.36 321.73 256.8C321.634 257.033 321.536 257.213 321.576 257.513C321.596 257.662 321.673 257.813 321.755 257.91C321.838 258.007 321.917 258.067 321.997 258.125C322.15 258.237 322.348 258.368 322.621 258.36C322.893 258.353 323.068 258.226 323.231 258.109C323.21 258.125 323.346 258.04 323.514 257.949C323.683 257.858 323.909 257.739 324.176 257.602C324.708 257.327 325.401 256.98 326.121 256.628C328.846 255.294 332.583 253.249 334.082 252.259C334.461 252.009 334.771 251.751 335.071 251.352C335.371 250.953 335.671 250.426 336.145 249.555C338.272 245.649 339.843 241.899 340.197 239.718C340.296 239.103 340.354 238.467 340.368 237.946C340.375 237.686 340.371 237.457 340.352 237.26C340.343 237.162 340.33 237.073 340.307 236.98C340.283 236.887 340.272 236.785 340.123 236.636C339.987 236.5 339.75 236.47 339.636 236.496ZM64.6243 238.348C63.3356 238.301 62.4042 238.524 61.4084 239.052C60.6925 239.432 59.8298 240.148 59.0263 240.933C58.2228 241.718 57.5043 242.542 57.137 243.23C56.0688 245.229 55.7035 248.07 56.2502 250.214C56.4169 250.867 56.9574 252.138 57.5016 253.241C57.7663 253.778 58.007 254.281 58.18 254.655C58.2664 254.842 58.3361 254.997 58.3817 255.104C58.4045 255.158 58.4214 255.2 58.4295 255.221C58.4335 255.232 58.4356 255.239 58.4336 255.232C58.4316 255.225 58.4172 255.234 58.4172 255.11C58.4172 255.248 58.4372 255.259 58.4469 255.289C58.4566 255.319 58.4654 255.341 58.475 255.365C58.4943 255.413 58.5166 255.463 58.5443 255.522C58.5997 255.641 58.6752 255.795 58.7679 255.978C58.9534 256.344 59.2066 256.825 59.4852 257.338C61.0658 260.249 62.2555 261.392 64.8805 262.513C65.8075 262.909 66.5057 263.13 67.2082 263.096C67.9105 263.061 68.5367 262.763 69.2783 262.279C70.5326 261.46 72.194 259.736 73.8075 257.771C75.4211 255.806 76.9536 253.62 77.8265 251.885C78.6218 250.305 78.9802 249.007 78.7177 247.727C78.4552 246.447 77.6096 245.287 76.2119 243.885C74.446 242.113 73.2071 241.146 71.2868 240.045C69.6924 239.131 68.4972 238.773 66.0628 238.473C65.5255 238.407 65.0537 238.364 64.6242 238.348L64.6243 238.348ZM352.606 241.441C351.963 241.795 350.902 243.741 351.333 243.183C348.431 248.114 343.709 253.721 339.806 256.888C339.3 257.299 338.958 257.614 338.74 257.956C338.631 258.128 338.546 258.32 338.546 258.55C338.546 258.779 338.659 259.014 338.804 259.159C338.988 259.343 339.096 259.34 339.22 259.371C339.345 259.401 339.474 259.417 339.611 259.417C339.846 259.417 339.923 259.365 340.087 259.307C340.252 259.249 340.448 259.17 340.676 259.072C341.132 258.878 341.709 258.611 342.335 258.306C343.589 257.698 345.034 256.944 346.063 256.339C347.512 255.486 347.814 255.202 348.648 253.922C351.191 250.021 352.8 246.317 353.142 243.422C353.187 243.038 353.222 242.684 353.243 242.415C353.253 242.28 353.26 242.168 353.262 242.077C353.264 242.031 353.264 241.991 353.261 241.944C353.259 241.92 353.258 241.896 353.25 241.853C353.242 241.811 353.286 241.755 353.105 241.574C352.959 241.428 352.711 241.413 352.607 241.441L352.606 241.441ZM360.784 252.647C360.643 252.646 360.507 252.703 360.41 252.805L360.061 253.169C359.987 253.247 359.9 253.321 359.839 253.365C359.432 253.344 360.002 253.304 359.926 253.375C359.782 252.693 357.379 256.784 359.089 254.285C358.928 254.503 358.681 254.807 358.371 255.166C357.752 255.884 356.881 256.828 355.904 257.847C353.951 259.885 351.565 262.228 349.882 263.695C347.729 265.571 346.531 266.666 345.815 267.806C345.098 268.945 344.936 270.077 344.826 271.811C344.75 273 344.566 274.584 344.437 275.227C343.779 278.493 341.569 283.607 339.691 286.215C338.439 287.954 335.406 291.039 333.762 292.249C329.951 295.055 326.23 296.996 321.91 298.43C315.563 300.538 313.204 301.903 310.965 304.805C309.259 307.017 307.377 310.935 306.063 314.934C303.585 322.476 302.237 329.81 300.322 346.124C299.712 351.319 299.182 354.218 297.813 359.826C295.556 369.079 294.443 373.027 293.281 375.951C290.956 381.804 286.225 389.456 282.395 393.579C280.923 395.164 275.48 400.005 273.401 401.569C269.557 404.464 264.85 407.135 259.744 409.315C254.546 411.534 249.835 412.614 241.024 413.596C231.224 414.687 228.553 414.823 220.366 414.643C217.239 414.575 215.446 414.525 214.41 414.454C213.374 414.384 213.171 414.29 213.109 414.242C212.87 414.053 212.613 414.041 212.396 414.06C212.178 414.08 211.975 414.143 211.782 414.231C211.59 414.32 211.41 414.433 211.254 414.586C211.098 414.739 210.938 414.95 210.938 415.26C210.938 415.443 210.979 415.608 211.056 415.763C211.107 415.865 211.19 415.965 211.3 416.053C211.304 416.139 211.296 416.329 211.251 416.659C210.876 419.419 210.285 425.068 210.116 427.515C209.758 432.673 210.141 437.898 211.363 444.644C212.267 449.636 214.9 461.37 216.946 469.533C218.009 473.777 218.481 476.185 218.873 479.349C219.356 483.252 219.552 489.253 219.487 494.542C219.454 497.187 219.356 499.657 219.199 501.598C219.12 502.569 219.026 503.409 218.92 504.065C218.815 504.722 218.682 505.209 218.593 505.396C218.502 505.587 218.419 505.771 218.357 505.922C218.326 505.997 218.3 506.063 218.278 506.124C218.257 506.185 218.225 506.158 218.225 506.386C218.225 506.386 218.242 506.532 218.267 506.589C218.292 506.646 218.322 506.689 218.35 506.721C218.405 506.785 218.45 506.812 218.482 506.83C218.548 506.868 218.578 506.874 218.603 506.881C218.653 506.896 218.675 506.898 218.699 506.902C218.747 506.909 218.789 506.912 218.842 506.916C218.949 506.923 219.091 506.93 219.272 506.936C219.636 506.949 220.154 506.96 220.793 506.969C222.071 506.988 223.83 507 225.765 507H232.794C233.045 507 233.259 506.818 233.299 506.57L233.396 505.963C233.463 505.547 233.613 504.2 233.799 502.455C233.984 500.711 234.198 498.606 234.371 496.801C234.646 493.926 234.898 488.564 235.05 483.482C235.202 478.401 235.256 473.652 235.112 471.877C234.789 467.894 233.859 463.479 232.729 460.638C232.448 459.932 230.952 455.816 229.443 451.587C227.933 447.356 226.322 442.88 225.858 441.624C225.401 440.387 224.599 438.09 224.083 436.539C223.557 434.956 222.555 432.337 221.839 430.669C220.37 427.251 219.746 425.505 219.159 423.178C218.958 422.383 218.784 421.493 218.683 420.815C218.662 420.669 218.659 420.591 218.644 420.468C219.03 420.638 219.531 420.864 220.083 421.116C225.313 423.512 230.105 424.284 237.462 423.936C247.522 423.459 253.703 422.61 260.007 420.829C264.654 419.517 267.433 418.359 272.924 415.447C279.873 411.762 281.982 410.302 285.87 406.489C289.581 402.85 292.295 399.229 297.082 391.55C299.827 387.147 300.072 386.72 302.339 382.367C305.705 375.905 307.652 371.395 309.464 365.854C311.761 358.831 313.025 353.416 314.776 343.112C316.648 332.098 318.258 323.712 318.973 321.167C319.219 320.291 319.681 318.949 319.973 318.256C320.997 315.829 321.941 314.268 323.474 312.91C325.006 311.552 327.166 310.382 330.616 308.858C337.366 305.875 342.065 302.799 346.216 298.633C350.354 294.48 352.285 290.953 353.952 284.523C354.779 281.333 355.016 279.291 355.012 275.423C355.009 272.195 354.965 271.704 354.563 270.104C354.322 269.145 353.986 267.996 353.781 267.456C353.693 267.224 353.612 266.991 353.556 266.81C353.534 266.74 353.52 266.689 353.506 266.64C353.511 266.632 353.512 266.63 353.517 266.622C353.582 266.518 353.684 266.366 353.811 266.185C354.066 265.823 354.424 265.341 354.816 264.834C356.665 262.45 357.644 260.989 358.893 258.751C359.798 257.128 360.791 254.931 361.15 253.708L361.269 253.303C361.364 252.978 361.123 252.652 360.784 252.649L360.784 252.647ZM176.14 370.477C174.796 370.544 173.757 370.865 171.938 371.634C166.932 373.751 162.987 376.191 159.987 379.047C159.565 379.448 159.311 379.662 159.113 379.778C158.914 379.893 158.749 379.94 158.395 379.998C157.034 380.22 154.576 381.176 151.873 382.47C147.585 384.524 142.99 387.971 140.119 391.299C139.441 392.085 138.168 393.565 137.288 394.59C136.41 395.612 135.453 396.714 135.187 397.009C129.24 403.611 126.727 407.312 124.575 412.665C124.187 413.63 123.971 414.129 123.854 414.308C123.796 414.397 123.787 414.394 123.778 414.399C123.768 414.404 123.718 414.423 123.586 414.448C123.431 414.478 122.909 414.518 122.276 414.535C121.644 414.553 120.873 414.556 120.098 414.547C118.548 414.53 116.913 414.445 116.492 414.364C113.615 413.816 109.678 412.439 105.32 410.442C101.973 408.908 100.807 408.236 96.5933 405.409C94.1763 403.788 92.0651 402.506 90.7654 401.883C90.2216 401.622 89.7154 401.385 89.3343 401.212C89.1437 401.125 88.9851 401.055 88.865 401.004C88.8049 400.978 88.7552 400.958 88.7103 400.941C88.6879 400.932 88.6675 400.925 88.6407 400.917C88.614 400.908 88.6213 400.889 88.4677 400.889C88.3541 400.889 88.166 400.957 88.0661 401.08C87.9662 401.203 87.9541 401.316 87.951 401.384C87.9446 401.519 87.9691 401.556 87.982 401.595C88.0078 401.672 88.0302 401.712 88.0575 401.764C88.1123 401.867 88.1852 401.989 88.2786 402.138C88.4653 402.435 88.7296 402.832 89.0262 403.264C89.6195 404.127 90.3332 405.118 90.7975 405.689C94.7247 410.518 97.4831 412.785 102.414 415.231C105.86 416.941 107.76 417.641 110.859 418.34C112.025 418.604 115.034 419.406 117.489 420.066L117.38 420.08C116.784 420.16 116.792 421.025 117.389 421.094L118.28 421.197C119.325 421.318 120.99 421.28 122.617 421.158C124.245 421.036 125.78 420.843 126.638 420.566C127.445 420.304 128.092 419.947 128.628 419.084C129.165 418.221 129.674 416.886 130.571 414.448C132.755 408.508 134.564 405.599 141.029 397.634C143.501 394.588 148.627 389.318 151.048 387.321C152.771 385.901 155.302 384.437 158.653 382.942C161.817 381.531 162.524 381.314 164.27 381.225C166.05 381.134 166.923 380.831 167.936 379.943C168.189 379.721 169.149 378.958 170.002 378.306C170.87 377.643 172.529 376.331 173.704 375.379C174.856 374.447 176.36 373.389 176.876 373.118C177.416 372.834 178.187 372.556 178.886 372.377C179.585 372.197 180.273 372.144 180.41 372.171C180.454 372.18 180.495 372.188 180.552 372.191C180.608 372.194 180.671 372.225 180.853 372.131C180.944 372.084 181.078 371.958 181.119 371.795C181.161 371.633 181.115 371.504 181.081 371.434C181.011 371.293 180.961 371.27 180.921 371.238C180.764 371.107 180.635 371.052 180.413 370.947C179.764 370.639 179.1 370.538 177.618 370.481C177.066 370.46 176.588 370.456 176.14 370.478L176.14 370.477ZM181.924 372.84C180.693 373.051 181.042 374.206 180.628 374.025C180.395 374.298 180.092 374.621 179.786 374.915C178.544 376.11 177.048 377.211 169.755 382.285L167.622 383.768C167.304 383.99 167.339 384.471 167.686 384.645L169.171 385.385C170.041 385.819 171.429 386.335 172.377 386.577C173.253 386.8 174.64 387.193 175.426 387.441L176.883 387.901C177.053 387.955 177.239 387.916 177.373 387.798L178.124 387.14C178.337 386.953 178.526 386.778 178.666 386.637C178.736 386.567 178.793 386.507 178.844 386.445C178.87 386.414 178.893 386.387 178.927 386.331C178.943 386.303 178.965 386.27 178.987 386.189C179.008 386.109 179.046 385.898 178.872 385.705C178.778 385.601 178.709 385.573 178.647 385.553C178.727 385.343 178.661 385.106 178.484 384.968L178.08 384.653H178.079C177.423 384.142 176.422 383.878 175.339 383.74C174.712 383.661 174.07 383.64 173.461 383.681C174.649 382.65 176.138 381.432 177.082 380.775C178.911 379.5 180.492 377.961 181.505 376.586C182.011 375.899 182.379 375.258 182.559 374.666C182.649 374.37 182.693 374.081 182.657 373.793C182.62 373.504 182.479 373.209 182.241 373.011C182.167 372.95 182.079 372.88 181.924 372.84L181.924 372.84ZM193.5 377.734C192.693 377.951 191.128 379.957 191.724 379.432C190.98 380.315 190.075 381.431 189.342 382.386C187.885 384.284 185.378 387.186 184.294 388.242C183.986 388.542 183.681 388.866 183.429 389.155C183.177 389.444 182.993 389.66 182.868 389.898L182.617 390.373C182.506 390.583 182.555 390.842 182.734 390.997L183.766 391.894C184.321 392.376 185.297 393.274 185.912 393.867C186.229 394.173 186.532 394.451 186.771 394.658C186.89 394.762 186.993 394.847 187.08 394.914C187.124 394.948 187.164 394.977 187.21 395.006C187.233 395.02 187.258 395.035 187.296 395.053C187.334 395.071 187.373 395.103 187.519 395.106H187.521C187.729 395.111 187.759 395.06 187.808 395.035C187.856 395.01 187.892 394.987 187.93 394.961C188.005 394.909 188.083 394.849 188.171 394.777C188.347 394.632 188.559 394.442 188.777 394.232L189.536 393.497C189.746 393.294 189.744 392.958 189.531 392.758L188.316 391.618L187.526 390.875C188.307 390.232 189.847 388.734 190.806 387.689C192.333 386.025 193.353 384.057 193.884 381.76C194.028 381.135 194.11 380.276 194.135 379.54C194.147 379.172 194.145 378.84 194.122 378.573C194.11 378.44 194.097 378.327 194.061 378.202C194.043 378.14 194.023 378.074 193.96 377.982C193.898 377.89 193.732 377.734 193.501 377.734L193.5 377.734ZM202.694 387.53C202.55 387.53 202.411 387.59 202.314 387.697L201.799 388.264C201.667 388.41 201.534 388.543 201.438 388.631C201.402 388.664 201.381 388.681 201.36 388.697C201.305 388.72 201.273 388.746 201.251 388.761C201.212 388.788 201.191 388.808 201.17 388.827C201.129 388.864 201.096 388.9 201.057 388.943C200.98 389.028 200.886 389.139 200.773 389.277C200.546 389.555 200.243 389.941 199.892 390.399C199.192 391.313 198.303 392.51 197.483 393.654C197.184 394.071 196.917 394.49 196.712 394.86C196.507 395.23 196.359 395.514 196.303 395.833C196.311 395.784 196.281 395.897 196.213 396.034C196.146 396.17 196.044 396.355 195.914 396.575C195.655 397.016 195.284 397.601 194.833 398.282C193.929 399.643 192.7 401.393 191.363 403.201C190.485 404.389 190.217 404.933 189.918 406.126C188.863 410.337 185.799 415.02 179.698 421.59C176.245 425.309 175.261 426.185 171.053 429.29C168.409 431.241 167.451 431.772 166.542 431.918C166.224 431.969 165.989 431.974 165.725 432.198C165.592 432.309 165.501 432.483 165.468 432.623C165.434 432.763 165.434 432.876 165.434 432.994C165.434 433.045 165.393 433.304 165.297 433.633C165.202 433.962 165.058 434.381 164.879 434.859C164.519 435.815 164.016 437.011 163.451 438.259C162.322 440.755 160.938 443.475 159.994 444.921C158.049 447.903 156.507 450.484 155.922 451.772C155.555 452.583 154.178 454.571 152.398 456.842C150.618 459.112 148.418 461.72 146.333 463.985L144.437 466.044L141.883 467.302C139.314 468.568 128.535 472.937 126.158 473.68C123.263 474.585 117.683 475.791 112.51 476.622C110.14 477.002 102.036 477.01 99.8844 476.644C98.9809 476.49 97.8247 476.328 97.2534 476.277C95.1105 476.085 87.4972 474.549 84.4541 473.682C83.3402 473.364 81.1477 472.783 79.5606 472.385C76.067 471.508 74.3423 470.938 69.5665 469.079C58.5189 464.779 52.069 461.38 45.3006 456.303C44.5239 455.72 42.3825 453.802 40.6516 452.121C37.3205 448.885 36.7657 448.304 34.8906 446.085C34.2477 445.324 33.0285 443.904 32.175 442.922C31.351 441.974 29.9118 440.075 29.0261 438.762C28.5747 438.092 28.1479 437.466 27.823 436.994C27.6605 436.759 27.5235 436.562 27.4207 436.416C27.3693 436.343 27.3267 436.284 27.2923 436.237C27.2579 436.19 27.2504 436.173 27.1949 436.113C27.175 436.091 27.1514 436.063 27.0883 436.022C27.0253 435.981 26.884 435.896 26.6655 435.958C26.4469 436.021 26.3398 436.219 26.3135 436.309C26.2872 436.398 26.2914 436.441 26.2923 436.474C26.2961 436.608 26.3134 436.623 26.3274 436.673C26.3555 436.772 26.3962 436.889 26.4523 437.041C26.5646 437.346 26.7355 437.778 26.9419 438.272C29.6499 444.763 36.9857 455.151 43.327 461.528C47.1167 465.338 52.5632 469.9 56.3719 472.448C56.7595 472.707 57.1138 472.965 57.3615 473.163C57.4854 473.262 57.5835 473.347 57.6373 473.399C57.6208 473.37 57.6042 473.316 57.6 473.204C57.6036 473.298 57.6218 473.356 57.6423 473.404C57.6632 473.425 57.6797 473.444 57.6759 473.439C57.6739 473.436 57.6588 473.431 57.6439 473.413C57.6691 473.468 57.699 473.505 57.7214 473.536C57.7636 473.593 57.8024 473.634 57.8444 473.675C57.9285 473.758 58.026 473.839 58.1468 473.933C58.3882 474.122 58.7177 474.356 59.1212 474.629C59.928 475.176 61.0265 475.876 62.2266 476.613C64.6266 478.089 67.4198 479.707 69.0849 480.526C74.856 483.363 82.6054 485.546 92.512 487.147C95.9397 487.701 98.5878 488.041 100.733 488.2C102.09 488.3 105.097 488.349 108.004 488.35C110.912 488.352 113.642 488.315 114.592 488.207C117.884 487.833 125.91 485.978 129.712 484.72C137.779 482.052 144.13 478.769 148.882 474.782C149.781 474.028 151.202 472.835 152.04 472.132C154.594 469.986 156.228 468.33 158.08 466.009C159.045 464.799 161.053 462.113 162.93 459.555C164.807 456.996 166.518 454.621 166.97 453.889C167.159 453.584 167.357 453.108 167.593 452.495C167.828 451.881 168.079 451.154 168.295 450.452C170.967 441.761 172.782 438.045 175.98 434.62C176.628 433.926 177.336 433.045 177.647 432.501C178.49 431.029 180.79 427.613 181.766 426.38C182.306 425.698 183.741 424.013 184.923 422.676C186.965 420.366 188.025 418.923 191.899 413.183C193.891 410.231 195.417 407.314 195.849 405.481C196.036 404.689 196.282 404.139 196.519 403.847C197.312 402.868 199.565 399.375 200.412 397.842C202.44 394.17 203.217 391.88 203.209 389.431L203.204 388.04C203.202 387.76 202.976 387.533 202.695 387.532L202.694 387.53Z" fill="#694227"/>
<path d="M163.89 259.066C163.316 259.114 162.866 259.241 162.49 259.516C162.114 259.792 161.825 260.203 161.53 260.789C161.153 261.536 161.051 261.982 161.058 262.849C161.07 264.424 161.63 266.155 162.471 267.612C163.313 269.07 164.433 270.26 165.623 270.72C166.12 270.912 166.531 271.003 166.948 270.962C167.365 270.921 167.772 270.752 168.275 270.463C168.803 270.16 169.134 269.776 169.466 269.097C169.672 268.675 169.793 268.399 169.844 268.042C169.896 267.686 169.88 267.269 169.841 266.533C169.743 264.651 169.343 263.446 168.283 261.836C167.06 259.979 165.456 258.936 163.89 259.066L163.89 259.066ZM162.863 261.389C163.174 261.353 163.504 261.447 163.783 261.727C164.059 262.002 164.175 262.288 164.165 262.56C164.155 262.831 164.019 263.103 163.725 263.351C163.434 263.595 163.193 263.7 162.973 263.705C162.753 263.71 162.528 263.617 162.262 263.388C161.946 263.116 161.882 262.974 161.882 262.54C161.882 261.874 162.344 261.449 162.863 261.389V261.389ZM119.887 271.304C118.442 271.302 117.185 272.261 116.812 273.811L116.7 274.278C116.656 274.458 116.524 275.691 116.665 275.572L117.114 274.294C117.313 273.726 118.477 273.607 118.864 273.778C119.252 273.949 119.538 274.341 119.538 274.927C119.538 275.512 119.223 275.92 118.806 276.098C118.389 276.277 117.87 276.226 117.438 275.825L116.985 275.406C117.122 273.708 116.641 275.394 116.665 275.572L116.766 276.308C116.94 277.576 117.599 279.047 118.433 280.296C119.268 281.545 120.266 282.574 121.208 282.925C121.332 282.972 121.482 282.985 121.696 283.005C121.91 283.024 122.168 283.037 122.422 283.041C123.666 283.058 124.571 282.441 124.984 281.362C125.398 280.283 125.361 278.767 124.872 276.903C124.157 274.18 122.96 272.334 121.365 271.629C120.87 271.41 120.368 271.305 119.887 271.304L119.887 271.304ZM165.688 276.848C163.945 276.82 162.127 276.899 160.573 277.095C158.562 277.35 157.225 277.742 153.462 279.182C149.752 280.6 148.326 281.903 146.326 285.698C145.414 287.427 145.251 288.514 145.603 290.501C146.051 293.023 147.404 295.102 150.36 297.859C152.622 299.968 156.741 301.957 159.705 302.367C160.369 302.458 161.67 302.481 162.925 302.457C163.552 302.445 164.165 302.421 164.674 302.386C165.183 302.351 165.579 302.31 165.815 302.247C167.9 301.692 170.266 299.642 171.693 297.208C173.439 294.228 174.81 289.364 175.012 285.462C175.125 283.281 174.857 281.474 174.224 280.107C173.591 278.739 172.58 277.814 171.249 277.443C169.96 277.084 167.887 276.883 165.689 276.848L165.688 276.848Z" fill="#020202"/>
<defs>
<linearGradient id="paint0_linear" x1="312" y1="-7" x2="312" y2="500" gradientUnits="userSpaceOnUse">
<stop stop-color="#DE0216"/>
<stop offset="1" stop-color="#950802"/>
</linearGradient>
<linearGradient id="paint1_linear" x1="391.413" y1="270.578" x2="331.442" y2="336" gradientUnits="userSpaceOnUse">
<stop stop-color="#D9A100"/>
<stop offset="1" stop-color="#F1B800"/>
</linearGradient>
<linearGradient id="paint2_linear" x1="68" y1="0" x2="68" y2="507" gradientUnits="userSpaceOnUse">
<stop stop-color="#DE0216"/>
<stop offset="1" stop-color="#950802"/>
</linearGradient>
<linearGradient id="paint3_linear" x1="-11.4126" y1="277.578" x2="48.5579" y2="343" gradientUnits="userSpaceOnUse">
<stop stop-color="#D9A100"/>
<stop offset="1" stop-color="#F1B800"/>
</linearGradient>
</defs>
</svg>
