<svg width="82" height="82" viewBox="0 0 82 82" fill="none" xmlns="http://www.w3.org/2000/svg">
<rect x="1" y="1" width="80" height="80" rx="40" fill="url(#paint0_linear)" stroke="#EAD8C0" stroke-width="2"/>
<g clip-path="url(#clip0)">
<path d="M55.8618 49.7725V54.715C55.8618 55.7982 55.064 56.8166 53.65 57.7117C53.449 57.835 53.2349 57.9647 53.0014 58.0815C53.0014 58.0815 52.9949 58.0815 52.9949 58.088C52.7939 58.1983 52.5798 58.3021 52.3528 58.4123C51.5939 58.7691 50.7182 59.0999 49.7583 59.3917C49.5442 59.4566 49.3301 59.5214 49.1097 59.5863H49.1032C48.8956 59.6447 48.6816 59.703 48.4611 59.7615C47.6438 59.969 46.7811 60.157 45.8665 60.3128C45.6525 60.3517 45.4384 60.3906 45.2179 60.4231H45.2114C44.9974 60.4555 44.7899 60.4943 44.5693 60.5204C43.7326 60.6435 42.8699 60.741 41.9748 60.8187C41.7607 60.8381 41.5466 60.8577 41.3262 60.8706H41.3197C41.1057 60.8901 40.8981 60.9031 40.6776 60.9161C39.8344 60.9679 38.9652 61.0004 38.083 61.0069C37.869 61.0134 37.6549 61.0134 37.4344 61.0134H37.4279C37.2074 61.0134 36.9999 61.0134 36.7858 61.0069C35.9037 61.0004 35.0345 60.9679 34.1913 60.9161C33.9707 60.9031 33.7567 60.8902 33.5427 60.8706H33.5362C33.3157 60.8577 33.1081 60.8381 32.8941 60.8187C31.9989 60.7409 31.1363 60.6435 30.2995 60.5204C30.079 60.4944 29.865 60.4555 29.6509 60.4231H29.6444C29.4239 60.3906 29.2164 60.3517 29.0023 60.3128C28.0877 60.157 27.2251 59.969 26.4078 59.7615C26.1872 59.703 25.9667 59.6447 25.7592 59.5863H25.7527C25.5322 59.5214 25.3246 59.4566 25.1106 59.3917C24.1506 59.0999 23.2749 58.7691 22.516 58.4123C22.289 58.3086 22.075 58.1983 21.8674 58.0815C21.8674 58.0815 21.8609 58.0815 21.8609 58.075C21.6339 57.9648 21.4199 57.8416 21.2188 57.7118C19.8043 56.8231 19 55.7982 19 54.715V49.7725H55.8618Z" fill="#F6C358"/>
<path d="M55.8618 49.7724C55.8618 50.8557 55.064 51.874 53.65 52.7562C53.4425 52.8923 53.2284 53.0221 52.9949 53.1389C52.7938 53.2556 52.5797 53.3594 52.3527 53.4697C51.5938 53.8264 50.7181 54.1508 49.7582 54.4491C49.5441 54.5139 49.33 54.5789 49.1096 54.6436H49.1031C48.8955 54.702 48.6815 54.7605 48.461 54.8187C47.6437 55.0264 46.781 55.2145 45.8664 55.3702C45.6524 55.4092 45.4384 55.448 45.2178 55.4804H45.2113C44.9973 55.5129 44.7898 55.5518 44.5692 55.5777C43.7325 55.701 42.8698 55.7982 41.9747 55.8761C41.7606 55.8956 41.5465 55.915 41.3261 55.928H41.3196C41.1056 55.9474 40.898 55.9604 40.6775 55.9734C39.8343 56.0253 38.9651 56.0578 38.0829 56.0642C37.8689 56.0707 37.6549 56.0707 37.4343 56.0707H37.4278C37.2073 56.0707 36.9998 56.0707 36.7857 56.0642C35.9036 56.0579 35.0344 56.0253 34.1912 55.9734C33.9707 55.9604 33.7566 55.9475 33.5426 55.928H33.5361C33.3156 55.915 33.108 55.8956 32.894 55.8761C31.9988 55.7982 31.1362 55.701 30.2994 55.5777C30.0789 55.5518 29.8649 55.5129 29.6508 55.4804H29.6443C29.4238 55.448 29.2163 55.4092 29.0022 55.3702C28.0876 55.2145 27.225 55.0264 26.4077 54.8187C26.1871 54.7605 25.9666 54.702 25.7591 54.6436H25.7526C25.5321 54.5789 25.3245 54.5139 25.1105 54.4491C24.1505 54.1572 23.2748 53.8264 22.5159 53.4697C22.2889 53.3659 22.0749 53.2556 21.8673 53.1389C21.8673 53.1389 21.8608 53.1389 21.8608 53.1325C21.6338 53.0221 21.4198 52.8989 21.2187 52.7692C19.8043 51.8805 19 50.8557 19 49.7724C19 46.2958 27.2571 43.4741 37.4341 43.4741C47.6112 43.4741 55.8618 46.2958 55.8618 49.7724Z" fill="#FCD462"/>
<path d="M37.3775 54.3107C37.1939 54.3107 37.0194 54.3105 36.8395 54.305C35.9907 54.2984 35.1499 54.2689 34.2989 54.2168C34.0915 54.2045 33.8955 54.1927 33.6996 54.1753L33.6211 54.1681H33.5905C33.4169 54.1569 33.2513 54.1414 33.0817 54.126C32.1476 54.0447 31.3329 53.951 30.5555 53.8367C30.3765 53.8149 30.2521 53.7944 30.1286 53.7742L29.7788 53.7204C29.6485 53.6992 29.3173 53.6385 29.3173 53.6385C28.4812 53.4964 27.6773 53.3257 26.84 53.1132C26.6461 53.0616 26.4347 53.0058 26.2353 52.9496L25.6197 52.7645C24.8915 52.543 24.2203 52.2993 23.6202 52.038V52.0325L22.6437 51.5565L22.328 51.3789H22.3151C22.2679 51.3505 22.2201 51.321 22.1725 51.2904C21.1253 50.6318 20.7599 50.0629 20.7599 49.7725C20.7599 48.1726 27.0904 45.2344 37.4341 45.2344C47.7735 45.2344 54.1016 48.1725 54.1016 49.7725C54.1016 50.062 53.7392 50.6261 52.7183 51.2629C52.5031 51.4036 52.3516 51.4927 52.2069 51.5651L52.1104 51.6172C51.9503 51.7104 51.7791 51.7917 51.5988 51.8794C50.9566 52.1813 50.1597 52.4812 49.2356 52.7685L48.6263 52.9496C48.4269 53.0055 48.2215 53.0616 48.0098 53.1178C47.1905 53.3254 46.3871 53.4961 45.5712 53.6351C45.3976 53.6666 45.2372 53.6958 45.0763 53.7216L44.7199 53.7766C44.603 53.7958 44.4864 53.8156 44.3647 53.8299C43.5346 53.9511 42.7199 54.0447 41.8218 54.1229C41.6359 54.1398 41.4555 54.1562 41.2712 54.1682L41.162 54.1753C40.9664 54.1928 40.7762 54.2046 40.5745 54.2163C39.7183 54.269 38.8775 54.2985 38.0701 54.3043C37.8504 54.3106 37.6661 54.3108 37.48 54.3108C37.4649 54.3107 37.3941 54.3107 37.3775 54.3107Z" fill="#F6C358"/>
<path d="M22.5155 53.47V58.4126C22.2885 58.3088 22.0745 58.1985 21.8669 58.0817C21.8669 58.0817 21.8605 58.0817 21.8605 58.0753C21.6335 57.965 21.4194 57.8419 21.2184 57.7121V52.7695C21.4194 52.8992 21.6335 53.0225 21.8605 53.1328C21.8605 53.1393 21.8669 53.1393 21.8669 53.1393C22.0745 53.256 22.2885 53.3663 22.5155 53.47Z" fill="#DC8744"/>
<path d="M26.4074 54.8188V59.7615C26.1869 59.7031 25.9663 59.6447 25.7588 59.5864H25.7523C25.5318 59.5215 25.3242 59.4567 25.1102 59.3918V54.4492C25.3242 54.514 25.5318 54.579 25.7523 54.6437H25.7588C25.9663 54.7022 26.1869 54.7606 26.4074 54.8188Z" fill="#DC8744"/>
<path d="M30.2991 55.5782V60.5207C30.0786 60.4948 29.8646 60.4559 29.6505 60.4235H29.6441C29.4235 60.391 29.216 60.3521 29.002 60.3132V55.3706C29.216 55.4096 29.4235 55.4484 29.6441 55.4808H29.6505C29.8646 55.5132 30.0786 55.5522 30.2991 55.5782Z" fill="#DC8744"/>
<path d="M34.191 55.9737V60.9164C33.9705 60.9034 33.7564 60.8904 33.5424 60.8709H33.5359C33.3154 60.8579 33.1078 60.8384 32.8938 60.8189V55.8765C33.1078 55.8959 33.3154 55.9154 33.5359 55.9283H33.5424C33.7564 55.9477 33.9704 55.9606 34.191 55.9737Z" fill="#DC8744"/>
<path d="M38.0827 56.0645V61.007C37.8687 61.0135 37.6547 61.0135 37.4341 61.0135H37.4277C37.2071 61.0135 36.9996 61.0135 36.7856 61.007V56.0645C36.9996 56.0709 37.2071 56.0709 37.4277 56.0709H37.4341C37.6547 56.0709 37.8687 56.0709 38.0827 56.0645Z" fill="#DC8744"/>
<path d="M41.9746 55.8765V60.8189C41.7606 60.8384 41.5464 60.8579 41.326 60.8709H41.3195C41.1055 60.8904 40.8979 60.9034 40.6774 60.9164V55.9737C40.8979 55.9607 41.1055 55.9478 41.3195 55.9283H41.326C41.5464 55.9153 41.7605 55.8959 41.9746 55.8765Z" fill="#DC8744"/>
<path d="M45.8664 55.3706V60.3132C45.6523 60.3521 45.4383 60.391 45.2178 60.4235H45.2113C44.9972 60.4559 44.7897 60.4947 44.5692 60.5207V55.5782C44.7897 55.5522 44.9972 55.5133 45.2113 55.4808H45.2178C45.4383 55.4484 45.6523 55.4095 45.8664 55.3706Z" fill="#DC8744"/>
<path d="M49.7582 54.4492V59.3918C49.5441 59.4567 49.33 59.5215 49.1096 59.5864H49.1031C48.8955 59.6447 48.6815 59.7031 48.461 59.7615V54.8188C48.6815 54.7606 48.8955 54.7022 49.1031 54.6437H49.1096C49.33 54.579 49.544 54.514 49.7582 54.4492Z" fill="#DC8744"/>
<path d="M53.6499 52.7563V57.7119C53.4489 57.8352 53.2348 57.9648 53.0013 58.0816C53.0013 58.0816 52.9949 58.0816 52.9949 58.0881C52.7938 58.1984 52.5798 58.3022 52.3528 58.4124V53.4699C52.5798 53.3596 52.7938 53.2558 52.9949 53.1391C53.2283 53.0222 53.4424 52.8925 53.6499 52.7563Z" fill="#DC8744"/>
<path d="M63 42.2764V47.2189C63 48.3021 62.2022 49.3205 60.7882 50.2157C60.5872 50.3389 60.3731 50.4686 60.1396 50.5854C60.1396 50.5854 60.1332 50.5854 60.1332 50.5919C59.9321 50.7022 59.718 50.806 59.491 50.9162C58.7321 51.273 57.8564 51.6038 56.8965 51.8956C56.6824 51.9606 56.4684 52.0253 56.2479 52.0902H56.2414C56.0338 52.1486 55.8198 52.2069 55.5993 52.2654C54.782 52.4729 53.9193 52.6609 53.0047 52.8167C52.7907 52.8556 52.5767 52.8945 52.3561 52.927H52.3496C52.1356 52.9594 51.9281 52.9982 51.7075 53.0243C50.8708 53.1474 50.0081 53.2449 49.113 53.3226C48.8989 53.342 48.6849 53.3616 48.4644 53.3745H48.4579C48.2439 53.394 48.0363 53.407 47.8158 53.42C46.9726 53.4718 46.1034 53.5043 45.2212 53.5108C45.0072 53.5173 44.7931 53.5173 44.5726 53.5173H44.5661C44.3456 53.5173 44.1381 53.5173 43.924 53.5108C43.0419 53.5043 42.1727 53.4718 41.3295 53.42C41.1089 53.407 40.8949 53.3941 40.6809 53.3745H40.6744C40.4539 53.3616 40.2463 53.342 40.0323 53.3226C39.1371 53.2448 38.2745 53.1474 37.4377 53.0243C37.2172 52.9983 37.0032 52.9594 36.7891 52.927H36.7826C36.5621 52.8945 36.3546 52.8556 36.1405 52.8167C35.2259 52.6609 34.3633 52.4729 33.546 52.2654C33.3254 52.2069 33.1049 52.1486 32.8974 52.0902H32.8909C32.6704 52.0253 32.4628 51.9606 32.2488 51.8956C31.2888 51.6038 30.4131 51.273 29.6542 50.9162C29.4272 50.8125 29.2132 50.7022 29.0056 50.5854C29.0056 50.5854 28.9991 50.5854 28.9991 50.5789C28.7721 50.4687 28.5581 50.3455 28.357 50.2158C26.943 49.3271 26.1387 48.3022 26.1387 47.219V42.2765H63V42.2764Z" fill="#F6C358"/>
<path d="M63 42.2767C63 43.36 62.2022 44.3783 60.7882 45.2605C60.5807 45.3966 60.3666 45.5264 60.1331 45.6433C59.932 45.7599 59.7179 45.8637 59.4909 45.974C58.732 46.3307 57.8564 46.6551 56.8964 46.9534C56.6823 47.0182 56.4683 47.0832 56.2478 47.148H56.2413C56.0337 47.2064 55.8197 47.2649 55.5992 47.3231C54.7819 47.5308 53.9192 47.7189 53.0046 47.8746C52.7906 47.9136 52.5766 47.9524 52.356 47.9848H52.3495C52.1355 48.0173 51.928 48.0562 51.7074 48.0821C50.8707 48.2054 50.008 48.3026 49.1129 48.3805C48.8988 48.4 48.6848 48.4194 48.4643 48.4324H48.4578C48.2438 48.4518 48.0362 48.4648 47.8157 48.4778C46.9725 48.5297 46.1033 48.5622 45.2211 48.5686C45.0071 48.5751 44.7931 48.5751 44.5725 48.5751H44.566C44.3455 48.5751 44.138 48.5751 43.9239 48.5686C43.0418 48.5623 42.1726 48.5297 41.3294 48.4778C41.1089 48.4648 40.8948 48.4519 40.6808 48.4324H40.6743C40.4538 48.4194 40.2462 48.4 40.0322 48.3805C39.137 48.3026 38.2744 48.2054 37.4376 48.0821C37.2171 48.0562 37.0031 48.0173 36.789 47.9848H36.7825C36.562 47.9524 36.3545 47.9136 36.1404 47.8746C35.2258 47.7189 34.3632 47.5308 33.5459 47.3231C33.3254 47.2649 33.1048 47.2064 32.8973 47.148H32.8908C32.6703 47.0833 32.4627 47.0183 32.2487 46.9534C31.2887 46.6615 30.413 46.3307 29.6541 45.974C29.4271 45.8702 29.2131 45.7599 29.0055 45.6433C29.0055 45.6433 28.999 45.6433 28.999 45.6368C28.772 45.5264 28.558 45.4032 28.3569 45.2735C26.943 44.3849 26.1386 43.3601 26.1386 42.2768C26.1386 38.8002 34.3956 35.9785 44.5727 35.9785C54.7498 35.9785 63 38.8 63 42.2767Z" fill="#FCD462"/>
<path d="M44.5146 46.8152C44.3316 46.8152 44.1571 46.815 43.9779 46.8095C43.1237 46.8029 42.2831 46.7734 41.4378 46.7213C41.2307 46.709 41.0353 46.6975 40.8402 46.6798L40.7605 46.6726H40.7278C40.5612 46.662 40.4018 46.6471 40.2392 46.6325C39.2815 46.5489 38.4668 46.4552 37.6943 46.3411C37.5147 46.3193 37.3904 46.2988 37.2666 46.2786L36.9168 46.2248C36.7824 46.203 36.4547 46.1432 36.4547 46.1432C35.6151 46 34.8116 45.8292 33.9788 45.6175C33.7843 45.5659 33.5729 45.5101 33.3741 45.4539L32.7591 45.2694C32.0281 45.0471 31.3568 44.8031 30.7584 44.5424V44.5355L29.777 44.0586L29.4659 43.8836H29.4536C29.4061 43.8552 29.3582 43.8254 29.3101 43.7945C28.2634 43.1368 27.8982 42.5679 27.8982 42.2771C27.8982 40.6773 34.2287 37.7388 44.5723 37.7388C54.9118 37.7388 61.2399 40.6772 61.2399 42.2771C61.2399 42.5664 60.8775 43.1305 59.8565 43.7673C59.64 43.9088 59.4884 43.9979 59.3452 44.0699L59.2501 44.1212C59.0897 44.2143 58.9181 44.2959 58.7374 44.3836C58.0942 44.6861 57.2979 44.9861 56.3742 45.273C56.2054 45.324 55.7646 45.4541 55.7646 45.4541C55.5652 45.51 55.3598 45.5661 55.1481 45.6223C54.3328 45.8293 53.5293 46.0001 52.7089 46.1399C52.5362 46.1713 52.3763 46.2003 52.2157 46.2258L51.8567 46.2814C51.7404 46.3005 51.6241 46.3201 51.503 46.3344C50.6771 46.4553 49.8628 46.549 48.9601 46.6274C48.773 46.6446 48.5938 46.661 48.4103 46.6727L48.2981 46.6798C48.103 46.6976 47.9137 46.7091 47.7128 46.7208C46.8617 46.7735 46.0213 46.803 45.2083 46.8088C44.9887 46.8151 44.8044 46.8153 44.6183 46.8153C44.6032 46.8152 44.5315 46.8152 44.5146 46.8152Z" fill="#F6C358"/>
<path d="M29.6538 45.9739V50.9165C29.4268 50.8127 29.2127 50.7024 29.0052 50.5856C29.0052 50.5856 28.9987 50.5856 28.9987 50.5792C28.7717 50.469 28.5576 50.3458 28.3566 50.216V45.2734C28.5576 45.4031 28.7717 45.5264 28.9987 45.6367C28.9987 45.6432 29.0052 45.6432 29.0052 45.6432C29.2127 45.7599 29.4268 45.8701 29.6538 45.9739Z" fill="#DC8744"/>
<path d="M33.5456 47.3228V52.2654C33.3251 52.207 33.1046 52.1486 32.897 52.0903H32.8905C32.67 52.0254 32.4624 51.9606 32.2484 51.8957V46.9531C32.4624 47.018 32.67 47.0829 32.8905 47.1477H32.897C33.1046 47.206 33.3251 47.2644 33.5456 47.3228Z" fill="#DC8744"/>
<path d="M37.4374 48.0821V53.0246C37.2168 52.9987 37.0028 52.9598 36.7888 52.9274H36.7823C36.5618 52.8949 36.3542 52.856 36.1402 52.8171V47.8745C36.3542 47.9135 36.5618 47.9523 36.7823 47.9847H36.7888C37.0028 48.0172 37.2168 48.0561 37.4374 48.0821Z" fill="#DC8744"/>
<path d="M41.3292 48.4776V53.4203C41.1087 53.4073 40.8946 53.3944 40.6806 53.3748H40.6741C40.4536 53.3619 40.2461 53.3423 40.032 53.3229V48.3804C40.2461 48.3998 40.4536 48.4193 40.6741 48.4322H40.6806C40.8946 48.4516 41.1087 48.4646 41.3292 48.4776Z" fill="#DC8744"/>
<path d="M45.221 48.5684V53.5109C45.0069 53.5174 44.7929 53.5174 44.5724 53.5174H44.5659C44.3454 53.5174 44.1378 53.5174 43.9238 53.5109V48.5684C44.1378 48.5748 44.3454 48.5748 44.5659 48.5748H44.5724C44.7929 48.5748 45.0069 48.5748 45.221 48.5684Z" fill="#DC8744"/>
<path d="M49.1128 48.3804V53.3229C48.8988 53.3423 48.6847 53.3619 48.4642 53.3748H48.4577C48.2437 53.3943 48.0361 53.4073 47.8156 53.4203V48.4776C48.0361 48.4646 48.2437 48.4517 48.4577 48.4322H48.4642C48.6846 48.4193 48.8988 48.3998 49.1128 48.3804Z" fill="#DC8744"/>
<path d="M53.0046 47.8745V52.8171C52.7905 52.856 52.5765 52.8949 52.356 52.9274H52.3495C52.1354 52.9598 51.9279 52.9986 51.7074 53.0246V48.0821C51.9279 48.0561 52.1354 48.0172 52.3495 47.9847H52.356C52.5765 47.9523 52.7905 47.9135 53.0046 47.8745Z" fill="#DC8744"/>
<path d="M56.8964 46.9531V51.8957C56.6823 51.9606 56.4683 52.0254 56.2478 52.0903H56.2413C56.0337 52.1486 55.8197 52.207 55.5992 52.2654V47.3228C55.8197 47.2645 56.0337 47.2061 56.2413 47.1476H56.2478C56.4682 47.0829 56.6822 47.018 56.8964 46.9531Z" fill="#DC8744"/>
<path d="M60.7882 45.2603V50.2158C60.5871 50.3391 60.373 50.4687 60.1396 50.5855C60.1396 50.5855 60.1331 50.5855 60.1331 50.592C59.932 50.7023 59.718 50.8061 59.491 50.9163V45.9738C59.718 45.8635 59.932 45.7597 60.1331 45.643C60.3666 45.5262 60.5806 45.3965 60.7882 45.2603Z" fill="#DC8744"/>
<path d="M55.8618 34.7808V39.7233C55.8618 40.8065 55.064 41.8249 53.65 42.72C53.449 42.8433 53.2349 42.973 53.0014 43.0898C53.0014 43.0898 52.9949 43.0898 52.9949 43.0963C52.7939 43.2066 52.5798 43.3104 52.3528 43.4206C51.5939 43.7774 50.7182 44.1082 49.7583 44.4C49.5442 44.4649 49.3301 44.5297 49.1097 44.5946H49.1032C48.8956 44.653 48.6816 44.7113 48.4611 44.7697C47.6438 44.9773 46.7811 45.1653 45.8665 45.3211C45.6525 45.36 45.4384 45.3989 45.2179 45.4314H45.2114C44.9974 45.4638 44.7899 45.5026 44.5693 45.5286C43.7326 45.6518 42.8699 45.7493 41.9748 45.827C41.7607 45.8464 41.5466 45.866 41.3262 45.8789H41.3197C41.1057 45.8984 40.8981 45.9114 40.6776 45.9244C39.8344 45.9762 38.9652 46.0087 38.083 46.0152C37.869 46.0216 37.6549 46.0216 37.4344 46.0216H37.4279C37.2074 46.0216 36.9999 46.0216 36.7858 46.0152C35.9037 46.0087 35.0345 45.9762 34.1913 45.9244C33.9707 45.9114 33.7567 45.8985 33.5427 45.8789H33.5362C33.3157 45.866 33.1081 45.8464 32.8941 45.827C31.9989 45.7492 31.1363 45.6518 30.2995 45.5286C30.079 45.5027 29.865 45.4638 29.6509 45.4314H29.6444C29.4239 45.399 29.2164 45.36 29.0023 45.3211C28.0877 45.1653 27.2251 44.9773 26.4078 44.7697C26.1872 44.7113 25.9667 44.653 25.7592 44.5946H25.7527C25.5322 44.5297 25.3246 44.4649 25.1106 44.4C24.1506 44.1082 23.2749 43.7774 22.516 43.4206C22.289 43.3169 22.075 43.2066 21.8674 43.0898C21.8674 43.0898 21.8609 43.0898 21.8609 43.0833C21.6339 42.9731 21.4199 42.8499 21.2188 42.7201C19.8043 41.8314 19 40.8065 19 39.7233V34.7808H55.8618V34.7808Z" fill="#F6C358"/>
<path d="M55.8618 34.7807C55.8618 35.864 55.064 36.8823 53.65 37.7645C53.4425 37.9006 53.2284 38.0304 52.9949 38.1472C52.7938 38.2639 52.5797 38.3677 52.3527 38.478C51.5938 38.8347 50.7181 39.1591 49.7582 39.4574C49.5441 39.5222 49.33 39.5872 49.1096 39.6519H49.1031C48.8955 39.7103 48.6815 39.7688 48.461 39.827C47.6437 40.0347 46.781 40.2228 45.8664 40.3785C45.6524 40.4175 45.4384 40.4563 45.2178 40.4887H45.2113C44.9973 40.5212 44.7898 40.5601 44.5692 40.586C43.7325 40.7093 42.8698 40.8065 41.9747 40.8844C41.7606 40.9039 41.5465 40.9233 41.3261 40.9363H41.3196C41.1056 40.9557 40.898 40.9687 40.6775 40.9817C39.8343 41.0336 38.9651 41.0661 38.0829 41.0725C37.8689 41.079 37.6549 41.079 37.4343 41.079H37.4278C37.2073 41.079 36.9998 41.079 36.7857 41.0725C35.9036 41.0662 35.0344 41.0336 34.1912 40.9817C33.9707 40.9687 33.7566 40.9557 33.5426 40.9363H33.5361C33.3156 40.9233 33.108 40.9039 32.894 40.8844C31.9988 40.8065 31.1362 40.7093 30.2994 40.586C30.0789 40.5601 29.8649 40.5212 29.6508 40.4887H29.6443C29.4238 40.4563 29.2163 40.4175 29.0022 40.3785C28.0876 40.2228 27.225 40.0347 26.4077 39.827C26.1871 39.7688 25.9666 39.7103 25.7591 39.6519H25.7526C25.5321 39.5872 25.3245 39.5222 25.1105 39.4574C24.1505 39.1655 23.2748 38.8347 22.5159 38.478C22.2889 38.3742 22.0749 38.2639 21.8673 38.1472C21.8673 38.1472 21.8608 38.1472 21.8608 38.1408C21.6338 38.0304 21.4198 37.9072 21.2187 37.7775C19.8043 36.8888 19 35.864 19 34.7807C19 31.3041 27.2571 28.4824 37.4341 28.4824C47.6112 28.4824 55.8618 31.3041 55.8618 34.7807Z" fill="#FCD462"/>
<path d="M37.3786 39.319C37.1939 39.319 37.0183 39.3188 36.8372 39.3136C35.9859 39.3067 35.1451 39.2772 34.299 39.2254C34.0938 39.2131 33.8979 39.2016 33.7019 39.1836L33.6223 39.1764H33.5896C33.4229 39.1658 33.2635 39.151 33.1009 39.1363C32.1433 39.0527 31.3286 38.959 30.556 38.8449C30.3782 38.8231 30.2556 38.8031 30.1335 38.7834L29.7789 38.729C29.6486 38.7078 29.3174 38.6471 29.3174 38.6471C28.48 38.5047 27.6766 38.334 26.8406 38.1214C26.645 38.0698 26.4342 38.014 26.2354 37.9581L25.6218 37.7733C24.8908 37.551 24.2193 37.3073 23.6203 37.0463V37.0394L22.6381 36.5619L22.3273 36.3875H22.3155C22.268 36.3591 22.2204 36.3296 22.1726 36.2989C21.1253 35.6404 20.76 35.0715 20.76 34.7811C20.76 33.1812 27.0905 30.2427 37.4342 30.2427C47.7736 30.2427 54.1017 33.1811 54.1017 34.7811C54.1017 35.0703 53.7393 35.6344 52.7183 36.2718C52.5021 36.4127 52.3499 36.5021 52.207 36.5737L52.1119 36.625C51.9516 36.7181 51.7799 36.7997 51.5992 36.8874C50.9561 37.19 50.1598 37.4899 49.236 37.7768L48.6264 37.9582C48.4276 38.0141 48.223 38.0699 48.0122 38.1254C47.1917 38.334 46.3882 38.5047 45.5712 38.6436C45.3939 38.6756 45.2301 38.7058 45.0659 38.7318L44.7155 38.7856C44.6001 38.8045 44.4847 38.8241 44.3646 38.8381C43.5387 38.959 42.7244 39.0527 41.8217 39.1311C41.6361 39.148 41.4559 39.1647 41.2723 39.1764L41.1597 39.1836C40.9641 39.2013 40.7738 39.2131 40.5722 39.2251C39.7231 39.2772 38.8823 39.3067 38.0694 39.3128C37.8514 39.3188 37.666 39.319 37.479 39.319C37.4643 39.319 37.395 39.319 37.3786 39.319Z" fill="#F6C358"/>
<path d="M22.5155 38.4778V43.4204C22.2885 43.3167 22.0745 43.2063 21.8669 43.0896C21.8669 43.0896 21.8605 43.0896 21.8605 43.0831C21.6335 42.9729 21.4194 42.8497 21.2184 42.7199V37.7773C21.4194 37.907 21.6335 38.0303 21.8605 38.1406C21.8605 38.1471 21.8669 38.1471 21.8669 38.1471C22.0745 38.2638 22.2885 38.374 22.5155 38.4778Z" fill="#DC8744"/>
<path d="M26.4074 39.8267V44.7693C26.1869 44.7109 25.9663 44.6525 25.7588 44.5942H25.7523C25.5318 44.5293 25.3242 44.4645 25.1102 44.3996V39.457C25.3242 39.5219 25.5318 39.5868 25.7523 39.6515H25.7588C25.9663 39.71 26.1869 39.7684 26.4074 39.8267Z" fill="#DC8744"/>
<path d="M30.2991 40.586V45.5285C30.0786 45.5026 29.8646 45.4637 29.6505 45.4313H29.6441C29.4235 45.3989 29.216 45.3599 29.002 45.321V40.3784C29.216 40.4174 29.4235 40.4562 29.6441 40.4886H29.6505C29.8646 40.5211 30.0786 40.5601 30.2991 40.586Z" fill="#DC8744"/>
<path d="M34.191 40.9815V45.9242C33.9705 45.9112 33.7564 45.8983 33.5424 45.8787H33.5359C33.3154 45.8658 33.1078 45.8462 32.8938 45.8268V40.8843C33.1078 40.9037 33.3154 40.9232 33.5359 40.9361H33.5424C33.7564 40.9556 33.9704 40.9686 34.191 40.9815Z" fill="#DC8744"/>
<path d="M38.0827 41.0723V46.0148C37.8687 46.0213 37.6547 46.0213 37.4341 46.0213H37.4277C37.2071 46.0213 36.9996 46.0213 36.7856 46.0148V41.0723C36.9996 41.0787 37.2071 41.0787 37.4277 41.0787H37.4341C37.6547 41.0787 37.8687 41.0787 38.0827 41.0723Z" fill="#DC8744"/>
<path d="M41.9746 40.8843V45.8268C41.7606 45.8462 41.5464 45.8658 41.326 45.8787H41.3195C41.1055 45.8982 40.8979 45.9112 40.6774 45.9242V40.9815C40.8979 40.9686 41.1055 40.9556 41.3195 40.9361H41.326C41.5464 40.9232 41.7605 40.9038 41.9746 40.8843Z" fill="#DC8744"/>
<path d="M45.8664 40.3784V45.321C45.6523 45.3599 45.4383 45.3988 45.2178 45.4313H45.2113C44.9972 45.4637 44.7897 45.5025 44.5692 45.5285V40.586C44.7897 40.56 44.9972 40.5211 45.2113 40.4886H45.2178C45.4383 40.4563 45.6523 40.4174 45.8664 40.3784Z" fill="#DC8744"/>
<path d="M49.7582 39.457V44.3996C49.5441 44.4645 49.33 44.5293 49.1096 44.5942H49.1031C48.8955 44.6526 48.6815 44.7109 48.461 44.7693V39.8267C48.6815 39.7684 48.8955 39.71 49.1031 39.6515H49.1096C49.33 39.5868 49.544 39.5219 49.7582 39.457Z" fill="#DC8744"/>
<path d="M53.6499 37.7642V42.7197C53.4489 42.843 53.2348 42.9726 53.0013 43.0894C53.0013 43.0894 52.9949 43.0894 52.9949 43.0959C52.7938 43.2062 52.5798 43.31 52.3528 43.4203V38.4777C52.5798 38.3674 52.7938 38.2636 52.9949 38.1469C53.2283 38.0301 53.4424 37.9004 53.6499 37.7642Z" fill="#DC8744"/>
<path d="M63 27.2852V32.2277C63 33.3109 62.2022 34.3293 60.7882 35.2244C60.5872 35.3477 60.3731 35.4774 60.1396 35.5942C60.1396 35.5942 60.1332 35.5942 60.1332 35.6006C59.9321 35.711 59.718 35.8148 59.491 35.925C58.7321 36.2818 57.8564 36.6126 56.8965 36.9044C56.6824 36.9693 56.4684 37.0341 56.2479 37.099H56.2414C56.0338 37.1573 55.8198 37.2157 55.5993 37.2741C54.782 37.4817 53.9193 37.6697 53.0047 37.8255C52.7907 37.8644 52.5767 37.9033 52.3561 37.9358H52.3496C52.1356 37.9682 51.9281 38.007 51.7075 38.033C50.8708 38.1562 50.0081 38.2537 49.113 38.3314C48.8989 38.3508 48.6849 38.3703 48.4644 38.3833H48.4579C48.2439 38.4028 48.0363 38.4158 47.8158 38.4288C46.9726 38.4806 46.1034 38.5131 45.2212 38.5196C45.0072 38.526 44.7931 38.526 44.5726 38.526H44.5661C44.3456 38.526 44.1381 38.526 43.924 38.5196C43.0419 38.5131 42.1727 38.4806 41.3295 38.4288C41.1089 38.4158 40.8949 38.4029 40.6809 38.3833H40.6744C40.4539 38.3703 40.2463 38.3508 40.0323 38.3314C39.1371 38.2536 38.2745 38.1562 37.4377 38.033C37.2172 38.0071 37.0032 37.9682 36.7891 37.9358H36.7826C36.5621 37.9034 36.3546 37.8644 36.1405 37.8255C35.2259 37.6697 34.3633 37.4817 33.546 37.2741C33.3254 37.2157 33.1049 37.1573 32.8974 37.099H32.8909C32.6704 37.0341 32.4628 36.9693 32.2488 36.9044C31.2888 36.6126 30.4131 36.2818 29.6542 35.925C29.4272 35.8213 29.2132 35.711 29.0056 35.5942C29.0056 35.5942 28.9991 35.5942 28.9991 35.5877C28.7721 35.4775 28.5581 35.3543 28.357 35.2245C26.943 34.3359 26.1387 33.311 26.1387 32.2278V27.2852H63Z" fill="#F6C358"/>
<path d="M63 27.2845C63 28.3678 62.2022 29.3861 60.7882 30.2683C60.5807 30.4044 60.3666 30.5342 60.1331 30.6511C59.932 30.7678 59.7179 30.8715 59.4909 30.9818C58.732 31.3386 57.8564 31.6629 56.8964 31.9612C56.6823 32.026 56.4683 32.091 56.2478 32.1558H56.2413C56.0337 32.2142 55.8197 32.2727 55.5992 32.3309C54.7819 32.5386 53.9192 32.7267 53.0046 32.8824C52.7906 32.9214 52.5766 32.9602 52.356 32.9926H52.3495C52.1355 33.0251 51.928 33.064 51.7074 33.0899C50.8707 33.2132 50.008 33.3105 49.1129 33.3883C48.8988 33.4078 48.6848 33.4272 48.4643 33.4402H48.4578C48.2438 33.4596 48.0362 33.4726 47.8157 33.4856C46.9725 33.5376 46.1033 33.57 45.2211 33.5765C45.0071 33.5829 44.7931 33.5829 44.5725 33.5829H44.566C44.3455 33.5829 44.138 33.5829 43.9239 33.5765C43.0418 33.5701 42.1726 33.5376 41.3294 33.4856C41.1089 33.4726 40.8948 33.4597 40.6808 33.4402H40.6743C40.4538 33.4272 40.2462 33.4078 40.0322 33.3883C39.137 33.3105 38.2744 33.2132 37.4376 33.0899C37.2171 33.064 37.0031 33.0251 36.789 32.9926H36.7825C36.562 32.9602 36.3545 32.9214 36.1404 32.8824C35.2258 32.7267 34.3632 32.5386 33.5459 32.3309C33.3254 32.2727 33.1048 32.2142 32.8973 32.1558H32.8908C32.6703 32.0911 32.4627 32.0261 32.2487 31.9612C31.2887 31.6693 30.413 31.3386 29.6541 30.9818C29.4271 30.878 29.2131 30.7678 29.0055 30.6511C29.0055 30.6511 28.999 30.6511 28.999 30.6446C28.772 30.5342 28.558 30.411 28.3569 30.2813C26.943 29.3927 26.1386 28.3679 26.1386 27.2846C26.1386 23.808 34.3956 20.9863 44.5727 20.9863C54.7498 20.9863 63 23.8079 63 27.2845Z" fill="#FCD462"/>
<path d="M44.5146 31.8229C44.3316 31.8229 44.1571 31.8227 43.9779 31.8172C43.1243 31.8103 42.2834 31.7808 41.4372 31.729C41.2307 31.7167 41.0354 31.7049 40.8402 31.6872L40.7605 31.68H40.7278C40.5612 31.6694 40.4018 31.6546 40.2392 31.6399C39.2827 31.5563 38.468 31.4626 37.6937 31.3488C37.519 31.3273 37.3967 31.307 37.275 31.2876L36.9172 31.2326C36.7877 31.2116 36.4548 31.1507 36.4548 31.1507C35.6181 31.0083 34.8146 30.8376 33.9789 30.625C33.7833 30.5734 33.5725 30.5176 33.3742 30.4617L32.7572 30.2766C32.029 30.0551 31.3581 29.8111 30.7586 29.5501V29.5429L29.7772 29.066L29.4661 28.891H29.4535C29.4063 28.8629 29.359 28.8334 29.312 28.803C28.2635 28.1442 27.8983 27.5753 27.8983 27.2845C27.8983 25.6846 34.2288 22.7461 44.5724 22.7461C54.9119 22.7461 61.24 25.6845 61.24 27.2845C61.24 27.5738 60.8776 28.1378 59.8566 28.7752C59.6403 28.9161 59.4882 29.0055 59.3453 29.0771L59.2502 29.1284C59.0869 29.2232 58.9119 29.3063 58.7277 29.396C58.0949 29.6934 57.298 29.9933 56.3739 30.2806L55.7646 30.4617C55.5657 30.5176 55.3612 30.5734 55.1503 30.6289C54.3299 30.8375 53.5264 31.0082 52.7094 31.1471C52.5298 31.1798 52.3666 31.2096 52.203 31.2353L51.8495 31.2897C51.7346 31.3086 51.6201 31.3278 51.5006 31.3419C50.6762 31.4628 49.8612 31.5561 48.96 31.6346C48.7729 31.6518 48.5937 31.6682 48.4103 31.6799L48.298 31.6871C48.1029 31.7048 47.9136 31.7166 47.7127 31.7283C46.8613 31.7807 46.0206 31.8103 45.2076 31.8163C44.9885 31.8226 44.8042 31.8228 44.6181 31.8228C44.6032 31.8229 44.5315 31.8229 44.5146 31.8229Z" fill="#F6C358"/>
<path d="M29.6538 30.9822V35.9248C29.4268 35.821 29.2127 35.7107 29.0052 35.5939C29.0052 35.5939 28.9987 35.5939 28.9987 35.5875C28.7717 35.4773 28.5576 35.3541 28.3566 35.2243V30.2817C28.5576 30.4114 28.7717 30.5347 28.9987 30.645C28.9987 30.6515 29.0052 30.6515 29.0052 30.6515C29.2127 30.7682 29.4268 30.8785 29.6538 30.9822Z" fill="#DC8744"/>
<path d="M33.5456 32.3311V37.2737C33.3251 37.2153 33.1046 37.1569 32.897 37.0986H32.8905C32.67 37.0337 32.4624 36.9689 32.2484 36.904V31.9614C32.4624 32.0263 32.67 32.0912 32.8905 32.156H32.897C33.1046 32.2144 33.3251 32.2728 33.5456 32.3311Z" fill="#DC8744"/>
<path d="M37.4374 33.0899V38.0325C37.2168 38.0065 37.0028 37.9676 36.7888 37.9352H36.7823C36.5618 37.9028 36.3542 37.8638 36.1402 37.8249V32.8823C36.3542 32.9213 36.5618 32.9601 36.7823 32.9925H36.7888C37.0028 33.025 37.2168 33.064 37.4374 33.0899Z" fill="#DC8744"/>
<path d="M41.3292 33.4854V38.4281C41.1087 38.4151 40.8946 38.4022 40.6806 38.3826H40.6741C40.4536 38.3697 40.2461 38.3501 40.032 38.3307V33.3882C40.2461 33.4076 40.4536 33.4271 40.6741 33.44H40.6806C40.8946 33.4595 41.1087 33.4725 41.3292 33.4854Z" fill="#DC8744"/>
<path d="M45.221 33.5767V38.5192C45.0069 38.5257 44.7929 38.5257 44.5724 38.5257H44.5659C44.3454 38.5257 44.1378 38.5257 43.9238 38.5192V33.5767C44.1378 33.5831 44.3454 33.5831 44.5659 33.5831H44.5724C44.7929 33.5831 45.0069 33.5831 45.221 33.5767Z" fill="#DC8744"/>
<path d="M49.1128 33.3887V38.3312C48.8988 38.3506 48.6847 38.3702 48.4642 38.3831H48.4577C48.2437 38.4026 48.0361 38.4156 47.8156 38.4286V33.4859C48.0361 33.473 48.2437 33.46 48.4577 33.4405H48.4642C48.6846 33.4275 48.8988 33.4081 49.1128 33.3887Z" fill="#DC8744"/>
<path d="M53.0046 32.8828V37.8254C52.7905 37.8643 52.5765 37.9032 52.356 37.9357H52.3495C52.1354 37.9681 51.9279 38.0069 51.7074 38.0329V33.0903C51.9279 33.0643 52.1354 33.0254 52.3495 32.9929H52.356C52.5765 32.9606 52.7905 32.9217 53.0046 32.8828Z" fill="#DC8744"/>
<path d="M56.8964 31.9614V36.904C56.6823 36.9689 56.4683 37.0337 56.2478 37.0986H56.2413C56.0337 37.1569 55.8197 37.2153 55.5992 37.2737V32.3311C55.8197 32.2728 56.0337 32.2144 56.2413 32.1559H56.2478C56.4682 32.0912 56.6822 32.0263 56.8964 31.9614Z" fill="#DC8744"/>
<path d="M60.7882 30.2686V35.2241C60.5871 35.3474 60.373 35.477 60.1396 35.5938C60.1396 35.5938 60.1331 35.5938 60.1331 35.6003C59.932 35.7106 59.718 35.8144 59.491 35.9247V30.9821C59.718 30.8718 59.932 30.768 60.1331 30.6513C60.3666 30.5344 60.5806 30.4047 60.7882 30.2686Z" fill="#DC8744"/>
</g>
<defs>
<linearGradient id="paint0_linear" x1="82" y1="-4.88758e-06" x2="4.88758e-06" y2="82" gradientUnits="userSpaceOnUse">
<stop stop-color="#D1A065"/>
<stop offset="1" stop-color="#A26644"/>
</linearGradient>
<clipPath id="clip0">
<rect width="44" height="44" fill="white" transform="translate(19 19)"/>
</clipPath>
</defs>
</svg>
