<svg width="82" height="82" viewBox="0 0 82 82" fill="none" xmlns="http://www.w3.org/2000/svg">
<rect x="1" y="1" width="80" height="80" rx="40" fill="url(#paint0_linear)" fill-opacity="0.5" stroke="#CECECE" stroke-width="2"/>
<path d="M44.1439 45.4753C44.0022 46.2795 43.5914 46.9174 42.9115 47.3889C42.2599 47.8603 41.5233 48.0267 40.7017 47.8881C39.9084 47.7494 39.271 47.3611 38.7893 46.7233C38.3077 46.0577 38.1377 45.3366 38.2794 44.5601C38.3077 44.3937 38.3219 44.2412 38.3219 44.1025C38.3502 43.9638 38.3644 43.8113 38.3644 43.6449C38.3927 43.4508 38.421 43.2982 38.4494 43.1873C38.5343 42.2721 38.7185 41.4956 39.0018 40.8577C39.4551 39.7761 40.305 38.6391 41.5516 37.4466C41.7499 37.2524 42.1324 36.9058 42.699 36.4066C43.294 35.8796 43.7331 35.4636 44.0164 35.1586C44.6114 34.5762 44.9513 34.1186 45.0363 33.7858C45.093 33.5917 45.0222 33.3282 44.8238 32.9954C44.6255 32.6626 44.2289 32.3853 43.6339 32.1634C43.039 31.9138 42.2882 31.8029 41.3816 31.8306C40.5317 31.8306 39.8092 31.9693 39.2143 32.2466C38.6477 32.4962 38.251 32.7735 38.0244 33.0786V33.3282C37.9961 33.3837 37.9819 33.453 37.9819 33.5362V33.9938C37.9819 34.4098 37.9536 34.7703 37.8969 35.0754C37.7836 35.8519 37.4011 36.4898 36.7495 36.989C36.0979 37.4604 35.3613 37.6407 34.5397 37.5298C33.7464 37.4188 33.0948 37.0444 32.5848 36.4066C32.1032 35.7687 31.9191 35.0476 32.0324 34.2434C32.0324 34.1602 32.0465 34.0215 32.0749 33.8274V32.9954C32.1315 31.9693 32.3724 31.0818 32.7973 30.333C33.5906 28.9186 34.7805 27.8648 36.367 27.1714C37.9252 26.4504 39.5401 26.0621 41.2116 26.0067C42.9115 25.9512 44.5689 26.2424 46.1837 26.8802C47.7986 27.5181 49.0452 28.5581 49.9234 30.0002C51 31.8029 51.2691 33.6055 50.7309 35.4082C50.3626 36.6562 49.5551 37.918 48.3086 39.1937L46.9062 40.4833C46.3112 41.038 45.9146 41.4124 45.7163 41.6065C45.0363 42.2444 44.6114 42.7436 44.4414 43.1041C44.413 43.215 44.3705 43.4369 44.3139 43.7697C44.2006 44.8513 44.1439 45.4198 44.1439 45.4753ZM43.2515 51.0496C43.8464 51.6043 44.1439 52.2838 44.1439 53.088C44.1439 53.8923 43.8464 54.5856 43.2515 55.168C42.6848 55.7227 41.9907 56 41.1691 56C40.3475 56 39.6393 55.7227 39.0443 55.168C38.4777 54.5856 38.1944 53.8923 38.1944 53.088C38.1944 52.2838 38.4777 51.6043 39.0443 51.0496C39.6393 50.4672 40.3475 50.176 41.1691 50.176C41.9907 50.176 42.6848 50.4672 43.2515 51.0496Z" fill="#CECECE"/>
<defs>
<linearGradient id="paint0_linear" x1="41" y1="0" x2="41" y2="82" gradientUnits="userSpaceOnUse">
<stop stop-color="#A6A6A6"/>
<stop offset="1" stop-color="#8E8E8E"/>
</linearGradient>
</defs>
</svg>
